G04 #@! TF.GenerationSoftware,KiCad,Pcbnew,(5.1.2-1)-1*
G04 #@! TF.CreationDate,2020-05-24T08:12:45-05:00*
G04 #@! TF.ProjectId,therick48.16_top_plate,74686572-6963-46b3-9438-2e31365f746f,rev?*
G04 #@! TF.SameCoordinates,Original*
G04 #@! TF.FileFunction,Soldermask,Top*
G04 #@! TF.FilePolarity,Negative*
%FSLAX46Y46*%
G04 Gerber Fmt 4.6, Leading zero omitted, Abs format (unit mm)*
G04 Created by KiCad (PCBNEW (5.1.2-1)-1) date 2020-05-24 08:12:45*
%MOMM*%
%LPD*%
G04 APERTURE LIST*
%ADD10C,0.100000*%
G04 APERTURE END LIST*
D10*
G36*
X273731552Y-93646331D02*
G01*
X273813627Y-93680328D01*
X273813629Y-93680329D01*
X273850813Y-93705175D01*
X273887495Y-93729685D01*
X273950315Y-93792505D01*
X273999672Y-93866373D01*
X274033669Y-93948448D01*
X274051000Y-94035579D01*
X274051000Y-94124421D01*
X274033669Y-94211552D01*
X273999672Y-94293627D01*
X273999671Y-94293629D01*
X273950314Y-94367496D01*
X273887496Y-94430314D01*
X273813629Y-94479671D01*
X273813628Y-94479672D01*
X273813627Y-94479672D01*
X273731552Y-94513669D01*
X273644421Y-94531000D01*
X273555579Y-94531000D01*
X273468448Y-94513669D01*
X273386373Y-94479672D01*
X273386372Y-94479672D01*
X273386371Y-94479671D01*
X273312504Y-94430314D01*
X273249686Y-94367496D01*
X273200329Y-94293629D01*
X273200328Y-94293627D01*
X273166331Y-94211552D01*
X273149000Y-94124421D01*
X273149000Y-94035579D01*
X273166331Y-93948448D01*
X273200328Y-93866373D01*
X273249685Y-93792505D01*
X273312505Y-93729685D01*
X273349187Y-93705175D01*
X273386371Y-93680329D01*
X273386373Y-93680328D01*
X273468448Y-93646331D01*
X273555579Y-93629000D01*
X273644421Y-93629000D01*
X273731552Y-93646331D01*
X273731552Y-93646331D01*
G37*
G36*
X337888912Y-89323213D02*
G01*
X338111186Y-89367426D01*
X338529941Y-89540880D01*
X338906811Y-89792696D01*
X339227313Y-90113198D01*
X339479129Y-90490068D01*
X339652583Y-90908823D01*
X339741009Y-91353371D01*
X339741009Y-91806629D01*
X339652583Y-92251177D01*
X339479129Y-92669932D01*
X339227313Y-93046802D01*
X338906811Y-93367304D01*
X338529941Y-93619120D01*
X338111186Y-93792574D01*
X337888912Y-93836787D01*
X337666639Y-93881000D01*
X337213379Y-93881000D01*
X336991106Y-93836787D01*
X336768832Y-93792574D01*
X336350077Y-93619120D01*
X335973207Y-93367304D01*
X335652705Y-93046802D01*
X335400889Y-92669932D01*
X335227435Y-92251177D01*
X335139009Y-91806629D01*
X335139009Y-91353371D01*
X335227435Y-90908823D01*
X335400889Y-90490068D01*
X335652705Y-90113198D01*
X335973207Y-89792696D01*
X336350077Y-89540880D01*
X336768832Y-89367426D01*
X336991106Y-89323213D01*
X337213379Y-89279000D01*
X337666639Y-89279000D01*
X337888912Y-89323213D01*
X337888912Y-89323213D01*
G37*
G36*
X299888912Y-89323213D02*
G01*
X300111186Y-89367426D01*
X300529941Y-89540880D01*
X300906811Y-89792696D01*
X301227313Y-90113198D01*
X301479129Y-90490068D01*
X301652583Y-90908823D01*
X301741009Y-91353371D01*
X301741009Y-91806629D01*
X301652583Y-92251177D01*
X301479129Y-92669932D01*
X301227313Y-93046802D01*
X300906811Y-93367304D01*
X300529941Y-93619120D01*
X300111186Y-93792574D01*
X299888912Y-93836787D01*
X299666639Y-93881000D01*
X299213379Y-93881000D01*
X298991106Y-93836787D01*
X298768832Y-93792574D01*
X298350077Y-93619120D01*
X297973207Y-93367304D01*
X297652705Y-93046802D01*
X297400889Y-92669932D01*
X297227435Y-92251177D01*
X297139009Y-91806629D01*
X297139009Y-91353371D01*
X297227435Y-90908823D01*
X297400889Y-90490068D01*
X297652705Y-90113198D01*
X297973207Y-89792696D01*
X298350077Y-89540880D01*
X298768832Y-89367426D01*
X298991106Y-89323213D01*
X299213379Y-89279000D01*
X299666639Y-89279000D01*
X299888912Y-89323213D01*
X299888912Y-89323213D01*
G37*
G36*
X255428903Y-89323213D02*
G01*
X255651177Y-89367426D01*
X256069932Y-89540880D01*
X256446802Y-89792696D01*
X256767304Y-90113198D01*
X257019120Y-90490068D01*
X257192574Y-90908823D01*
X257281000Y-91353371D01*
X257281000Y-91806629D01*
X257192574Y-92251177D01*
X257019120Y-92669932D01*
X256767304Y-93046802D01*
X256446802Y-93367304D01*
X256069932Y-93619120D01*
X255651177Y-93792574D01*
X255428903Y-93836787D01*
X255206630Y-93881000D01*
X254753370Y-93881000D01*
X254531097Y-93836787D01*
X254308823Y-93792574D01*
X253890068Y-93619120D01*
X253513198Y-93367304D01*
X253192696Y-93046802D01*
X252940880Y-92669932D01*
X252767426Y-92251177D01*
X252679000Y-91806629D01*
X252679000Y-91353371D01*
X252767426Y-90908823D01*
X252940880Y-90490068D01*
X253192696Y-90113198D01*
X253513198Y-89792696D01*
X253890068Y-89540880D01*
X254308823Y-89367426D01*
X254531097Y-89323213D01*
X254753370Y-89279000D01*
X255206630Y-89279000D01*
X255428903Y-89323213D01*
X255428903Y-89323213D01*
G37*
G36*
X217428903Y-89323213D02*
G01*
X217651177Y-89367426D01*
X218069932Y-89540880D01*
X218446802Y-89792696D01*
X218767304Y-90113198D01*
X219019120Y-90490068D01*
X219192574Y-90908823D01*
X219281000Y-91353371D01*
X219281000Y-91806629D01*
X219192574Y-92251177D01*
X219019120Y-92669932D01*
X218767304Y-93046802D01*
X218446802Y-93367304D01*
X218069932Y-93619120D01*
X217651177Y-93792574D01*
X217428903Y-93836787D01*
X217206630Y-93881000D01*
X216753370Y-93881000D01*
X216531097Y-93836787D01*
X216308823Y-93792574D01*
X215890068Y-93619120D01*
X215513198Y-93367304D01*
X215192696Y-93046802D01*
X214940880Y-92669932D01*
X214767426Y-92251177D01*
X214679000Y-91806629D01*
X214679000Y-91353371D01*
X214767426Y-90908823D01*
X214940880Y-90490068D01*
X215192696Y-90113198D01*
X215513198Y-89792696D01*
X215890068Y-89540880D01*
X216308823Y-89367426D01*
X216531097Y-89323213D01*
X216753370Y-89279000D01*
X217206630Y-89279000D01*
X217428903Y-89323213D01*
X217428903Y-89323213D01*
G37*
G36*
X198428903Y-89323213D02*
G01*
X198651177Y-89367426D01*
X199069932Y-89540880D01*
X199446802Y-89792696D01*
X199767304Y-90113198D01*
X200019120Y-90490068D01*
X200192574Y-90908823D01*
X200281000Y-91353371D01*
X200281000Y-91806629D01*
X200192574Y-92251177D01*
X200019120Y-92669932D01*
X199767304Y-93046802D01*
X199446802Y-93367304D01*
X199069932Y-93619120D01*
X198651177Y-93792574D01*
X198428903Y-93836787D01*
X198206630Y-93881000D01*
X197753370Y-93881000D01*
X197531097Y-93836787D01*
X197308823Y-93792574D01*
X196890068Y-93619120D01*
X196513198Y-93367304D01*
X196192696Y-93046802D01*
X195940880Y-92669932D01*
X195767426Y-92251177D01*
X195679000Y-91806629D01*
X195679000Y-91353371D01*
X195767426Y-90908823D01*
X195940880Y-90490068D01*
X196192696Y-90113198D01*
X196513198Y-89792696D01*
X196890068Y-89540880D01*
X197308823Y-89367426D01*
X197531097Y-89323213D01*
X197753370Y-89279000D01*
X198206630Y-89279000D01*
X198428903Y-89323213D01*
X198428903Y-89323213D01*
G37*
G36*
X122428903Y-89323213D02*
G01*
X122651177Y-89367426D01*
X123069932Y-89540880D01*
X123446802Y-89792696D01*
X123767304Y-90113198D01*
X124019120Y-90490068D01*
X124192574Y-90908823D01*
X124281000Y-91353371D01*
X124281000Y-91806629D01*
X124192574Y-92251177D01*
X124019120Y-92669932D01*
X123767304Y-93046802D01*
X123446802Y-93367304D01*
X123069932Y-93619120D01*
X122651177Y-93792574D01*
X122428903Y-93836787D01*
X122206630Y-93881000D01*
X121753370Y-93881000D01*
X121531097Y-93836787D01*
X121308823Y-93792574D01*
X120890068Y-93619120D01*
X120513198Y-93367304D01*
X120192696Y-93046802D01*
X119940880Y-92669932D01*
X119767426Y-92251177D01*
X119679000Y-91806629D01*
X119679000Y-91353371D01*
X119767426Y-90908823D01*
X119940880Y-90490068D01*
X120192696Y-90113198D01*
X120513198Y-89792696D01*
X120890068Y-89540880D01*
X121308823Y-89367426D01*
X121531097Y-89323213D01*
X121753370Y-89279000D01*
X122206630Y-89279000D01*
X122428903Y-89323213D01*
X122428903Y-89323213D01*
G37*
G36*
X103428903Y-89323213D02*
G01*
X103651177Y-89367426D01*
X104069932Y-89540880D01*
X104446802Y-89792696D01*
X104767304Y-90113198D01*
X105019120Y-90490068D01*
X105192574Y-90908823D01*
X105281000Y-91353371D01*
X105281000Y-91806629D01*
X105192574Y-92251177D01*
X105019120Y-92669932D01*
X104767304Y-93046802D01*
X104446802Y-93367304D01*
X104069932Y-93619120D01*
X103651177Y-93792574D01*
X103428903Y-93836787D01*
X103206630Y-93881000D01*
X102753370Y-93881000D01*
X102531097Y-93836787D01*
X102308823Y-93792574D01*
X101890068Y-93619120D01*
X101513198Y-93367304D01*
X101192696Y-93046802D01*
X100940880Y-92669932D01*
X100767426Y-92251177D01*
X100679000Y-91806629D01*
X100679000Y-91353371D01*
X100767426Y-90908823D01*
X100940880Y-90490068D01*
X101192696Y-90113198D01*
X101513198Y-89792696D01*
X101890068Y-89540880D01*
X102308823Y-89367426D01*
X102531097Y-89323213D01*
X102753370Y-89279000D01*
X103206630Y-89279000D01*
X103428903Y-89323213D01*
X103428903Y-89323213D01*
G37*
G36*
X65428903Y-89323213D02*
G01*
X65651177Y-89367426D01*
X66069932Y-89540880D01*
X66446802Y-89792696D01*
X66767304Y-90113198D01*
X67019120Y-90490068D01*
X67192574Y-90908823D01*
X67281000Y-91353371D01*
X67281000Y-91806629D01*
X67192574Y-92251177D01*
X67019120Y-92669932D01*
X66767304Y-93046802D01*
X66446802Y-93367304D01*
X66069932Y-93619120D01*
X65651177Y-93792574D01*
X65428903Y-93836787D01*
X65206630Y-93881000D01*
X64753370Y-93881000D01*
X64531097Y-93836787D01*
X64308823Y-93792574D01*
X63890068Y-93619120D01*
X63513198Y-93367304D01*
X63192696Y-93046802D01*
X62940880Y-92669932D01*
X62767426Y-92251177D01*
X62679000Y-91806629D01*
X62679000Y-91353371D01*
X62767426Y-90908823D01*
X62940880Y-90490068D01*
X63192696Y-90113198D01*
X63513198Y-89792696D01*
X63890068Y-89540880D01*
X64308823Y-89367426D01*
X64531097Y-89323213D01*
X64753370Y-89279000D01*
X65206630Y-89279000D01*
X65428903Y-89323213D01*
X65428903Y-89323213D01*
G37*
G36*
X273731552Y-92396331D02*
G01*
X273813627Y-92430328D01*
X273813629Y-92430329D01*
X273850813Y-92455175D01*
X273887495Y-92479685D01*
X273950315Y-92542505D01*
X273999672Y-92616373D01*
X274033669Y-92698448D01*
X274051000Y-92785579D01*
X274051000Y-92874421D01*
X274033669Y-92961552D01*
X273999672Y-93043627D01*
X273999671Y-93043629D01*
X273950314Y-93117496D01*
X273887496Y-93180314D01*
X273813629Y-93229671D01*
X273813628Y-93229672D01*
X273813627Y-93229672D01*
X273731552Y-93263669D01*
X273644421Y-93281000D01*
X273555579Y-93281000D01*
X273468448Y-93263669D01*
X273386373Y-93229672D01*
X273386372Y-93229672D01*
X273386371Y-93229671D01*
X273312504Y-93180314D01*
X273249686Y-93117496D01*
X273200329Y-93043629D01*
X273200328Y-93043627D01*
X273166331Y-92961552D01*
X273149000Y-92874421D01*
X273149000Y-92785579D01*
X273166331Y-92698448D01*
X273200328Y-92616373D01*
X273249685Y-92542505D01*
X273312505Y-92479685D01*
X273349187Y-92455175D01*
X273386371Y-92430329D01*
X273386373Y-92430328D01*
X273468448Y-92396331D01*
X273555579Y-92379000D01*
X273644421Y-92379000D01*
X273731552Y-92396331D01*
X273731552Y-92396331D01*
G37*
G36*
X273731552Y-91146331D02*
G01*
X273813627Y-91180328D01*
X273813629Y-91180329D01*
X273887496Y-91229686D01*
X273950314Y-91292504D01*
X273990985Y-91353371D01*
X273999672Y-91366373D01*
X274033669Y-91448448D01*
X274051000Y-91535579D01*
X274051000Y-91624421D01*
X274033669Y-91711552D01*
X273999672Y-91793627D01*
X273999671Y-91793629D01*
X273950314Y-91867496D01*
X273887496Y-91930314D01*
X273813629Y-91979671D01*
X273813628Y-91979672D01*
X273813627Y-91979672D01*
X273731552Y-92013669D01*
X273644421Y-92031000D01*
X273555579Y-92031000D01*
X273468448Y-92013669D01*
X273386373Y-91979672D01*
X273386372Y-91979672D01*
X273386371Y-91979671D01*
X273312504Y-91930314D01*
X273249686Y-91867496D01*
X273200329Y-91793629D01*
X273200328Y-91793627D01*
X273166331Y-91711552D01*
X273149000Y-91624421D01*
X273149000Y-91535579D01*
X273166331Y-91448448D01*
X273200328Y-91366373D01*
X273209016Y-91353371D01*
X273249686Y-91292504D01*
X273312504Y-91229686D01*
X273386371Y-91180329D01*
X273386373Y-91180328D01*
X273468448Y-91146331D01*
X273555579Y-91129000D01*
X273644421Y-91129000D01*
X273731552Y-91146331D01*
X273731552Y-91146331D01*
G37*
G36*
X273731552Y-89896331D02*
G01*
X273813627Y-89930328D01*
X273813629Y-89930329D01*
X273887496Y-89979686D01*
X273950314Y-90042504D01*
X273997552Y-90113199D01*
X273999672Y-90116373D01*
X274033669Y-90198448D01*
X274051000Y-90285579D01*
X274051000Y-90374421D01*
X274033669Y-90461552D01*
X274021856Y-90490070D01*
X273999671Y-90543629D01*
X273950314Y-90617496D01*
X273887496Y-90680314D01*
X273813629Y-90729671D01*
X273813628Y-90729672D01*
X273813627Y-90729672D01*
X273731552Y-90763669D01*
X273644421Y-90781000D01*
X273555579Y-90781000D01*
X273468448Y-90763669D01*
X273386373Y-90729672D01*
X273386372Y-90729672D01*
X273386371Y-90729671D01*
X273312504Y-90680314D01*
X273249686Y-90617496D01*
X273200329Y-90543629D01*
X273178144Y-90490070D01*
X273166331Y-90461552D01*
X273149000Y-90374421D01*
X273149000Y-90285579D01*
X273166331Y-90198448D01*
X273200328Y-90116373D01*
X273202449Y-90113199D01*
X273249686Y-90042504D01*
X273312504Y-89979686D01*
X273386371Y-89930329D01*
X273386373Y-89930328D01*
X273468448Y-89896331D01*
X273555579Y-89879000D01*
X273644421Y-89879000D01*
X273731552Y-89896331D01*
X273731552Y-89896331D01*
G37*
G36*
X273731552Y-88646331D02*
G01*
X273813627Y-88680328D01*
X273813629Y-88680329D01*
X273850813Y-88705175D01*
X273887495Y-88729685D01*
X273950315Y-88792505D01*
X273999672Y-88866373D01*
X274033669Y-88948448D01*
X274051000Y-89035579D01*
X274051000Y-89124421D01*
X274033669Y-89211552D01*
X273999672Y-89293627D01*
X273999671Y-89293629D01*
X273950314Y-89367496D01*
X273887496Y-89430314D01*
X273813629Y-89479671D01*
X273813628Y-89479672D01*
X273813627Y-89479672D01*
X273731552Y-89513669D01*
X273644421Y-89531000D01*
X273555579Y-89531000D01*
X273468448Y-89513669D01*
X273386373Y-89479672D01*
X273386372Y-89479672D01*
X273386371Y-89479671D01*
X273312504Y-89430314D01*
X273249686Y-89367496D01*
X273200329Y-89293629D01*
X273200328Y-89293627D01*
X273166331Y-89211552D01*
X273149000Y-89124421D01*
X273149000Y-89035579D01*
X273166331Y-88948448D01*
X273200328Y-88866373D01*
X273249685Y-88792505D01*
X273312505Y-88729685D01*
X273349187Y-88705175D01*
X273386371Y-88680329D01*
X273386373Y-88680328D01*
X273468448Y-88646331D01*
X273555579Y-88629000D01*
X273644421Y-88629000D01*
X273731552Y-88646331D01*
X273731552Y-88646331D01*
G37*
G36*
X273351552Y-74646331D02*
G01*
X273433627Y-74680328D01*
X273433629Y-74680329D01*
X273470813Y-74705175D01*
X273507495Y-74729685D01*
X273570315Y-74792505D01*
X273619672Y-74866373D01*
X273653669Y-74948448D01*
X273671000Y-75035579D01*
X273671000Y-75124421D01*
X273653669Y-75211552D01*
X273619672Y-75293627D01*
X273619671Y-75293629D01*
X273570314Y-75367496D01*
X273507496Y-75430314D01*
X273433629Y-75479671D01*
X273433628Y-75479672D01*
X273433627Y-75479672D01*
X273351552Y-75513669D01*
X273264421Y-75531000D01*
X273175579Y-75531000D01*
X273088448Y-75513669D01*
X273006373Y-75479672D01*
X273006372Y-75479672D01*
X273006371Y-75479671D01*
X272932504Y-75430314D01*
X272869686Y-75367496D01*
X272820329Y-75293629D01*
X272820328Y-75293627D01*
X272786331Y-75211552D01*
X272769000Y-75124421D01*
X272769000Y-75035579D01*
X272786331Y-74948448D01*
X272820328Y-74866373D01*
X272869685Y-74792505D01*
X272932505Y-74729685D01*
X272969187Y-74705175D01*
X273006371Y-74680329D01*
X273006373Y-74680328D01*
X273088448Y-74646331D01*
X273175579Y-74629000D01*
X273264421Y-74629000D01*
X273351552Y-74646331D01*
X273351552Y-74646331D01*
G37*
G36*
X255428903Y-70323213D02*
G01*
X255651177Y-70367426D01*
X256069932Y-70540880D01*
X256446802Y-70792696D01*
X256767304Y-71113198D01*
X257019120Y-71490068D01*
X257192574Y-71908823D01*
X257281000Y-72353371D01*
X257281000Y-72806629D01*
X257192574Y-73251177D01*
X257019120Y-73669932D01*
X256767304Y-74046802D01*
X256446802Y-74367304D01*
X256069932Y-74619120D01*
X255651177Y-74792574D01*
X255428903Y-74836787D01*
X255206630Y-74881000D01*
X254753370Y-74881000D01*
X254531097Y-74836787D01*
X254308823Y-74792574D01*
X253890068Y-74619120D01*
X253513198Y-74367304D01*
X253192696Y-74046802D01*
X252940880Y-73669932D01*
X252767426Y-73251177D01*
X252679000Y-72806629D01*
X252679000Y-72353371D01*
X252767426Y-71908823D01*
X252940880Y-71490068D01*
X253192696Y-71113198D01*
X253513198Y-70792696D01*
X253890068Y-70540880D01*
X254308823Y-70367426D01*
X254531097Y-70323213D01*
X254753370Y-70279000D01*
X255206630Y-70279000D01*
X255428903Y-70323213D01*
X255428903Y-70323213D01*
G37*
G36*
X65428903Y-70323213D02*
G01*
X65651177Y-70367426D01*
X66069932Y-70540880D01*
X66446802Y-70792696D01*
X66767304Y-71113198D01*
X67019120Y-71490068D01*
X67192574Y-71908823D01*
X67281000Y-72353371D01*
X67281000Y-72806629D01*
X67192574Y-73251177D01*
X67019120Y-73669932D01*
X66767304Y-74046802D01*
X66446802Y-74367304D01*
X66069932Y-74619120D01*
X65651177Y-74792574D01*
X65428903Y-74836787D01*
X65206630Y-74881000D01*
X64753370Y-74881000D01*
X64531097Y-74836787D01*
X64308823Y-74792574D01*
X63890068Y-74619120D01*
X63513198Y-74367304D01*
X63192696Y-74046802D01*
X62940880Y-73669932D01*
X62767426Y-73251177D01*
X62679000Y-72806629D01*
X62679000Y-72353371D01*
X62767426Y-71908823D01*
X62940880Y-71490068D01*
X63192696Y-71113198D01*
X63513198Y-70792696D01*
X63890068Y-70540880D01*
X64308823Y-70367426D01*
X64531097Y-70323213D01*
X64753370Y-70279000D01*
X65206630Y-70279000D01*
X65428903Y-70323213D01*
X65428903Y-70323213D01*
G37*
G36*
X273351552Y-73396331D02*
G01*
X273433627Y-73430328D01*
X273433629Y-73430329D01*
X273470813Y-73455175D01*
X273507495Y-73479685D01*
X273570315Y-73542505D01*
X273619672Y-73616373D01*
X273653669Y-73698448D01*
X273671000Y-73785579D01*
X273671000Y-73874421D01*
X273653669Y-73961552D01*
X273619672Y-74043627D01*
X273619671Y-74043629D01*
X273570314Y-74117496D01*
X273507496Y-74180314D01*
X273433629Y-74229671D01*
X273433628Y-74229672D01*
X273433627Y-74229672D01*
X273351552Y-74263669D01*
X273264421Y-74281000D01*
X273175579Y-74281000D01*
X273088448Y-74263669D01*
X273006373Y-74229672D01*
X273006372Y-74229672D01*
X273006371Y-74229671D01*
X272932504Y-74180314D01*
X272869686Y-74117496D01*
X272820329Y-74043629D01*
X272820328Y-74043627D01*
X272786331Y-73961552D01*
X272769000Y-73874421D01*
X272769000Y-73785579D01*
X272786331Y-73698448D01*
X272820328Y-73616373D01*
X272869685Y-73542505D01*
X272932505Y-73479685D01*
X272969187Y-73455175D01*
X273006371Y-73430329D01*
X273006373Y-73430328D01*
X273088448Y-73396331D01*
X273175579Y-73379000D01*
X273264421Y-73379000D01*
X273351552Y-73396331D01*
X273351552Y-73396331D01*
G37*
G36*
X273351552Y-72146331D02*
G01*
X273433627Y-72180328D01*
X273433629Y-72180329D01*
X273507496Y-72229686D01*
X273570314Y-72292504D01*
X273610985Y-72353371D01*
X273619672Y-72366373D01*
X273653669Y-72448448D01*
X273671000Y-72535579D01*
X273671000Y-72624421D01*
X273653669Y-72711552D01*
X273619672Y-72793627D01*
X273619671Y-72793629D01*
X273570314Y-72867496D01*
X273507496Y-72930314D01*
X273433629Y-72979671D01*
X273433628Y-72979672D01*
X273433627Y-72979672D01*
X273351552Y-73013669D01*
X273264421Y-73031000D01*
X273175579Y-73031000D01*
X273088448Y-73013669D01*
X273006373Y-72979672D01*
X273006372Y-72979672D01*
X273006371Y-72979671D01*
X272932504Y-72930314D01*
X272869686Y-72867496D01*
X272820329Y-72793629D01*
X272820328Y-72793627D01*
X272786331Y-72711552D01*
X272769000Y-72624421D01*
X272769000Y-72535579D01*
X272786331Y-72448448D01*
X272820328Y-72366373D01*
X272829016Y-72353371D01*
X272869686Y-72292504D01*
X272932504Y-72229686D01*
X273006371Y-72180329D01*
X273006373Y-72180328D01*
X273088448Y-72146331D01*
X273175579Y-72129000D01*
X273264421Y-72129000D01*
X273351552Y-72146331D01*
X273351552Y-72146331D01*
G37*
G36*
X273351552Y-70896331D02*
G01*
X273433627Y-70930328D01*
X273433629Y-70930329D01*
X273507496Y-70979686D01*
X273570314Y-71042504D01*
X273617552Y-71113199D01*
X273619672Y-71116373D01*
X273653669Y-71198448D01*
X273671000Y-71285579D01*
X273671000Y-71374421D01*
X273653669Y-71461552D01*
X273641856Y-71490070D01*
X273619671Y-71543629D01*
X273570314Y-71617496D01*
X273507496Y-71680314D01*
X273433629Y-71729671D01*
X273433628Y-71729672D01*
X273433627Y-71729672D01*
X273351552Y-71763669D01*
X273264421Y-71781000D01*
X273175579Y-71781000D01*
X273088448Y-71763669D01*
X273006373Y-71729672D01*
X273006372Y-71729672D01*
X273006371Y-71729671D01*
X272932504Y-71680314D01*
X272869686Y-71617496D01*
X272820329Y-71543629D01*
X272798144Y-71490070D01*
X272786331Y-71461552D01*
X272769000Y-71374421D01*
X272769000Y-71285579D01*
X272786331Y-71198448D01*
X272820328Y-71116373D01*
X272822449Y-71113199D01*
X272869686Y-71042504D01*
X272932504Y-70979686D01*
X273006371Y-70930329D01*
X273006373Y-70930328D01*
X273088448Y-70896331D01*
X273175579Y-70879000D01*
X273264421Y-70879000D01*
X273351552Y-70896331D01*
X273351552Y-70896331D01*
G37*
G36*
X273351552Y-69646331D02*
G01*
X273433627Y-69680328D01*
X273433629Y-69680329D01*
X273470813Y-69705175D01*
X273507495Y-69729685D01*
X273570315Y-69792505D01*
X273619672Y-69866373D01*
X273653669Y-69948448D01*
X273671000Y-70035579D01*
X273671000Y-70124421D01*
X273653669Y-70211552D01*
X273619672Y-70293627D01*
X273619671Y-70293629D01*
X273570314Y-70367496D01*
X273507496Y-70430314D01*
X273433629Y-70479671D01*
X273433628Y-70479672D01*
X273433627Y-70479672D01*
X273351552Y-70513669D01*
X273264421Y-70531000D01*
X273175579Y-70531000D01*
X273088448Y-70513669D01*
X273006373Y-70479672D01*
X273006372Y-70479672D01*
X273006371Y-70479671D01*
X272932504Y-70430314D01*
X272869686Y-70367496D01*
X272820329Y-70293629D01*
X272820328Y-70293627D01*
X272786331Y-70211552D01*
X272769000Y-70124421D01*
X272769000Y-70035579D01*
X272786331Y-69948448D01*
X272820328Y-69866373D01*
X272869685Y-69792505D01*
X272932505Y-69729685D01*
X272969187Y-69705175D01*
X273006371Y-69680329D01*
X273006373Y-69680328D01*
X273088448Y-69646331D01*
X273175579Y-69629000D01*
X273264421Y-69629000D01*
X273351552Y-69646331D01*
X273351552Y-69646331D01*
G37*
G36*
X273731552Y-55646331D02*
G01*
X273813627Y-55680328D01*
X273813629Y-55680329D01*
X273850813Y-55705175D01*
X273887495Y-55729685D01*
X273950315Y-55792505D01*
X273999672Y-55866373D01*
X274033669Y-55948448D01*
X274051000Y-56035579D01*
X274051000Y-56124421D01*
X274033669Y-56211552D01*
X273999672Y-56293627D01*
X273999671Y-56293629D01*
X273950314Y-56367496D01*
X273887496Y-56430314D01*
X273813629Y-56479671D01*
X273813628Y-56479672D01*
X273813627Y-56479672D01*
X273731552Y-56513669D01*
X273644421Y-56531000D01*
X273555579Y-56531000D01*
X273468448Y-56513669D01*
X273386373Y-56479672D01*
X273386372Y-56479672D01*
X273386371Y-56479671D01*
X273312504Y-56430314D01*
X273249686Y-56367496D01*
X273200329Y-56293629D01*
X273200328Y-56293627D01*
X273166331Y-56211552D01*
X273149000Y-56124421D01*
X273149000Y-56035579D01*
X273166331Y-55948448D01*
X273200328Y-55866373D01*
X273249685Y-55792505D01*
X273312505Y-55729685D01*
X273349187Y-55705175D01*
X273386371Y-55680329D01*
X273386373Y-55680328D01*
X273468448Y-55646331D01*
X273555579Y-55629000D01*
X273644421Y-55629000D01*
X273731552Y-55646331D01*
X273731552Y-55646331D01*
G37*
G36*
X299888912Y-51323213D02*
G01*
X300111186Y-51367426D01*
X300529941Y-51540880D01*
X300906811Y-51792696D01*
X301227313Y-52113198D01*
X301479129Y-52490068D01*
X301652583Y-52908823D01*
X301741009Y-53353371D01*
X301741009Y-53806629D01*
X301652583Y-54251177D01*
X301479129Y-54669932D01*
X301227313Y-55046802D01*
X300906811Y-55367304D01*
X300529941Y-55619120D01*
X300111186Y-55792574D01*
X299888912Y-55836787D01*
X299666639Y-55881000D01*
X299213379Y-55881000D01*
X298991106Y-55836787D01*
X298768832Y-55792574D01*
X298350077Y-55619120D01*
X297973207Y-55367304D01*
X297652705Y-55046802D01*
X297400889Y-54669932D01*
X297227435Y-54251177D01*
X297139009Y-53806629D01*
X297139009Y-53353371D01*
X297227435Y-52908823D01*
X297400889Y-52490068D01*
X297652705Y-52113198D01*
X297973207Y-51792696D01*
X298350077Y-51540880D01*
X298768832Y-51367426D01*
X298991106Y-51323213D01*
X299213379Y-51279000D01*
X299666639Y-51279000D01*
X299888912Y-51323213D01*
X299888912Y-51323213D01*
G37*
G36*
X337888912Y-51323213D02*
G01*
X338111186Y-51367426D01*
X338529941Y-51540880D01*
X338906811Y-51792696D01*
X339227313Y-52113198D01*
X339479129Y-52490068D01*
X339652583Y-52908823D01*
X339741009Y-53353371D01*
X339741009Y-53806629D01*
X339652583Y-54251177D01*
X339479129Y-54669932D01*
X339227313Y-55046802D01*
X338906811Y-55367304D01*
X338529941Y-55619120D01*
X338111186Y-55792574D01*
X337888912Y-55836787D01*
X337666639Y-55881000D01*
X337213379Y-55881000D01*
X336991106Y-55836787D01*
X336768832Y-55792574D01*
X336350077Y-55619120D01*
X335973207Y-55367304D01*
X335652705Y-55046802D01*
X335400889Y-54669932D01*
X335227435Y-54251177D01*
X335139009Y-53806629D01*
X335139009Y-53353371D01*
X335227435Y-52908823D01*
X335400889Y-52490068D01*
X335652705Y-52113198D01*
X335973207Y-51792696D01*
X336350077Y-51540880D01*
X336768832Y-51367426D01*
X336991106Y-51323213D01*
X337213379Y-51279000D01*
X337666639Y-51279000D01*
X337888912Y-51323213D01*
X337888912Y-51323213D01*
G37*
G36*
X255428903Y-51323213D02*
G01*
X255651177Y-51367426D01*
X256069932Y-51540880D01*
X256446802Y-51792696D01*
X256767304Y-52113198D01*
X257019120Y-52490068D01*
X257192574Y-52908823D01*
X257281000Y-53353371D01*
X257281000Y-53806629D01*
X257192574Y-54251177D01*
X257019120Y-54669932D01*
X256767304Y-55046802D01*
X256446802Y-55367304D01*
X256069932Y-55619120D01*
X255651177Y-55792574D01*
X255428903Y-55836787D01*
X255206630Y-55881000D01*
X254753370Y-55881000D01*
X254531097Y-55836787D01*
X254308823Y-55792574D01*
X253890068Y-55619120D01*
X253513198Y-55367304D01*
X253192696Y-55046802D01*
X252940880Y-54669932D01*
X252767426Y-54251177D01*
X252679000Y-53806629D01*
X252679000Y-53353371D01*
X252767426Y-52908823D01*
X252940880Y-52490068D01*
X253192696Y-52113198D01*
X253513198Y-51792696D01*
X253890068Y-51540880D01*
X254308823Y-51367426D01*
X254531097Y-51323213D01*
X254753370Y-51279000D01*
X255206630Y-51279000D01*
X255428903Y-51323213D01*
X255428903Y-51323213D01*
G37*
G36*
X65428903Y-51323213D02*
G01*
X65651177Y-51367426D01*
X66069932Y-51540880D01*
X66446802Y-51792696D01*
X66767304Y-52113198D01*
X67019120Y-52490068D01*
X67192574Y-52908823D01*
X67281000Y-53353371D01*
X67281000Y-53806629D01*
X67192574Y-54251177D01*
X67019120Y-54669932D01*
X66767304Y-55046802D01*
X66446802Y-55367304D01*
X66069932Y-55619120D01*
X65651177Y-55792574D01*
X65428903Y-55836787D01*
X65206630Y-55881000D01*
X64753370Y-55881000D01*
X64531097Y-55836787D01*
X64308823Y-55792574D01*
X63890068Y-55619120D01*
X63513198Y-55367304D01*
X63192696Y-55046802D01*
X62940880Y-54669932D01*
X62767426Y-54251177D01*
X62679000Y-53806629D01*
X62679000Y-53353371D01*
X62767426Y-52908823D01*
X62940880Y-52490068D01*
X63192696Y-52113198D01*
X63513198Y-51792696D01*
X63890068Y-51540880D01*
X64308823Y-51367426D01*
X64531097Y-51323213D01*
X64753370Y-51279000D01*
X65206630Y-51279000D01*
X65428903Y-51323213D01*
X65428903Y-51323213D01*
G37*
G36*
X217428903Y-51323213D02*
G01*
X217651177Y-51367426D01*
X218069932Y-51540880D01*
X218446802Y-51792696D01*
X218767304Y-52113198D01*
X219019120Y-52490068D01*
X219192574Y-52908823D01*
X219281000Y-53353371D01*
X219281000Y-53806629D01*
X219192574Y-54251177D01*
X219019120Y-54669932D01*
X218767304Y-55046802D01*
X218446802Y-55367304D01*
X218069932Y-55619120D01*
X217651177Y-55792574D01*
X217428903Y-55836787D01*
X217206630Y-55881000D01*
X216753370Y-55881000D01*
X216531097Y-55836787D01*
X216308823Y-55792574D01*
X215890068Y-55619120D01*
X215513198Y-55367304D01*
X215192696Y-55046802D01*
X214940880Y-54669932D01*
X214767426Y-54251177D01*
X214679000Y-53806629D01*
X214679000Y-53353371D01*
X214767426Y-52908823D01*
X214940880Y-52490068D01*
X215192696Y-52113198D01*
X215513198Y-51792696D01*
X215890068Y-51540880D01*
X216308823Y-51367426D01*
X216531097Y-51323213D01*
X216753370Y-51279000D01*
X217206630Y-51279000D01*
X217428903Y-51323213D01*
X217428903Y-51323213D01*
G37*
G36*
X198428903Y-51323213D02*
G01*
X198651177Y-51367426D01*
X199069932Y-51540880D01*
X199446802Y-51792696D01*
X199767304Y-52113198D01*
X200019120Y-52490068D01*
X200192574Y-52908823D01*
X200281000Y-53353371D01*
X200281000Y-53806629D01*
X200192574Y-54251177D01*
X200019120Y-54669932D01*
X199767304Y-55046802D01*
X199446802Y-55367304D01*
X199069932Y-55619120D01*
X198651177Y-55792574D01*
X198428903Y-55836787D01*
X198206630Y-55881000D01*
X197753370Y-55881000D01*
X197531097Y-55836787D01*
X197308823Y-55792574D01*
X196890068Y-55619120D01*
X196513198Y-55367304D01*
X196192696Y-55046802D01*
X195940880Y-54669932D01*
X195767426Y-54251177D01*
X195679000Y-53806629D01*
X195679000Y-53353371D01*
X195767426Y-52908823D01*
X195940880Y-52490068D01*
X196192696Y-52113198D01*
X196513198Y-51792696D01*
X196890068Y-51540880D01*
X197308823Y-51367426D01*
X197531097Y-51323213D01*
X197753370Y-51279000D01*
X198206630Y-51279000D01*
X198428903Y-51323213D01*
X198428903Y-51323213D01*
G37*
G36*
X122428903Y-51323213D02*
G01*
X122651177Y-51367426D01*
X123069932Y-51540880D01*
X123446802Y-51792696D01*
X123767304Y-52113198D01*
X124019120Y-52490068D01*
X124192574Y-52908823D01*
X124281000Y-53353371D01*
X124281000Y-53806629D01*
X124192574Y-54251177D01*
X124019120Y-54669932D01*
X123767304Y-55046802D01*
X123446802Y-55367304D01*
X123069932Y-55619120D01*
X122651177Y-55792574D01*
X122428903Y-55836787D01*
X122206630Y-55881000D01*
X121753370Y-55881000D01*
X121531097Y-55836787D01*
X121308823Y-55792574D01*
X120890068Y-55619120D01*
X120513198Y-55367304D01*
X120192696Y-55046802D01*
X119940880Y-54669932D01*
X119767426Y-54251177D01*
X119679000Y-53806629D01*
X119679000Y-53353371D01*
X119767426Y-52908823D01*
X119940880Y-52490068D01*
X120192696Y-52113198D01*
X120513198Y-51792696D01*
X120890068Y-51540880D01*
X121308823Y-51367426D01*
X121531097Y-51323213D01*
X121753370Y-51279000D01*
X122206630Y-51279000D01*
X122428903Y-51323213D01*
X122428903Y-51323213D01*
G37*
G36*
X103428903Y-51323213D02*
G01*
X103651177Y-51367426D01*
X104069932Y-51540880D01*
X104446802Y-51792696D01*
X104767304Y-52113198D01*
X105019120Y-52490068D01*
X105192574Y-52908823D01*
X105281000Y-53353371D01*
X105281000Y-53806629D01*
X105192574Y-54251177D01*
X105019120Y-54669932D01*
X104767304Y-55046802D01*
X104446802Y-55367304D01*
X104069932Y-55619120D01*
X103651177Y-55792574D01*
X103428903Y-55836787D01*
X103206630Y-55881000D01*
X102753370Y-55881000D01*
X102531097Y-55836787D01*
X102308823Y-55792574D01*
X101890068Y-55619120D01*
X101513198Y-55367304D01*
X101192696Y-55046802D01*
X100940880Y-54669932D01*
X100767426Y-54251177D01*
X100679000Y-53806629D01*
X100679000Y-53353371D01*
X100767426Y-52908823D01*
X100940880Y-52490068D01*
X101192696Y-52113198D01*
X101513198Y-51792696D01*
X101890068Y-51540880D01*
X102308823Y-51367426D01*
X102531097Y-51323213D01*
X102753370Y-51279000D01*
X103206630Y-51279000D01*
X103428903Y-51323213D01*
X103428903Y-51323213D01*
G37*
G36*
X273731552Y-54396331D02*
G01*
X273813627Y-54430328D01*
X273813629Y-54430329D01*
X273850813Y-54455175D01*
X273887495Y-54479685D01*
X273950315Y-54542505D01*
X273999672Y-54616373D01*
X274033669Y-54698448D01*
X274051000Y-54785579D01*
X274051000Y-54874421D01*
X274033669Y-54961552D01*
X273999672Y-55043627D01*
X273999671Y-55043629D01*
X273950314Y-55117496D01*
X273887496Y-55180314D01*
X273813629Y-55229671D01*
X273813628Y-55229672D01*
X273813627Y-55229672D01*
X273731552Y-55263669D01*
X273644421Y-55281000D01*
X273555579Y-55281000D01*
X273468448Y-55263669D01*
X273386373Y-55229672D01*
X273386372Y-55229672D01*
X273386371Y-55229671D01*
X273312504Y-55180314D01*
X273249686Y-55117496D01*
X273200329Y-55043629D01*
X273200328Y-55043627D01*
X273166331Y-54961552D01*
X273149000Y-54874421D01*
X273149000Y-54785579D01*
X273166331Y-54698448D01*
X273200328Y-54616373D01*
X273249685Y-54542505D01*
X273312505Y-54479685D01*
X273349187Y-54455175D01*
X273386371Y-54430329D01*
X273386373Y-54430328D01*
X273468448Y-54396331D01*
X273555579Y-54379000D01*
X273644421Y-54379000D01*
X273731552Y-54396331D01*
X273731552Y-54396331D01*
G37*
G36*
X273731552Y-53146331D02*
G01*
X273813627Y-53180328D01*
X273813629Y-53180329D01*
X273887496Y-53229686D01*
X273950314Y-53292504D01*
X273990985Y-53353371D01*
X273999672Y-53366373D01*
X274033669Y-53448448D01*
X274051000Y-53535579D01*
X274051000Y-53624421D01*
X274033669Y-53711552D01*
X273999672Y-53793627D01*
X273999671Y-53793629D01*
X273950314Y-53867496D01*
X273887496Y-53930314D01*
X273813629Y-53979671D01*
X273813628Y-53979672D01*
X273813627Y-53979672D01*
X273731552Y-54013669D01*
X273644421Y-54031000D01*
X273555579Y-54031000D01*
X273468448Y-54013669D01*
X273386373Y-53979672D01*
X273386372Y-53979672D01*
X273386371Y-53979671D01*
X273312504Y-53930314D01*
X273249686Y-53867496D01*
X273200329Y-53793629D01*
X273200328Y-53793627D01*
X273166331Y-53711552D01*
X273149000Y-53624421D01*
X273149000Y-53535579D01*
X273166331Y-53448448D01*
X273200328Y-53366373D01*
X273209016Y-53353371D01*
X273249686Y-53292504D01*
X273312504Y-53229686D01*
X273386371Y-53180329D01*
X273386373Y-53180328D01*
X273468448Y-53146331D01*
X273555579Y-53129000D01*
X273644421Y-53129000D01*
X273731552Y-53146331D01*
X273731552Y-53146331D01*
G37*
G36*
X273731552Y-51896331D02*
G01*
X273813627Y-51930328D01*
X273813629Y-51930329D01*
X273887496Y-51979686D01*
X273950314Y-52042504D01*
X273997552Y-52113199D01*
X273999672Y-52116373D01*
X274033669Y-52198448D01*
X274051000Y-52285579D01*
X274051000Y-52374421D01*
X274033669Y-52461552D01*
X274021856Y-52490070D01*
X273999671Y-52543629D01*
X273950314Y-52617496D01*
X273887496Y-52680314D01*
X273813629Y-52729671D01*
X273813628Y-52729672D01*
X273813627Y-52729672D01*
X273731552Y-52763669D01*
X273644421Y-52781000D01*
X273555579Y-52781000D01*
X273468448Y-52763669D01*
X273386373Y-52729672D01*
X273386372Y-52729672D01*
X273386371Y-52729671D01*
X273312504Y-52680314D01*
X273249686Y-52617496D01*
X273200329Y-52543629D01*
X273178144Y-52490070D01*
X273166331Y-52461552D01*
X273149000Y-52374421D01*
X273149000Y-52285579D01*
X273166331Y-52198448D01*
X273200328Y-52116373D01*
X273202449Y-52113199D01*
X273249686Y-52042504D01*
X273312504Y-51979686D01*
X273386371Y-51930329D01*
X273386373Y-51930328D01*
X273468448Y-51896331D01*
X273555579Y-51879000D01*
X273644421Y-51879000D01*
X273731552Y-51896331D01*
X273731552Y-51896331D01*
G37*
G36*
X273731552Y-50646331D02*
G01*
X273813627Y-50680328D01*
X273813629Y-50680329D01*
X273850813Y-50705175D01*
X273887495Y-50729685D01*
X273950315Y-50792505D01*
X273999672Y-50866373D01*
X274033669Y-50948448D01*
X274051000Y-51035579D01*
X274051000Y-51124421D01*
X274033669Y-51211552D01*
X273999672Y-51293627D01*
X273999671Y-51293629D01*
X273950314Y-51367496D01*
X273887496Y-51430314D01*
X273813629Y-51479671D01*
X273813628Y-51479672D01*
X273813627Y-51479672D01*
X273731552Y-51513669D01*
X273644421Y-51531000D01*
X273555579Y-51531000D01*
X273468448Y-51513669D01*
X273386373Y-51479672D01*
X273386372Y-51479672D01*
X273386371Y-51479671D01*
X273312504Y-51430314D01*
X273249686Y-51367496D01*
X273200329Y-51293629D01*
X273200328Y-51293627D01*
X273166331Y-51211552D01*
X273149000Y-51124421D01*
X273149000Y-51035579D01*
X273166331Y-50948448D01*
X273200328Y-50866373D01*
X273249685Y-50792505D01*
X273312505Y-50729685D01*
X273349187Y-50705175D01*
X273386371Y-50680329D01*
X273386373Y-50680328D01*
X273468448Y-50646331D01*
X273555579Y-50629000D01*
X273644421Y-50629000D01*
X273731552Y-50646331D01*
X273731552Y-50646331D01*
G37*
M02*
