G04 #@! TF.GenerationSoftware,KiCad,Pcbnew,(5.1.2-1)-1*
G04 #@! TF.CreationDate,2020-01-22T17:39:03-06:00*
G04 #@! TF.ProjectId,therick_top_plate,74686572-6963-46b5-9f74-6f705f706c61,rev?*
G04 #@! TF.SameCoordinates,Original*
G04 #@! TF.FileFunction,Legend,Bot*
G04 #@! TF.FilePolarity,Positive*
%FSLAX46Y46*%
G04 Gerber Fmt 4.6, Leading zero omitted, Abs format (unit mm)*
G04 Created by KiCad (PCBNEW (5.1.2-1)-1) date 2020-01-22 17:39:03*
%MOMM*%
%LPD*%
G04 APERTURE LIST*
%ADD10C,0.150000*%
G04 APERTURE END LIST*
D10*
X60975297Y-109180380D02*
X60975297Y-109894666D01*
X61022916Y-110037523D01*
X61118154Y-110132761D01*
X61261011Y-110180380D01*
X61356250Y-110180380D01*
X60022916Y-110180380D02*
X60499107Y-110180380D01*
X60499107Y-109180380D01*
X59118154Y-110085142D02*
X59165773Y-110132761D01*
X59308630Y-110180380D01*
X59403869Y-110180380D01*
X59546726Y-110132761D01*
X59641964Y-110037523D01*
X59689583Y-109942285D01*
X59737202Y-109751809D01*
X59737202Y-109608952D01*
X59689583Y-109418476D01*
X59641964Y-109323238D01*
X59546726Y-109228000D01*
X59403869Y-109180380D01*
X59308630Y-109180380D01*
X59165773Y-109228000D01*
X59118154Y-109275619D01*
X58403869Y-109180380D02*
X58403869Y-109894666D01*
X58451488Y-110037523D01*
X58546726Y-110132761D01*
X58689583Y-110180380D01*
X58784821Y-110180380D01*
X57451488Y-110180380D02*
X57927678Y-110180380D01*
X57927678Y-109180380D01*
X56546726Y-110085142D02*
X56594345Y-110132761D01*
X56737202Y-110180380D01*
X56832440Y-110180380D01*
X56975297Y-110132761D01*
X57070535Y-110037523D01*
X57118154Y-109942285D01*
X57165773Y-109751809D01*
X57165773Y-109608952D01*
X57118154Y-109418476D01*
X57070535Y-109323238D01*
X56975297Y-109228000D01*
X56832440Y-109180380D01*
X56737202Y-109180380D01*
X56594345Y-109228000D01*
X56546726Y-109275619D01*
X55832440Y-109180380D02*
X55832440Y-109894666D01*
X55880059Y-110037523D01*
X55975297Y-110132761D01*
X56118154Y-110180380D01*
X56213392Y-110180380D01*
X54880059Y-110180380D02*
X55356250Y-110180380D01*
X55356250Y-109180380D01*
X53975297Y-110085142D02*
X54022916Y-110132761D01*
X54165773Y-110180380D01*
X54261011Y-110180380D01*
X54403869Y-110132761D01*
X54499107Y-110037523D01*
X54546726Y-109942285D01*
X54594345Y-109751809D01*
X54594345Y-109608952D01*
X54546726Y-109418476D01*
X54499107Y-109323238D01*
X54403869Y-109228000D01*
X54261011Y-109180380D01*
X54165773Y-109180380D01*
X54022916Y-109228000D01*
X53975297Y-109275619D01*
X53261011Y-109180380D02*
X53261011Y-109894666D01*
X53308630Y-110037523D01*
X53403869Y-110132761D01*
X53546726Y-110180380D01*
X53641964Y-110180380D01*
X52308630Y-110180380D02*
X52784821Y-110180380D01*
X52784821Y-109180380D01*
X51403869Y-110085142D02*
X51451488Y-110132761D01*
X51594345Y-110180380D01*
X51689583Y-110180380D01*
X51832440Y-110132761D01*
X51927678Y-110037523D01*
X51975297Y-109942285D01*
X52022916Y-109751809D01*
X52022916Y-109608952D01*
X51975297Y-109418476D01*
X51927678Y-109323238D01*
X51832440Y-109228000D01*
X51689583Y-109180380D01*
X51594345Y-109180380D01*
X51451488Y-109228000D01*
X51403869Y-109275619D01*
M02*
