G04 #@! TF.GenerationSoftware,KiCad,Pcbnew,(5.1.2-1)-1*
G04 #@! TF.CreationDate,2020-05-24T08:12:45-05:00*
G04 #@! TF.ProjectId,therick48.16_top_plate,74686572-6963-46b3-9438-2e31365f746f,rev?*
G04 #@! TF.SameCoordinates,Original*
G04 #@! TF.FileFunction,Legend,Bot*
G04 #@! TF.FilePolarity,Positive*
%FSLAX46Y46*%
G04 Gerber Fmt 4.6, Leading zero omitted, Abs format (unit mm)*
G04 Created by KiCad (PCBNEW (5.1.2-1)-1) date 2020-05-24 08:12:45*
%MOMM*%
%LPD*%
G04 APERTURE LIST*
%ADD10C,0.200000*%
%ADD11C,0.150000*%
G04 APERTURE END LIST*
D10*
X171765714Y-91258571D02*
X171194285Y-91258571D01*
X171551428Y-90758571D02*
X171551428Y-92044285D01*
X171480000Y-92187142D01*
X171337142Y-92258571D01*
X171194285Y-92258571D01*
X170694285Y-92258571D02*
X170694285Y-90758571D01*
X170051428Y-92258571D02*
X170051428Y-91472857D01*
X170122857Y-91330000D01*
X170265714Y-91258571D01*
X170480000Y-91258571D01*
X170622857Y-91330000D01*
X170694285Y-91401428D01*
X168765714Y-92187142D02*
X168908571Y-92258571D01*
X169194285Y-92258571D01*
X169337142Y-92187142D01*
X169408571Y-92044285D01*
X169408571Y-91472857D01*
X169337142Y-91330000D01*
X169194285Y-91258571D01*
X168908571Y-91258571D01*
X168765714Y-91330000D01*
X168694285Y-91472857D01*
X168694285Y-91615714D01*
X169408571Y-91758571D01*
X168051428Y-92258571D02*
X168051428Y-91258571D01*
X168051428Y-91544285D02*
X167980000Y-91401428D01*
X167908571Y-91330000D01*
X167765714Y-91258571D01*
X167622857Y-91258571D01*
X167122857Y-92258571D02*
X167122857Y-91258571D01*
X167122857Y-90758571D02*
X167194285Y-90830000D01*
X167122857Y-90901428D01*
X167051428Y-90830000D01*
X167122857Y-90758571D01*
X167122857Y-90901428D01*
X165765714Y-92187142D02*
X165908571Y-92258571D01*
X166194285Y-92258571D01*
X166337142Y-92187142D01*
X166408571Y-92115714D01*
X166480000Y-91972857D01*
X166480000Y-91544285D01*
X166408571Y-91401428D01*
X166337142Y-91330000D01*
X166194285Y-91258571D01*
X165908571Y-91258571D01*
X165765714Y-91330000D01*
X165122857Y-92258571D02*
X165122857Y-90758571D01*
X164980000Y-91687142D02*
X164551428Y-92258571D01*
X164551428Y-91258571D02*
X165122857Y-91830000D01*
X163265714Y-91258571D02*
X163265714Y-92258571D01*
X163622857Y-90687142D02*
X163980000Y-91758571D01*
X163051428Y-91758571D01*
X162265714Y-91401428D02*
X162408571Y-91330000D01*
X162480000Y-91258571D01*
X162551428Y-91115714D01*
X162551428Y-91044285D01*
X162480000Y-90901428D01*
X162408571Y-90830000D01*
X162265714Y-90758571D01*
X161980000Y-90758571D01*
X161837142Y-90830000D01*
X161765714Y-90901428D01*
X161694285Y-91044285D01*
X161694285Y-91115714D01*
X161765714Y-91258571D01*
X161837142Y-91330000D01*
X161980000Y-91401428D01*
X162265714Y-91401428D01*
X162408571Y-91472857D01*
X162480000Y-91544285D01*
X162551428Y-91687142D01*
X162551428Y-91972857D01*
X162480000Y-92115714D01*
X162408571Y-92187142D01*
X162265714Y-92258571D01*
X161980000Y-92258571D01*
X161837142Y-92187142D01*
X161765714Y-92115714D01*
X161694285Y-91972857D01*
X161694285Y-91687142D01*
X161765714Y-91544285D01*
X161837142Y-91472857D01*
X161980000Y-91401428D01*
X161051428Y-92115714D02*
X160980000Y-92187142D01*
X161051428Y-92258571D01*
X161122857Y-92187142D01*
X161051428Y-92115714D01*
X161051428Y-92258571D01*
X159551428Y-92258571D02*
X160408571Y-92258571D01*
X159980000Y-92258571D02*
X159980000Y-90758571D01*
X160122857Y-90972857D01*
X160265714Y-91115714D01*
X160408571Y-91187142D01*
X158265714Y-90758571D02*
X158551428Y-90758571D01*
X158694285Y-90830000D01*
X158765714Y-90901428D01*
X158908571Y-91115714D01*
X158980000Y-91401428D01*
X158980000Y-91972857D01*
X158908571Y-92115714D01*
X158837142Y-92187142D01*
X158694285Y-92258571D01*
X158408571Y-92258571D01*
X158265714Y-92187142D01*
X158194285Y-92115714D01*
X158122857Y-91972857D01*
X158122857Y-91615714D01*
X158194285Y-91472857D01*
X158265714Y-91401428D01*
X158408571Y-91330000D01*
X158694285Y-91330000D01*
X158837142Y-91401428D01*
X158908571Y-91472857D01*
X158980000Y-91615714D01*
X155480000Y-92258571D02*
X155980000Y-91544285D01*
X156337142Y-92258571D02*
X156337142Y-90758571D01*
X155765714Y-90758571D01*
X155622857Y-90830000D01*
X155551428Y-90901428D01*
X155480000Y-91044285D01*
X155480000Y-91258571D01*
X155551428Y-91401428D01*
X155622857Y-91472857D01*
X155765714Y-91544285D01*
X156337142Y-91544285D01*
X154265714Y-92187142D02*
X154408571Y-92258571D01*
X154694285Y-92258571D01*
X154837142Y-92187142D01*
X154908571Y-92044285D01*
X154908571Y-91472857D01*
X154837142Y-91330000D01*
X154694285Y-91258571D01*
X154408571Y-91258571D01*
X154265714Y-91330000D01*
X154194285Y-91472857D01*
X154194285Y-91615714D01*
X154908571Y-91758571D01*
X153694285Y-91258571D02*
X153337142Y-92258571D01*
X152980000Y-91258571D01*
X150480000Y-92258571D02*
X151337142Y-92258571D01*
X150908571Y-92258571D02*
X150908571Y-90758571D01*
X151051428Y-90972857D01*
X151194285Y-91115714D01*
X151337142Y-91187142D01*
X149837142Y-92115714D02*
X149765714Y-92187142D01*
X149837142Y-92258571D01*
X149908571Y-92187142D01*
X149837142Y-92115714D01*
X149837142Y-92258571D01*
X148837142Y-90758571D02*
X148694285Y-90758571D01*
X148551428Y-90830000D01*
X148480000Y-90901428D01*
X148408571Y-91044285D01*
X148337142Y-91330000D01*
X148337142Y-91687142D01*
X148408571Y-91972857D01*
X148480000Y-92115714D01*
X148551428Y-92187142D01*
X148694285Y-92258571D01*
X148837142Y-92258571D01*
X148980000Y-92187142D01*
X149051428Y-92115714D01*
X149122857Y-91972857D01*
X149194285Y-91687142D01*
X149194285Y-91330000D01*
X149122857Y-91044285D01*
X149051428Y-90901428D01*
X148980000Y-90830000D01*
X148837142Y-90758571D01*
D11*
X88599047Y-91032380D02*
X88599047Y-91746666D01*
X88646666Y-91889523D01*
X88741904Y-91984761D01*
X88884761Y-92032380D01*
X88980000Y-92032380D01*
X87646666Y-92032380D02*
X88122857Y-92032380D01*
X88122857Y-91032380D01*
X86741904Y-91937142D02*
X86789523Y-91984761D01*
X86932380Y-92032380D01*
X87027619Y-92032380D01*
X87170476Y-91984761D01*
X87265714Y-91889523D01*
X87313333Y-91794285D01*
X87360952Y-91603809D01*
X87360952Y-91460952D01*
X87313333Y-91270476D01*
X87265714Y-91175238D01*
X87170476Y-91080000D01*
X87027619Y-91032380D01*
X86932380Y-91032380D01*
X86789523Y-91080000D01*
X86741904Y-91127619D01*
X86027619Y-91032380D02*
X86027619Y-91746666D01*
X86075238Y-91889523D01*
X86170476Y-91984761D01*
X86313333Y-92032380D01*
X86408571Y-92032380D01*
X85075238Y-92032380D02*
X85551428Y-92032380D01*
X85551428Y-91032380D01*
X84170476Y-91937142D02*
X84218095Y-91984761D01*
X84360952Y-92032380D01*
X84456190Y-92032380D01*
X84599047Y-91984761D01*
X84694285Y-91889523D01*
X84741904Y-91794285D01*
X84789523Y-91603809D01*
X84789523Y-91460952D01*
X84741904Y-91270476D01*
X84694285Y-91175238D01*
X84599047Y-91080000D01*
X84456190Y-91032380D01*
X84360952Y-91032380D01*
X84218095Y-91080000D01*
X84170476Y-91127619D01*
X83456190Y-91032380D02*
X83456190Y-91746666D01*
X83503809Y-91889523D01*
X83599047Y-91984761D01*
X83741904Y-92032380D01*
X83837142Y-92032380D01*
X82503809Y-92032380D02*
X82980000Y-92032380D01*
X82980000Y-91032380D01*
X81599047Y-91937142D02*
X81646666Y-91984761D01*
X81789523Y-92032380D01*
X81884761Y-92032380D01*
X82027619Y-91984761D01*
X82122857Y-91889523D01*
X82170476Y-91794285D01*
X82218095Y-91603809D01*
X82218095Y-91460952D01*
X82170476Y-91270476D01*
X82122857Y-91175238D01*
X82027619Y-91080000D01*
X81884761Y-91032380D01*
X81789523Y-91032380D01*
X81646666Y-91080000D01*
X81599047Y-91127619D01*
X80884761Y-91032380D02*
X80884761Y-91746666D01*
X80932380Y-91889523D01*
X81027619Y-91984761D01*
X81170476Y-92032380D01*
X81265714Y-92032380D01*
X79932380Y-92032380D02*
X80408571Y-92032380D01*
X80408571Y-91032380D01*
X79027619Y-91937142D02*
X79075238Y-91984761D01*
X79218095Y-92032380D01*
X79313333Y-92032380D01*
X79456190Y-91984761D01*
X79551428Y-91889523D01*
X79599047Y-91794285D01*
X79646666Y-91603809D01*
X79646666Y-91460952D01*
X79599047Y-91270476D01*
X79551428Y-91175238D01*
X79456190Y-91080000D01*
X79313333Y-91032380D01*
X79218095Y-91032380D01*
X79075238Y-91080000D01*
X79027619Y-91127619D01*
M02*
