G04 #@! TF.GenerationSoftware,KiCad,Pcbnew,(5.1.2-1)-1*
G04 #@! TF.CreationDate,2020-05-24T08:12:45-05:00*
G04 #@! TF.ProjectId,therick48.16_top_plate,74686572-6963-46b3-9438-2e31365f746f,rev?*
G04 #@! TF.SameCoordinates,Original*
G04 #@! TF.FileFunction,Profile,NP*
%FSLAX46Y46*%
G04 Gerber Fmt 4.6, Leading zero omitted, Abs format (unit mm)*
G04 Created by KiCad (PCBNEW (5.1.2-1)-1) date 2020-05-24 08:12:45*
%MOMM*%
%LPD*%
G04 APERTURE LIST*
%ADD10C,0.050000*%
%ADD11C,0.100000*%
G04 APERTURE END LIST*
D10*
X275880000Y-49400000D02*
G75*
G02X273600000Y-49400000I-1140000J0D01*
G01*
X273600000Y-57760000D02*
G75*
G02X275880000Y-57760000I1140000J0D01*
G01*
X275880000Y-68780000D02*
G75*
G02X273600000Y-68780000I-1140000J0D01*
G01*
X273600000Y-76380000D02*
G75*
G02X275880000Y-76380000I1140000J0D01*
G01*
X275880000Y-87400000D02*
G75*
G02X273600000Y-87400000I-1140000J0D01*
G01*
X273600000Y-95760000D02*
G75*
G02X275880000Y-95760000I1140000J0D01*
G01*
X275880000Y-57760000D02*
X275880000Y-68780000D01*
X275880000Y-95760000D02*
X275880000Y-106780000D01*
X273600000Y-95760000D02*
X273600000Y-106780000D01*
X275880000Y-76380000D02*
X275880000Y-87400000D01*
X273600000Y-76380000D02*
X273600000Y-87400000D01*
X273600000Y-57760000D02*
X273600000Y-68780000D01*
X273600000Y-38380000D02*
X273600000Y-49400000D01*
X275880000Y-38380000D02*
X275880000Y-49400000D01*
X352640009Y-34960000D02*
X279300000Y-34960000D01*
X356060009Y-106780000D02*
X356060009Y-38380000D01*
X279300000Y-110200000D02*
X352640009Y-110200000D01*
X279300000Y-110200000D02*
G75*
G02X275880000Y-106780000I0J3420000D01*
G01*
X275880000Y-38380000D02*
G75*
G02X279300000Y-34960000I3420000J0D01*
G01*
X352640009Y-34960000D02*
G75*
G02X356060009Y-38380000I0J-3420000D01*
G01*
X356060009Y-106780000D02*
G75*
G02X352640009Y-110200000I-3420000J0D01*
G01*
X270180000Y-110200000D02*
X49780000Y-110200000D01*
X49780000Y-34960000D02*
X270180000Y-34960000D01*
X46360000Y-106780000D02*
X46360000Y-38380000D01*
X49780000Y-110200000D02*
G75*
G02X46360000Y-106780000I0J3420000D01*
G01*
X46360000Y-38380000D02*
G75*
G02X49780000Y-34960000I3420000J0D01*
G01*
X270180000Y-34960000D02*
G75*
G02X273600000Y-38380000I0J-3420000D01*
G01*
X273600000Y-106780000D02*
G75*
G02X270180000Y-110200000I-3420000J0D01*
G01*
D11*
X353639087Y-108079734D02*
X340239087Y-108079734D01*
X340239087Y-108079734D02*
G75*
G02X339939087Y-107779734I0J300000D01*
G01*
X339939087Y-107779734D02*
X339939087Y-107379734D01*
X339939087Y-94379734D02*
G75*
G02X340239087Y-94079734I300000J0D01*
G01*
X353639087Y-94079734D02*
X340239087Y-94079734D01*
X339939087Y-98479734D02*
X339939087Y-103679734D01*
X339939087Y-94779734D02*
X339939087Y-94379734D01*
X353939087Y-107379734D02*
X353939087Y-107779734D01*
X353639087Y-94079734D02*
G75*
G02X353939087Y-94379734I0J-300000D01*
G01*
X354939087Y-97979734D02*
G75*
G02X354739087Y-98179734I-200000J0D01*
G01*
X353939087Y-98479734D02*
G75*
G02X354239087Y-98179734I300000J0D01*
G01*
X354239087Y-95079734D02*
X354639087Y-95079734D01*
X354939087Y-97979734D02*
X354939087Y-95379734D01*
X354739087Y-98179734D02*
X354239087Y-98179734D01*
X353939087Y-103679734D02*
X353939087Y-98479734D01*
X353939087Y-107779734D02*
G75*
G02X353639087Y-108079734I-300000J0D01*
G01*
X354239087Y-95079734D02*
G75*
G02X353939087Y-94779734I0J300000D01*
G01*
X354639087Y-95079734D02*
G75*
G02X354939087Y-95379734I0J-300000D01*
G01*
X353939087Y-94379734D02*
X353939087Y-94779734D01*
X354239087Y-103979734D02*
G75*
G02X353939087Y-103679734I0J300000D01*
G01*
X354639087Y-103979734D02*
G75*
G02X354939087Y-104279734I0J-300000D01*
G01*
X354739087Y-107079734D02*
X354239087Y-107079734D01*
X354939087Y-106879734D02*
X354939087Y-104279734D01*
X354239087Y-103979734D02*
X354639087Y-103979734D01*
X353939087Y-107379734D02*
G75*
G02X354239087Y-107079734I300000J0D01*
G01*
X354939087Y-106879734D02*
G75*
G02X354739087Y-107079734I-200000J0D01*
G01*
X338939087Y-104179734D02*
G75*
G02X339139087Y-103979734I200000J0D01*
G01*
X339939087Y-103679734D02*
G75*
G02X339639087Y-103979734I-300000J0D01*
G01*
X339639087Y-107079734D02*
X339239087Y-107079734D01*
X338939087Y-104179734D02*
X338939087Y-106779734D01*
X339139087Y-103979734D02*
X339639087Y-103979734D01*
X339239087Y-107079734D02*
G75*
G02X338939087Y-106779734I0J300000D01*
G01*
X339639087Y-107079734D02*
G75*
G02X339939087Y-107379734I0J-300000D01*
G01*
X339139087Y-95079734D02*
X339639087Y-95079734D01*
X339639087Y-98179734D02*
X339239087Y-98179734D01*
X338939087Y-95279734D02*
X338939087Y-97879734D01*
X339939087Y-94779734D02*
G75*
G02X339639087Y-95079734I-300000J0D01*
G01*
X339639087Y-98179734D02*
G75*
G02X339939087Y-98479734I0J-300000D01*
G01*
X339239087Y-98179734D02*
G75*
G02X338939087Y-97879734I0J300000D01*
G01*
X338939087Y-95279734D02*
G75*
G02X339139087Y-95079734I200000J0D01*
G01*
X334639137Y-108079734D02*
X321239137Y-108079734D01*
X321239137Y-108079734D02*
G75*
G02X320939137Y-107779734I0J300000D01*
G01*
X320939137Y-107779734D02*
X320939137Y-107379734D01*
X320939137Y-94379734D02*
G75*
G02X321239137Y-94079734I300000J0D01*
G01*
X334639137Y-94079734D02*
X321239137Y-94079734D01*
X320939137Y-98479734D02*
X320939137Y-103679734D01*
X320939137Y-94779734D02*
X320939137Y-94379734D01*
X334939137Y-107379734D02*
X334939137Y-107779734D01*
X334639137Y-94079734D02*
G75*
G02X334939137Y-94379734I0J-300000D01*
G01*
X335939137Y-97979734D02*
G75*
G02X335739137Y-98179734I-200000J0D01*
G01*
X334939137Y-98479734D02*
G75*
G02X335239137Y-98179734I300000J0D01*
G01*
X335239137Y-95079734D02*
X335639137Y-95079734D01*
X335939137Y-97979734D02*
X335939137Y-95379734D01*
X335739137Y-98179734D02*
X335239137Y-98179734D01*
X334939137Y-103679734D02*
X334939137Y-98479734D01*
X334939137Y-107779734D02*
G75*
G02X334639137Y-108079734I-300000J0D01*
G01*
X335239137Y-95079734D02*
G75*
G02X334939137Y-94779734I0J300000D01*
G01*
X335639137Y-95079734D02*
G75*
G02X335939137Y-95379734I0J-300000D01*
G01*
X334939137Y-94379734D02*
X334939137Y-94779734D01*
X335239137Y-103979734D02*
G75*
G02X334939137Y-103679734I0J300000D01*
G01*
X335639137Y-103979734D02*
G75*
G02X335939137Y-104279734I0J-300000D01*
G01*
X335739137Y-107079734D02*
X335239137Y-107079734D01*
X335939137Y-106879734D02*
X335939137Y-104279734D01*
X335239137Y-103979734D02*
X335639137Y-103979734D01*
X334939137Y-107379734D02*
G75*
G02X335239137Y-107079734I300000J0D01*
G01*
X335939137Y-106879734D02*
G75*
G02X335739137Y-107079734I-200000J0D01*
G01*
X319939137Y-104179734D02*
G75*
G02X320139137Y-103979734I200000J0D01*
G01*
X320939137Y-103679734D02*
G75*
G02X320639137Y-103979734I-300000J0D01*
G01*
X320639137Y-107079734D02*
X320239137Y-107079734D01*
X319939137Y-104179734D02*
X319939137Y-106779734D01*
X320139137Y-103979734D02*
X320639137Y-103979734D01*
X320239137Y-107079734D02*
G75*
G02X319939137Y-106779734I0J300000D01*
G01*
X320639137Y-107079734D02*
G75*
G02X320939137Y-107379734I0J-300000D01*
G01*
X320139137Y-95079734D02*
X320639137Y-95079734D01*
X320639137Y-98179734D02*
X320239137Y-98179734D01*
X319939137Y-95279734D02*
X319939137Y-97879734D01*
X320939137Y-94779734D02*
G75*
G02X320639137Y-95079734I-300000J0D01*
G01*
X320639137Y-98179734D02*
G75*
G02X320939137Y-98479734I0J-300000D01*
G01*
X320239137Y-98179734D02*
G75*
G02X319939137Y-97879734I0J300000D01*
G01*
X319939137Y-95279734D02*
G75*
G02X320139137Y-95079734I200000J0D01*
G01*
X315639187Y-108079734D02*
X302239187Y-108079734D01*
X302239187Y-108079734D02*
G75*
G02X301939187Y-107779734I0J300000D01*
G01*
X301939187Y-107779734D02*
X301939187Y-107379734D01*
X301939187Y-94379734D02*
G75*
G02X302239187Y-94079734I300000J0D01*
G01*
X315639187Y-94079734D02*
X302239187Y-94079734D01*
X301939187Y-98479734D02*
X301939187Y-103679734D01*
X301939187Y-94779734D02*
X301939187Y-94379734D01*
X315939187Y-107379734D02*
X315939187Y-107779734D01*
X315639187Y-94079734D02*
G75*
G02X315939187Y-94379734I0J-300000D01*
G01*
X316939187Y-97979734D02*
G75*
G02X316739187Y-98179734I-200000J0D01*
G01*
X315939187Y-98479734D02*
G75*
G02X316239187Y-98179734I300000J0D01*
G01*
X316239187Y-95079734D02*
X316639187Y-95079734D01*
X316939187Y-97979734D02*
X316939187Y-95379734D01*
X316739187Y-98179734D02*
X316239187Y-98179734D01*
X315939187Y-103679734D02*
X315939187Y-98479734D01*
X315939187Y-107779734D02*
G75*
G02X315639187Y-108079734I-300000J0D01*
G01*
X316239187Y-95079734D02*
G75*
G02X315939187Y-94779734I0J300000D01*
G01*
X316639187Y-95079734D02*
G75*
G02X316939187Y-95379734I0J-300000D01*
G01*
X315939187Y-94379734D02*
X315939187Y-94779734D01*
X316239187Y-103979734D02*
G75*
G02X315939187Y-103679734I0J300000D01*
G01*
X316639187Y-103979734D02*
G75*
G02X316939187Y-104279734I0J-300000D01*
G01*
X316739187Y-107079734D02*
X316239187Y-107079734D01*
X316939187Y-106879734D02*
X316939187Y-104279734D01*
X316239187Y-103979734D02*
X316639187Y-103979734D01*
X315939187Y-107379734D02*
G75*
G02X316239187Y-107079734I300000J0D01*
G01*
X316939187Y-106879734D02*
G75*
G02X316739187Y-107079734I-200000J0D01*
G01*
X300939187Y-104179734D02*
G75*
G02X301139187Y-103979734I200000J0D01*
G01*
X301939187Y-103679734D02*
G75*
G02X301639187Y-103979734I-300000J0D01*
G01*
X301639187Y-107079734D02*
X301239187Y-107079734D01*
X300939187Y-104179734D02*
X300939187Y-106779734D01*
X301139187Y-103979734D02*
X301639187Y-103979734D01*
X301239187Y-107079734D02*
G75*
G02X300939187Y-106779734I0J300000D01*
G01*
X301639187Y-107079734D02*
G75*
G02X301939187Y-107379734I0J-300000D01*
G01*
X301139187Y-95079734D02*
X301639187Y-95079734D01*
X301639187Y-98179734D02*
X301239187Y-98179734D01*
X300939187Y-95279734D02*
X300939187Y-97879734D01*
X301939187Y-94779734D02*
G75*
G02X301639187Y-95079734I-300000J0D01*
G01*
X301639187Y-98179734D02*
G75*
G02X301939187Y-98479734I0J-300000D01*
G01*
X301239187Y-98179734D02*
G75*
G02X300939187Y-97879734I0J300000D01*
G01*
X300939187Y-95279734D02*
G75*
G02X301139187Y-95079734I200000J0D01*
G01*
X296639237Y-108079734D02*
X283239237Y-108079734D01*
X283239237Y-108079734D02*
G75*
G02X282939237Y-107779734I0J300000D01*
G01*
X282939237Y-107779734D02*
X282939237Y-107379734D01*
X282939237Y-94379734D02*
G75*
G02X283239237Y-94079734I300000J0D01*
G01*
X296639237Y-94079734D02*
X283239237Y-94079734D01*
X282939237Y-98479734D02*
X282939237Y-103679734D01*
X282939237Y-94779734D02*
X282939237Y-94379734D01*
X296939237Y-107379734D02*
X296939237Y-107779734D01*
X296639237Y-94079734D02*
G75*
G02X296939237Y-94379734I0J-300000D01*
G01*
X297939237Y-97979734D02*
G75*
G02X297739237Y-98179734I-200000J0D01*
G01*
X296939237Y-98479734D02*
G75*
G02X297239237Y-98179734I300000J0D01*
G01*
X297239237Y-95079734D02*
X297639237Y-95079734D01*
X297939237Y-97979734D02*
X297939237Y-95379734D01*
X297739237Y-98179734D02*
X297239237Y-98179734D01*
X296939237Y-103679734D02*
X296939237Y-98479734D01*
X296939237Y-107779734D02*
G75*
G02X296639237Y-108079734I-300000J0D01*
G01*
X297239237Y-95079734D02*
G75*
G02X296939237Y-94779734I0J300000D01*
G01*
X297639237Y-95079734D02*
G75*
G02X297939237Y-95379734I0J-300000D01*
G01*
X296939237Y-94379734D02*
X296939237Y-94779734D01*
X297239237Y-103979734D02*
G75*
G02X296939237Y-103679734I0J300000D01*
G01*
X297639237Y-103979734D02*
G75*
G02X297939237Y-104279734I0J-300000D01*
G01*
X297739237Y-107079734D02*
X297239237Y-107079734D01*
X297939237Y-106879734D02*
X297939237Y-104279734D01*
X297239237Y-103979734D02*
X297639237Y-103979734D01*
X296939237Y-107379734D02*
G75*
G02X297239237Y-107079734I300000J0D01*
G01*
X297939237Y-106879734D02*
G75*
G02X297739237Y-107079734I-200000J0D01*
G01*
X281939237Y-104179734D02*
G75*
G02X282139237Y-103979734I200000J0D01*
G01*
X282939237Y-103679734D02*
G75*
G02X282639237Y-103979734I-300000J0D01*
G01*
X282639237Y-107079734D02*
X282239237Y-107079734D01*
X281939237Y-104179734D02*
X281939237Y-106779734D01*
X282139237Y-103979734D02*
X282639237Y-103979734D01*
X282239237Y-107079734D02*
G75*
G02X281939237Y-106779734I0J300000D01*
G01*
X282639237Y-107079734D02*
G75*
G02X282939237Y-107379734I0J-300000D01*
G01*
X282139237Y-95079734D02*
X282639237Y-95079734D01*
X282639237Y-98179734D02*
X282239237Y-98179734D01*
X281939237Y-95279734D02*
X281939237Y-97879734D01*
X282939237Y-94779734D02*
G75*
G02X282639237Y-95079734I-300000J0D01*
G01*
X282639237Y-98179734D02*
G75*
G02X282939237Y-98479734I0J-300000D01*
G01*
X282239237Y-98179734D02*
G75*
G02X281939237Y-97879734I0J300000D01*
G01*
X281939237Y-95279734D02*
G75*
G02X282139237Y-95079734I200000J0D01*
G01*
X353639087Y-89079784D02*
X340239087Y-89079784D01*
X340239087Y-89079784D02*
G75*
G02X339939087Y-88779784I0J300000D01*
G01*
X339939087Y-88779784D02*
X339939087Y-88379784D01*
X339939087Y-75379784D02*
G75*
G02X340239087Y-75079784I300000J0D01*
G01*
X353639087Y-75079784D02*
X340239087Y-75079784D01*
X339939087Y-79479784D02*
X339939087Y-84679784D01*
X339939087Y-75779784D02*
X339939087Y-75379784D01*
X353939087Y-88379784D02*
X353939087Y-88779784D01*
X353639087Y-75079784D02*
G75*
G02X353939087Y-75379784I0J-300000D01*
G01*
X354939087Y-78979784D02*
G75*
G02X354739087Y-79179784I-200000J0D01*
G01*
X353939087Y-79479784D02*
G75*
G02X354239087Y-79179784I300000J0D01*
G01*
X354239087Y-76079784D02*
X354639087Y-76079784D01*
X354939087Y-78979784D02*
X354939087Y-76379784D01*
X354739087Y-79179784D02*
X354239087Y-79179784D01*
X353939087Y-84679784D02*
X353939087Y-79479784D01*
X353939087Y-88779784D02*
G75*
G02X353639087Y-89079784I-300000J0D01*
G01*
X354239087Y-76079784D02*
G75*
G02X353939087Y-75779784I0J300000D01*
G01*
X354639087Y-76079784D02*
G75*
G02X354939087Y-76379784I0J-300000D01*
G01*
X353939087Y-75379784D02*
X353939087Y-75779784D01*
X354239087Y-84979784D02*
G75*
G02X353939087Y-84679784I0J300000D01*
G01*
X354639087Y-84979784D02*
G75*
G02X354939087Y-85279784I0J-300000D01*
G01*
X354739087Y-88079784D02*
X354239087Y-88079784D01*
X354939087Y-87879784D02*
X354939087Y-85279784D01*
X354239087Y-84979784D02*
X354639087Y-84979784D01*
X353939087Y-88379784D02*
G75*
G02X354239087Y-88079784I300000J0D01*
G01*
X354939087Y-87879784D02*
G75*
G02X354739087Y-88079784I-200000J0D01*
G01*
X338939087Y-85179784D02*
G75*
G02X339139087Y-84979784I200000J0D01*
G01*
X339939087Y-84679784D02*
G75*
G02X339639087Y-84979784I-300000J0D01*
G01*
X339639087Y-88079784D02*
X339239087Y-88079784D01*
X338939087Y-85179784D02*
X338939087Y-87779784D01*
X339139087Y-84979784D02*
X339639087Y-84979784D01*
X339239087Y-88079784D02*
G75*
G02X338939087Y-87779784I0J300000D01*
G01*
X339639087Y-88079784D02*
G75*
G02X339939087Y-88379784I0J-300000D01*
G01*
X339139087Y-76079784D02*
X339639087Y-76079784D01*
X339639087Y-79179784D02*
X339239087Y-79179784D01*
X338939087Y-76279784D02*
X338939087Y-78879784D01*
X339939087Y-75779784D02*
G75*
G02X339639087Y-76079784I-300000J0D01*
G01*
X339639087Y-79179784D02*
G75*
G02X339939087Y-79479784I0J-300000D01*
G01*
X339239087Y-79179784D02*
G75*
G02X338939087Y-78879784I0J300000D01*
G01*
X338939087Y-76279784D02*
G75*
G02X339139087Y-76079784I200000J0D01*
G01*
X334639137Y-89079784D02*
X321239137Y-89079784D01*
X321239137Y-89079784D02*
G75*
G02X320939137Y-88779784I0J300000D01*
G01*
X320939137Y-88779784D02*
X320939137Y-88379784D01*
X320939137Y-75379784D02*
G75*
G02X321239137Y-75079784I300000J0D01*
G01*
X334639137Y-75079784D02*
X321239137Y-75079784D01*
X320939137Y-79479784D02*
X320939137Y-84679784D01*
X320939137Y-75779784D02*
X320939137Y-75379784D01*
X334939137Y-88379784D02*
X334939137Y-88779784D01*
X334639137Y-75079784D02*
G75*
G02X334939137Y-75379784I0J-300000D01*
G01*
X335939137Y-78979784D02*
G75*
G02X335739137Y-79179784I-200000J0D01*
G01*
X334939137Y-79479784D02*
G75*
G02X335239137Y-79179784I300000J0D01*
G01*
X335239137Y-76079784D02*
X335639137Y-76079784D01*
X335939137Y-78979784D02*
X335939137Y-76379784D01*
X335739137Y-79179784D02*
X335239137Y-79179784D01*
X334939137Y-84679784D02*
X334939137Y-79479784D01*
X334939137Y-88779784D02*
G75*
G02X334639137Y-89079784I-300000J0D01*
G01*
X335239137Y-76079784D02*
G75*
G02X334939137Y-75779784I0J300000D01*
G01*
X335639137Y-76079784D02*
G75*
G02X335939137Y-76379784I0J-300000D01*
G01*
X334939137Y-75379784D02*
X334939137Y-75779784D01*
X335239137Y-84979784D02*
G75*
G02X334939137Y-84679784I0J300000D01*
G01*
X335639137Y-84979784D02*
G75*
G02X335939137Y-85279784I0J-300000D01*
G01*
X335739137Y-88079784D02*
X335239137Y-88079784D01*
X335939137Y-87879784D02*
X335939137Y-85279784D01*
X335239137Y-84979784D02*
X335639137Y-84979784D01*
X334939137Y-88379784D02*
G75*
G02X335239137Y-88079784I300000J0D01*
G01*
X335939137Y-87879784D02*
G75*
G02X335739137Y-88079784I-200000J0D01*
G01*
X319939137Y-85179784D02*
G75*
G02X320139137Y-84979784I200000J0D01*
G01*
X320939137Y-84679784D02*
G75*
G02X320639137Y-84979784I-300000J0D01*
G01*
X320639137Y-88079784D02*
X320239137Y-88079784D01*
X319939137Y-85179784D02*
X319939137Y-87779784D01*
X320139137Y-84979784D02*
X320639137Y-84979784D01*
X320239137Y-88079784D02*
G75*
G02X319939137Y-87779784I0J300000D01*
G01*
X320639137Y-88079784D02*
G75*
G02X320939137Y-88379784I0J-300000D01*
G01*
X320139137Y-76079784D02*
X320639137Y-76079784D01*
X320639137Y-79179784D02*
X320239137Y-79179784D01*
X319939137Y-76279784D02*
X319939137Y-78879784D01*
X320939137Y-75779784D02*
G75*
G02X320639137Y-76079784I-300000J0D01*
G01*
X320639137Y-79179784D02*
G75*
G02X320939137Y-79479784I0J-300000D01*
G01*
X320239137Y-79179784D02*
G75*
G02X319939137Y-78879784I0J300000D01*
G01*
X319939137Y-76279784D02*
G75*
G02X320139137Y-76079784I200000J0D01*
G01*
X315639187Y-89079784D02*
X302239187Y-89079784D01*
X302239187Y-89079784D02*
G75*
G02X301939187Y-88779784I0J300000D01*
G01*
X301939187Y-88779784D02*
X301939187Y-88379784D01*
X301939187Y-75379784D02*
G75*
G02X302239187Y-75079784I300000J0D01*
G01*
X315639187Y-75079784D02*
X302239187Y-75079784D01*
X301939187Y-79479784D02*
X301939187Y-84679784D01*
X301939187Y-75779784D02*
X301939187Y-75379784D01*
X315939187Y-88379784D02*
X315939187Y-88779784D01*
X315639187Y-75079784D02*
G75*
G02X315939187Y-75379784I0J-300000D01*
G01*
X316939187Y-78979784D02*
G75*
G02X316739187Y-79179784I-200000J0D01*
G01*
X315939187Y-79479784D02*
G75*
G02X316239187Y-79179784I300000J0D01*
G01*
X316239187Y-76079784D02*
X316639187Y-76079784D01*
X316939187Y-78979784D02*
X316939187Y-76379784D01*
X316739187Y-79179784D02*
X316239187Y-79179784D01*
X315939187Y-84679784D02*
X315939187Y-79479784D01*
X315939187Y-88779784D02*
G75*
G02X315639187Y-89079784I-300000J0D01*
G01*
X316239187Y-76079784D02*
G75*
G02X315939187Y-75779784I0J300000D01*
G01*
X316639187Y-76079784D02*
G75*
G02X316939187Y-76379784I0J-300000D01*
G01*
X315939187Y-75379784D02*
X315939187Y-75779784D01*
X316239187Y-84979784D02*
G75*
G02X315939187Y-84679784I0J300000D01*
G01*
X316639187Y-84979784D02*
G75*
G02X316939187Y-85279784I0J-300000D01*
G01*
X316739187Y-88079784D02*
X316239187Y-88079784D01*
X316939187Y-87879784D02*
X316939187Y-85279784D01*
X316239187Y-84979784D02*
X316639187Y-84979784D01*
X315939187Y-88379784D02*
G75*
G02X316239187Y-88079784I300000J0D01*
G01*
X316939187Y-87879784D02*
G75*
G02X316739187Y-88079784I-200000J0D01*
G01*
X300939187Y-85179784D02*
G75*
G02X301139187Y-84979784I200000J0D01*
G01*
X301939187Y-84679784D02*
G75*
G02X301639187Y-84979784I-300000J0D01*
G01*
X301639187Y-88079784D02*
X301239187Y-88079784D01*
X300939187Y-85179784D02*
X300939187Y-87779784D01*
X301139187Y-84979784D02*
X301639187Y-84979784D01*
X301239187Y-88079784D02*
G75*
G02X300939187Y-87779784I0J300000D01*
G01*
X301639187Y-88079784D02*
G75*
G02X301939187Y-88379784I0J-300000D01*
G01*
X301139187Y-76079784D02*
X301639187Y-76079784D01*
X301639187Y-79179784D02*
X301239187Y-79179784D01*
X300939187Y-76279784D02*
X300939187Y-78879784D01*
X301939187Y-75779784D02*
G75*
G02X301639187Y-76079784I-300000J0D01*
G01*
X301639187Y-79179784D02*
G75*
G02X301939187Y-79479784I0J-300000D01*
G01*
X301239187Y-79179784D02*
G75*
G02X300939187Y-78879784I0J300000D01*
G01*
X300939187Y-76279784D02*
G75*
G02X301139187Y-76079784I200000J0D01*
G01*
X296639237Y-89079784D02*
X283239237Y-89079784D01*
X283239237Y-89079784D02*
G75*
G02X282939237Y-88779784I0J300000D01*
G01*
X282939237Y-88779784D02*
X282939237Y-88379784D01*
X282939237Y-75379784D02*
G75*
G02X283239237Y-75079784I300000J0D01*
G01*
X296639237Y-75079784D02*
X283239237Y-75079784D01*
X282939237Y-79479784D02*
X282939237Y-84679784D01*
X282939237Y-75779784D02*
X282939237Y-75379784D01*
X296939237Y-88379784D02*
X296939237Y-88779784D01*
X296639237Y-75079784D02*
G75*
G02X296939237Y-75379784I0J-300000D01*
G01*
X297939237Y-78979784D02*
G75*
G02X297739237Y-79179784I-200000J0D01*
G01*
X296939237Y-79479784D02*
G75*
G02X297239237Y-79179784I300000J0D01*
G01*
X297239237Y-76079784D02*
X297639237Y-76079784D01*
X297939237Y-78979784D02*
X297939237Y-76379784D01*
X297739237Y-79179784D02*
X297239237Y-79179784D01*
X296939237Y-84679784D02*
X296939237Y-79479784D01*
X296939237Y-88779784D02*
G75*
G02X296639237Y-89079784I-300000J0D01*
G01*
X297239237Y-76079784D02*
G75*
G02X296939237Y-75779784I0J300000D01*
G01*
X297639237Y-76079784D02*
G75*
G02X297939237Y-76379784I0J-300000D01*
G01*
X296939237Y-75379784D02*
X296939237Y-75779784D01*
X297239237Y-84979784D02*
G75*
G02X296939237Y-84679784I0J300000D01*
G01*
X297639237Y-84979784D02*
G75*
G02X297939237Y-85279784I0J-300000D01*
G01*
X297739237Y-88079784D02*
X297239237Y-88079784D01*
X297939237Y-87879784D02*
X297939237Y-85279784D01*
X297239237Y-84979784D02*
X297639237Y-84979784D01*
X296939237Y-88379784D02*
G75*
G02X297239237Y-88079784I300000J0D01*
G01*
X297939237Y-87879784D02*
G75*
G02X297739237Y-88079784I-200000J0D01*
G01*
X281939237Y-85179784D02*
G75*
G02X282139237Y-84979784I200000J0D01*
G01*
X282939237Y-84679784D02*
G75*
G02X282639237Y-84979784I-300000J0D01*
G01*
X282639237Y-88079784D02*
X282239237Y-88079784D01*
X281939237Y-85179784D02*
X281939237Y-87779784D01*
X282139237Y-84979784D02*
X282639237Y-84979784D01*
X282239237Y-88079784D02*
G75*
G02X281939237Y-87779784I0J300000D01*
G01*
X282639237Y-88079784D02*
G75*
G02X282939237Y-88379784I0J-300000D01*
G01*
X282139237Y-76079784D02*
X282639237Y-76079784D01*
X282639237Y-79179784D02*
X282239237Y-79179784D01*
X281939237Y-76279784D02*
X281939237Y-78879784D01*
X282939237Y-75779784D02*
G75*
G02X282639237Y-76079784I-300000J0D01*
G01*
X282639237Y-79179784D02*
G75*
G02X282939237Y-79479784I0J-300000D01*
G01*
X282239237Y-79179784D02*
G75*
G02X281939237Y-78879784I0J300000D01*
G01*
X281939237Y-76279784D02*
G75*
G02X282139237Y-76079784I200000J0D01*
G01*
X353639087Y-70079834D02*
X340239087Y-70079834D01*
X340239087Y-70079834D02*
G75*
G02X339939087Y-69779834I0J300000D01*
G01*
X339939087Y-69779834D02*
X339939087Y-69379834D01*
X339939087Y-56379834D02*
G75*
G02X340239087Y-56079834I300000J0D01*
G01*
X353639087Y-56079834D02*
X340239087Y-56079834D01*
X339939087Y-60479834D02*
X339939087Y-65679834D01*
X339939087Y-56779834D02*
X339939087Y-56379834D01*
X353939087Y-69379834D02*
X353939087Y-69779834D01*
X353639087Y-56079834D02*
G75*
G02X353939087Y-56379834I0J-300000D01*
G01*
X354939087Y-59979834D02*
G75*
G02X354739087Y-60179834I-200000J0D01*
G01*
X353939087Y-60479834D02*
G75*
G02X354239087Y-60179834I300000J0D01*
G01*
X354239087Y-57079834D02*
X354639087Y-57079834D01*
X354939087Y-59979834D02*
X354939087Y-57379834D01*
X354739087Y-60179834D02*
X354239087Y-60179834D01*
X353939087Y-65679834D02*
X353939087Y-60479834D01*
X353939087Y-69779834D02*
G75*
G02X353639087Y-70079834I-300000J0D01*
G01*
X354239087Y-57079834D02*
G75*
G02X353939087Y-56779834I0J300000D01*
G01*
X354639087Y-57079834D02*
G75*
G02X354939087Y-57379834I0J-300000D01*
G01*
X353939087Y-56379834D02*
X353939087Y-56779834D01*
X354239087Y-65979834D02*
G75*
G02X353939087Y-65679834I0J300000D01*
G01*
X354639087Y-65979834D02*
G75*
G02X354939087Y-66279834I0J-300000D01*
G01*
X354739087Y-69079834D02*
X354239087Y-69079834D01*
X354939087Y-68879834D02*
X354939087Y-66279834D01*
X354239087Y-65979834D02*
X354639087Y-65979834D01*
X353939087Y-69379834D02*
G75*
G02X354239087Y-69079834I300000J0D01*
G01*
X354939087Y-68879834D02*
G75*
G02X354739087Y-69079834I-200000J0D01*
G01*
X338939087Y-66179834D02*
G75*
G02X339139087Y-65979834I200000J0D01*
G01*
X339939087Y-65679834D02*
G75*
G02X339639087Y-65979834I-300000J0D01*
G01*
X339639087Y-69079834D02*
X339239087Y-69079834D01*
X338939087Y-66179834D02*
X338939087Y-68779834D01*
X339139087Y-65979834D02*
X339639087Y-65979834D01*
X339239087Y-69079834D02*
G75*
G02X338939087Y-68779834I0J300000D01*
G01*
X339639087Y-69079834D02*
G75*
G02X339939087Y-69379834I0J-300000D01*
G01*
X339139087Y-57079834D02*
X339639087Y-57079834D01*
X339639087Y-60179834D02*
X339239087Y-60179834D01*
X338939087Y-57279834D02*
X338939087Y-59879834D01*
X339939087Y-56779834D02*
G75*
G02X339639087Y-57079834I-300000J0D01*
G01*
X339639087Y-60179834D02*
G75*
G02X339939087Y-60479834I0J-300000D01*
G01*
X339239087Y-60179834D02*
G75*
G02X338939087Y-59879834I0J300000D01*
G01*
X338939087Y-57279834D02*
G75*
G02X339139087Y-57079834I200000J0D01*
G01*
X334639137Y-70079834D02*
X321239137Y-70079834D01*
X321239137Y-70079834D02*
G75*
G02X320939137Y-69779834I0J300000D01*
G01*
X320939137Y-69779834D02*
X320939137Y-69379834D01*
X320939137Y-56379834D02*
G75*
G02X321239137Y-56079834I300000J0D01*
G01*
X334639137Y-56079834D02*
X321239137Y-56079834D01*
X320939137Y-60479834D02*
X320939137Y-65679834D01*
X320939137Y-56779834D02*
X320939137Y-56379834D01*
X334939137Y-69379834D02*
X334939137Y-69779834D01*
X334639137Y-56079834D02*
G75*
G02X334939137Y-56379834I0J-300000D01*
G01*
X335939137Y-59979834D02*
G75*
G02X335739137Y-60179834I-200000J0D01*
G01*
X334939137Y-60479834D02*
G75*
G02X335239137Y-60179834I300000J0D01*
G01*
X335239137Y-57079834D02*
X335639137Y-57079834D01*
X335939137Y-59979834D02*
X335939137Y-57379834D01*
X335739137Y-60179834D02*
X335239137Y-60179834D01*
X334939137Y-65679834D02*
X334939137Y-60479834D01*
X334939137Y-69779834D02*
G75*
G02X334639137Y-70079834I-300000J0D01*
G01*
X335239137Y-57079834D02*
G75*
G02X334939137Y-56779834I0J300000D01*
G01*
X335639137Y-57079834D02*
G75*
G02X335939137Y-57379834I0J-300000D01*
G01*
X334939137Y-56379834D02*
X334939137Y-56779834D01*
X335239137Y-65979834D02*
G75*
G02X334939137Y-65679834I0J300000D01*
G01*
X335639137Y-65979834D02*
G75*
G02X335939137Y-66279834I0J-300000D01*
G01*
X335739137Y-69079834D02*
X335239137Y-69079834D01*
X335939137Y-68879834D02*
X335939137Y-66279834D01*
X335239137Y-65979834D02*
X335639137Y-65979834D01*
X334939137Y-69379834D02*
G75*
G02X335239137Y-69079834I300000J0D01*
G01*
X335939137Y-68879834D02*
G75*
G02X335739137Y-69079834I-200000J0D01*
G01*
X319939137Y-66179834D02*
G75*
G02X320139137Y-65979834I200000J0D01*
G01*
X320939137Y-65679834D02*
G75*
G02X320639137Y-65979834I-300000J0D01*
G01*
X320639137Y-69079834D02*
X320239137Y-69079834D01*
X319939137Y-66179834D02*
X319939137Y-68779834D01*
X320139137Y-65979834D02*
X320639137Y-65979834D01*
X320239137Y-69079834D02*
G75*
G02X319939137Y-68779834I0J300000D01*
G01*
X320639137Y-69079834D02*
G75*
G02X320939137Y-69379834I0J-300000D01*
G01*
X320139137Y-57079834D02*
X320639137Y-57079834D01*
X320639137Y-60179834D02*
X320239137Y-60179834D01*
X319939137Y-57279834D02*
X319939137Y-59879834D01*
X320939137Y-56779834D02*
G75*
G02X320639137Y-57079834I-300000J0D01*
G01*
X320639137Y-60179834D02*
G75*
G02X320939137Y-60479834I0J-300000D01*
G01*
X320239137Y-60179834D02*
G75*
G02X319939137Y-59879834I0J300000D01*
G01*
X319939137Y-57279834D02*
G75*
G02X320139137Y-57079834I200000J0D01*
G01*
X315639187Y-70079834D02*
X302239187Y-70079834D01*
X302239187Y-70079834D02*
G75*
G02X301939187Y-69779834I0J300000D01*
G01*
X301939187Y-69779834D02*
X301939187Y-69379834D01*
X301939187Y-56379834D02*
G75*
G02X302239187Y-56079834I300000J0D01*
G01*
X315639187Y-56079834D02*
X302239187Y-56079834D01*
X301939187Y-60479834D02*
X301939187Y-65679834D01*
X301939187Y-56779834D02*
X301939187Y-56379834D01*
X315939187Y-69379834D02*
X315939187Y-69779834D01*
X315639187Y-56079834D02*
G75*
G02X315939187Y-56379834I0J-300000D01*
G01*
X316939187Y-59979834D02*
G75*
G02X316739187Y-60179834I-200000J0D01*
G01*
X315939187Y-60479834D02*
G75*
G02X316239187Y-60179834I300000J0D01*
G01*
X316239187Y-57079834D02*
X316639187Y-57079834D01*
X316939187Y-59979834D02*
X316939187Y-57379834D01*
X316739187Y-60179834D02*
X316239187Y-60179834D01*
X315939187Y-65679834D02*
X315939187Y-60479834D01*
X315939187Y-69779834D02*
G75*
G02X315639187Y-70079834I-300000J0D01*
G01*
X316239187Y-57079834D02*
G75*
G02X315939187Y-56779834I0J300000D01*
G01*
X316639187Y-57079834D02*
G75*
G02X316939187Y-57379834I0J-300000D01*
G01*
X315939187Y-56379834D02*
X315939187Y-56779834D01*
X316239187Y-65979834D02*
G75*
G02X315939187Y-65679834I0J300000D01*
G01*
X316639187Y-65979834D02*
G75*
G02X316939187Y-66279834I0J-300000D01*
G01*
X316739187Y-69079834D02*
X316239187Y-69079834D01*
X316939187Y-68879834D02*
X316939187Y-66279834D01*
X316239187Y-65979834D02*
X316639187Y-65979834D01*
X315939187Y-69379834D02*
G75*
G02X316239187Y-69079834I300000J0D01*
G01*
X316939187Y-68879834D02*
G75*
G02X316739187Y-69079834I-200000J0D01*
G01*
X300939187Y-66179834D02*
G75*
G02X301139187Y-65979834I200000J0D01*
G01*
X301939187Y-65679834D02*
G75*
G02X301639187Y-65979834I-300000J0D01*
G01*
X301639187Y-69079834D02*
X301239187Y-69079834D01*
X300939187Y-66179834D02*
X300939187Y-68779834D01*
X301139187Y-65979834D02*
X301639187Y-65979834D01*
X301239187Y-69079834D02*
G75*
G02X300939187Y-68779834I0J300000D01*
G01*
X301639187Y-69079834D02*
G75*
G02X301939187Y-69379834I0J-300000D01*
G01*
X301139187Y-57079834D02*
X301639187Y-57079834D01*
X301639187Y-60179834D02*
X301239187Y-60179834D01*
X300939187Y-57279834D02*
X300939187Y-59879834D01*
X301939187Y-56779834D02*
G75*
G02X301639187Y-57079834I-300000J0D01*
G01*
X301639187Y-60179834D02*
G75*
G02X301939187Y-60479834I0J-300000D01*
G01*
X301239187Y-60179834D02*
G75*
G02X300939187Y-59879834I0J300000D01*
G01*
X300939187Y-57279834D02*
G75*
G02X301139187Y-57079834I200000J0D01*
G01*
X296639237Y-70079834D02*
X283239237Y-70079834D01*
X283239237Y-70079834D02*
G75*
G02X282939237Y-69779834I0J300000D01*
G01*
X282939237Y-69779834D02*
X282939237Y-69379834D01*
X282939237Y-56379834D02*
G75*
G02X283239237Y-56079834I300000J0D01*
G01*
X296639237Y-56079834D02*
X283239237Y-56079834D01*
X282939237Y-60479834D02*
X282939237Y-65679834D01*
X282939237Y-56779834D02*
X282939237Y-56379834D01*
X296939237Y-69379834D02*
X296939237Y-69779834D01*
X296639237Y-56079834D02*
G75*
G02X296939237Y-56379834I0J-300000D01*
G01*
X297939237Y-59979834D02*
G75*
G02X297739237Y-60179834I-200000J0D01*
G01*
X296939237Y-60479834D02*
G75*
G02X297239237Y-60179834I300000J0D01*
G01*
X297239237Y-57079834D02*
X297639237Y-57079834D01*
X297939237Y-59979834D02*
X297939237Y-57379834D01*
X297739237Y-60179834D02*
X297239237Y-60179834D01*
X296939237Y-65679834D02*
X296939237Y-60479834D01*
X296939237Y-69779834D02*
G75*
G02X296639237Y-70079834I-300000J0D01*
G01*
X297239237Y-57079834D02*
G75*
G02X296939237Y-56779834I0J300000D01*
G01*
X297639237Y-57079834D02*
G75*
G02X297939237Y-57379834I0J-300000D01*
G01*
X296939237Y-56379834D02*
X296939237Y-56779834D01*
X297239237Y-65979834D02*
G75*
G02X296939237Y-65679834I0J300000D01*
G01*
X297639237Y-65979834D02*
G75*
G02X297939237Y-66279834I0J-300000D01*
G01*
X297739237Y-69079834D02*
X297239237Y-69079834D01*
X297939237Y-68879834D02*
X297939237Y-66279834D01*
X297239237Y-65979834D02*
X297639237Y-65979834D01*
X296939237Y-69379834D02*
G75*
G02X297239237Y-69079834I300000J0D01*
G01*
X297939237Y-68879834D02*
G75*
G02X297739237Y-69079834I-200000J0D01*
G01*
X281939237Y-66179834D02*
G75*
G02X282139237Y-65979834I200000J0D01*
G01*
X282939237Y-65679834D02*
G75*
G02X282639237Y-65979834I-300000J0D01*
G01*
X282639237Y-69079834D02*
X282239237Y-69079834D01*
X281939237Y-66179834D02*
X281939237Y-68779834D01*
X282139237Y-65979834D02*
X282639237Y-65979834D01*
X282239237Y-69079834D02*
G75*
G02X281939237Y-68779834I0J300000D01*
G01*
X282639237Y-69079834D02*
G75*
G02X282939237Y-69379834I0J-300000D01*
G01*
X282139237Y-57079834D02*
X282639237Y-57079834D01*
X282639237Y-60179834D02*
X282239237Y-60179834D01*
X281939237Y-57279834D02*
X281939237Y-59879834D01*
X282939237Y-56779834D02*
G75*
G02X282639237Y-57079834I-300000J0D01*
G01*
X282639237Y-60179834D02*
G75*
G02X282939237Y-60479834I0J-300000D01*
G01*
X282239237Y-60179834D02*
G75*
G02X281939237Y-59879834I0J300000D01*
G01*
X281939237Y-57279834D02*
G75*
G02X282139237Y-57079834I200000J0D01*
G01*
X353639087Y-51079884D02*
X340239087Y-51079884D01*
X340239087Y-51079884D02*
G75*
G02X339939087Y-50779884I0J300000D01*
G01*
X339939087Y-50779884D02*
X339939087Y-50379884D01*
X339939087Y-37379884D02*
G75*
G02X340239087Y-37079884I300000J0D01*
G01*
X353639087Y-37079884D02*
X340239087Y-37079884D01*
X339939087Y-41479884D02*
X339939087Y-46679884D01*
X339939087Y-37779884D02*
X339939087Y-37379884D01*
X353939087Y-50379884D02*
X353939087Y-50779884D01*
X353639087Y-37079884D02*
G75*
G02X353939087Y-37379884I0J-300000D01*
G01*
X354939087Y-40979884D02*
G75*
G02X354739087Y-41179884I-200000J0D01*
G01*
X353939087Y-41479884D02*
G75*
G02X354239087Y-41179884I300000J0D01*
G01*
X354239087Y-38079884D02*
X354639087Y-38079884D01*
X354939087Y-40979884D02*
X354939087Y-38379884D01*
X354739087Y-41179884D02*
X354239087Y-41179884D01*
X353939087Y-46679884D02*
X353939087Y-41479884D01*
X353939087Y-50779884D02*
G75*
G02X353639087Y-51079884I-300000J0D01*
G01*
X354239087Y-38079884D02*
G75*
G02X353939087Y-37779884I0J300000D01*
G01*
X354639087Y-38079884D02*
G75*
G02X354939087Y-38379884I0J-300000D01*
G01*
X353939087Y-37379884D02*
X353939087Y-37779884D01*
X354239087Y-46979884D02*
G75*
G02X353939087Y-46679884I0J300000D01*
G01*
X354639087Y-46979884D02*
G75*
G02X354939087Y-47279884I0J-300000D01*
G01*
X354739087Y-50079884D02*
X354239087Y-50079884D01*
X354939087Y-49879884D02*
X354939087Y-47279884D01*
X354239087Y-46979884D02*
X354639087Y-46979884D01*
X353939087Y-50379884D02*
G75*
G02X354239087Y-50079884I300000J0D01*
G01*
X354939087Y-49879884D02*
G75*
G02X354739087Y-50079884I-200000J0D01*
G01*
X338939087Y-47179884D02*
G75*
G02X339139087Y-46979884I200000J0D01*
G01*
X339939087Y-46679884D02*
G75*
G02X339639087Y-46979884I-300000J0D01*
G01*
X339639087Y-50079884D02*
X339239087Y-50079884D01*
X338939087Y-47179884D02*
X338939087Y-49779884D01*
X339139087Y-46979884D02*
X339639087Y-46979884D01*
X339239087Y-50079884D02*
G75*
G02X338939087Y-49779884I0J300000D01*
G01*
X339639087Y-50079884D02*
G75*
G02X339939087Y-50379884I0J-300000D01*
G01*
X339139087Y-38079884D02*
X339639087Y-38079884D01*
X339639087Y-41179884D02*
X339239087Y-41179884D01*
X338939087Y-38279884D02*
X338939087Y-40879884D01*
X339939087Y-37779884D02*
G75*
G02X339639087Y-38079884I-300000J0D01*
G01*
X339639087Y-41179884D02*
G75*
G02X339939087Y-41479884I0J-300000D01*
G01*
X339239087Y-41179884D02*
G75*
G02X338939087Y-40879884I0J300000D01*
G01*
X338939087Y-38279884D02*
G75*
G02X339139087Y-38079884I200000J0D01*
G01*
X334639137Y-51079884D02*
X321239137Y-51079884D01*
X321239137Y-51079884D02*
G75*
G02X320939137Y-50779884I0J300000D01*
G01*
X320939137Y-50779884D02*
X320939137Y-50379884D01*
X320939137Y-37379884D02*
G75*
G02X321239137Y-37079884I300000J0D01*
G01*
X334639137Y-37079884D02*
X321239137Y-37079884D01*
X320939137Y-41479884D02*
X320939137Y-46679884D01*
X320939137Y-37779884D02*
X320939137Y-37379884D01*
X334939137Y-50379884D02*
X334939137Y-50779884D01*
X334639137Y-37079884D02*
G75*
G02X334939137Y-37379884I0J-300000D01*
G01*
X335939137Y-40979884D02*
G75*
G02X335739137Y-41179884I-200000J0D01*
G01*
X334939137Y-41479884D02*
G75*
G02X335239137Y-41179884I300000J0D01*
G01*
X335239137Y-38079884D02*
X335639137Y-38079884D01*
X335939137Y-40979884D02*
X335939137Y-38379884D01*
X335739137Y-41179884D02*
X335239137Y-41179884D01*
X334939137Y-46679884D02*
X334939137Y-41479884D01*
X334939137Y-50779884D02*
G75*
G02X334639137Y-51079884I-300000J0D01*
G01*
X335239137Y-38079884D02*
G75*
G02X334939137Y-37779884I0J300000D01*
G01*
X335639137Y-38079884D02*
G75*
G02X335939137Y-38379884I0J-300000D01*
G01*
X334939137Y-37379884D02*
X334939137Y-37779884D01*
X335239137Y-46979884D02*
G75*
G02X334939137Y-46679884I0J300000D01*
G01*
X335639137Y-46979884D02*
G75*
G02X335939137Y-47279884I0J-300000D01*
G01*
X335739137Y-50079884D02*
X335239137Y-50079884D01*
X335939137Y-49879884D02*
X335939137Y-47279884D01*
X335239137Y-46979884D02*
X335639137Y-46979884D01*
X334939137Y-50379884D02*
G75*
G02X335239137Y-50079884I300000J0D01*
G01*
X335939137Y-49879884D02*
G75*
G02X335739137Y-50079884I-200000J0D01*
G01*
X319939137Y-47179884D02*
G75*
G02X320139137Y-46979884I200000J0D01*
G01*
X320939137Y-46679884D02*
G75*
G02X320639137Y-46979884I-300000J0D01*
G01*
X320639137Y-50079884D02*
X320239137Y-50079884D01*
X319939137Y-47179884D02*
X319939137Y-49779884D01*
X320139137Y-46979884D02*
X320639137Y-46979884D01*
X320239137Y-50079884D02*
G75*
G02X319939137Y-49779884I0J300000D01*
G01*
X320639137Y-50079884D02*
G75*
G02X320939137Y-50379884I0J-300000D01*
G01*
X320139137Y-38079884D02*
X320639137Y-38079884D01*
X320639137Y-41179884D02*
X320239137Y-41179884D01*
X319939137Y-38279884D02*
X319939137Y-40879884D01*
X320939137Y-37779884D02*
G75*
G02X320639137Y-38079884I-300000J0D01*
G01*
X320639137Y-41179884D02*
G75*
G02X320939137Y-41479884I0J-300000D01*
G01*
X320239137Y-41179884D02*
G75*
G02X319939137Y-40879884I0J300000D01*
G01*
X319939137Y-38279884D02*
G75*
G02X320139137Y-38079884I200000J0D01*
G01*
X315639187Y-51079884D02*
X302239187Y-51079884D01*
X302239187Y-51079884D02*
G75*
G02X301939187Y-50779884I0J300000D01*
G01*
X301939187Y-50779884D02*
X301939187Y-50379884D01*
X301939187Y-37379884D02*
G75*
G02X302239187Y-37079884I300000J0D01*
G01*
X315639187Y-37079884D02*
X302239187Y-37079884D01*
X301939187Y-41479884D02*
X301939187Y-46679884D01*
X301939187Y-37779884D02*
X301939187Y-37379884D01*
X315939187Y-50379884D02*
X315939187Y-50779884D01*
X315639187Y-37079884D02*
G75*
G02X315939187Y-37379884I0J-300000D01*
G01*
X316939187Y-40979884D02*
G75*
G02X316739187Y-41179884I-200000J0D01*
G01*
X315939187Y-41479884D02*
G75*
G02X316239187Y-41179884I300000J0D01*
G01*
X316239187Y-38079884D02*
X316639187Y-38079884D01*
X316939187Y-40979884D02*
X316939187Y-38379884D01*
X316739187Y-41179884D02*
X316239187Y-41179884D01*
X315939187Y-46679884D02*
X315939187Y-41479884D01*
X315939187Y-50779884D02*
G75*
G02X315639187Y-51079884I-300000J0D01*
G01*
X316239187Y-38079884D02*
G75*
G02X315939187Y-37779884I0J300000D01*
G01*
X316639187Y-38079884D02*
G75*
G02X316939187Y-38379884I0J-300000D01*
G01*
X315939187Y-37379884D02*
X315939187Y-37779884D01*
X316239187Y-46979884D02*
G75*
G02X315939187Y-46679884I0J300000D01*
G01*
X316639187Y-46979884D02*
G75*
G02X316939187Y-47279884I0J-300000D01*
G01*
X316739187Y-50079884D02*
X316239187Y-50079884D01*
X316939187Y-49879884D02*
X316939187Y-47279884D01*
X316239187Y-46979884D02*
X316639187Y-46979884D01*
X315939187Y-50379884D02*
G75*
G02X316239187Y-50079884I300000J0D01*
G01*
X316939187Y-49879884D02*
G75*
G02X316739187Y-50079884I-200000J0D01*
G01*
X300939187Y-47179884D02*
G75*
G02X301139187Y-46979884I200000J0D01*
G01*
X301939187Y-46679884D02*
G75*
G02X301639187Y-46979884I-300000J0D01*
G01*
X301639187Y-50079884D02*
X301239187Y-50079884D01*
X300939187Y-47179884D02*
X300939187Y-49779884D01*
X301139187Y-46979884D02*
X301639187Y-46979884D01*
X301239187Y-50079884D02*
G75*
G02X300939187Y-49779884I0J300000D01*
G01*
X301639187Y-50079884D02*
G75*
G02X301939187Y-50379884I0J-300000D01*
G01*
X301139187Y-38079884D02*
X301639187Y-38079884D01*
X301639187Y-41179884D02*
X301239187Y-41179884D01*
X300939187Y-38279884D02*
X300939187Y-40879884D01*
X301939187Y-37779884D02*
G75*
G02X301639187Y-38079884I-300000J0D01*
G01*
X301639187Y-41179884D02*
G75*
G02X301939187Y-41479884I0J-300000D01*
G01*
X301239187Y-41179884D02*
G75*
G02X300939187Y-40879884I0J300000D01*
G01*
X300939187Y-38279884D02*
G75*
G02X301139187Y-38079884I200000J0D01*
G01*
X296639237Y-51079884D02*
X283239237Y-51079884D01*
X283239237Y-51079884D02*
G75*
G02X282939237Y-50779884I0J300000D01*
G01*
X282939237Y-50779884D02*
X282939237Y-50379884D01*
X282939237Y-37379884D02*
G75*
G02X283239237Y-37079884I300000J0D01*
G01*
X296639237Y-37079884D02*
X283239237Y-37079884D01*
X282939237Y-41479884D02*
X282939237Y-46679884D01*
X282939237Y-37779884D02*
X282939237Y-37379884D01*
X296939237Y-50379884D02*
X296939237Y-50779884D01*
X296639237Y-37079884D02*
G75*
G02X296939237Y-37379884I0J-300000D01*
G01*
X297939237Y-40979884D02*
G75*
G02X297739237Y-41179884I-200000J0D01*
G01*
X296939237Y-41479884D02*
G75*
G02X297239237Y-41179884I300000J0D01*
G01*
X297239237Y-38079884D02*
X297639237Y-38079884D01*
X297939237Y-40979884D02*
X297939237Y-38379884D01*
X297739237Y-41179884D02*
X297239237Y-41179884D01*
X296939237Y-46679884D02*
X296939237Y-41479884D01*
X296939237Y-50779884D02*
G75*
G02X296639237Y-51079884I-300000J0D01*
G01*
X297239237Y-38079884D02*
G75*
G02X296939237Y-37779884I0J300000D01*
G01*
X297639237Y-38079884D02*
G75*
G02X297939237Y-38379884I0J-300000D01*
G01*
X296939237Y-37379884D02*
X296939237Y-37779884D01*
X297239237Y-46979884D02*
G75*
G02X296939237Y-46679884I0J300000D01*
G01*
X297639237Y-46979884D02*
G75*
G02X297939237Y-47279884I0J-300000D01*
G01*
X297739237Y-50079884D02*
X297239237Y-50079884D01*
X297939237Y-49879884D02*
X297939237Y-47279884D01*
X297239237Y-46979884D02*
X297639237Y-46979884D01*
X296939237Y-50379884D02*
G75*
G02X297239237Y-50079884I300000J0D01*
G01*
X297939237Y-49879884D02*
G75*
G02X297739237Y-50079884I-200000J0D01*
G01*
X281939237Y-47179884D02*
G75*
G02X282139237Y-46979884I200000J0D01*
G01*
X282939237Y-46679884D02*
G75*
G02X282639237Y-46979884I-300000J0D01*
G01*
X282639237Y-50079884D02*
X282239237Y-50079884D01*
X281939237Y-47179884D02*
X281939237Y-49779884D01*
X282139237Y-46979884D02*
X282639237Y-46979884D01*
X282239237Y-50079884D02*
G75*
G02X281939237Y-49779884I0J300000D01*
G01*
X282639237Y-50079884D02*
G75*
G02X282939237Y-50379884I0J-300000D01*
G01*
X282139237Y-38079884D02*
X282639237Y-38079884D01*
X282639237Y-41179884D02*
X282239237Y-41179884D01*
X281939237Y-38279884D02*
X281939237Y-40879884D01*
X282939237Y-37779884D02*
G75*
G02X282639237Y-38079884I-300000J0D01*
G01*
X282639237Y-41179884D02*
G75*
G02X282939237Y-41479884I0J-300000D01*
G01*
X282239237Y-41179884D02*
G75*
G02X281939237Y-40879884I0J300000D01*
G01*
X281939237Y-38279884D02*
G75*
G02X282139237Y-38079884I200000J0D01*
G01*
X62179854Y-51080000D02*
X48779854Y-51080000D01*
X48779854Y-51080000D02*
G75*
G02X48479854Y-50780000I0J300000D01*
G01*
X48479854Y-50780000D02*
X48479854Y-50380000D01*
X48479854Y-37380000D02*
G75*
G02X48779854Y-37080000I300000J0D01*
G01*
X62179854Y-37080000D02*
X48779854Y-37080000D01*
X48479854Y-41480000D02*
X48479854Y-46680000D01*
X48479854Y-37780000D02*
X48479854Y-37380000D01*
X62479854Y-50380000D02*
X62479854Y-50780000D01*
X62179854Y-37080000D02*
G75*
G02X62479854Y-37380000I0J-300000D01*
G01*
X63479854Y-40980000D02*
G75*
G02X63279854Y-41180000I-200000J0D01*
G01*
X62479854Y-41480000D02*
G75*
G02X62779854Y-41180000I300000J0D01*
G01*
X62779854Y-38080000D02*
X63179854Y-38080000D01*
X63479854Y-40980000D02*
X63479854Y-38380000D01*
X63279854Y-41180000D02*
X62779854Y-41180000D01*
X62479854Y-46680000D02*
X62479854Y-41480000D01*
X62479854Y-50780000D02*
G75*
G02X62179854Y-51080000I-300000J0D01*
G01*
X62779854Y-38080000D02*
G75*
G02X62479854Y-37780000I0J300000D01*
G01*
X63179854Y-38080000D02*
G75*
G02X63479854Y-38380000I0J-300000D01*
G01*
X62479854Y-37380000D02*
X62479854Y-37780000D01*
X62779854Y-46980000D02*
G75*
G02X62479854Y-46680000I0J300000D01*
G01*
X63179854Y-46980000D02*
G75*
G02X63479854Y-47280000I0J-300000D01*
G01*
X63279854Y-50080000D02*
X62779854Y-50080000D01*
X63479854Y-49880000D02*
X63479854Y-47280000D01*
X62779854Y-46980000D02*
X63179854Y-46980000D01*
X62479854Y-50380000D02*
G75*
G02X62779854Y-50080000I300000J0D01*
G01*
X63479854Y-49880000D02*
G75*
G02X63279854Y-50080000I-200000J0D01*
G01*
X47479854Y-47180000D02*
G75*
G02X47679854Y-46980000I200000J0D01*
G01*
X48479854Y-46680000D02*
G75*
G02X48179854Y-46980000I-300000J0D01*
G01*
X48179854Y-50080000D02*
X47779854Y-50080000D01*
X47479854Y-47180000D02*
X47479854Y-49780000D01*
X47679854Y-46980000D02*
X48179854Y-46980000D01*
X47779854Y-50080000D02*
G75*
G02X47479854Y-49780000I0J300000D01*
G01*
X48179854Y-50080000D02*
G75*
G02X48479854Y-50380000I0J-300000D01*
G01*
X47679854Y-38080000D02*
X48179854Y-38080000D01*
X48179854Y-41180000D02*
X47779854Y-41180000D01*
X47479854Y-38280000D02*
X47479854Y-40880000D01*
X48479854Y-37780000D02*
G75*
G02X48179854Y-38080000I-300000J0D01*
G01*
X48179854Y-41180000D02*
G75*
G02X48479854Y-41480000I0J-300000D01*
G01*
X47779854Y-41180000D02*
G75*
G02X47479854Y-40880000I0J300000D01*
G01*
X47479854Y-38280000D02*
G75*
G02X47679854Y-38080000I200000J0D01*
G01*
X81179804Y-51079884D02*
X67779804Y-51079884D01*
X67779804Y-51079884D02*
G75*
G02X67479804Y-50779884I0J300000D01*
G01*
X67479804Y-50779884D02*
X67479804Y-50379884D01*
X67479804Y-37379884D02*
G75*
G02X67779804Y-37079884I300000J0D01*
G01*
X81179804Y-37079884D02*
X67779804Y-37079884D01*
X67479804Y-41479884D02*
X67479804Y-46679884D01*
X67479804Y-37779884D02*
X67479804Y-37379884D01*
X81479804Y-50379884D02*
X81479804Y-50779884D01*
X81179804Y-37079884D02*
G75*
G02X81479804Y-37379884I0J-300000D01*
G01*
X82479804Y-40979884D02*
G75*
G02X82279804Y-41179884I-200000J0D01*
G01*
X81479804Y-41479884D02*
G75*
G02X81779804Y-41179884I300000J0D01*
G01*
X81779804Y-38079884D02*
X82179804Y-38079884D01*
X82479804Y-40979884D02*
X82479804Y-38379884D01*
X82279804Y-41179884D02*
X81779804Y-41179884D01*
X81479804Y-46679884D02*
X81479804Y-41479884D01*
X81479804Y-50779884D02*
G75*
G02X81179804Y-51079884I-300000J0D01*
G01*
X81779804Y-38079884D02*
G75*
G02X81479804Y-37779884I0J300000D01*
G01*
X82179804Y-38079884D02*
G75*
G02X82479804Y-38379884I0J-300000D01*
G01*
X81479804Y-37379884D02*
X81479804Y-37779884D01*
X81779804Y-46979884D02*
G75*
G02X81479804Y-46679884I0J300000D01*
G01*
X82179804Y-46979884D02*
G75*
G02X82479804Y-47279884I0J-300000D01*
G01*
X82279804Y-50079884D02*
X81779804Y-50079884D01*
X82479804Y-49879884D02*
X82479804Y-47279884D01*
X81779804Y-46979884D02*
X82179804Y-46979884D01*
X81479804Y-50379884D02*
G75*
G02X81779804Y-50079884I300000J0D01*
G01*
X82479804Y-49879884D02*
G75*
G02X82279804Y-50079884I-200000J0D01*
G01*
X66479804Y-47179884D02*
G75*
G02X66679804Y-46979884I200000J0D01*
G01*
X67479804Y-46679884D02*
G75*
G02X67179804Y-46979884I-300000J0D01*
G01*
X67179804Y-50079884D02*
X66779804Y-50079884D01*
X66479804Y-47179884D02*
X66479804Y-49779884D01*
X66679804Y-46979884D02*
X67179804Y-46979884D01*
X66779804Y-50079884D02*
G75*
G02X66479804Y-49779884I0J300000D01*
G01*
X67179804Y-50079884D02*
G75*
G02X67479804Y-50379884I0J-300000D01*
G01*
X66679804Y-38079884D02*
X67179804Y-38079884D01*
X67179804Y-41179884D02*
X66779804Y-41179884D01*
X66479804Y-38279884D02*
X66479804Y-40879884D01*
X67479804Y-37779884D02*
G75*
G02X67179804Y-38079884I-300000J0D01*
G01*
X67179804Y-41179884D02*
G75*
G02X67479804Y-41479884I0J-300000D01*
G01*
X66779804Y-41179884D02*
G75*
G02X66479804Y-40879884I0J300000D01*
G01*
X66479804Y-38279884D02*
G75*
G02X66679804Y-38079884I200000J0D01*
G01*
X100179754Y-51079884D02*
X86779754Y-51079884D01*
X86779754Y-51079884D02*
G75*
G02X86479754Y-50779884I0J300000D01*
G01*
X86479754Y-50779884D02*
X86479754Y-50379884D01*
X86479754Y-37379884D02*
G75*
G02X86779754Y-37079884I300000J0D01*
G01*
X100179754Y-37079884D02*
X86779754Y-37079884D01*
X86479754Y-41479884D02*
X86479754Y-46679884D01*
X86479754Y-37779884D02*
X86479754Y-37379884D01*
X100479754Y-50379884D02*
X100479754Y-50779884D01*
X100179754Y-37079884D02*
G75*
G02X100479754Y-37379884I0J-300000D01*
G01*
X101479754Y-40979884D02*
G75*
G02X101279754Y-41179884I-200000J0D01*
G01*
X100479754Y-41479884D02*
G75*
G02X100779754Y-41179884I300000J0D01*
G01*
X100779754Y-38079884D02*
X101179754Y-38079884D01*
X101479754Y-40979884D02*
X101479754Y-38379884D01*
X101279754Y-41179884D02*
X100779754Y-41179884D01*
X100479754Y-46679884D02*
X100479754Y-41479884D01*
X100479754Y-50779884D02*
G75*
G02X100179754Y-51079884I-300000J0D01*
G01*
X100779754Y-38079884D02*
G75*
G02X100479754Y-37779884I0J300000D01*
G01*
X101179754Y-38079884D02*
G75*
G02X101479754Y-38379884I0J-300000D01*
G01*
X100479754Y-37379884D02*
X100479754Y-37779884D01*
X100779754Y-46979884D02*
G75*
G02X100479754Y-46679884I0J300000D01*
G01*
X101179754Y-46979884D02*
G75*
G02X101479754Y-47279884I0J-300000D01*
G01*
X101279754Y-50079884D02*
X100779754Y-50079884D01*
X101479754Y-49879884D02*
X101479754Y-47279884D01*
X100779754Y-46979884D02*
X101179754Y-46979884D01*
X100479754Y-50379884D02*
G75*
G02X100779754Y-50079884I300000J0D01*
G01*
X101479754Y-49879884D02*
G75*
G02X101279754Y-50079884I-200000J0D01*
G01*
X85479754Y-47179884D02*
G75*
G02X85679754Y-46979884I200000J0D01*
G01*
X86479754Y-46679884D02*
G75*
G02X86179754Y-46979884I-300000J0D01*
G01*
X86179754Y-50079884D02*
X85779754Y-50079884D01*
X85479754Y-47179884D02*
X85479754Y-49779884D01*
X85679754Y-46979884D02*
X86179754Y-46979884D01*
X85779754Y-50079884D02*
G75*
G02X85479754Y-49779884I0J300000D01*
G01*
X86179754Y-50079884D02*
G75*
G02X86479754Y-50379884I0J-300000D01*
G01*
X85679754Y-38079884D02*
X86179754Y-38079884D01*
X86179754Y-41179884D02*
X85779754Y-41179884D01*
X85479754Y-38279884D02*
X85479754Y-40879884D01*
X86479754Y-37779884D02*
G75*
G02X86179754Y-38079884I-300000J0D01*
G01*
X86179754Y-41179884D02*
G75*
G02X86479754Y-41479884I0J-300000D01*
G01*
X85779754Y-41179884D02*
G75*
G02X85479754Y-40879884I0J300000D01*
G01*
X85479754Y-38279884D02*
G75*
G02X85679754Y-38079884I200000J0D01*
G01*
X119179704Y-51079884D02*
X105779704Y-51079884D01*
X105779704Y-51079884D02*
G75*
G02X105479704Y-50779884I0J300000D01*
G01*
X105479704Y-50779884D02*
X105479704Y-50379884D01*
X105479704Y-37379884D02*
G75*
G02X105779704Y-37079884I300000J0D01*
G01*
X119179704Y-37079884D02*
X105779704Y-37079884D01*
X105479704Y-41479884D02*
X105479704Y-46679884D01*
X105479704Y-37779884D02*
X105479704Y-37379884D01*
X119479704Y-50379884D02*
X119479704Y-50779884D01*
X119179704Y-37079884D02*
G75*
G02X119479704Y-37379884I0J-300000D01*
G01*
X120479704Y-40979884D02*
G75*
G02X120279704Y-41179884I-200000J0D01*
G01*
X119479704Y-41479884D02*
G75*
G02X119779704Y-41179884I300000J0D01*
G01*
X119779704Y-38079884D02*
X120179704Y-38079884D01*
X120479704Y-40979884D02*
X120479704Y-38379884D01*
X120279704Y-41179884D02*
X119779704Y-41179884D01*
X119479704Y-46679884D02*
X119479704Y-41479884D01*
X119479704Y-50779884D02*
G75*
G02X119179704Y-51079884I-300000J0D01*
G01*
X119779704Y-38079884D02*
G75*
G02X119479704Y-37779884I0J300000D01*
G01*
X120179704Y-38079884D02*
G75*
G02X120479704Y-38379884I0J-300000D01*
G01*
X119479704Y-37379884D02*
X119479704Y-37779884D01*
X119779704Y-46979884D02*
G75*
G02X119479704Y-46679884I0J300000D01*
G01*
X120179704Y-46979884D02*
G75*
G02X120479704Y-47279884I0J-300000D01*
G01*
X120279704Y-50079884D02*
X119779704Y-50079884D01*
X120479704Y-49879884D02*
X120479704Y-47279884D01*
X119779704Y-46979884D02*
X120179704Y-46979884D01*
X119479704Y-50379884D02*
G75*
G02X119779704Y-50079884I300000J0D01*
G01*
X120479704Y-49879884D02*
G75*
G02X120279704Y-50079884I-200000J0D01*
G01*
X104479704Y-47179884D02*
G75*
G02X104679704Y-46979884I200000J0D01*
G01*
X105479704Y-46679884D02*
G75*
G02X105179704Y-46979884I-300000J0D01*
G01*
X105179704Y-50079884D02*
X104779704Y-50079884D01*
X104479704Y-47179884D02*
X104479704Y-49779884D01*
X104679704Y-46979884D02*
X105179704Y-46979884D01*
X104779704Y-50079884D02*
G75*
G02X104479704Y-49779884I0J300000D01*
G01*
X105179704Y-50079884D02*
G75*
G02X105479704Y-50379884I0J-300000D01*
G01*
X104679704Y-38079884D02*
X105179704Y-38079884D01*
X105179704Y-41179884D02*
X104779704Y-41179884D01*
X104479704Y-38279884D02*
X104479704Y-40879884D01*
X105479704Y-37779884D02*
G75*
G02X105179704Y-38079884I-300000J0D01*
G01*
X105179704Y-41179884D02*
G75*
G02X105479704Y-41479884I0J-300000D01*
G01*
X104779704Y-41179884D02*
G75*
G02X104479704Y-40879884I0J300000D01*
G01*
X104479704Y-38279884D02*
G75*
G02X104679704Y-38079884I200000J0D01*
G01*
X138179654Y-51079884D02*
X124779654Y-51079884D01*
X124779654Y-51079884D02*
G75*
G02X124479654Y-50779884I0J300000D01*
G01*
X124479654Y-50779884D02*
X124479654Y-50379884D01*
X124479654Y-37379884D02*
G75*
G02X124779654Y-37079884I300000J0D01*
G01*
X138179654Y-37079884D02*
X124779654Y-37079884D01*
X124479654Y-41479884D02*
X124479654Y-46679884D01*
X124479654Y-37779884D02*
X124479654Y-37379884D01*
X138479654Y-50379884D02*
X138479654Y-50779884D01*
X138179654Y-37079884D02*
G75*
G02X138479654Y-37379884I0J-300000D01*
G01*
X139479654Y-40979884D02*
G75*
G02X139279654Y-41179884I-200000J0D01*
G01*
X138479654Y-41479884D02*
G75*
G02X138779654Y-41179884I300000J0D01*
G01*
X138779654Y-38079884D02*
X139179654Y-38079884D01*
X139479654Y-40979884D02*
X139479654Y-38379884D01*
X139279654Y-41179884D02*
X138779654Y-41179884D01*
X138479654Y-46679884D02*
X138479654Y-41479884D01*
X138479654Y-50779884D02*
G75*
G02X138179654Y-51079884I-300000J0D01*
G01*
X138779654Y-38079884D02*
G75*
G02X138479654Y-37779884I0J300000D01*
G01*
X139179654Y-38079884D02*
G75*
G02X139479654Y-38379884I0J-300000D01*
G01*
X138479654Y-37379884D02*
X138479654Y-37779884D01*
X138779654Y-46979884D02*
G75*
G02X138479654Y-46679884I0J300000D01*
G01*
X139179654Y-46979884D02*
G75*
G02X139479654Y-47279884I0J-300000D01*
G01*
X139279654Y-50079884D02*
X138779654Y-50079884D01*
X139479654Y-49879884D02*
X139479654Y-47279884D01*
X138779654Y-46979884D02*
X139179654Y-46979884D01*
X138479654Y-50379884D02*
G75*
G02X138779654Y-50079884I300000J0D01*
G01*
X139479654Y-49879884D02*
G75*
G02X139279654Y-50079884I-200000J0D01*
G01*
X123479654Y-47179884D02*
G75*
G02X123679654Y-46979884I200000J0D01*
G01*
X124479654Y-46679884D02*
G75*
G02X124179654Y-46979884I-300000J0D01*
G01*
X124179654Y-50079884D02*
X123779654Y-50079884D01*
X123479654Y-47179884D02*
X123479654Y-49779884D01*
X123679654Y-46979884D02*
X124179654Y-46979884D01*
X123779654Y-50079884D02*
G75*
G02X123479654Y-49779884I0J300000D01*
G01*
X124179654Y-50079884D02*
G75*
G02X124479654Y-50379884I0J-300000D01*
G01*
X123679654Y-38079884D02*
X124179654Y-38079884D01*
X124179654Y-41179884D02*
X123779654Y-41179884D01*
X123479654Y-38279884D02*
X123479654Y-40879884D01*
X124479654Y-37779884D02*
G75*
G02X124179654Y-38079884I-300000J0D01*
G01*
X124179654Y-41179884D02*
G75*
G02X124479654Y-41479884I0J-300000D01*
G01*
X123779654Y-41179884D02*
G75*
G02X123479654Y-40879884I0J300000D01*
G01*
X123479654Y-38279884D02*
G75*
G02X123679654Y-38079884I200000J0D01*
G01*
X157179604Y-51079884D02*
X143779604Y-51079884D01*
X143779604Y-51079884D02*
G75*
G02X143479604Y-50779884I0J300000D01*
G01*
X143479604Y-50779884D02*
X143479604Y-50379884D01*
X143479604Y-37379884D02*
G75*
G02X143779604Y-37079884I300000J0D01*
G01*
X157179604Y-37079884D02*
X143779604Y-37079884D01*
X143479604Y-41479884D02*
X143479604Y-46679884D01*
X143479604Y-37779884D02*
X143479604Y-37379884D01*
X157479604Y-50379884D02*
X157479604Y-50779884D01*
X157179604Y-37079884D02*
G75*
G02X157479604Y-37379884I0J-300000D01*
G01*
X158479604Y-40979884D02*
G75*
G02X158279604Y-41179884I-200000J0D01*
G01*
X157479604Y-41479884D02*
G75*
G02X157779604Y-41179884I300000J0D01*
G01*
X157779604Y-38079884D02*
X158179604Y-38079884D01*
X158479604Y-40979884D02*
X158479604Y-38379884D01*
X158279604Y-41179884D02*
X157779604Y-41179884D01*
X157479604Y-46679884D02*
X157479604Y-41479884D01*
X157479604Y-50779884D02*
G75*
G02X157179604Y-51079884I-300000J0D01*
G01*
X157779604Y-38079884D02*
G75*
G02X157479604Y-37779884I0J300000D01*
G01*
X158179604Y-38079884D02*
G75*
G02X158479604Y-38379884I0J-300000D01*
G01*
X157479604Y-37379884D02*
X157479604Y-37779884D01*
X157779604Y-46979884D02*
G75*
G02X157479604Y-46679884I0J300000D01*
G01*
X158179604Y-46979884D02*
G75*
G02X158479604Y-47279884I0J-300000D01*
G01*
X158279604Y-50079884D02*
X157779604Y-50079884D01*
X158479604Y-49879884D02*
X158479604Y-47279884D01*
X157779604Y-46979884D02*
X158179604Y-46979884D01*
X157479604Y-50379884D02*
G75*
G02X157779604Y-50079884I300000J0D01*
G01*
X158479604Y-49879884D02*
G75*
G02X158279604Y-50079884I-200000J0D01*
G01*
X142479604Y-47179884D02*
G75*
G02X142679604Y-46979884I200000J0D01*
G01*
X143479604Y-46679884D02*
G75*
G02X143179604Y-46979884I-300000J0D01*
G01*
X143179604Y-50079884D02*
X142779604Y-50079884D01*
X142479604Y-47179884D02*
X142479604Y-49779884D01*
X142679604Y-46979884D02*
X143179604Y-46979884D01*
X142779604Y-50079884D02*
G75*
G02X142479604Y-49779884I0J300000D01*
G01*
X143179604Y-50079884D02*
G75*
G02X143479604Y-50379884I0J-300000D01*
G01*
X142679604Y-38079884D02*
X143179604Y-38079884D01*
X143179604Y-41179884D02*
X142779604Y-41179884D01*
X142479604Y-38279884D02*
X142479604Y-40879884D01*
X143479604Y-37779884D02*
G75*
G02X143179604Y-38079884I-300000J0D01*
G01*
X143179604Y-41179884D02*
G75*
G02X143479604Y-41479884I0J-300000D01*
G01*
X142779604Y-41179884D02*
G75*
G02X142479604Y-40879884I0J300000D01*
G01*
X142479604Y-38279884D02*
G75*
G02X142679604Y-38079884I200000J0D01*
G01*
X176179554Y-51079884D02*
X162779554Y-51079884D01*
X162779554Y-51079884D02*
G75*
G02X162479554Y-50779884I0J300000D01*
G01*
X162479554Y-50779884D02*
X162479554Y-50379884D01*
X162479554Y-37379884D02*
G75*
G02X162779554Y-37079884I300000J0D01*
G01*
X176179554Y-37079884D02*
X162779554Y-37079884D01*
X162479554Y-41479884D02*
X162479554Y-46679884D01*
X162479554Y-37779884D02*
X162479554Y-37379884D01*
X176479554Y-50379884D02*
X176479554Y-50779884D01*
X176179554Y-37079884D02*
G75*
G02X176479554Y-37379884I0J-300000D01*
G01*
X177479554Y-40979884D02*
G75*
G02X177279554Y-41179884I-200000J0D01*
G01*
X176479554Y-41479884D02*
G75*
G02X176779554Y-41179884I300000J0D01*
G01*
X176779554Y-38079884D02*
X177179554Y-38079884D01*
X177479554Y-40979884D02*
X177479554Y-38379884D01*
X177279554Y-41179884D02*
X176779554Y-41179884D01*
X176479554Y-46679884D02*
X176479554Y-41479884D01*
X176479554Y-50779884D02*
G75*
G02X176179554Y-51079884I-300000J0D01*
G01*
X176779554Y-38079884D02*
G75*
G02X176479554Y-37779884I0J300000D01*
G01*
X177179554Y-38079884D02*
G75*
G02X177479554Y-38379884I0J-300000D01*
G01*
X176479554Y-37379884D02*
X176479554Y-37779884D01*
X176779554Y-46979884D02*
G75*
G02X176479554Y-46679884I0J300000D01*
G01*
X177179554Y-46979884D02*
G75*
G02X177479554Y-47279884I0J-300000D01*
G01*
X177279554Y-50079884D02*
X176779554Y-50079884D01*
X177479554Y-49879884D02*
X177479554Y-47279884D01*
X176779554Y-46979884D02*
X177179554Y-46979884D01*
X176479554Y-50379884D02*
G75*
G02X176779554Y-50079884I300000J0D01*
G01*
X177479554Y-49879884D02*
G75*
G02X177279554Y-50079884I-200000J0D01*
G01*
X161479554Y-47179884D02*
G75*
G02X161679554Y-46979884I200000J0D01*
G01*
X162479554Y-46679884D02*
G75*
G02X162179554Y-46979884I-300000J0D01*
G01*
X162179554Y-50079884D02*
X161779554Y-50079884D01*
X161479554Y-47179884D02*
X161479554Y-49779884D01*
X161679554Y-46979884D02*
X162179554Y-46979884D01*
X161779554Y-50079884D02*
G75*
G02X161479554Y-49779884I0J300000D01*
G01*
X162179554Y-50079884D02*
G75*
G02X162479554Y-50379884I0J-300000D01*
G01*
X161679554Y-38079884D02*
X162179554Y-38079884D01*
X162179554Y-41179884D02*
X161779554Y-41179884D01*
X161479554Y-38279884D02*
X161479554Y-40879884D01*
X162479554Y-37779884D02*
G75*
G02X162179554Y-38079884I-300000J0D01*
G01*
X162179554Y-41179884D02*
G75*
G02X162479554Y-41479884I0J-300000D01*
G01*
X161779554Y-41179884D02*
G75*
G02X161479554Y-40879884I0J300000D01*
G01*
X161479554Y-38279884D02*
G75*
G02X161679554Y-38079884I200000J0D01*
G01*
X195179504Y-51079884D02*
X181779504Y-51079884D01*
X181779504Y-51079884D02*
G75*
G02X181479504Y-50779884I0J300000D01*
G01*
X181479504Y-50779884D02*
X181479504Y-50379884D01*
X181479504Y-37379884D02*
G75*
G02X181779504Y-37079884I300000J0D01*
G01*
X195179504Y-37079884D02*
X181779504Y-37079884D01*
X181479504Y-41479884D02*
X181479504Y-46679884D01*
X181479504Y-37779884D02*
X181479504Y-37379884D01*
X195479504Y-50379884D02*
X195479504Y-50779884D01*
X195179504Y-37079884D02*
G75*
G02X195479504Y-37379884I0J-300000D01*
G01*
X196479504Y-40979884D02*
G75*
G02X196279504Y-41179884I-200000J0D01*
G01*
X195479504Y-41479884D02*
G75*
G02X195779504Y-41179884I300000J0D01*
G01*
X195779504Y-38079884D02*
X196179504Y-38079884D01*
X196479504Y-40979884D02*
X196479504Y-38379884D01*
X196279504Y-41179884D02*
X195779504Y-41179884D01*
X195479504Y-46679884D02*
X195479504Y-41479884D01*
X195479504Y-50779884D02*
G75*
G02X195179504Y-51079884I-300000J0D01*
G01*
X195779504Y-38079884D02*
G75*
G02X195479504Y-37779884I0J300000D01*
G01*
X196179504Y-38079884D02*
G75*
G02X196479504Y-38379884I0J-300000D01*
G01*
X195479504Y-37379884D02*
X195479504Y-37779884D01*
X195779504Y-46979884D02*
G75*
G02X195479504Y-46679884I0J300000D01*
G01*
X196179504Y-46979884D02*
G75*
G02X196479504Y-47279884I0J-300000D01*
G01*
X196279504Y-50079884D02*
X195779504Y-50079884D01*
X196479504Y-49879884D02*
X196479504Y-47279884D01*
X195779504Y-46979884D02*
X196179504Y-46979884D01*
X195479504Y-50379884D02*
G75*
G02X195779504Y-50079884I300000J0D01*
G01*
X196479504Y-49879884D02*
G75*
G02X196279504Y-50079884I-200000J0D01*
G01*
X180479504Y-47179884D02*
G75*
G02X180679504Y-46979884I200000J0D01*
G01*
X181479504Y-46679884D02*
G75*
G02X181179504Y-46979884I-300000J0D01*
G01*
X181179504Y-50079884D02*
X180779504Y-50079884D01*
X180479504Y-47179884D02*
X180479504Y-49779884D01*
X180679504Y-46979884D02*
X181179504Y-46979884D01*
X180779504Y-50079884D02*
G75*
G02X180479504Y-49779884I0J300000D01*
G01*
X181179504Y-50079884D02*
G75*
G02X181479504Y-50379884I0J-300000D01*
G01*
X180679504Y-38079884D02*
X181179504Y-38079884D01*
X181179504Y-41179884D02*
X180779504Y-41179884D01*
X180479504Y-38279884D02*
X180479504Y-40879884D01*
X181479504Y-37779884D02*
G75*
G02X181179504Y-38079884I-300000J0D01*
G01*
X181179504Y-41179884D02*
G75*
G02X181479504Y-41479884I0J-300000D01*
G01*
X180779504Y-41179884D02*
G75*
G02X180479504Y-40879884I0J300000D01*
G01*
X180479504Y-38279884D02*
G75*
G02X180679504Y-38079884I200000J0D01*
G01*
X214179454Y-51079884D02*
X200779454Y-51079884D01*
X200779454Y-51079884D02*
G75*
G02X200479454Y-50779884I0J300000D01*
G01*
X200479454Y-50779884D02*
X200479454Y-50379884D01*
X200479454Y-37379884D02*
G75*
G02X200779454Y-37079884I300000J0D01*
G01*
X214179454Y-37079884D02*
X200779454Y-37079884D01*
X200479454Y-41479884D02*
X200479454Y-46679884D01*
X200479454Y-37779884D02*
X200479454Y-37379884D01*
X214479454Y-50379884D02*
X214479454Y-50779884D01*
X214179454Y-37079884D02*
G75*
G02X214479454Y-37379884I0J-300000D01*
G01*
X215479454Y-40979884D02*
G75*
G02X215279454Y-41179884I-200000J0D01*
G01*
X214479454Y-41479884D02*
G75*
G02X214779454Y-41179884I300000J0D01*
G01*
X214779454Y-38079884D02*
X215179454Y-38079884D01*
X215479454Y-40979884D02*
X215479454Y-38379884D01*
X215279454Y-41179884D02*
X214779454Y-41179884D01*
X214479454Y-46679884D02*
X214479454Y-41479884D01*
X214479454Y-50779884D02*
G75*
G02X214179454Y-51079884I-300000J0D01*
G01*
X214779454Y-38079884D02*
G75*
G02X214479454Y-37779884I0J300000D01*
G01*
X215179454Y-38079884D02*
G75*
G02X215479454Y-38379884I0J-300000D01*
G01*
X214479454Y-37379884D02*
X214479454Y-37779884D01*
X214779454Y-46979884D02*
G75*
G02X214479454Y-46679884I0J300000D01*
G01*
X215179454Y-46979884D02*
G75*
G02X215479454Y-47279884I0J-300000D01*
G01*
X215279454Y-50079884D02*
X214779454Y-50079884D01*
X215479454Y-49879884D02*
X215479454Y-47279884D01*
X214779454Y-46979884D02*
X215179454Y-46979884D01*
X214479454Y-50379884D02*
G75*
G02X214779454Y-50079884I300000J0D01*
G01*
X215479454Y-49879884D02*
G75*
G02X215279454Y-50079884I-200000J0D01*
G01*
X199479454Y-47179884D02*
G75*
G02X199679454Y-46979884I200000J0D01*
G01*
X200479454Y-46679884D02*
G75*
G02X200179454Y-46979884I-300000J0D01*
G01*
X200179454Y-50079884D02*
X199779454Y-50079884D01*
X199479454Y-47179884D02*
X199479454Y-49779884D01*
X199679454Y-46979884D02*
X200179454Y-46979884D01*
X199779454Y-50079884D02*
G75*
G02X199479454Y-49779884I0J300000D01*
G01*
X200179454Y-50079884D02*
G75*
G02X200479454Y-50379884I0J-300000D01*
G01*
X199679454Y-38079884D02*
X200179454Y-38079884D01*
X200179454Y-41179884D02*
X199779454Y-41179884D01*
X199479454Y-38279884D02*
X199479454Y-40879884D01*
X200479454Y-37779884D02*
G75*
G02X200179454Y-38079884I-300000J0D01*
G01*
X200179454Y-41179884D02*
G75*
G02X200479454Y-41479884I0J-300000D01*
G01*
X199779454Y-41179884D02*
G75*
G02X199479454Y-40879884I0J300000D01*
G01*
X199479454Y-38279884D02*
G75*
G02X199679454Y-38079884I200000J0D01*
G01*
X233179404Y-51079884D02*
X219779404Y-51079884D01*
X219779404Y-51079884D02*
G75*
G02X219479404Y-50779884I0J300000D01*
G01*
X219479404Y-50779884D02*
X219479404Y-50379884D01*
X219479404Y-37379884D02*
G75*
G02X219779404Y-37079884I300000J0D01*
G01*
X233179404Y-37079884D02*
X219779404Y-37079884D01*
X219479404Y-41479884D02*
X219479404Y-46679884D01*
X219479404Y-37779884D02*
X219479404Y-37379884D01*
X233479404Y-50379884D02*
X233479404Y-50779884D01*
X233179404Y-37079884D02*
G75*
G02X233479404Y-37379884I0J-300000D01*
G01*
X234479404Y-40979884D02*
G75*
G02X234279404Y-41179884I-200000J0D01*
G01*
X233479404Y-41479884D02*
G75*
G02X233779404Y-41179884I300000J0D01*
G01*
X233779404Y-38079884D02*
X234179404Y-38079884D01*
X234479404Y-40979884D02*
X234479404Y-38379884D01*
X234279404Y-41179884D02*
X233779404Y-41179884D01*
X233479404Y-46679884D02*
X233479404Y-41479884D01*
X233479404Y-50779884D02*
G75*
G02X233179404Y-51079884I-300000J0D01*
G01*
X233779404Y-38079884D02*
G75*
G02X233479404Y-37779884I0J300000D01*
G01*
X234179404Y-38079884D02*
G75*
G02X234479404Y-38379884I0J-300000D01*
G01*
X233479404Y-37379884D02*
X233479404Y-37779884D01*
X233779404Y-46979884D02*
G75*
G02X233479404Y-46679884I0J300000D01*
G01*
X234179404Y-46979884D02*
G75*
G02X234479404Y-47279884I0J-300000D01*
G01*
X234279404Y-50079884D02*
X233779404Y-50079884D01*
X234479404Y-49879884D02*
X234479404Y-47279884D01*
X233779404Y-46979884D02*
X234179404Y-46979884D01*
X233479404Y-50379884D02*
G75*
G02X233779404Y-50079884I300000J0D01*
G01*
X234479404Y-49879884D02*
G75*
G02X234279404Y-50079884I-200000J0D01*
G01*
X218479404Y-47179884D02*
G75*
G02X218679404Y-46979884I200000J0D01*
G01*
X219479404Y-46679884D02*
G75*
G02X219179404Y-46979884I-300000J0D01*
G01*
X219179404Y-50079884D02*
X218779404Y-50079884D01*
X218479404Y-47179884D02*
X218479404Y-49779884D01*
X218679404Y-46979884D02*
X219179404Y-46979884D01*
X218779404Y-50079884D02*
G75*
G02X218479404Y-49779884I0J300000D01*
G01*
X219179404Y-50079884D02*
G75*
G02X219479404Y-50379884I0J-300000D01*
G01*
X218679404Y-38079884D02*
X219179404Y-38079884D01*
X219179404Y-41179884D02*
X218779404Y-41179884D01*
X218479404Y-38279884D02*
X218479404Y-40879884D01*
X219479404Y-37779884D02*
G75*
G02X219179404Y-38079884I-300000J0D01*
G01*
X219179404Y-41179884D02*
G75*
G02X219479404Y-41479884I0J-300000D01*
G01*
X218779404Y-41179884D02*
G75*
G02X218479404Y-40879884I0J300000D01*
G01*
X218479404Y-38279884D02*
G75*
G02X218679404Y-38079884I200000J0D01*
G01*
X252179354Y-51079884D02*
X238779354Y-51079884D01*
X238779354Y-51079884D02*
G75*
G02X238479354Y-50779884I0J300000D01*
G01*
X238479354Y-50779884D02*
X238479354Y-50379884D01*
X238479354Y-37379884D02*
G75*
G02X238779354Y-37079884I300000J0D01*
G01*
X252179354Y-37079884D02*
X238779354Y-37079884D01*
X238479354Y-41479884D02*
X238479354Y-46679884D01*
X238479354Y-37779884D02*
X238479354Y-37379884D01*
X252479354Y-50379884D02*
X252479354Y-50779884D01*
X252179354Y-37079884D02*
G75*
G02X252479354Y-37379884I0J-300000D01*
G01*
X253479354Y-40979884D02*
G75*
G02X253279354Y-41179884I-200000J0D01*
G01*
X252479354Y-41479884D02*
G75*
G02X252779354Y-41179884I300000J0D01*
G01*
X252779354Y-38079884D02*
X253179354Y-38079884D01*
X253479354Y-40979884D02*
X253479354Y-38379884D01*
X253279354Y-41179884D02*
X252779354Y-41179884D01*
X252479354Y-46679884D02*
X252479354Y-41479884D01*
X252479354Y-50779884D02*
G75*
G02X252179354Y-51079884I-300000J0D01*
G01*
X252779354Y-38079884D02*
G75*
G02X252479354Y-37779884I0J300000D01*
G01*
X253179354Y-38079884D02*
G75*
G02X253479354Y-38379884I0J-300000D01*
G01*
X252479354Y-37379884D02*
X252479354Y-37779884D01*
X252779354Y-46979884D02*
G75*
G02X252479354Y-46679884I0J300000D01*
G01*
X253179354Y-46979884D02*
G75*
G02X253479354Y-47279884I0J-300000D01*
G01*
X253279354Y-50079884D02*
X252779354Y-50079884D01*
X253479354Y-49879884D02*
X253479354Y-47279884D01*
X252779354Y-46979884D02*
X253179354Y-46979884D01*
X252479354Y-50379884D02*
G75*
G02X252779354Y-50079884I300000J0D01*
G01*
X253479354Y-49879884D02*
G75*
G02X253279354Y-50079884I-200000J0D01*
G01*
X237479354Y-47179884D02*
G75*
G02X237679354Y-46979884I200000J0D01*
G01*
X238479354Y-46679884D02*
G75*
G02X238179354Y-46979884I-300000J0D01*
G01*
X238179354Y-50079884D02*
X237779354Y-50079884D01*
X237479354Y-47179884D02*
X237479354Y-49779884D01*
X237679354Y-46979884D02*
X238179354Y-46979884D01*
X237779354Y-50079884D02*
G75*
G02X237479354Y-49779884I0J300000D01*
G01*
X238179354Y-50079884D02*
G75*
G02X238479354Y-50379884I0J-300000D01*
G01*
X237679354Y-38079884D02*
X238179354Y-38079884D01*
X238179354Y-41179884D02*
X237779354Y-41179884D01*
X237479354Y-38279884D02*
X237479354Y-40879884D01*
X238479354Y-37779884D02*
G75*
G02X238179354Y-38079884I-300000J0D01*
G01*
X238179354Y-41179884D02*
G75*
G02X238479354Y-41479884I0J-300000D01*
G01*
X237779354Y-41179884D02*
G75*
G02X237479354Y-40879884I0J300000D01*
G01*
X237479354Y-38279884D02*
G75*
G02X237679354Y-38079884I200000J0D01*
G01*
X271179304Y-51079884D02*
X257779304Y-51079884D01*
X257779304Y-51079884D02*
G75*
G02X257479304Y-50779884I0J300000D01*
G01*
X257479304Y-50779884D02*
X257479304Y-50379884D01*
X257479304Y-37379884D02*
G75*
G02X257779304Y-37079884I300000J0D01*
G01*
X271179304Y-37079884D02*
X257779304Y-37079884D01*
X257479304Y-41479884D02*
X257479304Y-46679884D01*
X257479304Y-37779884D02*
X257479304Y-37379884D01*
X271479304Y-50379884D02*
X271479304Y-50779884D01*
X271179304Y-37079884D02*
G75*
G02X271479304Y-37379884I0J-300000D01*
G01*
X272479304Y-40979884D02*
G75*
G02X272279304Y-41179884I-200000J0D01*
G01*
X271479304Y-41479884D02*
G75*
G02X271779304Y-41179884I300000J0D01*
G01*
X271779304Y-38079884D02*
X272179304Y-38079884D01*
X272479304Y-40979884D02*
X272479304Y-38379884D01*
X272279304Y-41179884D02*
X271779304Y-41179884D01*
X271479304Y-46679884D02*
X271479304Y-41479884D01*
X271479304Y-50779884D02*
G75*
G02X271179304Y-51079884I-300000J0D01*
G01*
X271779304Y-38079884D02*
G75*
G02X271479304Y-37779884I0J300000D01*
G01*
X272179304Y-38079884D02*
G75*
G02X272479304Y-38379884I0J-300000D01*
G01*
X271479304Y-37379884D02*
X271479304Y-37779884D01*
X271779304Y-46979884D02*
G75*
G02X271479304Y-46679884I0J300000D01*
G01*
X272179304Y-46979884D02*
G75*
G02X272479304Y-47279884I0J-300000D01*
G01*
X272279304Y-50079884D02*
X271779304Y-50079884D01*
X272479304Y-49879884D02*
X272479304Y-47279884D01*
X271779304Y-46979884D02*
X272179304Y-46979884D01*
X271479304Y-50379884D02*
G75*
G02X271779304Y-50079884I300000J0D01*
G01*
X272479304Y-49879884D02*
G75*
G02X272279304Y-50079884I-200000J0D01*
G01*
X256479304Y-47179884D02*
G75*
G02X256679304Y-46979884I200000J0D01*
G01*
X257479304Y-46679884D02*
G75*
G02X257179304Y-46979884I-300000J0D01*
G01*
X257179304Y-50079884D02*
X256779304Y-50079884D01*
X256479304Y-47179884D02*
X256479304Y-49779884D01*
X256679304Y-46979884D02*
X257179304Y-46979884D01*
X256779304Y-50079884D02*
G75*
G02X256479304Y-49779884I0J300000D01*
G01*
X257179304Y-50079884D02*
G75*
G02X257479304Y-50379884I0J-300000D01*
G01*
X256679304Y-38079884D02*
X257179304Y-38079884D01*
X257179304Y-41179884D02*
X256779304Y-41179884D01*
X256479304Y-38279884D02*
X256479304Y-40879884D01*
X257479304Y-37779884D02*
G75*
G02X257179304Y-38079884I-300000J0D01*
G01*
X257179304Y-41179884D02*
G75*
G02X257479304Y-41479884I0J-300000D01*
G01*
X256779304Y-41179884D02*
G75*
G02X256479304Y-40879884I0J300000D01*
G01*
X256479304Y-38279884D02*
G75*
G02X256679304Y-38079884I200000J0D01*
G01*
X62179854Y-70079834D02*
X48779854Y-70079834D01*
X48779854Y-70079834D02*
G75*
G02X48479854Y-69779834I0J300000D01*
G01*
X48479854Y-69779834D02*
X48479854Y-69379834D01*
X48479854Y-56379834D02*
G75*
G02X48779854Y-56079834I300000J0D01*
G01*
X62179854Y-56079834D02*
X48779854Y-56079834D01*
X48479854Y-60479834D02*
X48479854Y-65679834D01*
X48479854Y-56779834D02*
X48479854Y-56379834D01*
X62479854Y-69379834D02*
X62479854Y-69779834D01*
X62179854Y-56079834D02*
G75*
G02X62479854Y-56379834I0J-300000D01*
G01*
X63479854Y-59979834D02*
G75*
G02X63279854Y-60179834I-200000J0D01*
G01*
X62479854Y-60479834D02*
G75*
G02X62779854Y-60179834I300000J0D01*
G01*
X62779854Y-57079834D02*
X63179854Y-57079834D01*
X63479854Y-59979834D02*
X63479854Y-57379834D01*
X63279854Y-60179834D02*
X62779854Y-60179834D01*
X62479854Y-65679834D02*
X62479854Y-60479834D01*
X62479854Y-69779834D02*
G75*
G02X62179854Y-70079834I-300000J0D01*
G01*
X62779854Y-57079834D02*
G75*
G02X62479854Y-56779834I0J300000D01*
G01*
X63179854Y-57079834D02*
G75*
G02X63479854Y-57379834I0J-300000D01*
G01*
X62479854Y-56379834D02*
X62479854Y-56779834D01*
X62779854Y-65979834D02*
G75*
G02X62479854Y-65679834I0J300000D01*
G01*
X63179854Y-65979834D02*
G75*
G02X63479854Y-66279834I0J-300000D01*
G01*
X63279854Y-69079834D02*
X62779854Y-69079834D01*
X63479854Y-68879834D02*
X63479854Y-66279834D01*
X62779854Y-65979834D02*
X63179854Y-65979834D01*
X62479854Y-69379834D02*
G75*
G02X62779854Y-69079834I300000J0D01*
G01*
X63479854Y-68879834D02*
G75*
G02X63279854Y-69079834I-200000J0D01*
G01*
X47479854Y-66179834D02*
G75*
G02X47679854Y-65979834I200000J0D01*
G01*
X48479854Y-65679834D02*
G75*
G02X48179854Y-65979834I-300000J0D01*
G01*
X48179854Y-69079834D02*
X47779854Y-69079834D01*
X47479854Y-66179834D02*
X47479854Y-68779834D01*
X47679854Y-65979834D02*
X48179854Y-65979834D01*
X47779854Y-69079834D02*
G75*
G02X47479854Y-68779834I0J300000D01*
G01*
X48179854Y-69079834D02*
G75*
G02X48479854Y-69379834I0J-300000D01*
G01*
X47679854Y-57079834D02*
X48179854Y-57079834D01*
X48179854Y-60179834D02*
X47779854Y-60179834D01*
X47479854Y-57279834D02*
X47479854Y-59879834D01*
X48479854Y-56779834D02*
G75*
G02X48179854Y-57079834I-300000J0D01*
G01*
X48179854Y-60179834D02*
G75*
G02X48479854Y-60479834I0J-300000D01*
G01*
X47779854Y-60179834D02*
G75*
G02X47479854Y-59879834I0J300000D01*
G01*
X47479854Y-57279834D02*
G75*
G02X47679854Y-57079834I200000J0D01*
G01*
X81179804Y-70079834D02*
X67779804Y-70079834D01*
X67779804Y-70079834D02*
G75*
G02X67479804Y-69779834I0J300000D01*
G01*
X67479804Y-69779834D02*
X67479804Y-69379834D01*
X67479804Y-56379834D02*
G75*
G02X67779804Y-56079834I300000J0D01*
G01*
X81179804Y-56079834D02*
X67779804Y-56079834D01*
X67479804Y-60479834D02*
X67479804Y-65679834D01*
X67479804Y-56779834D02*
X67479804Y-56379834D01*
X81479804Y-69379834D02*
X81479804Y-69779834D01*
X81179804Y-56079834D02*
G75*
G02X81479804Y-56379834I0J-300000D01*
G01*
X82479804Y-59979834D02*
G75*
G02X82279804Y-60179834I-200000J0D01*
G01*
X81479804Y-60479834D02*
G75*
G02X81779804Y-60179834I300000J0D01*
G01*
X81779804Y-57079834D02*
X82179804Y-57079834D01*
X82479804Y-59979834D02*
X82479804Y-57379834D01*
X82279804Y-60179834D02*
X81779804Y-60179834D01*
X81479804Y-65679834D02*
X81479804Y-60479834D01*
X81479804Y-69779834D02*
G75*
G02X81179804Y-70079834I-300000J0D01*
G01*
X81779804Y-57079834D02*
G75*
G02X81479804Y-56779834I0J300000D01*
G01*
X82179804Y-57079834D02*
G75*
G02X82479804Y-57379834I0J-300000D01*
G01*
X81479804Y-56379834D02*
X81479804Y-56779834D01*
X81779804Y-65979834D02*
G75*
G02X81479804Y-65679834I0J300000D01*
G01*
X82179804Y-65979834D02*
G75*
G02X82479804Y-66279834I0J-300000D01*
G01*
X82279804Y-69079834D02*
X81779804Y-69079834D01*
X82479804Y-68879834D02*
X82479804Y-66279834D01*
X81779804Y-65979834D02*
X82179804Y-65979834D01*
X81479804Y-69379834D02*
G75*
G02X81779804Y-69079834I300000J0D01*
G01*
X82479804Y-68879834D02*
G75*
G02X82279804Y-69079834I-200000J0D01*
G01*
X66479804Y-66179834D02*
G75*
G02X66679804Y-65979834I200000J0D01*
G01*
X67479804Y-65679834D02*
G75*
G02X67179804Y-65979834I-300000J0D01*
G01*
X67179804Y-69079834D02*
X66779804Y-69079834D01*
X66479804Y-66179834D02*
X66479804Y-68779834D01*
X66679804Y-65979834D02*
X67179804Y-65979834D01*
X66779804Y-69079834D02*
G75*
G02X66479804Y-68779834I0J300000D01*
G01*
X67179804Y-69079834D02*
G75*
G02X67479804Y-69379834I0J-300000D01*
G01*
X66679804Y-57079834D02*
X67179804Y-57079834D01*
X67179804Y-60179834D02*
X66779804Y-60179834D01*
X66479804Y-57279834D02*
X66479804Y-59879834D01*
X67479804Y-56779834D02*
G75*
G02X67179804Y-57079834I-300000J0D01*
G01*
X67179804Y-60179834D02*
G75*
G02X67479804Y-60479834I0J-300000D01*
G01*
X66779804Y-60179834D02*
G75*
G02X66479804Y-59879834I0J300000D01*
G01*
X66479804Y-57279834D02*
G75*
G02X66679804Y-57079834I200000J0D01*
G01*
X100179754Y-70079834D02*
X86779754Y-70079834D01*
X86779754Y-70079834D02*
G75*
G02X86479754Y-69779834I0J300000D01*
G01*
X86479754Y-69779834D02*
X86479754Y-69379834D01*
X86479754Y-56379834D02*
G75*
G02X86779754Y-56079834I300000J0D01*
G01*
X100179754Y-56079834D02*
X86779754Y-56079834D01*
X86479754Y-60479834D02*
X86479754Y-65679834D01*
X86479754Y-56779834D02*
X86479754Y-56379834D01*
X100479754Y-69379834D02*
X100479754Y-69779834D01*
X100179754Y-56079834D02*
G75*
G02X100479754Y-56379834I0J-300000D01*
G01*
X101479754Y-59979834D02*
G75*
G02X101279754Y-60179834I-200000J0D01*
G01*
X100479754Y-60479834D02*
G75*
G02X100779754Y-60179834I300000J0D01*
G01*
X100779754Y-57079834D02*
X101179754Y-57079834D01*
X101479754Y-59979834D02*
X101479754Y-57379834D01*
X101279754Y-60179834D02*
X100779754Y-60179834D01*
X100479754Y-65679834D02*
X100479754Y-60479834D01*
X100479754Y-69779834D02*
G75*
G02X100179754Y-70079834I-300000J0D01*
G01*
X100779754Y-57079834D02*
G75*
G02X100479754Y-56779834I0J300000D01*
G01*
X101179754Y-57079834D02*
G75*
G02X101479754Y-57379834I0J-300000D01*
G01*
X100479754Y-56379834D02*
X100479754Y-56779834D01*
X100779754Y-65979834D02*
G75*
G02X100479754Y-65679834I0J300000D01*
G01*
X101179754Y-65979834D02*
G75*
G02X101479754Y-66279834I0J-300000D01*
G01*
X101279754Y-69079834D02*
X100779754Y-69079834D01*
X101479754Y-68879834D02*
X101479754Y-66279834D01*
X100779754Y-65979834D02*
X101179754Y-65979834D01*
X100479754Y-69379834D02*
G75*
G02X100779754Y-69079834I300000J0D01*
G01*
X101479754Y-68879834D02*
G75*
G02X101279754Y-69079834I-200000J0D01*
G01*
X85479754Y-66179834D02*
G75*
G02X85679754Y-65979834I200000J0D01*
G01*
X86479754Y-65679834D02*
G75*
G02X86179754Y-65979834I-300000J0D01*
G01*
X86179754Y-69079834D02*
X85779754Y-69079834D01*
X85479754Y-66179834D02*
X85479754Y-68779834D01*
X85679754Y-65979834D02*
X86179754Y-65979834D01*
X85779754Y-69079834D02*
G75*
G02X85479754Y-68779834I0J300000D01*
G01*
X86179754Y-69079834D02*
G75*
G02X86479754Y-69379834I0J-300000D01*
G01*
X85679754Y-57079834D02*
X86179754Y-57079834D01*
X86179754Y-60179834D02*
X85779754Y-60179834D01*
X85479754Y-57279834D02*
X85479754Y-59879834D01*
X86479754Y-56779834D02*
G75*
G02X86179754Y-57079834I-300000J0D01*
G01*
X86179754Y-60179834D02*
G75*
G02X86479754Y-60479834I0J-300000D01*
G01*
X85779754Y-60179834D02*
G75*
G02X85479754Y-59879834I0J300000D01*
G01*
X85479754Y-57279834D02*
G75*
G02X85679754Y-57079834I200000J0D01*
G01*
X119179704Y-70079834D02*
X105779704Y-70079834D01*
X105779704Y-70079834D02*
G75*
G02X105479704Y-69779834I0J300000D01*
G01*
X105479704Y-69779834D02*
X105479704Y-69379834D01*
X105479704Y-56379834D02*
G75*
G02X105779704Y-56079834I300000J0D01*
G01*
X119179704Y-56079834D02*
X105779704Y-56079834D01*
X105479704Y-60479834D02*
X105479704Y-65679834D01*
X105479704Y-56779834D02*
X105479704Y-56379834D01*
X119479704Y-69379834D02*
X119479704Y-69779834D01*
X119179704Y-56079834D02*
G75*
G02X119479704Y-56379834I0J-300000D01*
G01*
X120479704Y-59979834D02*
G75*
G02X120279704Y-60179834I-200000J0D01*
G01*
X119479704Y-60479834D02*
G75*
G02X119779704Y-60179834I300000J0D01*
G01*
X119779704Y-57079834D02*
X120179704Y-57079834D01*
X120479704Y-59979834D02*
X120479704Y-57379834D01*
X120279704Y-60179834D02*
X119779704Y-60179834D01*
X119479704Y-65679834D02*
X119479704Y-60479834D01*
X119479704Y-69779834D02*
G75*
G02X119179704Y-70079834I-300000J0D01*
G01*
X119779704Y-57079834D02*
G75*
G02X119479704Y-56779834I0J300000D01*
G01*
X120179704Y-57079834D02*
G75*
G02X120479704Y-57379834I0J-300000D01*
G01*
X119479704Y-56379834D02*
X119479704Y-56779834D01*
X119779704Y-65979834D02*
G75*
G02X119479704Y-65679834I0J300000D01*
G01*
X120179704Y-65979834D02*
G75*
G02X120479704Y-66279834I0J-300000D01*
G01*
X120279704Y-69079834D02*
X119779704Y-69079834D01*
X120479704Y-68879834D02*
X120479704Y-66279834D01*
X119779704Y-65979834D02*
X120179704Y-65979834D01*
X119479704Y-69379834D02*
G75*
G02X119779704Y-69079834I300000J0D01*
G01*
X120479704Y-68879834D02*
G75*
G02X120279704Y-69079834I-200000J0D01*
G01*
X104479704Y-66179834D02*
G75*
G02X104679704Y-65979834I200000J0D01*
G01*
X105479704Y-65679834D02*
G75*
G02X105179704Y-65979834I-300000J0D01*
G01*
X105179704Y-69079834D02*
X104779704Y-69079834D01*
X104479704Y-66179834D02*
X104479704Y-68779834D01*
X104679704Y-65979834D02*
X105179704Y-65979834D01*
X104779704Y-69079834D02*
G75*
G02X104479704Y-68779834I0J300000D01*
G01*
X105179704Y-69079834D02*
G75*
G02X105479704Y-69379834I0J-300000D01*
G01*
X104679704Y-57079834D02*
X105179704Y-57079834D01*
X105179704Y-60179834D02*
X104779704Y-60179834D01*
X104479704Y-57279834D02*
X104479704Y-59879834D01*
X105479704Y-56779834D02*
G75*
G02X105179704Y-57079834I-300000J0D01*
G01*
X105179704Y-60179834D02*
G75*
G02X105479704Y-60479834I0J-300000D01*
G01*
X104779704Y-60179834D02*
G75*
G02X104479704Y-59879834I0J300000D01*
G01*
X104479704Y-57279834D02*
G75*
G02X104679704Y-57079834I200000J0D01*
G01*
X138179654Y-70079834D02*
X124779654Y-70079834D01*
X124779654Y-70079834D02*
G75*
G02X124479654Y-69779834I0J300000D01*
G01*
X124479654Y-69779834D02*
X124479654Y-69379834D01*
X124479654Y-56379834D02*
G75*
G02X124779654Y-56079834I300000J0D01*
G01*
X138179654Y-56079834D02*
X124779654Y-56079834D01*
X124479654Y-60479834D02*
X124479654Y-65679834D01*
X124479654Y-56779834D02*
X124479654Y-56379834D01*
X138479654Y-69379834D02*
X138479654Y-69779834D01*
X138179654Y-56079834D02*
G75*
G02X138479654Y-56379834I0J-300000D01*
G01*
X139479654Y-59979834D02*
G75*
G02X139279654Y-60179834I-200000J0D01*
G01*
X138479654Y-60479834D02*
G75*
G02X138779654Y-60179834I300000J0D01*
G01*
X138779654Y-57079834D02*
X139179654Y-57079834D01*
X139479654Y-59979834D02*
X139479654Y-57379834D01*
X139279654Y-60179834D02*
X138779654Y-60179834D01*
X138479654Y-65679834D02*
X138479654Y-60479834D01*
X138479654Y-69779834D02*
G75*
G02X138179654Y-70079834I-300000J0D01*
G01*
X138779654Y-57079834D02*
G75*
G02X138479654Y-56779834I0J300000D01*
G01*
X139179654Y-57079834D02*
G75*
G02X139479654Y-57379834I0J-300000D01*
G01*
X138479654Y-56379834D02*
X138479654Y-56779834D01*
X138779654Y-65979834D02*
G75*
G02X138479654Y-65679834I0J300000D01*
G01*
X139179654Y-65979834D02*
G75*
G02X139479654Y-66279834I0J-300000D01*
G01*
X139279654Y-69079834D02*
X138779654Y-69079834D01*
X139479654Y-68879834D02*
X139479654Y-66279834D01*
X138779654Y-65979834D02*
X139179654Y-65979834D01*
X138479654Y-69379834D02*
G75*
G02X138779654Y-69079834I300000J0D01*
G01*
X139479654Y-68879834D02*
G75*
G02X139279654Y-69079834I-200000J0D01*
G01*
X123479654Y-66179834D02*
G75*
G02X123679654Y-65979834I200000J0D01*
G01*
X124479654Y-65679834D02*
G75*
G02X124179654Y-65979834I-300000J0D01*
G01*
X124179654Y-69079834D02*
X123779654Y-69079834D01*
X123479654Y-66179834D02*
X123479654Y-68779834D01*
X123679654Y-65979834D02*
X124179654Y-65979834D01*
X123779654Y-69079834D02*
G75*
G02X123479654Y-68779834I0J300000D01*
G01*
X124179654Y-69079834D02*
G75*
G02X124479654Y-69379834I0J-300000D01*
G01*
X123679654Y-57079834D02*
X124179654Y-57079834D01*
X124179654Y-60179834D02*
X123779654Y-60179834D01*
X123479654Y-57279834D02*
X123479654Y-59879834D01*
X124479654Y-56779834D02*
G75*
G02X124179654Y-57079834I-300000J0D01*
G01*
X124179654Y-60179834D02*
G75*
G02X124479654Y-60479834I0J-300000D01*
G01*
X123779654Y-60179834D02*
G75*
G02X123479654Y-59879834I0J300000D01*
G01*
X123479654Y-57279834D02*
G75*
G02X123679654Y-57079834I200000J0D01*
G01*
X157179604Y-70079834D02*
X143779604Y-70079834D01*
X143779604Y-70079834D02*
G75*
G02X143479604Y-69779834I0J300000D01*
G01*
X143479604Y-69779834D02*
X143479604Y-69379834D01*
X143479604Y-56379834D02*
G75*
G02X143779604Y-56079834I300000J0D01*
G01*
X157179604Y-56079834D02*
X143779604Y-56079834D01*
X143479604Y-60479834D02*
X143479604Y-65679834D01*
X143479604Y-56779834D02*
X143479604Y-56379834D01*
X157479604Y-69379834D02*
X157479604Y-69779834D01*
X157179604Y-56079834D02*
G75*
G02X157479604Y-56379834I0J-300000D01*
G01*
X158479604Y-59979834D02*
G75*
G02X158279604Y-60179834I-200000J0D01*
G01*
X157479604Y-60479834D02*
G75*
G02X157779604Y-60179834I300000J0D01*
G01*
X157779604Y-57079834D02*
X158179604Y-57079834D01*
X158479604Y-59979834D02*
X158479604Y-57379834D01*
X158279604Y-60179834D02*
X157779604Y-60179834D01*
X157479604Y-65679834D02*
X157479604Y-60479834D01*
X157479604Y-69779834D02*
G75*
G02X157179604Y-70079834I-300000J0D01*
G01*
X157779604Y-57079834D02*
G75*
G02X157479604Y-56779834I0J300000D01*
G01*
X158179604Y-57079834D02*
G75*
G02X158479604Y-57379834I0J-300000D01*
G01*
X157479604Y-56379834D02*
X157479604Y-56779834D01*
X157779604Y-65979834D02*
G75*
G02X157479604Y-65679834I0J300000D01*
G01*
X158179604Y-65979834D02*
G75*
G02X158479604Y-66279834I0J-300000D01*
G01*
X158279604Y-69079834D02*
X157779604Y-69079834D01*
X158479604Y-68879834D02*
X158479604Y-66279834D01*
X157779604Y-65979834D02*
X158179604Y-65979834D01*
X157479604Y-69379834D02*
G75*
G02X157779604Y-69079834I300000J0D01*
G01*
X158479604Y-68879834D02*
G75*
G02X158279604Y-69079834I-200000J0D01*
G01*
X142479604Y-66179834D02*
G75*
G02X142679604Y-65979834I200000J0D01*
G01*
X143479604Y-65679834D02*
G75*
G02X143179604Y-65979834I-300000J0D01*
G01*
X143179604Y-69079834D02*
X142779604Y-69079834D01*
X142479604Y-66179834D02*
X142479604Y-68779834D01*
X142679604Y-65979834D02*
X143179604Y-65979834D01*
X142779604Y-69079834D02*
G75*
G02X142479604Y-68779834I0J300000D01*
G01*
X143179604Y-69079834D02*
G75*
G02X143479604Y-69379834I0J-300000D01*
G01*
X142679604Y-57079834D02*
X143179604Y-57079834D01*
X143179604Y-60179834D02*
X142779604Y-60179834D01*
X142479604Y-57279834D02*
X142479604Y-59879834D01*
X143479604Y-56779834D02*
G75*
G02X143179604Y-57079834I-300000J0D01*
G01*
X143179604Y-60179834D02*
G75*
G02X143479604Y-60479834I0J-300000D01*
G01*
X142779604Y-60179834D02*
G75*
G02X142479604Y-59879834I0J300000D01*
G01*
X142479604Y-57279834D02*
G75*
G02X142679604Y-57079834I200000J0D01*
G01*
X176179554Y-70079834D02*
X162779554Y-70079834D01*
X162779554Y-70079834D02*
G75*
G02X162479554Y-69779834I0J300000D01*
G01*
X162479554Y-69779834D02*
X162479554Y-69379834D01*
X162479554Y-56379834D02*
G75*
G02X162779554Y-56079834I300000J0D01*
G01*
X176179554Y-56079834D02*
X162779554Y-56079834D01*
X162479554Y-60479834D02*
X162479554Y-65679834D01*
X162479554Y-56779834D02*
X162479554Y-56379834D01*
X176479554Y-69379834D02*
X176479554Y-69779834D01*
X176179554Y-56079834D02*
G75*
G02X176479554Y-56379834I0J-300000D01*
G01*
X177479554Y-59979834D02*
G75*
G02X177279554Y-60179834I-200000J0D01*
G01*
X176479554Y-60479834D02*
G75*
G02X176779554Y-60179834I300000J0D01*
G01*
X176779554Y-57079834D02*
X177179554Y-57079834D01*
X177479554Y-59979834D02*
X177479554Y-57379834D01*
X177279554Y-60179834D02*
X176779554Y-60179834D01*
X176479554Y-65679834D02*
X176479554Y-60479834D01*
X176479554Y-69779834D02*
G75*
G02X176179554Y-70079834I-300000J0D01*
G01*
X176779554Y-57079834D02*
G75*
G02X176479554Y-56779834I0J300000D01*
G01*
X177179554Y-57079834D02*
G75*
G02X177479554Y-57379834I0J-300000D01*
G01*
X176479554Y-56379834D02*
X176479554Y-56779834D01*
X176779554Y-65979834D02*
G75*
G02X176479554Y-65679834I0J300000D01*
G01*
X177179554Y-65979834D02*
G75*
G02X177479554Y-66279834I0J-300000D01*
G01*
X177279554Y-69079834D02*
X176779554Y-69079834D01*
X177479554Y-68879834D02*
X177479554Y-66279834D01*
X176779554Y-65979834D02*
X177179554Y-65979834D01*
X176479554Y-69379834D02*
G75*
G02X176779554Y-69079834I300000J0D01*
G01*
X177479554Y-68879834D02*
G75*
G02X177279554Y-69079834I-200000J0D01*
G01*
X161479554Y-66179834D02*
G75*
G02X161679554Y-65979834I200000J0D01*
G01*
X162479554Y-65679834D02*
G75*
G02X162179554Y-65979834I-300000J0D01*
G01*
X162179554Y-69079834D02*
X161779554Y-69079834D01*
X161479554Y-66179834D02*
X161479554Y-68779834D01*
X161679554Y-65979834D02*
X162179554Y-65979834D01*
X161779554Y-69079834D02*
G75*
G02X161479554Y-68779834I0J300000D01*
G01*
X162179554Y-69079834D02*
G75*
G02X162479554Y-69379834I0J-300000D01*
G01*
X161679554Y-57079834D02*
X162179554Y-57079834D01*
X162179554Y-60179834D02*
X161779554Y-60179834D01*
X161479554Y-57279834D02*
X161479554Y-59879834D01*
X162479554Y-56779834D02*
G75*
G02X162179554Y-57079834I-300000J0D01*
G01*
X162179554Y-60179834D02*
G75*
G02X162479554Y-60479834I0J-300000D01*
G01*
X161779554Y-60179834D02*
G75*
G02X161479554Y-59879834I0J300000D01*
G01*
X161479554Y-57279834D02*
G75*
G02X161679554Y-57079834I200000J0D01*
G01*
X195179504Y-70079834D02*
X181779504Y-70079834D01*
X181779504Y-70079834D02*
G75*
G02X181479504Y-69779834I0J300000D01*
G01*
X181479504Y-69779834D02*
X181479504Y-69379834D01*
X181479504Y-56379834D02*
G75*
G02X181779504Y-56079834I300000J0D01*
G01*
X195179504Y-56079834D02*
X181779504Y-56079834D01*
X181479504Y-60479834D02*
X181479504Y-65679834D01*
X181479504Y-56779834D02*
X181479504Y-56379834D01*
X195479504Y-69379834D02*
X195479504Y-69779834D01*
X195179504Y-56079834D02*
G75*
G02X195479504Y-56379834I0J-300000D01*
G01*
X196479504Y-59979834D02*
G75*
G02X196279504Y-60179834I-200000J0D01*
G01*
X195479504Y-60479834D02*
G75*
G02X195779504Y-60179834I300000J0D01*
G01*
X195779504Y-57079834D02*
X196179504Y-57079834D01*
X196479504Y-59979834D02*
X196479504Y-57379834D01*
X196279504Y-60179834D02*
X195779504Y-60179834D01*
X195479504Y-65679834D02*
X195479504Y-60479834D01*
X195479504Y-69779834D02*
G75*
G02X195179504Y-70079834I-300000J0D01*
G01*
X195779504Y-57079834D02*
G75*
G02X195479504Y-56779834I0J300000D01*
G01*
X196179504Y-57079834D02*
G75*
G02X196479504Y-57379834I0J-300000D01*
G01*
X195479504Y-56379834D02*
X195479504Y-56779834D01*
X195779504Y-65979834D02*
G75*
G02X195479504Y-65679834I0J300000D01*
G01*
X196179504Y-65979834D02*
G75*
G02X196479504Y-66279834I0J-300000D01*
G01*
X196279504Y-69079834D02*
X195779504Y-69079834D01*
X196479504Y-68879834D02*
X196479504Y-66279834D01*
X195779504Y-65979834D02*
X196179504Y-65979834D01*
X195479504Y-69379834D02*
G75*
G02X195779504Y-69079834I300000J0D01*
G01*
X196479504Y-68879834D02*
G75*
G02X196279504Y-69079834I-200000J0D01*
G01*
X180479504Y-66179834D02*
G75*
G02X180679504Y-65979834I200000J0D01*
G01*
X181479504Y-65679834D02*
G75*
G02X181179504Y-65979834I-300000J0D01*
G01*
X181179504Y-69079834D02*
X180779504Y-69079834D01*
X180479504Y-66179834D02*
X180479504Y-68779834D01*
X180679504Y-65979834D02*
X181179504Y-65979834D01*
X180779504Y-69079834D02*
G75*
G02X180479504Y-68779834I0J300000D01*
G01*
X181179504Y-69079834D02*
G75*
G02X181479504Y-69379834I0J-300000D01*
G01*
X180679504Y-57079834D02*
X181179504Y-57079834D01*
X181179504Y-60179834D02*
X180779504Y-60179834D01*
X180479504Y-57279834D02*
X180479504Y-59879834D01*
X181479504Y-56779834D02*
G75*
G02X181179504Y-57079834I-300000J0D01*
G01*
X181179504Y-60179834D02*
G75*
G02X181479504Y-60479834I0J-300000D01*
G01*
X180779504Y-60179834D02*
G75*
G02X180479504Y-59879834I0J300000D01*
G01*
X180479504Y-57279834D02*
G75*
G02X180679504Y-57079834I200000J0D01*
G01*
X214179454Y-70079834D02*
X200779454Y-70079834D01*
X200779454Y-70079834D02*
G75*
G02X200479454Y-69779834I0J300000D01*
G01*
X200479454Y-69779834D02*
X200479454Y-69379834D01*
X200479454Y-56379834D02*
G75*
G02X200779454Y-56079834I300000J0D01*
G01*
X214179454Y-56079834D02*
X200779454Y-56079834D01*
X200479454Y-60479834D02*
X200479454Y-65679834D01*
X200479454Y-56779834D02*
X200479454Y-56379834D01*
X214479454Y-69379834D02*
X214479454Y-69779834D01*
X214179454Y-56079834D02*
G75*
G02X214479454Y-56379834I0J-300000D01*
G01*
X215479454Y-59979834D02*
G75*
G02X215279454Y-60179834I-200000J0D01*
G01*
X214479454Y-60479834D02*
G75*
G02X214779454Y-60179834I300000J0D01*
G01*
X214779454Y-57079834D02*
X215179454Y-57079834D01*
X215479454Y-59979834D02*
X215479454Y-57379834D01*
X215279454Y-60179834D02*
X214779454Y-60179834D01*
X214479454Y-65679834D02*
X214479454Y-60479834D01*
X214479454Y-69779834D02*
G75*
G02X214179454Y-70079834I-300000J0D01*
G01*
X214779454Y-57079834D02*
G75*
G02X214479454Y-56779834I0J300000D01*
G01*
X215179454Y-57079834D02*
G75*
G02X215479454Y-57379834I0J-300000D01*
G01*
X214479454Y-56379834D02*
X214479454Y-56779834D01*
X214779454Y-65979834D02*
G75*
G02X214479454Y-65679834I0J300000D01*
G01*
X215179454Y-65979834D02*
G75*
G02X215479454Y-66279834I0J-300000D01*
G01*
X215279454Y-69079834D02*
X214779454Y-69079834D01*
X215479454Y-68879834D02*
X215479454Y-66279834D01*
X214779454Y-65979834D02*
X215179454Y-65979834D01*
X214479454Y-69379834D02*
G75*
G02X214779454Y-69079834I300000J0D01*
G01*
X215479454Y-68879834D02*
G75*
G02X215279454Y-69079834I-200000J0D01*
G01*
X199479454Y-66179834D02*
G75*
G02X199679454Y-65979834I200000J0D01*
G01*
X200479454Y-65679834D02*
G75*
G02X200179454Y-65979834I-300000J0D01*
G01*
X200179454Y-69079834D02*
X199779454Y-69079834D01*
X199479454Y-66179834D02*
X199479454Y-68779834D01*
X199679454Y-65979834D02*
X200179454Y-65979834D01*
X199779454Y-69079834D02*
G75*
G02X199479454Y-68779834I0J300000D01*
G01*
X200179454Y-69079834D02*
G75*
G02X200479454Y-69379834I0J-300000D01*
G01*
X199679454Y-57079834D02*
X200179454Y-57079834D01*
X200179454Y-60179834D02*
X199779454Y-60179834D01*
X199479454Y-57279834D02*
X199479454Y-59879834D01*
X200479454Y-56779834D02*
G75*
G02X200179454Y-57079834I-300000J0D01*
G01*
X200179454Y-60179834D02*
G75*
G02X200479454Y-60479834I0J-300000D01*
G01*
X199779454Y-60179834D02*
G75*
G02X199479454Y-59879834I0J300000D01*
G01*
X199479454Y-57279834D02*
G75*
G02X199679454Y-57079834I200000J0D01*
G01*
X233179404Y-70079834D02*
X219779404Y-70079834D01*
X219779404Y-70079834D02*
G75*
G02X219479404Y-69779834I0J300000D01*
G01*
X219479404Y-69779834D02*
X219479404Y-69379834D01*
X219479404Y-56379834D02*
G75*
G02X219779404Y-56079834I300000J0D01*
G01*
X233179404Y-56079834D02*
X219779404Y-56079834D01*
X219479404Y-60479834D02*
X219479404Y-65679834D01*
X219479404Y-56779834D02*
X219479404Y-56379834D01*
X233479404Y-69379834D02*
X233479404Y-69779834D01*
X233179404Y-56079834D02*
G75*
G02X233479404Y-56379834I0J-300000D01*
G01*
X234479404Y-59979834D02*
G75*
G02X234279404Y-60179834I-200000J0D01*
G01*
X233479404Y-60479834D02*
G75*
G02X233779404Y-60179834I300000J0D01*
G01*
X233779404Y-57079834D02*
X234179404Y-57079834D01*
X234479404Y-59979834D02*
X234479404Y-57379834D01*
X234279404Y-60179834D02*
X233779404Y-60179834D01*
X233479404Y-65679834D02*
X233479404Y-60479834D01*
X233479404Y-69779834D02*
G75*
G02X233179404Y-70079834I-300000J0D01*
G01*
X233779404Y-57079834D02*
G75*
G02X233479404Y-56779834I0J300000D01*
G01*
X234179404Y-57079834D02*
G75*
G02X234479404Y-57379834I0J-300000D01*
G01*
X233479404Y-56379834D02*
X233479404Y-56779834D01*
X233779404Y-65979834D02*
G75*
G02X233479404Y-65679834I0J300000D01*
G01*
X234179404Y-65979834D02*
G75*
G02X234479404Y-66279834I0J-300000D01*
G01*
X234279404Y-69079834D02*
X233779404Y-69079834D01*
X234479404Y-68879834D02*
X234479404Y-66279834D01*
X233779404Y-65979834D02*
X234179404Y-65979834D01*
X233479404Y-69379834D02*
G75*
G02X233779404Y-69079834I300000J0D01*
G01*
X234479404Y-68879834D02*
G75*
G02X234279404Y-69079834I-200000J0D01*
G01*
X218479404Y-66179834D02*
G75*
G02X218679404Y-65979834I200000J0D01*
G01*
X219479404Y-65679834D02*
G75*
G02X219179404Y-65979834I-300000J0D01*
G01*
X219179404Y-69079834D02*
X218779404Y-69079834D01*
X218479404Y-66179834D02*
X218479404Y-68779834D01*
X218679404Y-65979834D02*
X219179404Y-65979834D01*
X218779404Y-69079834D02*
G75*
G02X218479404Y-68779834I0J300000D01*
G01*
X219179404Y-69079834D02*
G75*
G02X219479404Y-69379834I0J-300000D01*
G01*
X218679404Y-57079834D02*
X219179404Y-57079834D01*
X219179404Y-60179834D02*
X218779404Y-60179834D01*
X218479404Y-57279834D02*
X218479404Y-59879834D01*
X219479404Y-56779834D02*
G75*
G02X219179404Y-57079834I-300000J0D01*
G01*
X219179404Y-60179834D02*
G75*
G02X219479404Y-60479834I0J-300000D01*
G01*
X218779404Y-60179834D02*
G75*
G02X218479404Y-59879834I0J300000D01*
G01*
X218479404Y-57279834D02*
G75*
G02X218679404Y-57079834I200000J0D01*
G01*
X252179354Y-70079834D02*
X238779354Y-70079834D01*
X238779354Y-70079834D02*
G75*
G02X238479354Y-69779834I0J300000D01*
G01*
X238479354Y-69779834D02*
X238479354Y-69379834D01*
X238479354Y-56379834D02*
G75*
G02X238779354Y-56079834I300000J0D01*
G01*
X252179354Y-56079834D02*
X238779354Y-56079834D01*
X238479354Y-60479834D02*
X238479354Y-65679834D01*
X238479354Y-56779834D02*
X238479354Y-56379834D01*
X252479354Y-69379834D02*
X252479354Y-69779834D01*
X252179354Y-56079834D02*
G75*
G02X252479354Y-56379834I0J-300000D01*
G01*
X253479354Y-59979834D02*
G75*
G02X253279354Y-60179834I-200000J0D01*
G01*
X252479354Y-60479834D02*
G75*
G02X252779354Y-60179834I300000J0D01*
G01*
X252779354Y-57079834D02*
X253179354Y-57079834D01*
X253479354Y-59979834D02*
X253479354Y-57379834D01*
X253279354Y-60179834D02*
X252779354Y-60179834D01*
X252479354Y-65679834D02*
X252479354Y-60479834D01*
X252479354Y-69779834D02*
G75*
G02X252179354Y-70079834I-300000J0D01*
G01*
X252779354Y-57079834D02*
G75*
G02X252479354Y-56779834I0J300000D01*
G01*
X253179354Y-57079834D02*
G75*
G02X253479354Y-57379834I0J-300000D01*
G01*
X252479354Y-56379834D02*
X252479354Y-56779834D01*
X252779354Y-65979834D02*
G75*
G02X252479354Y-65679834I0J300000D01*
G01*
X253179354Y-65979834D02*
G75*
G02X253479354Y-66279834I0J-300000D01*
G01*
X253279354Y-69079834D02*
X252779354Y-69079834D01*
X253479354Y-68879834D02*
X253479354Y-66279834D01*
X252779354Y-65979834D02*
X253179354Y-65979834D01*
X252479354Y-69379834D02*
G75*
G02X252779354Y-69079834I300000J0D01*
G01*
X253479354Y-68879834D02*
G75*
G02X253279354Y-69079834I-200000J0D01*
G01*
X237479354Y-66179834D02*
G75*
G02X237679354Y-65979834I200000J0D01*
G01*
X238479354Y-65679834D02*
G75*
G02X238179354Y-65979834I-300000J0D01*
G01*
X238179354Y-69079834D02*
X237779354Y-69079834D01*
X237479354Y-66179834D02*
X237479354Y-68779834D01*
X237679354Y-65979834D02*
X238179354Y-65979834D01*
X237779354Y-69079834D02*
G75*
G02X237479354Y-68779834I0J300000D01*
G01*
X238179354Y-69079834D02*
G75*
G02X238479354Y-69379834I0J-300000D01*
G01*
X237679354Y-57079834D02*
X238179354Y-57079834D01*
X238179354Y-60179834D02*
X237779354Y-60179834D01*
X237479354Y-57279834D02*
X237479354Y-59879834D01*
X238479354Y-56779834D02*
G75*
G02X238179354Y-57079834I-300000J0D01*
G01*
X238179354Y-60179834D02*
G75*
G02X238479354Y-60479834I0J-300000D01*
G01*
X237779354Y-60179834D02*
G75*
G02X237479354Y-59879834I0J300000D01*
G01*
X237479354Y-57279834D02*
G75*
G02X237679354Y-57079834I200000J0D01*
G01*
X271179304Y-70079834D02*
X257779304Y-70079834D01*
X257779304Y-70079834D02*
G75*
G02X257479304Y-69779834I0J300000D01*
G01*
X257479304Y-69779834D02*
X257479304Y-69379834D01*
X257479304Y-56379834D02*
G75*
G02X257779304Y-56079834I300000J0D01*
G01*
X271179304Y-56079834D02*
X257779304Y-56079834D01*
X257479304Y-60479834D02*
X257479304Y-65679834D01*
X257479304Y-56779834D02*
X257479304Y-56379834D01*
X271479304Y-69379834D02*
X271479304Y-69779834D01*
X271179304Y-56079834D02*
G75*
G02X271479304Y-56379834I0J-300000D01*
G01*
X272479304Y-59979834D02*
G75*
G02X272279304Y-60179834I-200000J0D01*
G01*
X271479304Y-60479834D02*
G75*
G02X271779304Y-60179834I300000J0D01*
G01*
X271779304Y-57079834D02*
X272179304Y-57079834D01*
X272479304Y-59979834D02*
X272479304Y-57379834D01*
X272279304Y-60179834D02*
X271779304Y-60179834D01*
X271479304Y-65679834D02*
X271479304Y-60479834D01*
X271479304Y-69779834D02*
G75*
G02X271179304Y-70079834I-300000J0D01*
G01*
X271779304Y-57079834D02*
G75*
G02X271479304Y-56779834I0J300000D01*
G01*
X272179304Y-57079834D02*
G75*
G02X272479304Y-57379834I0J-300000D01*
G01*
X271479304Y-56379834D02*
X271479304Y-56779834D01*
X271779304Y-65979834D02*
G75*
G02X271479304Y-65679834I0J300000D01*
G01*
X272179304Y-65979834D02*
G75*
G02X272479304Y-66279834I0J-300000D01*
G01*
X272279304Y-69079834D02*
X271779304Y-69079834D01*
X272479304Y-68879834D02*
X272479304Y-66279834D01*
X271779304Y-65979834D02*
X272179304Y-65979834D01*
X271479304Y-69379834D02*
G75*
G02X271779304Y-69079834I300000J0D01*
G01*
X272479304Y-68879834D02*
G75*
G02X272279304Y-69079834I-200000J0D01*
G01*
X256479304Y-66179834D02*
G75*
G02X256679304Y-65979834I200000J0D01*
G01*
X257479304Y-65679834D02*
G75*
G02X257179304Y-65979834I-300000J0D01*
G01*
X257179304Y-69079834D02*
X256779304Y-69079834D01*
X256479304Y-66179834D02*
X256479304Y-68779834D01*
X256679304Y-65979834D02*
X257179304Y-65979834D01*
X256779304Y-69079834D02*
G75*
G02X256479304Y-68779834I0J300000D01*
G01*
X257179304Y-69079834D02*
G75*
G02X257479304Y-69379834I0J-300000D01*
G01*
X256679304Y-57079834D02*
X257179304Y-57079834D01*
X257179304Y-60179834D02*
X256779304Y-60179834D01*
X256479304Y-57279834D02*
X256479304Y-59879834D01*
X257479304Y-56779834D02*
G75*
G02X257179304Y-57079834I-300000J0D01*
G01*
X257179304Y-60179834D02*
G75*
G02X257479304Y-60479834I0J-300000D01*
G01*
X256779304Y-60179834D02*
G75*
G02X256479304Y-59879834I0J300000D01*
G01*
X256479304Y-57279834D02*
G75*
G02X256679304Y-57079834I200000J0D01*
G01*
X62179854Y-89079784D02*
X48779854Y-89079784D01*
X48779854Y-89079784D02*
G75*
G02X48479854Y-88779784I0J300000D01*
G01*
X48479854Y-88779784D02*
X48479854Y-88379784D01*
X48479854Y-75379784D02*
G75*
G02X48779854Y-75079784I300000J0D01*
G01*
X62179854Y-75079784D02*
X48779854Y-75079784D01*
X48479854Y-79479784D02*
X48479854Y-84679784D01*
X48479854Y-75779784D02*
X48479854Y-75379784D01*
X62479854Y-88379784D02*
X62479854Y-88779784D01*
X62179854Y-75079784D02*
G75*
G02X62479854Y-75379784I0J-300000D01*
G01*
X63479854Y-78979784D02*
G75*
G02X63279854Y-79179784I-200000J0D01*
G01*
X62479854Y-79479784D02*
G75*
G02X62779854Y-79179784I300000J0D01*
G01*
X62779854Y-76079784D02*
X63179854Y-76079784D01*
X63479854Y-78979784D02*
X63479854Y-76379784D01*
X63279854Y-79179784D02*
X62779854Y-79179784D01*
X62479854Y-84679784D02*
X62479854Y-79479784D01*
X62479854Y-88779784D02*
G75*
G02X62179854Y-89079784I-300000J0D01*
G01*
X62779854Y-76079784D02*
G75*
G02X62479854Y-75779784I0J300000D01*
G01*
X63179854Y-76079784D02*
G75*
G02X63479854Y-76379784I0J-300000D01*
G01*
X62479854Y-75379784D02*
X62479854Y-75779784D01*
X62779854Y-84979784D02*
G75*
G02X62479854Y-84679784I0J300000D01*
G01*
X63179854Y-84979784D02*
G75*
G02X63479854Y-85279784I0J-300000D01*
G01*
X63279854Y-88079784D02*
X62779854Y-88079784D01*
X63479854Y-87879784D02*
X63479854Y-85279784D01*
X62779854Y-84979784D02*
X63179854Y-84979784D01*
X62479854Y-88379784D02*
G75*
G02X62779854Y-88079784I300000J0D01*
G01*
X63479854Y-87879784D02*
G75*
G02X63279854Y-88079784I-200000J0D01*
G01*
X47479854Y-85179784D02*
G75*
G02X47679854Y-84979784I200000J0D01*
G01*
X48479854Y-84679784D02*
G75*
G02X48179854Y-84979784I-300000J0D01*
G01*
X48179854Y-88079784D02*
X47779854Y-88079784D01*
X47479854Y-85179784D02*
X47479854Y-87779784D01*
X47679854Y-84979784D02*
X48179854Y-84979784D01*
X47779854Y-88079784D02*
G75*
G02X47479854Y-87779784I0J300000D01*
G01*
X48179854Y-88079784D02*
G75*
G02X48479854Y-88379784I0J-300000D01*
G01*
X47679854Y-76079784D02*
X48179854Y-76079784D01*
X48179854Y-79179784D02*
X47779854Y-79179784D01*
X47479854Y-76279784D02*
X47479854Y-78879784D01*
X48479854Y-75779784D02*
G75*
G02X48179854Y-76079784I-300000J0D01*
G01*
X48179854Y-79179784D02*
G75*
G02X48479854Y-79479784I0J-300000D01*
G01*
X47779854Y-79179784D02*
G75*
G02X47479854Y-78879784I0J300000D01*
G01*
X47479854Y-76279784D02*
G75*
G02X47679854Y-76079784I200000J0D01*
G01*
X81179804Y-89079784D02*
X67779804Y-89079784D01*
X67779804Y-89079784D02*
G75*
G02X67479804Y-88779784I0J300000D01*
G01*
X67479804Y-88779784D02*
X67479804Y-88379784D01*
X67479804Y-75379784D02*
G75*
G02X67779804Y-75079784I300000J0D01*
G01*
X81179804Y-75079784D02*
X67779804Y-75079784D01*
X67479804Y-79479784D02*
X67479804Y-84679784D01*
X67479804Y-75779784D02*
X67479804Y-75379784D01*
X81479804Y-88379784D02*
X81479804Y-88779784D01*
X81179804Y-75079784D02*
G75*
G02X81479804Y-75379784I0J-300000D01*
G01*
X82479804Y-78979784D02*
G75*
G02X82279804Y-79179784I-200000J0D01*
G01*
X81479804Y-79479784D02*
G75*
G02X81779804Y-79179784I300000J0D01*
G01*
X81779804Y-76079784D02*
X82179804Y-76079784D01*
X82479804Y-78979784D02*
X82479804Y-76379784D01*
X82279804Y-79179784D02*
X81779804Y-79179784D01*
X81479804Y-84679784D02*
X81479804Y-79479784D01*
X81479804Y-88779784D02*
G75*
G02X81179804Y-89079784I-300000J0D01*
G01*
X81779804Y-76079784D02*
G75*
G02X81479804Y-75779784I0J300000D01*
G01*
X82179804Y-76079784D02*
G75*
G02X82479804Y-76379784I0J-300000D01*
G01*
X81479804Y-75379784D02*
X81479804Y-75779784D01*
X81779804Y-84979784D02*
G75*
G02X81479804Y-84679784I0J300000D01*
G01*
X82179804Y-84979784D02*
G75*
G02X82479804Y-85279784I0J-300000D01*
G01*
X82279804Y-88079784D02*
X81779804Y-88079784D01*
X82479804Y-87879784D02*
X82479804Y-85279784D01*
X81779804Y-84979784D02*
X82179804Y-84979784D01*
X81479804Y-88379784D02*
G75*
G02X81779804Y-88079784I300000J0D01*
G01*
X82479804Y-87879784D02*
G75*
G02X82279804Y-88079784I-200000J0D01*
G01*
X66479804Y-85179784D02*
G75*
G02X66679804Y-84979784I200000J0D01*
G01*
X67479804Y-84679784D02*
G75*
G02X67179804Y-84979784I-300000J0D01*
G01*
X67179804Y-88079784D02*
X66779804Y-88079784D01*
X66479804Y-85179784D02*
X66479804Y-87779784D01*
X66679804Y-84979784D02*
X67179804Y-84979784D01*
X66779804Y-88079784D02*
G75*
G02X66479804Y-87779784I0J300000D01*
G01*
X67179804Y-88079784D02*
G75*
G02X67479804Y-88379784I0J-300000D01*
G01*
X66679804Y-76079784D02*
X67179804Y-76079784D01*
X67179804Y-79179784D02*
X66779804Y-79179784D01*
X66479804Y-76279784D02*
X66479804Y-78879784D01*
X67479804Y-75779784D02*
G75*
G02X67179804Y-76079784I-300000J0D01*
G01*
X67179804Y-79179784D02*
G75*
G02X67479804Y-79479784I0J-300000D01*
G01*
X66779804Y-79179784D02*
G75*
G02X66479804Y-78879784I0J300000D01*
G01*
X66479804Y-76279784D02*
G75*
G02X66679804Y-76079784I200000J0D01*
G01*
X100179754Y-89079784D02*
X86779754Y-89079784D01*
X86779754Y-89079784D02*
G75*
G02X86479754Y-88779784I0J300000D01*
G01*
X86479754Y-88779784D02*
X86479754Y-88379784D01*
X86479754Y-75379784D02*
G75*
G02X86779754Y-75079784I300000J0D01*
G01*
X100179754Y-75079784D02*
X86779754Y-75079784D01*
X86479754Y-79479784D02*
X86479754Y-84679784D01*
X86479754Y-75779784D02*
X86479754Y-75379784D01*
X100479754Y-88379784D02*
X100479754Y-88779784D01*
X100179754Y-75079784D02*
G75*
G02X100479754Y-75379784I0J-300000D01*
G01*
X101479754Y-78979784D02*
G75*
G02X101279754Y-79179784I-200000J0D01*
G01*
X100479754Y-79479784D02*
G75*
G02X100779754Y-79179784I300000J0D01*
G01*
X100779754Y-76079784D02*
X101179754Y-76079784D01*
X101479754Y-78979784D02*
X101479754Y-76379784D01*
X101279754Y-79179784D02*
X100779754Y-79179784D01*
X100479754Y-84679784D02*
X100479754Y-79479784D01*
X100479754Y-88779784D02*
G75*
G02X100179754Y-89079784I-300000J0D01*
G01*
X100779754Y-76079784D02*
G75*
G02X100479754Y-75779784I0J300000D01*
G01*
X101179754Y-76079784D02*
G75*
G02X101479754Y-76379784I0J-300000D01*
G01*
X100479754Y-75379784D02*
X100479754Y-75779784D01*
X100779754Y-84979784D02*
G75*
G02X100479754Y-84679784I0J300000D01*
G01*
X101179754Y-84979784D02*
G75*
G02X101479754Y-85279784I0J-300000D01*
G01*
X101279754Y-88079784D02*
X100779754Y-88079784D01*
X101479754Y-87879784D02*
X101479754Y-85279784D01*
X100779754Y-84979784D02*
X101179754Y-84979784D01*
X100479754Y-88379784D02*
G75*
G02X100779754Y-88079784I300000J0D01*
G01*
X101479754Y-87879784D02*
G75*
G02X101279754Y-88079784I-200000J0D01*
G01*
X85479754Y-85179784D02*
G75*
G02X85679754Y-84979784I200000J0D01*
G01*
X86479754Y-84679784D02*
G75*
G02X86179754Y-84979784I-300000J0D01*
G01*
X86179754Y-88079784D02*
X85779754Y-88079784D01*
X85479754Y-85179784D02*
X85479754Y-87779784D01*
X85679754Y-84979784D02*
X86179754Y-84979784D01*
X85779754Y-88079784D02*
G75*
G02X85479754Y-87779784I0J300000D01*
G01*
X86179754Y-88079784D02*
G75*
G02X86479754Y-88379784I0J-300000D01*
G01*
X85679754Y-76079784D02*
X86179754Y-76079784D01*
X86179754Y-79179784D02*
X85779754Y-79179784D01*
X85479754Y-76279784D02*
X85479754Y-78879784D01*
X86479754Y-75779784D02*
G75*
G02X86179754Y-76079784I-300000J0D01*
G01*
X86179754Y-79179784D02*
G75*
G02X86479754Y-79479784I0J-300000D01*
G01*
X85779754Y-79179784D02*
G75*
G02X85479754Y-78879784I0J300000D01*
G01*
X85479754Y-76279784D02*
G75*
G02X85679754Y-76079784I200000J0D01*
G01*
X119179704Y-89079784D02*
X105779704Y-89079784D01*
X105779704Y-89079784D02*
G75*
G02X105479704Y-88779784I0J300000D01*
G01*
X105479704Y-88779784D02*
X105479704Y-88379784D01*
X105479704Y-75379784D02*
G75*
G02X105779704Y-75079784I300000J0D01*
G01*
X119179704Y-75079784D02*
X105779704Y-75079784D01*
X105479704Y-79479784D02*
X105479704Y-84679784D01*
X105479704Y-75779784D02*
X105479704Y-75379784D01*
X119479704Y-88379784D02*
X119479704Y-88779784D01*
X119179704Y-75079784D02*
G75*
G02X119479704Y-75379784I0J-300000D01*
G01*
X120479704Y-78979784D02*
G75*
G02X120279704Y-79179784I-200000J0D01*
G01*
X119479704Y-79479784D02*
G75*
G02X119779704Y-79179784I300000J0D01*
G01*
X119779704Y-76079784D02*
X120179704Y-76079784D01*
X120479704Y-78979784D02*
X120479704Y-76379784D01*
X120279704Y-79179784D02*
X119779704Y-79179784D01*
X119479704Y-84679784D02*
X119479704Y-79479784D01*
X119479704Y-88779784D02*
G75*
G02X119179704Y-89079784I-300000J0D01*
G01*
X119779704Y-76079784D02*
G75*
G02X119479704Y-75779784I0J300000D01*
G01*
X120179704Y-76079784D02*
G75*
G02X120479704Y-76379784I0J-300000D01*
G01*
X119479704Y-75379784D02*
X119479704Y-75779784D01*
X119779704Y-84979784D02*
G75*
G02X119479704Y-84679784I0J300000D01*
G01*
X120179704Y-84979784D02*
G75*
G02X120479704Y-85279784I0J-300000D01*
G01*
X120279704Y-88079784D02*
X119779704Y-88079784D01*
X120479704Y-87879784D02*
X120479704Y-85279784D01*
X119779704Y-84979784D02*
X120179704Y-84979784D01*
X119479704Y-88379784D02*
G75*
G02X119779704Y-88079784I300000J0D01*
G01*
X120479704Y-87879784D02*
G75*
G02X120279704Y-88079784I-200000J0D01*
G01*
X104479704Y-85179784D02*
G75*
G02X104679704Y-84979784I200000J0D01*
G01*
X105479704Y-84679784D02*
G75*
G02X105179704Y-84979784I-300000J0D01*
G01*
X105179704Y-88079784D02*
X104779704Y-88079784D01*
X104479704Y-85179784D02*
X104479704Y-87779784D01*
X104679704Y-84979784D02*
X105179704Y-84979784D01*
X104779704Y-88079784D02*
G75*
G02X104479704Y-87779784I0J300000D01*
G01*
X105179704Y-88079784D02*
G75*
G02X105479704Y-88379784I0J-300000D01*
G01*
X104679704Y-76079784D02*
X105179704Y-76079784D01*
X105179704Y-79179784D02*
X104779704Y-79179784D01*
X104479704Y-76279784D02*
X104479704Y-78879784D01*
X105479704Y-75779784D02*
G75*
G02X105179704Y-76079784I-300000J0D01*
G01*
X105179704Y-79179784D02*
G75*
G02X105479704Y-79479784I0J-300000D01*
G01*
X104779704Y-79179784D02*
G75*
G02X104479704Y-78879784I0J300000D01*
G01*
X104479704Y-76279784D02*
G75*
G02X104679704Y-76079784I200000J0D01*
G01*
X123479654Y-76279784D02*
G75*
G02X123679654Y-76079784I200000J0D01*
G01*
X123779654Y-79179784D02*
G75*
G02X123479654Y-78879784I0J300000D01*
G01*
X124179654Y-79179784D02*
G75*
G02X124479654Y-79479784I0J-300000D01*
G01*
X124479654Y-75779784D02*
G75*
G02X124179654Y-76079784I-300000J0D01*
G01*
X123479654Y-76279784D02*
X123479654Y-78879784D01*
X124179654Y-79179784D02*
X123779654Y-79179784D01*
X123679654Y-76079784D02*
X124179654Y-76079784D01*
X124179654Y-88079784D02*
G75*
G02X124479654Y-88379784I0J-300000D01*
G01*
X123779654Y-88079784D02*
G75*
G02X123479654Y-87779784I0J300000D01*
G01*
X123679654Y-84979784D02*
X124179654Y-84979784D01*
X123479654Y-85179784D02*
X123479654Y-87779784D01*
X124179654Y-88079784D02*
X123779654Y-88079784D01*
X124479654Y-84679784D02*
G75*
G02X124179654Y-84979784I-300000J0D01*
G01*
X123479654Y-85179784D02*
G75*
G02X123679654Y-84979784I200000J0D01*
G01*
X139479654Y-87879784D02*
G75*
G02X139279654Y-88079784I-200000J0D01*
G01*
X138479654Y-88379784D02*
G75*
G02X138779654Y-88079784I300000J0D01*
G01*
X138779654Y-84979784D02*
X139179654Y-84979784D01*
X139479654Y-87879784D02*
X139479654Y-85279784D01*
X139279654Y-88079784D02*
X138779654Y-88079784D01*
X139179654Y-84979784D02*
G75*
G02X139479654Y-85279784I0J-300000D01*
G01*
X138779654Y-84979784D02*
G75*
G02X138479654Y-84679784I0J300000D01*
G01*
X138479654Y-75379784D02*
X138479654Y-75779784D01*
X139179654Y-76079784D02*
G75*
G02X139479654Y-76379784I0J-300000D01*
G01*
X138779654Y-76079784D02*
G75*
G02X138479654Y-75779784I0J300000D01*
G01*
X138479654Y-88779784D02*
G75*
G02X138179654Y-89079784I-300000J0D01*
G01*
X138479654Y-84679784D02*
X138479654Y-79479784D01*
X139279654Y-79179784D02*
X138779654Y-79179784D01*
X139479654Y-78979784D02*
X139479654Y-76379784D01*
X138779654Y-76079784D02*
X139179654Y-76079784D01*
X138479654Y-79479784D02*
G75*
G02X138779654Y-79179784I300000J0D01*
G01*
X139479654Y-78979784D02*
G75*
G02X139279654Y-79179784I-200000J0D01*
G01*
X138179654Y-75079784D02*
G75*
G02X138479654Y-75379784I0J-300000D01*
G01*
X138479654Y-88379784D02*
X138479654Y-88779784D01*
X124479654Y-75779784D02*
X124479654Y-75379784D01*
X124479654Y-79479784D02*
X124479654Y-84679784D01*
X138179654Y-75079784D02*
X124779654Y-75079784D01*
X124479654Y-75379784D02*
G75*
G02X124779654Y-75079784I300000J0D01*
G01*
X124479654Y-88779784D02*
X124479654Y-88379784D01*
X124779654Y-89079784D02*
G75*
G02X124479654Y-88779784I0J300000D01*
G01*
X138179654Y-89079784D02*
X124779654Y-89079784D01*
X157179604Y-89079784D02*
X143779604Y-89079784D01*
X143779604Y-89079784D02*
G75*
G02X143479604Y-88779784I0J300000D01*
G01*
X143479604Y-88779784D02*
X143479604Y-88379784D01*
X143479604Y-75379784D02*
G75*
G02X143779604Y-75079784I300000J0D01*
G01*
X157179604Y-75079784D02*
X143779604Y-75079784D01*
X143479604Y-79479784D02*
X143479604Y-84679784D01*
X143479604Y-75779784D02*
X143479604Y-75379784D01*
X157479604Y-88379784D02*
X157479604Y-88779784D01*
X157179604Y-75079784D02*
G75*
G02X157479604Y-75379784I0J-300000D01*
G01*
X158479604Y-78979784D02*
G75*
G02X158279604Y-79179784I-200000J0D01*
G01*
X157479604Y-79479784D02*
G75*
G02X157779604Y-79179784I300000J0D01*
G01*
X157779604Y-76079784D02*
X158179604Y-76079784D01*
X158479604Y-78979784D02*
X158479604Y-76379784D01*
X158279604Y-79179784D02*
X157779604Y-79179784D01*
X157479604Y-84679784D02*
X157479604Y-79479784D01*
X157479604Y-88779784D02*
G75*
G02X157179604Y-89079784I-300000J0D01*
G01*
X157779604Y-76079784D02*
G75*
G02X157479604Y-75779784I0J300000D01*
G01*
X158179604Y-76079784D02*
G75*
G02X158479604Y-76379784I0J-300000D01*
G01*
X157479604Y-75379784D02*
X157479604Y-75779784D01*
X157779604Y-84979784D02*
G75*
G02X157479604Y-84679784I0J300000D01*
G01*
X158179604Y-84979784D02*
G75*
G02X158479604Y-85279784I0J-300000D01*
G01*
X158279604Y-88079784D02*
X157779604Y-88079784D01*
X158479604Y-87879784D02*
X158479604Y-85279784D01*
X157779604Y-84979784D02*
X158179604Y-84979784D01*
X157479604Y-88379784D02*
G75*
G02X157779604Y-88079784I300000J0D01*
G01*
X158479604Y-87879784D02*
G75*
G02X158279604Y-88079784I-200000J0D01*
G01*
X142479604Y-85179784D02*
G75*
G02X142679604Y-84979784I200000J0D01*
G01*
X143479604Y-84679784D02*
G75*
G02X143179604Y-84979784I-300000J0D01*
G01*
X143179604Y-88079784D02*
X142779604Y-88079784D01*
X142479604Y-85179784D02*
X142479604Y-87779784D01*
X142679604Y-84979784D02*
X143179604Y-84979784D01*
X142779604Y-88079784D02*
G75*
G02X142479604Y-87779784I0J300000D01*
G01*
X143179604Y-88079784D02*
G75*
G02X143479604Y-88379784I0J-300000D01*
G01*
X142679604Y-76079784D02*
X143179604Y-76079784D01*
X143179604Y-79179784D02*
X142779604Y-79179784D01*
X142479604Y-76279784D02*
X142479604Y-78879784D01*
X143479604Y-75779784D02*
G75*
G02X143179604Y-76079784I-300000J0D01*
G01*
X143179604Y-79179784D02*
G75*
G02X143479604Y-79479784I0J-300000D01*
G01*
X142779604Y-79179784D02*
G75*
G02X142479604Y-78879784I0J300000D01*
G01*
X142479604Y-76279784D02*
G75*
G02X142679604Y-76079784I200000J0D01*
G01*
X176179554Y-89079784D02*
X162779554Y-89079784D01*
X162779554Y-89079784D02*
G75*
G02X162479554Y-88779784I0J300000D01*
G01*
X162479554Y-88779784D02*
X162479554Y-88379784D01*
X162479554Y-75379784D02*
G75*
G02X162779554Y-75079784I300000J0D01*
G01*
X176179554Y-75079784D02*
X162779554Y-75079784D01*
X162479554Y-79479784D02*
X162479554Y-84679784D01*
X162479554Y-75779784D02*
X162479554Y-75379784D01*
X176479554Y-88379784D02*
X176479554Y-88779784D01*
X176179554Y-75079784D02*
G75*
G02X176479554Y-75379784I0J-300000D01*
G01*
X177479554Y-78979784D02*
G75*
G02X177279554Y-79179784I-200000J0D01*
G01*
X176479554Y-79479784D02*
G75*
G02X176779554Y-79179784I300000J0D01*
G01*
X176779554Y-76079784D02*
X177179554Y-76079784D01*
X177479554Y-78979784D02*
X177479554Y-76379784D01*
X177279554Y-79179784D02*
X176779554Y-79179784D01*
X176479554Y-84679784D02*
X176479554Y-79479784D01*
X176479554Y-88779784D02*
G75*
G02X176179554Y-89079784I-300000J0D01*
G01*
X176779554Y-76079784D02*
G75*
G02X176479554Y-75779784I0J300000D01*
G01*
X177179554Y-76079784D02*
G75*
G02X177479554Y-76379784I0J-300000D01*
G01*
X176479554Y-75379784D02*
X176479554Y-75779784D01*
X176779554Y-84979784D02*
G75*
G02X176479554Y-84679784I0J300000D01*
G01*
X177179554Y-84979784D02*
G75*
G02X177479554Y-85279784I0J-300000D01*
G01*
X177279554Y-88079784D02*
X176779554Y-88079784D01*
X177479554Y-87879784D02*
X177479554Y-85279784D01*
X176779554Y-84979784D02*
X177179554Y-84979784D01*
X176479554Y-88379784D02*
G75*
G02X176779554Y-88079784I300000J0D01*
G01*
X177479554Y-87879784D02*
G75*
G02X177279554Y-88079784I-200000J0D01*
G01*
X161479554Y-85179784D02*
G75*
G02X161679554Y-84979784I200000J0D01*
G01*
X162479554Y-84679784D02*
G75*
G02X162179554Y-84979784I-300000J0D01*
G01*
X162179554Y-88079784D02*
X161779554Y-88079784D01*
X161479554Y-85179784D02*
X161479554Y-87779784D01*
X161679554Y-84979784D02*
X162179554Y-84979784D01*
X161779554Y-88079784D02*
G75*
G02X161479554Y-87779784I0J300000D01*
G01*
X162179554Y-88079784D02*
G75*
G02X162479554Y-88379784I0J-300000D01*
G01*
X161679554Y-76079784D02*
X162179554Y-76079784D01*
X162179554Y-79179784D02*
X161779554Y-79179784D01*
X161479554Y-76279784D02*
X161479554Y-78879784D01*
X162479554Y-75779784D02*
G75*
G02X162179554Y-76079784I-300000J0D01*
G01*
X162179554Y-79179784D02*
G75*
G02X162479554Y-79479784I0J-300000D01*
G01*
X161779554Y-79179784D02*
G75*
G02X161479554Y-78879784I0J300000D01*
G01*
X161479554Y-76279784D02*
G75*
G02X161679554Y-76079784I200000J0D01*
G01*
X195179504Y-89079784D02*
X181779504Y-89079784D01*
X181779504Y-89079784D02*
G75*
G02X181479504Y-88779784I0J300000D01*
G01*
X181479504Y-88779784D02*
X181479504Y-88379784D01*
X181479504Y-75379784D02*
G75*
G02X181779504Y-75079784I300000J0D01*
G01*
X195179504Y-75079784D02*
X181779504Y-75079784D01*
X181479504Y-79479784D02*
X181479504Y-84679784D01*
X181479504Y-75779784D02*
X181479504Y-75379784D01*
X195479504Y-88379784D02*
X195479504Y-88779784D01*
X195179504Y-75079784D02*
G75*
G02X195479504Y-75379784I0J-300000D01*
G01*
X196479504Y-78979784D02*
G75*
G02X196279504Y-79179784I-200000J0D01*
G01*
X195479504Y-79479784D02*
G75*
G02X195779504Y-79179784I300000J0D01*
G01*
X195779504Y-76079784D02*
X196179504Y-76079784D01*
X196479504Y-78979784D02*
X196479504Y-76379784D01*
X196279504Y-79179784D02*
X195779504Y-79179784D01*
X195479504Y-84679784D02*
X195479504Y-79479784D01*
X195479504Y-88779784D02*
G75*
G02X195179504Y-89079784I-300000J0D01*
G01*
X195779504Y-76079784D02*
G75*
G02X195479504Y-75779784I0J300000D01*
G01*
X196179504Y-76079784D02*
G75*
G02X196479504Y-76379784I0J-300000D01*
G01*
X195479504Y-75379784D02*
X195479504Y-75779784D01*
X195779504Y-84979784D02*
G75*
G02X195479504Y-84679784I0J300000D01*
G01*
X196179504Y-84979784D02*
G75*
G02X196479504Y-85279784I0J-300000D01*
G01*
X196279504Y-88079784D02*
X195779504Y-88079784D01*
X196479504Y-87879784D02*
X196479504Y-85279784D01*
X195779504Y-84979784D02*
X196179504Y-84979784D01*
X195479504Y-88379784D02*
G75*
G02X195779504Y-88079784I300000J0D01*
G01*
X196479504Y-87879784D02*
G75*
G02X196279504Y-88079784I-200000J0D01*
G01*
X180479504Y-85179784D02*
G75*
G02X180679504Y-84979784I200000J0D01*
G01*
X181479504Y-84679784D02*
G75*
G02X181179504Y-84979784I-300000J0D01*
G01*
X181179504Y-88079784D02*
X180779504Y-88079784D01*
X180479504Y-85179784D02*
X180479504Y-87779784D01*
X180679504Y-84979784D02*
X181179504Y-84979784D01*
X180779504Y-88079784D02*
G75*
G02X180479504Y-87779784I0J300000D01*
G01*
X181179504Y-88079784D02*
G75*
G02X181479504Y-88379784I0J-300000D01*
G01*
X180679504Y-76079784D02*
X181179504Y-76079784D01*
X181179504Y-79179784D02*
X180779504Y-79179784D01*
X180479504Y-76279784D02*
X180479504Y-78879784D01*
X181479504Y-75779784D02*
G75*
G02X181179504Y-76079784I-300000J0D01*
G01*
X181179504Y-79179784D02*
G75*
G02X181479504Y-79479784I0J-300000D01*
G01*
X180779504Y-79179784D02*
G75*
G02X180479504Y-78879784I0J300000D01*
G01*
X180479504Y-76279784D02*
G75*
G02X180679504Y-76079784I200000J0D01*
G01*
X214179454Y-89079784D02*
X200779454Y-89079784D01*
X200779454Y-89079784D02*
G75*
G02X200479454Y-88779784I0J300000D01*
G01*
X200479454Y-88779784D02*
X200479454Y-88379784D01*
X200479454Y-75379784D02*
G75*
G02X200779454Y-75079784I300000J0D01*
G01*
X214179454Y-75079784D02*
X200779454Y-75079784D01*
X200479454Y-79479784D02*
X200479454Y-84679784D01*
X200479454Y-75779784D02*
X200479454Y-75379784D01*
X214479454Y-88379784D02*
X214479454Y-88779784D01*
X214179454Y-75079784D02*
G75*
G02X214479454Y-75379784I0J-300000D01*
G01*
X215479454Y-78979784D02*
G75*
G02X215279454Y-79179784I-200000J0D01*
G01*
X214479454Y-79479784D02*
G75*
G02X214779454Y-79179784I300000J0D01*
G01*
X214779454Y-76079784D02*
X215179454Y-76079784D01*
X215479454Y-78979784D02*
X215479454Y-76379784D01*
X215279454Y-79179784D02*
X214779454Y-79179784D01*
X214479454Y-84679784D02*
X214479454Y-79479784D01*
X214479454Y-88779784D02*
G75*
G02X214179454Y-89079784I-300000J0D01*
G01*
X214779454Y-76079784D02*
G75*
G02X214479454Y-75779784I0J300000D01*
G01*
X215179454Y-76079784D02*
G75*
G02X215479454Y-76379784I0J-300000D01*
G01*
X214479454Y-75379784D02*
X214479454Y-75779784D01*
X214779454Y-84979784D02*
G75*
G02X214479454Y-84679784I0J300000D01*
G01*
X215179454Y-84979784D02*
G75*
G02X215479454Y-85279784I0J-300000D01*
G01*
X215279454Y-88079784D02*
X214779454Y-88079784D01*
X215479454Y-87879784D02*
X215479454Y-85279784D01*
X214779454Y-84979784D02*
X215179454Y-84979784D01*
X214479454Y-88379784D02*
G75*
G02X214779454Y-88079784I300000J0D01*
G01*
X215479454Y-87879784D02*
G75*
G02X215279454Y-88079784I-200000J0D01*
G01*
X199479454Y-85179784D02*
G75*
G02X199679454Y-84979784I200000J0D01*
G01*
X200479454Y-84679784D02*
G75*
G02X200179454Y-84979784I-300000J0D01*
G01*
X200179454Y-88079784D02*
X199779454Y-88079784D01*
X199479454Y-85179784D02*
X199479454Y-87779784D01*
X199679454Y-84979784D02*
X200179454Y-84979784D01*
X199779454Y-88079784D02*
G75*
G02X199479454Y-87779784I0J300000D01*
G01*
X200179454Y-88079784D02*
G75*
G02X200479454Y-88379784I0J-300000D01*
G01*
X199679454Y-76079784D02*
X200179454Y-76079784D01*
X200179454Y-79179784D02*
X199779454Y-79179784D01*
X199479454Y-76279784D02*
X199479454Y-78879784D01*
X200479454Y-75779784D02*
G75*
G02X200179454Y-76079784I-300000J0D01*
G01*
X200179454Y-79179784D02*
G75*
G02X200479454Y-79479784I0J-300000D01*
G01*
X199779454Y-79179784D02*
G75*
G02X199479454Y-78879784I0J300000D01*
G01*
X199479454Y-76279784D02*
G75*
G02X199679454Y-76079784I200000J0D01*
G01*
X233179404Y-89079784D02*
X219779404Y-89079784D01*
X219779404Y-89079784D02*
G75*
G02X219479404Y-88779784I0J300000D01*
G01*
X219479404Y-88779784D02*
X219479404Y-88379784D01*
X219479404Y-75379784D02*
G75*
G02X219779404Y-75079784I300000J0D01*
G01*
X233179404Y-75079784D02*
X219779404Y-75079784D01*
X219479404Y-79479784D02*
X219479404Y-84679784D01*
X219479404Y-75779784D02*
X219479404Y-75379784D01*
X233479404Y-88379784D02*
X233479404Y-88779784D01*
X233179404Y-75079784D02*
G75*
G02X233479404Y-75379784I0J-300000D01*
G01*
X234479404Y-78979784D02*
G75*
G02X234279404Y-79179784I-200000J0D01*
G01*
X233479404Y-79479784D02*
G75*
G02X233779404Y-79179784I300000J0D01*
G01*
X233779404Y-76079784D02*
X234179404Y-76079784D01*
X234479404Y-78979784D02*
X234479404Y-76379784D01*
X234279404Y-79179784D02*
X233779404Y-79179784D01*
X233479404Y-84679784D02*
X233479404Y-79479784D01*
X233479404Y-88779784D02*
G75*
G02X233179404Y-89079784I-300000J0D01*
G01*
X233779404Y-76079784D02*
G75*
G02X233479404Y-75779784I0J300000D01*
G01*
X234179404Y-76079784D02*
G75*
G02X234479404Y-76379784I0J-300000D01*
G01*
X233479404Y-75379784D02*
X233479404Y-75779784D01*
X233779404Y-84979784D02*
G75*
G02X233479404Y-84679784I0J300000D01*
G01*
X234179404Y-84979784D02*
G75*
G02X234479404Y-85279784I0J-300000D01*
G01*
X234279404Y-88079784D02*
X233779404Y-88079784D01*
X234479404Y-87879784D02*
X234479404Y-85279784D01*
X233779404Y-84979784D02*
X234179404Y-84979784D01*
X233479404Y-88379784D02*
G75*
G02X233779404Y-88079784I300000J0D01*
G01*
X234479404Y-87879784D02*
G75*
G02X234279404Y-88079784I-200000J0D01*
G01*
X218479404Y-85179784D02*
G75*
G02X218679404Y-84979784I200000J0D01*
G01*
X219479404Y-84679784D02*
G75*
G02X219179404Y-84979784I-300000J0D01*
G01*
X219179404Y-88079784D02*
X218779404Y-88079784D01*
X218479404Y-85179784D02*
X218479404Y-87779784D01*
X218679404Y-84979784D02*
X219179404Y-84979784D01*
X218779404Y-88079784D02*
G75*
G02X218479404Y-87779784I0J300000D01*
G01*
X219179404Y-88079784D02*
G75*
G02X219479404Y-88379784I0J-300000D01*
G01*
X218679404Y-76079784D02*
X219179404Y-76079784D01*
X219179404Y-79179784D02*
X218779404Y-79179784D01*
X218479404Y-76279784D02*
X218479404Y-78879784D01*
X219479404Y-75779784D02*
G75*
G02X219179404Y-76079784I-300000J0D01*
G01*
X219179404Y-79179784D02*
G75*
G02X219479404Y-79479784I0J-300000D01*
G01*
X218779404Y-79179784D02*
G75*
G02X218479404Y-78879784I0J300000D01*
G01*
X218479404Y-76279784D02*
G75*
G02X218679404Y-76079784I200000J0D01*
G01*
X252179354Y-89079784D02*
X238779354Y-89079784D01*
X238779354Y-89079784D02*
G75*
G02X238479354Y-88779784I0J300000D01*
G01*
X238479354Y-88779784D02*
X238479354Y-88379784D01*
X238479354Y-75379784D02*
G75*
G02X238779354Y-75079784I300000J0D01*
G01*
X252179354Y-75079784D02*
X238779354Y-75079784D01*
X238479354Y-79479784D02*
X238479354Y-84679784D01*
X238479354Y-75779784D02*
X238479354Y-75379784D01*
X252479354Y-88379784D02*
X252479354Y-88779784D01*
X252179354Y-75079784D02*
G75*
G02X252479354Y-75379784I0J-300000D01*
G01*
X253479354Y-78979784D02*
G75*
G02X253279354Y-79179784I-200000J0D01*
G01*
X252479354Y-79479784D02*
G75*
G02X252779354Y-79179784I300000J0D01*
G01*
X252779354Y-76079784D02*
X253179354Y-76079784D01*
X253479354Y-78979784D02*
X253479354Y-76379784D01*
X253279354Y-79179784D02*
X252779354Y-79179784D01*
X252479354Y-84679784D02*
X252479354Y-79479784D01*
X252479354Y-88779784D02*
G75*
G02X252179354Y-89079784I-300000J0D01*
G01*
X252779354Y-76079784D02*
G75*
G02X252479354Y-75779784I0J300000D01*
G01*
X253179354Y-76079784D02*
G75*
G02X253479354Y-76379784I0J-300000D01*
G01*
X252479354Y-75379784D02*
X252479354Y-75779784D01*
X252779354Y-84979784D02*
G75*
G02X252479354Y-84679784I0J300000D01*
G01*
X253179354Y-84979784D02*
G75*
G02X253479354Y-85279784I0J-300000D01*
G01*
X253279354Y-88079784D02*
X252779354Y-88079784D01*
X253479354Y-87879784D02*
X253479354Y-85279784D01*
X252779354Y-84979784D02*
X253179354Y-84979784D01*
X252479354Y-88379784D02*
G75*
G02X252779354Y-88079784I300000J0D01*
G01*
X253479354Y-87879784D02*
G75*
G02X253279354Y-88079784I-200000J0D01*
G01*
X237479354Y-85179784D02*
G75*
G02X237679354Y-84979784I200000J0D01*
G01*
X238479354Y-84679784D02*
G75*
G02X238179354Y-84979784I-300000J0D01*
G01*
X238179354Y-88079784D02*
X237779354Y-88079784D01*
X237479354Y-85179784D02*
X237479354Y-87779784D01*
X237679354Y-84979784D02*
X238179354Y-84979784D01*
X237779354Y-88079784D02*
G75*
G02X237479354Y-87779784I0J300000D01*
G01*
X238179354Y-88079784D02*
G75*
G02X238479354Y-88379784I0J-300000D01*
G01*
X237679354Y-76079784D02*
X238179354Y-76079784D01*
X238179354Y-79179784D02*
X237779354Y-79179784D01*
X237479354Y-76279784D02*
X237479354Y-78879784D01*
X238479354Y-75779784D02*
G75*
G02X238179354Y-76079784I-300000J0D01*
G01*
X238179354Y-79179784D02*
G75*
G02X238479354Y-79479784I0J-300000D01*
G01*
X237779354Y-79179784D02*
G75*
G02X237479354Y-78879784I0J300000D01*
G01*
X237479354Y-76279784D02*
G75*
G02X237679354Y-76079784I200000J0D01*
G01*
X271179304Y-89079784D02*
X257779304Y-89079784D01*
X257779304Y-89079784D02*
G75*
G02X257479304Y-88779784I0J300000D01*
G01*
X257479304Y-88779784D02*
X257479304Y-88379784D01*
X257479304Y-75379784D02*
G75*
G02X257779304Y-75079784I300000J0D01*
G01*
X271179304Y-75079784D02*
X257779304Y-75079784D01*
X257479304Y-79479784D02*
X257479304Y-84679784D01*
X257479304Y-75779784D02*
X257479304Y-75379784D01*
X271479304Y-88379784D02*
X271479304Y-88779784D01*
X271179304Y-75079784D02*
G75*
G02X271479304Y-75379784I0J-300000D01*
G01*
X272479304Y-78979784D02*
G75*
G02X272279304Y-79179784I-200000J0D01*
G01*
X271479304Y-79479784D02*
G75*
G02X271779304Y-79179784I300000J0D01*
G01*
X271779304Y-76079784D02*
X272179304Y-76079784D01*
X272479304Y-78979784D02*
X272479304Y-76379784D01*
X272279304Y-79179784D02*
X271779304Y-79179784D01*
X271479304Y-84679784D02*
X271479304Y-79479784D01*
X271479304Y-88779784D02*
G75*
G02X271179304Y-89079784I-300000J0D01*
G01*
X271779304Y-76079784D02*
G75*
G02X271479304Y-75779784I0J300000D01*
G01*
X272179304Y-76079784D02*
G75*
G02X272479304Y-76379784I0J-300000D01*
G01*
X271479304Y-75379784D02*
X271479304Y-75779784D01*
X271779304Y-84979784D02*
G75*
G02X271479304Y-84679784I0J300000D01*
G01*
X272179304Y-84979784D02*
G75*
G02X272479304Y-85279784I0J-300000D01*
G01*
X272279304Y-88079784D02*
X271779304Y-88079784D01*
X272479304Y-87879784D02*
X272479304Y-85279784D01*
X271779304Y-84979784D02*
X272179304Y-84979784D01*
X271479304Y-88379784D02*
G75*
G02X271779304Y-88079784I300000J0D01*
G01*
X272479304Y-87879784D02*
G75*
G02X272279304Y-88079784I-200000J0D01*
G01*
X256479304Y-85179784D02*
G75*
G02X256679304Y-84979784I200000J0D01*
G01*
X257479304Y-84679784D02*
G75*
G02X257179304Y-84979784I-300000J0D01*
G01*
X257179304Y-88079784D02*
X256779304Y-88079784D01*
X256479304Y-85179784D02*
X256479304Y-87779784D01*
X256679304Y-84979784D02*
X257179304Y-84979784D01*
X256779304Y-88079784D02*
G75*
G02X256479304Y-87779784I0J300000D01*
G01*
X257179304Y-88079784D02*
G75*
G02X257479304Y-88379784I0J-300000D01*
G01*
X256679304Y-76079784D02*
X257179304Y-76079784D01*
X257179304Y-79179784D02*
X256779304Y-79179784D01*
X256479304Y-76279784D02*
X256479304Y-78879784D01*
X257479304Y-75779784D02*
G75*
G02X257179304Y-76079784I-300000J0D01*
G01*
X257179304Y-79179784D02*
G75*
G02X257479304Y-79479784I0J-300000D01*
G01*
X256779304Y-79179784D02*
G75*
G02X256479304Y-78879784I0J300000D01*
G01*
X256479304Y-76279784D02*
G75*
G02X256679304Y-76079784I200000J0D01*
G01*
X62179854Y-108079734D02*
X48779854Y-108079734D01*
X48779854Y-108079734D02*
G75*
G02X48479854Y-107779734I0J300000D01*
G01*
X48479854Y-107779734D02*
X48479854Y-107379734D01*
X48479854Y-94379734D02*
G75*
G02X48779854Y-94079734I300000J0D01*
G01*
X62179854Y-94079734D02*
X48779854Y-94079734D01*
X48479854Y-98479734D02*
X48479854Y-103679734D01*
X48479854Y-94779734D02*
X48479854Y-94379734D01*
X62479854Y-107379734D02*
X62479854Y-107779734D01*
X62179854Y-94079734D02*
G75*
G02X62479854Y-94379734I0J-300000D01*
G01*
X63479854Y-97979734D02*
G75*
G02X63279854Y-98179734I-200000J0D01*
G01*
X62479854Y-98479734D02*
G75*
G02X62779854Y-98179734I300000J0D01*
G01*
X62779854Y-95079734D02*
X63179854Y-95079734D01*
X63479854Y-97979734D02*
X63479854Y-95379734D01*
X63279854Y-98179734D02*
X62779854Y-98179734D01*
X62479854Y-103679734D02*
X62479854Y-98479734D01*
X62479854Y-107779734D02*
G75*
G02X62179854Y-108079734I-300000J0D01*
G01*
X62779854Y-95079734D02*
G75*
G02X62479854Y-94779734I0J300000D01*
G01*
X63179854Y-95079734D02*
G75*
G02X63479854Y-95379734I0J-300000D01*
G01*
X62479854Y-94379734D02*
X62479854Y-94779734D01*
X62779854Y-103979734D02*
G75*
G02X62479854Y-103679734I0J300000D01*
G01*
X63179854Y-103979734D02*
G75*
G02X63479854Y-104279734I0J-300000D01*
G01*
X63279854Y-107079734D02*
X62779854Y-107079734D01*
X63479854Y-106879734D02*
X63479854Y-104279734D01*
X62779854Y-103979734D02*
X63179854Y-103979734D01*
X62479854Y-107379734D02*
G75*
G02X62779854Y-107079734I300000J0D01*
G01*
X63479854Y-106879734D02*
G75*
G02X63279854Y-107079734I-200000J0D01*
G01*
X47479854Y-104179734D02*
G75*
G02X47679854Y-103979734I200000J0D01*
G01*
X48479854Y-103679734D02*
G75*
G02X48179854Y-103979734I-300000J0D01*
G01*
X48179854Y-107079734D02*
X47779854Y-107079734D01*
X47479854Y-104179734D02*
X47479854Y-106779734D01*
X47679854Y-103979734D02*
X48179854Y-103979734D01*
X47779854Y-107079734D02*
G75*
G02X47479854Y-106779734I0J300000D01*
G01*
X48179854Y-107079734D02*
G75*
G02X48479854Y-107379734I0J-300000D01*
G01*
X47679854Y-95079734D02*
X48179854Y-95079734D01*
X48179854Y-98179734D02*
X47779854Y-98179734D01*
X47479854Y-95279734D02*
X47479854Y-97879734D01*
X48479854Y-94779734D02*
G75*
G02X48179854Y-95079734I-300000J0D01*
G01*
X48179854Y-98179734D02*
G75*
G02X48479854Y-98479734I0J-300000D01*
G01*
X47779854Y-98179734D02*
G75*
G02X47479854Y-97879734I0J300000D01*
G01*
X47479854Y-95279734D02*
G75*
G02X47679854Y-95079734I200000J0D01*
G01*
X81179804Y-108079734D02*
X67779804Y-108079734D01*
X67779804Y-108079734D02*
G75*
G02X67479804Y-107779734I0J300000D01*
G01*
X67479804Y-107779734D02*
X67479804Y-107379734D01*
X67479804Y-94379734D02*
G75*
G02X67779804Y-94079734I300000J0D01*
G01*
X81179804Y-94079734D02*
X67779804Y-94079734D01*
X67479804Y-98479734D02*
X67479804Y-103679734D01*
X67479804Y-94779734D02*
X67479804Y-94379734D01*
X81479804Y-107379734D02*
X81479804Y-107779734D01*
X81179804Y-94079734D02*
G75*
G02X81479804Y-94379734I0J-300000D01*
G01*
X82479804Y-97979734D02*
G75*
G02X82279804Y-98179734I-200000J0D01*
G01*
X81479804Y-98479734D02*
G75*
G02X81779804Y-98179734I300000J0D01*
G01*
X81779804Y-95079734D02*
X82179804Y-95079734D01*
X82479804Y-97979734D02*
X82479804Y-95379734D01*
X82279804Y-98179734D02*
X81779804Y-98179734D01*
X81479804Y-103679734D02*
X81479804Y-98479734D01*
X81479804Y-107779734D02*
G75*
G02X81179804Y-108079734I-300000J0D01*
G01*
X81779804Y-95079734D02*
G75*
G02X81479804Y-94779734I0J300000D01*
G01*
X82179804Y-95079734D02*
G75*
G02X82479804Y-95379734I0J-300000D01*
G01*
X81479804Y-94379734D02*
X81479804Y-94779734D01*
X81779804Y-103979734D02*
G75*
G02X81479804Y-103679734I0J300000D01*
G01*
X82179804Y-103979734D02*
G75*
G02X82479804Y-104279734I0J-300000D01*
G01*
X82279804Y-107079734D02*
X81779804Y-107079734D01*
X82479804Y-106879734D02*
X82479804Y-104279734D01*
X81779804Y-103979734D02*
X82179804Y-103979734D01*
X81479804Y-107379734D02*
G75*
G02X81779804Y-107079734I300000J0D01*
G01*
X82479804Y-106879734D02*
G75*
G02X82279804Y-107079734I-200000J0D01*
G01*
X66479804Y-104179734D02*
G75*
G02X66679804Y-103979734I200000J0D01*
G01*
X67479804Y-103679734D02*
G75*
G02X67179804Y-103979734I-300000J0D01*
G01*
X67179804Y-107079734D02*
X66779804Y-107079734D01*
X66479804Y-104179734D02*
X66479804Y-106779734D01*
X66679804Y-103979734D02*
X67179804Y-103979734D01*
X66779804Y-107079734D02*
G75*
G02X66479804Y-106779734I0J300000D01*
G01*
X67179804Y-107079734D02*
G75*
G02X67479804Y-107379734I0J-300000D01*
G01*
X66679804Y-95079734D02*
X67179804Y-95079734D01*
X67179804Y-98179734D02*
X66779804Y-98179734D01*
X66479804Y-95279734D02*
X66479804Y-97879734D01*
X67479804Y-94779734D02*
G75*
G02X67179804Y-95079734I-300000J0D01*
G01*
X67179804Y-98179734D02*
G75*
G02X67479804Y-98479734I0J-300000D01*
G01*
X66779804Y-98179734D02*
G75*
G02X66479804Y-97879734I0J300000D01*
G01*
X66479804Y-95279734D02*
G75*
G02X66679804Y-95079734I200000J0D01*
G01*
X100179754Y-108079734D02*
X86779754Y-108079734D01*
X86779754Y-108079734D02*
G75*
G02X86479754Y-107779734I0J300000D01*
G01*
X86479754Y-107779734D02*
X86479754Y-107379734D01*
X86479754Y-94379734D02*
G75*
G02X86779754Y-94079734I300000J0D01*
G01*
X100179754Y-94079734D02*
X86779754Y-94079734D01*
X86479754Y-98479734D02*
X86479754Y-103679734D01*
X86479754Y-94779734D02*
X86479754Y-94379734D01*
X100479754Y-107379734D02*
X100479754Y-107779734D01*
X100179754Y-94079734D02*
G75*
G02X100479754Y-94379734I0J-300000D01*
G01*
X101479754Y-97979734D02*
G75*
G02X101279754Y-98179734I-200000J0D01*
G01*
X100479754Y-98479734D02*
G75*
G02X100779754Y-98179734I300000J0D01*
G01*
X100779754Y-95079734D02*
X101179754Y-95079734D01*
X101479754Y-97979734D02*
X101479754Y-95379734D01*
X101279754Y-98179734D02*
X100779754Y-98179734D01*
X100479754Y-103679734D02*
X100479754Y-98479734D01*
X100479754Y-107779734D02*
G75*
G02X100179754Y-108079734I-300000J0D01*
G01*
X100779754Y-95079734D02*
G75*
G02X100479754Y-94779734I0J300000D01*
G01*
X101179754Y-95079734D02*
G75*
G02X101479754Y-95379734I0J-300000D01*
G01*
X100479754Y-94379734D02*
X100479754Y-94779734D01*
X100779754Y-103979734D02*
G75*
G02X100479754Y-103679734I0J300000D01*
G01*
X101179754Y-103979734D02*
G75*
G02X101479754Y-104279734I0J-300000D01*
G01*
X101279754Y-107079734D02*
X100779754Y-107079734D01*
X101479754Y-106879734D02*
X101479754Y-104279734D01*
X100779754Y-103979734D02*
X101179754Y-103979734D01*
X100479754Y-107379734D02*
G75*
G02X100779754Y-107079734I300000J0D01*
G01*
X101479754Y-106879734D02*
G75*
G02X101279754Y-107079734I-200000J0D01*
G01*
X85479754Y-104179734D02*
G75*
G02X85679754Y-103979734I200000J0D01*
G01*
X86479754Y-103679734D02*
G75*
G02X86179754Y-103979734I-300000J0D01*
G01*
X86179754Y-107079734D02*
X85779754Y-107079734D01*
X85479754Y-104179734D02*
X85479754Y-106779734D01*
X85679754Y-103979734D02*
X86179754Y-103979734D01*
X85779754Y-107079734D02*
G75*
G02X85479754Y-106779734I0J300000D01*
G01*
X86179754Y-107079734D02*
G75*
G02X86479754Y-107379734I0J-300000D01*
G01*
X85679754Y-95079734D02*
X86179754Y-95079734D01*
X86179754Y-98179734D02*
X85779754Y-98179734D01*
X85479754Y-95279734D02*
X85479754Y-97879734D01*
X86479754Y-94779734D02*
G75*
G02X86179754Y-95079734I-300000J0D01*
G01*
X86179754Y-98179734D02*
G75*
G02X86479754Y-98479734I0J-300000D01*
G01*
X85779754Y-98179734D02*
G75*
G02X85479754Y-97879734I0J300000D01*
G01*
X85479754Y-95279734D02*
G75*
G02X85679754Y-95079734I200000J0D01*
G01*
X119179704Y-108079734D02*
X105779704Y-108079734D01*
X105779704Y-108079734D02*
G75*
G02X105479704Y-107779734I0J300000D01*
G01*
X105479704Y-107779734D02*
X105479704Y-107379734D01*
X105479704Y-94379734D02*
G75*
G02X105779704Y-94079734I300000J0D01*
G01*
X119179704Y-94079734D02*
X105779704Y-94079734D01*
X105479704Y-98479734D02*
X105479704Y-103679734D01*
X105479704Y-94779734D02*
X105479704Y-94379734D01*
X119479704Y-107379734D02*
X119479704Y-107779734D01*
X119179704Y-94079734D02*
G75*
G02X119479704Y-94379734I0J-300000D01*
G01*
X120479704Y-97979734D02*
G75*
G02X120279704Y-98179734I-200000J0D01*
G01*
X119479704Y-98479734D02*
G75*
G02X119779704Y-98179734I300000J0D01*
G01*
X119779704Y-95079734D02*
X120179704Y-95079734D01*
X120479704Y-97979734D02*
X120479704Y-95379734D01*
X120279704Y-98179734D02*
X119779704Y-98179734D01*
X119479704Y-103679734D02*
X119479704Y-98479734D01*
X119479704Y-107779734D02*
G75*
G02X119179704Y-108079734I-300000J0D01*
G01*
X119779704Y-95079734D02*
G75*
G02X119479704Y-94779734I0J300000D01*
G01*
X120179704Y-95079734D02*
G75*
G02X120479704Y-95379734I0J-300000D01*
G01*
X119479704Y-94379734D02*
X119479704Y-94779734D01*
X119779704Y-103979734D02*
G75*
G02X119479704Y-103679734I0J300000D01*
G01*
X120179704Y-103979734D02*
G75*
G02X120479704Y-104279734I0J-300000D01*
G01*
X120279704Y-107079734D02*
X119779704Y-107079734D01*
X120479704Y-106879734D02*
X120479704Y-104279734D01*
X119779704Y-103979734D02*
X120179704Y-103979734D01*
X119479704Y-107379734D02*
G75*
G02X119779704Y-107079734I300000J0D01*
G01*
X120479704Y-106879734D02*
G75*
G02X120279704Y-107079734I-200000J0D01*
G01*
X104479704Y-104179734D02*
G75*
G02X104679704Y-103979734I200000J0D01*
G01*
X105479704Y-103679734D02*
G75*
G02X105179704Y-103979734I-300000J0D01*
G01*
X105179704Y-107079734D02*
X104779704Y-107079734D01*
X104479704Y-104179734D02*
X104479704Y-106779734D01*
X104679704Y-103979734D02*
X105179704Y-103979734D01*
X104779704Y-107079734D02*
G75*
G02X104479704Y-106779734I0J300000D01*
G01*
X105179704Y-107079734D02*
G75*
G02X105479704Y-107379734I0J-300000D01*
G01*
X104679704Y-95079734D02*
X105179704Y-95079734D01*
X105179704Y-98179734D02*
X104779704Y-98179734D01*
X104479704Y-95279734D02*
X104479704Y-97879734D01*
X105479704Y-94779734D02*
G75*
G02X105179704Y-95079734I-300000J0D01*
G01*
X105179704Y-98179734D02*
G75*
G02X105479704Y-98479734I0J-300000D01*
G01*
X104779704Y-98179734D02*
G75*
G02X104479704Y-97879734I0J300000D01*
G01*
X104479704Y-95279734D02*
G75*
G02X104679704Y-95079734I200000J0D01*
G01*
X138179654Y-108079734D02*
X124779654Y-108079734D01*
X124779654Y-108079734D02*
G75*
G02X124479654Y-107779734I0J300000D01*
G01*
X124479654Y-107779734D02*
X124479654Y-107379734D01*
X124479654Y-94379734D02*
G75*
G02X124779654Y-94079734I300000J0D01*
G01*
X138179654Y-94079734D02*
X124779654Y-94079734D01*
X124479654Y-98479734D02*
X124479654Y-103679734D01*
X124479654Y-94779734D02*
X124479654Y-94379734D01*
X138479654Y-107379734D02*
X138479654Y-107779734D01*
X138179654Y-94079734D02*
G75*
G02X138479654Y-94379734I0J-300000D01*
G01*
X139479654Y-97979734D02*
G75*
G02X139279654Y-98179734I-200000J0D01*
G01*
X138479654Y-98479734D02*
G75*
G02X138779654Y-98179734I300000J0D01*
G01*
X138779654Y-95079734D02*
X139179654Y-95079734D01*
X139479654Y-97979734D02*
X139479654Y-95379734D01*
X139279654Y-98179734D02*
X138779654Y-98179734D01*
X138479654Y-103679734D02*
X138479654Y-98479734D01*
X138479654Y-107779734D02*
G75*
G02X138179654Y-108079734I-300000J0D01*
G01*
X138779654Y-95079734D02*
G75*
G02X138479654Y-94779734I0J300000D01*
G01*
X139179654Y-95079734D02*
G75*
G02X139479654Y-95379734I0J-300000D01*
G01*
X138479654Y-94379734D02*
X138479654Y-94779734D01*
X138779654Y-103979734D02*
G75*
G02X138479654Y-103679734I0J300000D01*
G01*
X139179654Y-103979734D02*
G75*
G02X139479654Y-104279734I0J-300000D01*
G01*
X139279654Y-107079734D02*
X138779654Y-107079734D01*
X139479654Y-106879734D02*
X139479654Y-104279734D01*
X138779654Y-103979734D02*
X139179654Y-103979734D01*
X138479654Y-107379734D02*
G75*
G02X138779654Y-107079734I300000J0D01*
G01*
X139479654Y-106879734D02*
G75*
G02X139279654Y-107079734I-200000J0D01*
G01*
X123479654Y-104179734D02*
G75*
G02X123679654Y-103979734I200000J0D01*
G01*
X124479654Y-103679734D02*
G75*
G02X124179654Y-103979734I-300000J0D01*
G01*
X124179654Y-107079734D02*
X123779654Y-107079734D01*
X123479654Y-104179734D02*
X123479654Y-106779734D01*
X123679654Y-103979734D02*
X124179654Y-103979734D01*
X123779654Y-107079734D02*
G75*
G02X123479654Y-106779734I0J300000D01*
G01*
X124179654Y-107079734D02*
G75*
G02X124479654Y-107379734I0J-300000D01*
G01*
X123679654Y-95079734D02*
X124179654Y-95079734D01*
X124179654Y-98179734D02*
X123779654Y-98179734D01*
X123479654Y-95279734D02*
X123479654Y-97879734D01*
X124479654Y-94779734D02*
G75*
G02X124179654Y-95079734I-300000J0D01*
G01*
X124179654Y-98179734D02*
G75*
G02X124479654Y-98479734I0J-300000D01*
G01*
X123779654Y-98179734D02*
G75*
G02X123479654Y-97879734I0J300000D01*
G01*
X123479654Y-95279734D02*
G75*
G02X123679654Y-95079734I200000J0D01*
G01*
X157179604Y-108079734D02*
X143779604Y-108079734D01*
X143779604Y-108079734D02*
G75*
G02X143479604Y-107779734I0J300000D01*
G01*
X143479604Y-107779734D02*
X143479604Y-107379734D01*
X143479604Y-94379734D02*
G75*
G02X143779604Y-94079734I300000J0D01*
G01*
X157179604Y-94079734D02*
X143779604Y-94079734D01*
X143479604Y-98479734D02*
X143479604Y-103679734D01*
X143479604Y-94779734D02*
X143479604Y-94379734D01*
X157479604Y-107379734D02*
X157479604Y-107779734D01*
X157179604Y-94079734D02*
G75*
G02X157479604Y-94379734I0J-300000D01*
G01*
X158479604Y-97979734D02*
G75*
G02X158279604Y-98179734I-200000J0D01*
G01*
X157479604Y-98479734D02*
G75*
G02X157779604Y-98179734I300000J0D01*
G01*
X157779604Y-95079734D02*
X158179604Y-95079734D01*
X158479604Y-97979734D02*
X158479604Y-95379734D01*
X158279604Y-98179734D02*
X157779604Y-98179734D01*
X157479604Y-103679734D02*
X157479604Y-98479734D01*
X157479604Y-107779734D02*
G75*
G02X157179604Y-108079734I-300000J0D01*
G01*
X157779604Y-95079734D02*
G75*
G02X157479604Y-94779734I0J300000D01*
G01*
X158179604Y-95079734D02*
G75*
G02X158479604Y-95379734I0J-300000D01*
G01*
X157479604Y-94379734D02*
X157479604Y-94779734D01*
X157779604Y-103979734D02*
G75*
G02X157479604Y-103679734I0J300000D01*
G01*
X158179604Y-103979734D02*
G75*
G02X158479604Y-104279734I0J-300000D01*
G01*
X158279604Y-107079734D02*
X157779604Y-107079734D01*
X158479604Y-106879734D02*
X158479604Y-104279734D01*
X157779604Y-103979734D02*
X158179604Y-103979734D01*
X157479604Y-107379734D02*
G75*
G02X157779604Y-107079734I300000J0D01*
G01*
X158479604Y-106879734D02*
G75*
G02X158279604Y-107079734I-200000J0D01*
G01*
X142479604Y-104179734D02*
G75*
G02X142679604Y-103979734I200000J0D01*
G01*
X143479604Y-103679734D02*
G75*
G02X143179604Y-103979734I-300000J0D01*
G01*
X143179604Y-107079734D02*
X142779604Y-107079734D01*
X142479604Y-104179734D02*
X142479604Y-106779734D01*
X142679604Y-103979734D02*
X143179604Y-103979734D01*
X142779604Y-107079734D02*
G75*
G02X142479604Y-106779734I0J300000D01*
G01*
X143179604Y-107079734D02*
G75*
G02X143479604Y-107379734I0J-300000D01*
G01*
X142679604Y-95079734D02*
X143179604Y-95079734D01*
X143179604Y-98179734D02*
X142779604Y-98179734D01*
X142479604Y-95279734D02*
X142479604Y-97879734D01*
X143479604Y-94779734D02*
G75*
G02X143179604Y-95079734I-300000J0D01*
G01*
X143179604Y-98179734D02*
G75*
G02X143479604Y-98479734I0J-300000D01*
G01*
X142779604Y-98179734D02*
G75*
G02X142479604Y-97879734I0J300000D01*
G01*
X142479604Y-95279734D02*
G75*
G02X142679604Y-95079734I200000J0D01*
G01*
X176179554Y-108079734D02*
X162779554Y-108079734D01*
X162779554Y-108079734D02*
G75*
G02X162479554Y-107779734I0J300000D01*
G01*
X162479554Y-107779734D02*
X162479554Y-107379734D01*
X162479554Y-94379734D02*
G75*
G02X162779554Y-94079734I300000J0D01*
G01*
X176179554Y-94079734D02*
X162779554Y-94079734D01*
X162479554Y-98479734D02*
X162479554Y-103679734D01*
X162479554Y-94779734D02*
X162479554Y-94379734D01*
X176479554Y-107379734D02*
X176479554Y-107779734D01*
X176179554Y-94079734D02*
G75*
G02X176479554Y-94379734I0J-300000D01*
G01*
X177479554Y-97979734D02*
G75*
G02X177279554Y-98179734I-200000J0D01*
G01*
X176479554Y-98479734D02*
G75*
G02X176779554Y-98179734I300000J0D01*
G01*
X176779554Y-95079734D02*
X177179554Y-95079734D01*
X177479554Y-97979734D02*
X177479554Y-95379734D01*
X177279554Y-98179734D02*
X176779554Y-98179734D01*
X176479554Y-103679734D02*
X176479554Y-98479734D01*
X176479554Y-107779734D02*
G75*
G02X176179554Y-108079734I-300000J0D01*
G01*
X176779554Y-95079734D02*
G75*
G02X176479554Y-94779734I0J300000D01*
G01*
X177179554Y-95079734D02*
G75*
G02X177479554Y-95379734I0J-300000D01*
G01*
X176479554Y-94379734D02*
X176479554Y-94779734D01*
X176779554Y-103979734D02*
G75*
G02X176479554Y-103679734I0J300000D01*
G01*
X177179554Y-103979734D02*
G75*
G02X177479554Y-104279734I0J-300000D01*
G01*
X177279554Y-107079734D02*
X176779554Y-107079734D01*
X177479554Y-106879734D02*
X177479554Y-104279734D01*
X176779554Y-103979734D02*
X177179554Y-103979734D01*
X176479554Y-107379734D02*
G75*
G02X176779554Y-107079734I300000J0D01*
G01*
X177479554Y-106879734D02*
G75*
G02X177279554Y-107079734I-200000J0D01*
G01*
X161479554Y-104179734D02*
G75*
G02X161679554Y-103979734I200000J0D01*
G01*
X162479554Y-103679734D02*
G75*
G02X162179554Y-103979734I-300000J0D01*
G01*
X162179554Y-107079734D02*
X161779554Y-107079734D01*
X161479554Y-104179734D02*
X161479554Y-106779734D01*
X161679554Y-103979734D02*
X162179554Y-103979734D01*
X161779554Y-107079734D02*
G75*
G02X161479554Y-106779734I0J300000D01*
G01*
X162179554Y-107079734D02*
G75*
G02X162479554Y-107379734I0J-300000D01*
G01*
X161679554Y-95079734D02*
X162179554Y-95079734D01*
X162179554Y-98179734D02*
X161779554Y-98179734D01*
X161479554Y-95279734D02*
X161479554Y-97879734D01*
X162479554Y-94779734D02*
G75*
G02X162179554Y-95079734I-300000J0D01*
G01*
X162179554Y-98179734D02*
G75*
G02X162479554Y-98479734I0J-300000D01*
G01*
X161779554Y-98179734D02*
G75*
G02X161479554Y-97879734I0J300000D01*
G01*
X161479554Y-95279734D02*
G75*
G02X161679554Y-95079734I200000J0D01*
G01*
X195179504Y-108079734D02*
X181779504Y-108079734D01*
X181779504Y-108079734D02*
G75*
G02X181479504Y-107779734I0J300000D01*
G01*
X181479504Y-107779734D02*
X181479504Y-107379734D01*
X181479504Y-94379734D02*
G75*
G02X181779504Y-94079734I300000J0D01*
G01*
X195179504Y-94079734D02*
X181779504Y-94079734D01*
X181479504Y-98479734D02*
X181479504Y-103679734D01*
X181479504Y-94779734D02*
X181479504Y-94379734D01*
X195479504Y-107379734D02*
X195479504Y-107779734D01*
X195179504Y-94079734D02*
G75*
G02X195479504Y-94379734I0J-300000D01*
G01*
X196479504Y-97979734D02*
G75*
G02X196279504Y-98179734I-200000J0D01*
G01*
X195479504Y-98479734D02*
G75*
G02X195779504Y-98179734I300000J0D01*
G01*
X195779504Y-95079734D02*
X196179504Y-95079734D01*
X196479504Y-97979734D02*
X196479504Y-95379734D01*
X196279504Y-98179734D02*
X195779504Y-98179734D01*
X195479504Y-103679734D02*
X195479504Y-98479734D01*
X195479504Y-107779734D02*
G75*
G02X195179504Y-108079734I-300000J0D01*
G01*
X195779504Y-95079734D02*
G75*
G02X195479504Y-94779734I0J300000D01*
G01*
X196179504Y-95079734D02*
G75*
G02X196479504Y-95379734I0J-300000D01*
G01*
X195479504Y-94379734D02*
X195479504Y-94779734D01*
X195779504Y-103979734D02*
G75*
G02X195479504Y-103679734I0J300000D01*
G01*
X196179504Y-103979734D02*
G75*
G02X196479504Y-104279734I0J-300000D01*
G01*
X196279504Y-107079734D02*
X195779504Y-107079734D01*
X196479504Y-106879734D02*
X196479504Y-104279734D01*
X195779504Y-103979734D02*
X196179504Y-103979734D01*
X195479504Y-107379734D02*
G75*
G02X195779504Y-107079734I300000J0D01*
G01*
X196479504Y-106879734D02*
G75*
G02X196279504Y-107079734I-200000J0D01*
G01*
X180479504Y-104179734D02*
G75*
G02X180679504Y-103979734I200000J0D01*
G01*
X181479504Y-103679734D02*
G75*
G02X181179504Y-103979734I-300000J0D01*
G01*
X181179504Y-107079734D02*
X180779504Y-107079734D01*
X180479504Y-104179734D02*
X180479504Y-106779734D01*
X180679504Y-103979734D02*
X181179504Y-103979734D01*
X180779504Y-107079734D02*
G75*
G02X180479504Y-106779734I0J300000D01*
G01*
X181179504Y-107079734D02*
G75*
G02X181479504Y-107379734I0J-300000D01*
G01*
X180679504Y-95079734D02*
X181179504Y-95079734D01*
X181179504Y-98179734D02*
X180779504Y-98179734D01*
X180479504Y-95279734D02*
X180479504Y-97879734D01*
X181479504Y-94779734D02*
G75*
G02X181179504Y-95079734I-300000J0D01*
G01*
X181179504Y-98179734D02*
G75*
G02X181479504Y-98479734I0J-300000D01*
G01*
X180779504Y-98179734D02*
G75*
G02X180479504Y-97879734I0J300000D01*
G01*
X180479504Y-95279734D02*
G75*
G02X180679504Y-95079734I200000J0D01*
G01*
X214179454Y-108079734D02*
X200779454Y-108079734D01*
X200779454Y-108079734D02*
G75*
G02X200479454Y-107779734I0J300000D01*
G01*
X200479454Y-107779734D02*
X200479454Y-107379734D01*
X200479454Y-94379734D02*
G75*
G02X200779454Y-94079734I300000J0D01*
G01*
X214179454Y-94079734D02*
X200779454Y-94079734D01*
X200479454Y-98479734D02*
X200479454Y-103679734D01*
X200479454Y-94779734D02*
X200479454Y-94379734D01*
X214479454Y-107379734D02*
X214479454Y-107779734D01*
X214179454Y-94079734D02*
G75*
G02X214479454Y-94379734I0J-300000D01*
G01*
X215479454Y-97979734D02*
G75*
G02X215279454Y-98179734I-200000J0D01*
G01*
X214479454Y-98479734D02*
G75*
G02X214779454Y-98179734I300000J0D01*
G01*
X214779454Y-95079734D02*
X215179454Y-95079734D01*
X215479454Y-97979734D02*
X215479454Y-95379734D01*
X215279454Y-98179734D02*
X214779454Y-98179734D01*
X214479454Y-103679734D02*
X214479454Y-98479734D01*
X214479454Y-107779734D02*
G75*
G02X214179454Y-108079734I-300000J0D01*
G01*
X214779454Y-95079734D02*
G75*
G02X214479454Y-94779734I0J300000D01*
G01*
X215179454Y-95079734D02*
G75*
G02X215479454Y-95379734I0J-300000D01*
G01*
X214479454Y-94379734D02*
X214479454Y-94779734D01*
X214779454Y-103979734D02*
G75*
G02X214479454Y-103679734I0J300000D01*
G01*
X215179454Y-103979734D02*
G75*
G02X215479454Y-104279734I0J-300000D01*
G01*
X215279454Y-107079734D02*
X214779454Y-107079734D01*
X215479454Y-106879734D02*
X215479454Y-104279734D01*
X214779454Y-103979734D02*
X215179454Y-103979734D01*
X214479454Y-107379734D02*
G75*
G02X214779454Y-107079734I300000J0D01*
G01*
X215479454Y-106879734D02*
G75*
G02X215279454Y-107079734I-200000J0D01*
G01*
X199479454Y-104179734D02*
G75*
G02X199679454Y-103979734I200000J0D01*
G01*
X200479454Y-103679734D02*
G75*
G02X200179454Y-103979734I-300000J0D01*
G01*
X200179454Y-107079734D02*
X199779454Y-107079734D01*
X199479454Y-104179734D02*
X199479454Y-106779734D01*
X199679454Y-103979734D02*
X200179454Y-103979734D01*
X199779454Y-107079734D02*
G75*
G02X199479454Y-106779734I0J300000D01*
G01*
X200179454Y-107079734D02*
G75*
G02X200479454Y-107379734I0J-300000D01*
G01*
X199679454Y-95079734D02*
X200179454Y-95079734D01*
X200179454Y-98179734D02*
X199779454Y-98179734D01*
X199479454Y-95279734D02*
X199479454Y-97879734D01*
X200479454Y-94779734D02*
G75*
G02X200179454Y-95079734I-300000J0D01*
G01*
X200179454Y-98179734D02*
G75*
G02X200479454Y-98479734I0J-300000D01*
G01*
X199779454Y-98179734D02*
G75*
G02X199479454Y-97879734I0J300000D01*
G01*
X199479454Y-95279734D02*
G75*
G02X199679454Y-95079734I200000J0D01*
G01*
X233179404Y-108079734D02*
X219779404Y-108079734D01*
X219779404Y-108079734D02*
G75*
G02X219479404Y-107779734I0J300000D01*
G01*
X219479404Y-107779734D02*
X219479404Y-107379734D01*
X219479404Y-94379734D02*
G75*
G02X219779404Y-94079734I300000J0D01*
G01*
X233179404Y-94079734D02*
X219779404Y-94079734D01*
X219479404Y-98479734D02*
X219479404Y-103679734D01*
X219479404Y-94779734D02*
X219479404Y-94379734D01*
X233479404Y-107379734D02*
X233479404Y-107779734D01*
X233179404Y-94079734D02*
G75*
G02X233479404Y-94379734I0J-300000D01*
G01*
X234479404Y-97979734D02*
G75*
G02X234279404Y-98179734I-200000J0D01*
G01*
X233479404Y-98479734D02*
G75*
G02X233779404Y-98179734I300000J0D01*
G01*
X233779404Y-95079734D02*
X234179404Y-95079734D01*
X234479404Y-97979734D02*
X234479404Y-95379734D01*
X234279404Y-98179734D02*
X233779404Y-98179734D01*
X233479404Y-103679734D02*
X233479404Y-98479734D01*
X233479404Y-107779734D02*
G75*
G02X233179404Y-108079734I-300000J0D01*
G01*
X233779404Y-95079734D02*
G75*
G02X233479404Y-94779734I0J300000D01*
G01*
X234179404Y-95079734D02*
G75*
G02X234479404Y-95379734I0J-300000D01*
G01*
X233479404Y-94379734D02*
X233479404Y-94779734D01*
X233779404Y-103979734D02*
G75*
G02X233479404Y-103679734I0J300000D01*
G01*
X234179404Y-103979734D02*
G75*
G02X234479404Y-104279734I0J-300000D01*
G01*
X234279404Y-107079734D02*
X233779404Y-107079734D01*
X234479404Y-106879734D02*
X234479404Y-104279734D01*
X233779404Y-103979734D02*
X234179404Y-103979734D01*
X233479404Y-107379734D02*
G75*
G02X233779404Y-107079734I300000J0D01*
G01*
X234479404Y-106879734D02*
G75*
G02X234279404Y-107079734I-200000J0D01*
G01*
X218479404Y-104179734D02*
G75*
G02X218679404Y-103979734I200000J0D01*
G01*
X219479404Y-103679734D02*
G75*
G02X219179404Y-103979734I-300000J0D01*
G01*
X219179404Y-107079734D02*
X218779404Y-107079734D01*
X218479404Y-104179734D02*
X218479404Y-106779734D01*
X218679404Y-103979734D02*
X219179404Y-103979734D01*
X218779404Y-107079734D02*
G75*
G02X218479404Y-106779734I0J300000D01*
G01*
X219179404Y-107079734D02*
G75*
G02X219479404Y-107379734I0J-300000D01*
G01*
X218679404Y-95079734D02*
X219179404Y-95079734D01*
X219179404Y-98179734D02*
X218779404Y-98179734D01*
X218479404Y-95279734D02*
X218479404Y-97879734D01*
X219479404Y-94779734D02*
G75*
G02X219179404Y-95079734I-300000J0D01*
G01*
X219179404Y-98179734D02*
G75*
G02X219479404Y-98479734I0J-300000D01*
G01*
X218779404Y-98179734D02*
G75*
G02X218479404Y-97879734I0J300000D01*
G01*
X218479404Y-95279734D02*
G75*
G02X218679404Y-95079734I200000J0D01*
G01*
X252179354Y-108079734D02*
X238779354Y-108079734D01*
X238779354Y-108079734D02*
G75*
G02X238479354Y-107779734I0J300000D01*
G01*
X238479354Y-107779734D02*
X238479354Y-107379734D01*
X238479354Y-94379734D02*
G75*
G02X238779354Y-94079734I300000J0D01*
G01*
X252179354Y-94079734D02*
X238779354Y-94079734D01*
X238479354Y-98479734D02*
X238479354Y-103679734D01*
X238479354Y-94779734D02*
X238479354Y-94379734D01*
X252479354Y-107379734D02*
X252479354Y-107779734D01*
X252179354Y-94079734D02*
G75*
G02X252479354Y-94379734I0J-300000D01*
G01*
X253479354Y-97979734D02*
G75*
G02X253279354Y-98179734I-200000J0D01*
G01*
X252479354Y-98479734D02*
G75*
G02X252779354Y-98179734I300000J0D01*
G01*
X252779354Y-95079734D02*
X253179354Y-95079734D01*
X253479354Y-97979734D02*
X253479354Y-95379734D01*
X253279354Y-98179734D02*
X252779354Y-98179734D01*
X252479354Y-103679734D02*
X252479354Y-98479734D01*
X252479354Y-107779734D02*
G75*
G02X252179354Y-108079734I-300000J0D01*
G01*
X252779354Y-95079734D02*
G75*
G02X252479354Y-94779734I0J300000D01*
G01*
X253179354Y-95079734D02*
G75*
G02X253479354Y-95379734I0J-300000D01*
G01*
X252479354Y-94379734D02*
X252479354Y-94779734D01*
X252779354Y-103979734D02*
G75*
G02X252479354Y-103679734I0J300000D01*
G01*
X253179354Y-103979734D02*
G75*
G02X253479354Y-104279734I0J-300000D01*
G01*
X253279354Y-107079734D02*
X252779354Y-107079734D01*
X253479354Y-106879734D02*
X253479354Y-104279734D01*
X252779354Y-103979734D02*
X253179354Y-103979734D01*
X252479354Y-107379734D02*
G75*
G02X252779354Y-107079734I300000J0D01*
G01*
X253479354Y-106879734D02*
G75*
G02X253279354Y-107079734I-200000J0D01*
G01*
X237479354Y-104179734D02*
G75*
G02X237679354Y-103979734I200000J0D01*
G01*
X238479354Y-103679734D02*
G75*
G02X238179354Y-103979734I-300000J0D01*
G01*
X238179354Y-107079734D02*
X237779354Y-107079734D01*
X237479354Y-104179734D02*
X237479354Y-106779734D01*
X237679354Y-103979734D02*
X238179354Y-103979734D01*
X237779354Y-107079734D02*
G75*
G02X237479354Y-106779734I0J300000D01*
G01*
X238179354Y-107079734D02*
G75*
G02X238479354Y-107379734I0J-300000D01*
G01*
X237679354Y-95079734D02*
X238179354Y-95079734D01*
X238179354Y-98179734D02*
X237779354Y-98179734D01*
X237479354Y-95279734D02*
X237479354Y-97879734D01*
X238479354Y-94779734D02*
G75*
G02X238179354Y-95079734I-300000J0D01*
G01*
X238179354Y-98179734D02*
G75*
G02X238479354Y-98479734I0J-300000D01*
G01*
X237779354Y-98179734D02*
G75*
G02X237479354Y-97879734I0J300000D01*
G01*
X237479354Y-95279734D02*
G75*
G02X237679354Y-95079734I200000J0D01*
G01*
X271179304Y-108079734D02*
X257779304Y-108079734D01*
X257779304Y-108079734D02*
G75*
G02X257479304Y-107779734I0J300000D01*
G01*
X257479304Y-107779734D02*
X257479304Y-107379734D01*
X257479304Y-94379734D02*
G75*
G02X257779304Y-94079734I300000J0D01*
G01*
X271179304Y-94079734D02*
X257779304Y-94079734D01*
X257479304Y-98479734D02*
X257479304Y-103679734D01*
X257479304Y-94779734D02*
X257479304Y-94379734D01*
X271479304Y-107379734D02*
X271479304Y-107779734D01*
X271179304Y-94079734D02*
G75*
G02X271479304Y-94379734I0J-300000D01*
G01*
X272479304Y-97979734D02*
G75*
G02X272279304Y-98179734I-200000J0D01*
G01*
X271479304Y-98479734D02*
G75*
G02X271779304Y-98179734I300000J0D01*
G01*
X271779304Y-95079734D02*
X272179304Y-95079734D01*
X272479304Y-97979734D02*
X272479304Y-95379734D01*
X272279304Y-98179734D02*
X271779304Y-98179734D01*
X271479304Y-103679734D02*
X271479304Y-98479734D01*
X271479304Y-107779734D02*
G75*
G02X271179304Y-108079734I-300000J0D01*
G01*
X271779304Y-95079734D02*
G75*
G02X271479304Y-94779734I0J300000D01*
G01*
X272179304Y-95079734D02*
G75*
G02X272479304Y-95379734I0J-300000D01*
G01*
X271479304Y-94379734D02*
X271479304Y-94779734D01*
X271779304Y-103979734D02*
G75*
G02X271479304Y-103679734I0J300000D01*
G01*
X272179304Y-103979734D02*
G75*
G02X272479304Y-104279734I0J-300000D01*
G01*
X272279304Y-107079734D02*
X271779304Y-107079734D01*
X272479304Y-106879734D02*
X272479304Y-104279734D01*
X271779304Y-103979734D02*
X272179304Y-103979734D01*
X271479304Y-107379734D02*
G75*
G02X271779304Y-107079734I300000J0D01*
G01*
X272479304Y-106879734D02*
G75*
G02X272279304Y-107079734I-200000J0D01*
G01*
X256479304Y-104179734D02*
G75*
G02X256679304Y-103979734I200000J0D01*
G01*
X257479304Y-103679734D02*
G75*
G02X257179304Y-103979734I-300000J0D01*
G01*
X257179304Y-107079734D02*
X256779304Y-107079734D01*
X256479304Y-104179734D02*
X256479304Y-106779734D01*
X256679304Y-103979734D02*
X257179304Y-103979734D01*
X256779304Y-107079734D02*
G75*
G02X256479304Y-106779734I0J300000D01*
G01*
X257179304Y-107079734D02*
G75*
G02X257479304Y-107379734I0J-300000D01*
G01*
X256679304Y-95079734D02*
X257179304Y-95079734D01*
X257179304Y-98179734D02*
X256779304Y-98179734D01*
X256479304Y-95279734D02*
X256479304Y-97879734D01*
X257479304Y-94779734D02*
G75*
G02X257179304Y-95079734I-300000J0D01*
G01*
X257179304Y-98179734D02*
G75*
G02X257479304Y-98479734I0J-300000D01*
G01*
X256779304Y-98179734D02*
G75*
G02X256479304Y-97879734I0J300000D01*
G01*
X256479304Y-95279734D02*
G75*
G02X256679304Y-95079734I200000J0D01*
G01*
M02*
