G04 #@! TF.GenerationSoftware,KiCad,Pcbnew,(5.1.2-1)-1*
G04 #@! TF.CreationDate,2020-02-22T12:26:48-06:00*
G04 #@! TF.ProjectId,therick64BA_top_plate,74686572-6963-46b3-9634-42415f746f70,rev?*
G04 #@! TF.SameCoordinates,Original*
G04 #@! TF.FileFunction,Legend,Bot*
G04 #@! TF.FilePolarity,Positive*
%FSLAX46Y46*%
G04 Gerber Fmt 4.6, Leading zero omitted, Abs format (unit mm)*
G04 Created by KiCad (PCBNEW (5.1.2-1)-1) date 2020-02-22 12:26:48*
%MOMM*%
%LPD*%
G04 APERTURE LIST*
%ADD10C,0.200000*%
%ADD11C,0.150000*%
G04 APERTURE END LIST*
D10*
X266372857Y-91258571D02*
X265801428Y-91258571D01*
X266158571Y-90758571D02*
X266158571Y-92044285D01*
X266087142Y-92187142D01*
X265944285Y-92258571D01*
X265801428Y-92258571D01*
X265301428Y-92258571D02*
X265301428Y-90758571D01*
X264658571Y-92258571D02*
X264658571Y-91472857D01*
X264730000Y-91330000D01*
X264872857Y-91258571D01*
X265087142Y-91258571D01*
X265230000Y-91330000D01*
X265301428Y-91401428D01*
X263372857Y-92187142D02*
X263515714Y-92258571D01*
X263801428Y-92258571D01*
X263944285Y-92187142D01*
X264015714Y-92044285D01*
X264015714Y-91472857D01*
X263944285Y-91330000D01*
X263801428Y-91258571D01*
X263515714Y-91258571D01*
X263372857Y-91330000D01*
X263301428Y-91472857D01*
X263301428Y-91615714D01*
X264015714Y-91758571D01*
X262658571Y-92258571D02*
X262658571Y-91258571D01*
X262658571Y-91544285D02*
X262587142Y-91401428D01*
X262515714Y-91330000D01*
X262372857Y-91258571D01*
X262230000Y-91258571D01*
X261730000Y-92258571D02*
X261730000Y-91258571D01*
X261730000Y-90758571D02*
X261801428Y-90830000D01*
X261730000Y-90901428D01*
X261658571Y-90830000D01*
X261730000Y-90758571D01*
X261730000Y-90901428D01*
X260372857Y-92187142D02*
X260515714Y-92258571D01*
X260801428Y-92258571D01*
X260944285Y-92187142D01*
X261015714Y-92115714D01*
X261087142Y-91972857D01*
X261087142Y-91544285D01*
X261015714Y-91401428D01*
X260944285Y-91330000D01*
X260801428Y-91258571D01*
X260515714Y-91258571D01*
X260372857Y-91330000D01*
X259730000Y-92258571D02*
X259730000Y-90758571D01*
X259587142Y-91687142D02*
X259158571Y-92258571D01*
X259158571Y-91258571D02*
X259730000Y-91830000D01*
X257872857Y-90758571D02*
X258158571Y-90758571D01*
X258301428Y-90830000D01*
X258372857Y-90901428D01*
X258515714Y-91115714D01*
X258587142Y-91401428D01*
X258587142Y-91972857D01*
X258515714Y-92115714D01*
X258444285Y-92187142D01*
X258301428Y-92258571D01*
X258015714Y-92258571D01*
X257872857Y-92187142D01*
X257801428Y-92115714D01*
X257730000Y-91972857D01*
X257730000Y-91615714D01*
X257801428Y-91472857D01*
X257872857Y-91401428D01*
X258015714Y-91330000D01*
X258301428Y-91330000D01*
X258444285Y-91401428D01*
X258515714Y-91472857D01*
X258587142Y-91615714D01*
X256444285Y-91258571D02*
X256444285Y-92258571D01*
X256801428Y-90687142D02*
X257158571Y-91758571D01*
X256230000Y-91758571D01*
X255158571Y-91472857D02*
X254944285Y-91544285D01*
X254872857Y-91615714D01*
X254801428Y-91758571D01*
X254801428Y-91972857D01*
X254872857Y-92115714D01*
X254944285Y-92187142D01*
X255087142Y-92258571D01*
X255658571Y-92258571D01*
X255658571Y-90758571D01*
X255158571Y-90758571D01*
X255015714Y-90830000D01*
X254944285Y-90901428D01*
X254872857Y-91044285D01*
X254872857Y-91187142D01*
X254944285Y-91330000D01*
X255015714Y-91401428D01*
X255158571Y-91472857D01*
X255658571Y-91472857D01*
X254230000Y-91830000D02*
X253515714Y-91830000D01*
X254372857Y-92258571D02*
X253872857Y-90758571D01*
X253372857Y-92258571D01*
X250872857Y-92258571D02*
X251372857Y-91544285D01*
X251730000Y-92258571D02*
X251730000Y-90758571D01*
X251158571Y-90758571D01*
X251015714Y-90830000D01*
X250944285Y-90901428D01*
X250872857Y-91044285D01*
X250872857Y-91258571D01*
X250944285Y-91401428D01*
X251015714Y-91472857D01*
X251158571Y-91544285D01*
X251730000Y-91544285D01*
X249658571Y-92187142D02*
X249801428Y-92258571D01*
X250087142Y-92258571D01*
X250230000Y-92187142D01*
X250301428Y-92044285D01*
X250301428Y-91472857D01*
X250230000Y-91330000D01*
X250087142Y-91258571D01*
X249801428Y-91258571D01*
X249658571Y-91330000D01*
X249587142Y-91472857D01*
X249587142Y-91615714D01*
X250301428Y-91758571D01*
X249087142Y-91258571D02*
X248730000Y-92258571D01*
X248372857Y-91258571D01*
X245872857Y-92258571D02*
X246730000Y-92258571D01*
X246301428Y-92258571D02*
X246301428Y-90758571D01*
X246444285Y-90972857D01*
X246587142Y-91115714D01*
X246730000Y-91187142D01*
X245230000Y-92115714D02*
X245158571Y-92187142D01*
X245230000Y-92258571D01*
X245301428Y-92187142D01*
X245230000Y-92115714D01*
X245230000Y-92258571D01*
X244230000Y-90758571D02*
X244087142Y-90758571D01*
X243944285Y-90830000D01*
X243872857Y-90901428D01*
X243801428Y-91044285D01*
X243730000Y-91330000D01*
X243730000Y-91687142D01*
X243801428Y-91972857D01*
X243872857Y-92115714D01*
X243944285Y-92187142D01*
X244087142Y-92258571D01*
X244230000Y-92258571D01*
X244372857Y-92187142D01*
X244444285Y-92115714D01*
X244515714Y-91972857D01*
X244587142Y-91687142D01*
X244587142Y-91330000D01*
X244515714Y-91044285D01*
X244444285Y-90901428D01*
X244372857Y-90830000D01*
X244230000Y-90758571D01*
D11*
X69599047Y-91032380D02*
X69599047Y-91746666D01*
X69646666Y-91889523D01*
X69741904Y-91984761D01*
X69884761Y-92032380D01*
X69980000Y-92032380D01*
X68646666Y-92032380D02*
X69122857Y-92032380D01*
X69122857Y-91032380D01*
X67741904Y-91937142D02*
X67789523Y-91984761D01*
X67932380Y-92032380D01*
X68027619Y-92032380D01*
X68170476Y-91984761D01*
X68265714Y-91889523D01*
X68313333Y-91794285D01*
X68360952Y-91603809D01*
X68360952Y-91460952D01*
X68313333Y-91270476D01*
X68265714Y-91175238D01*
X68170476Y-91080000D01*
X68027619Y-91032380D01*
X67932380Y-91032380D01*
X67789523Y-91080000D01*
X67741904Y-91127619D01*
X67027619Y-91032380D02*
X67027619Y-91746666D01*
X67075238Y-91889523D01*
X67170476Y-91984761D01*
X67313333Y-92032380D01*
X67408571Y-92032380D01*
X66075238Y-92032380D02*
X66551428Y-92032380D01*
X66551428Y-91032380D01*
X65170476Y-91937142D02*
X65218095Y-91984761D01*
X65360952Y-92032380D01*
X65456190Y-92032380D01*
X65599047Y-91984761D01*
X65694285Y-91889523D01*
X65741904Y-91794285D01*
X65789523Y-91603809D01*
X65789523Y-91460952D01*
X65741904Y-91270476D01*
X65694285Y-91175238D01*
X65599047Y-91080000D01*
X65456190Y-91032380D01*
X65360952Y-91032380D01*
X65218095Y-91080000D01*
X65170476Y-91127619D01*
X64456190Y-91032380D02*
X64456190Y-91746666D01*
X64503809Y-91889523D01*
X64599047Y-91984761D01*
X64741904Y-92032380D01*
X64837142Y-92032380D01*
X63503809Y-92032380D02*
X63980000Y-92032380D01*
X63980000Y-91032380D01*
X62599047Y-91937142D02*
X62646666Y-91984761D01*
X62789523Y-92032380D01*
X62884761Y-92032380D01*
X63027619Y-91984761D01*
X63122857Y-91889523D01*
X63170476Y-91794285D01*
X63218095Y-91603809D01*
X63218095Y-91460952D01*
X63170476Y-91270476D01*
X63122857Y-91175238D01*
X63027619Y-91080000D01*
X62884761Y-91032380D01*
X62789523Y-91032380D01*
X62646666Y-91080000D01*
X62599047Y-91127619D01*
X61884761Y-91032380D02*
X61884761Y-91746666D01*
X61932380Y-91889523D01*
X62027619Y-91984761D01*
X62170476Y-92032380D01*
X62265714Y-92032380D01*
X60932380Y-92032380D02*
X61408571Y-92032380D01*
X61408571Y-91032380D01*
X60027619Y-91937142D02*
X60075238Y-91984761D01*
X60218095Y-92032380D01*
X60313333Y-92032380D01*
X60456190Y-91984761D01*
X60551428Y-91889523D01*
X60599047Y-91794285D01*
X60646666Y-91603809D01*
X60646666Y-91460952D01*
X60599047Y-91270476D01*
X60551428Y-91175238D01*
X60456190Y-91080000D01*
X60313333Y-91032380D01*
X60218095Y-91032380D01*
X60075238Y-91080000D01*
X60027619Y-91127619D01*
M02*
