M48
METRIC
T1C0.650
T2C0.800
T3C1.702
T4C3.988
%
G90
G05
T1
X81.09Y-39.118
X86.87Y-39.118
T2
X273.599Y-78.653
X273.599Y-80.07
X273.599Y-81.32
X273.599Y-82.57
X273.599Y-83.82
X273.599Y-91.695
X273.599Y-93.346
X273.599Y-94.763
X273.599Y-96.14
X273.599Y-97.517
X273.599Y-98.934
X273.599Y-100.331
X273.599Y-62.48
X273.599Y-63.73
X273.599Y-64.98
X273.599Y-66.23
X273.599Y-67.48
X273.599Y-46.986
X273.599Y-48.403
X273.599Y-49.78
X273.599Y-51.157
X273.599Y-52.828
T3
X126.4Y-101.46
X136.56Y-101.46
X164.4Y-63.46
X174.56Y-63.46
X145.4Y-44.46
X155.56Y-44.46
X221.4Y-101.46
X231.56Y-101.46
X303.859Y-44.46
X314.019Y-44.46
X88.4Y-101.46
X98.56Y-101.46
X50.4Y-101.46
X60.56Y-101.46
X284.859Y-101.46
X295.019Y-101.46
X50.4Y-82.46
X60.56Y-82.46
X284.859Y-82.46
X295.019Y-82.46
X202.399Y-101.46
X212.559Y-101.46
X69.4Y-101.46
X79.56Y-101.46
X107.4Y-101.46
X117.56Y-101.46
X259.399Y-44.473
X269.559Y-44.473
X202.4Y-44.46
X212.56Y-44.46
X259.399Y-101.46
X269.559Y-101.46
X341.859Y-44.46
X352.019Y-44.46
X303.859Y-101.46
X314.019Y-101.46
X145.4Y-63.46
X155.56Y-63.46
X322.859Y-82.46
X333.019Y-82.46
X164.4Y-44.46
X174.56Y-44.46
X259.399Y-82.46
X269.559Y-82.46
X221.399Y-44.46
X231.559Y-44.46
X303.859Y-63.46
X314.019Y-63.46
X183.4Y-44.46
X193.56Y-44.46
X88.4Y-44.46
X98.56Y-44.46
X341.859Y-82.46
X352.019Y-82.46
X259.399Y-63.46
X269.559Y-63.46
X240.399Y-82.46
X250.559Y-82.46
X164.4Y-82.46
X174.56Y-82.46
X164.4Y-101.46
X174.56Y-101.46
X202.399Y-63.46
X212.559Y-63.46
X240.399Y-44.46
X250.559Y-44.46
X240.399Y-63.46
X250.559Y-63.46
X88.4Y-63.46
X98.56Y-63.46
X322.859Y-44.46
X333.019Y-44.46
X284.859Y-63.46
X295.019Y-63.46
X107.4Y-63.46
X117.56Y-63.46
X284.859Y-44.46
X295.019Y-44.46
X183.4Y-63.46
X193.56Y-63.46
X322.859Y-63.46
X333.019Y-63.46
X341.859Y-63.46
X352.019Y-63.46
X69.4Y-44.46
X79.56Y-44.46
X221.4Y-82.46
X231.56Y-82.46
X126.4Y-44.46
X136.56Y-44.46
X341.859Y-101.46
X352.019Y-101.46
X221.4Y-63.46
X231.56Y-63.46
X69.4Y-82.46
X79.56Y-82.46
X50.4Y-63.46
X60.56Y-63.46
X88.4Y-82.46
X98.56Y-82.46
X145.4Y-82.46
X155.56Y-82.46
X126.4Y-82.46
X136.56Y-82.46
X107.4Y-82.46
X117.56Y-82.46
X202.399Y-82.46
X212.559Y-82.46
X69.4Y-63.46
X79.56Y-63.46
X50.4Y-44.46
X60.56Y-44.46
X240.399Y-101.46
X250.559Y-101.46
X145.4Y-101.46
X155.56Y-101.46
X303.834Y-82.472
X313.994Y-82.472
X107.4Y-44.46
X117.56Y-44.46
X183.4Y-101.46
X193.56Y-101.46
X126.4Y-63.46
X136.56Y-63.46
X183.4Y-82.46
X193.56Y-82.46
X322.859Y-101.46
X333.019Y-101.46
T4
X207.479Y-82.46
X74.48Y-63.46
X55.48Y-44.46
X245.479Y-101.46
X150.48Y-101.46
X308.914Y-82.472
X112.48Y-44.46
X188.48Y-101.46
X131.48Y-63.46
X188.48Y-82.46
X327.939Y-101.46
X131.48Y-101.46
X169.48Y-63.46
X150.48Y-44.46
X226.48Y-101.46
X308.939Y-44.46
X93.48Y-101.46
X55.48Y-101.46
X289.939Y-101.46
X55.48Y-82.46
X289.939Y-82.46
X207.479Y-101.46
X74.48Y-101.46
X112.48Y-101.46
X264.479Y-44.473
X207.48Y-44.46
X264.479Y-101.46
X346.939Y-44.46
X308.939Y-101.46
X150.48Y-63.46
X327.939Y-82.46
X169.48Y-44.46
X264.479Y-82.46
X226.479Y-44.46
X308.939Y-63.46
X188.48Y-44.46
X93.48Y-44.46
X346.939Y-82.46
X264.479Y-63.46
X245.479Y-82.46
X169.48Y-82.46
X169.48Y-101.46
X207.479Y-63.46
X245.479Y-44.46
X245.479Y-63.46
X93.48Y-63.46
X327.939Y-44.46
X289.939Y-63.46
X112.48Y-63.46
X289.939Y-44.46
X188.48Y-63.46
X327.939Y-63.46
X346.939Y-63.46
X74.48Y-44.46
X226.48Y-82.46
X131.48Y-44.46
X346.939Y-101.46
X226.48Y-63.46
X74.48Y-82.46
X55.48Y-63.46
X93.48Y-82.46
X150.48Y-82.46
X131.48Y-82.46
X112.48Y-82.46
T0
M30
