M48
; DRILL file {KiCad (5.1.2-1)-1} date Saturday, June 06, 2020 at 07:12:16 AM
; FORMAT={-:-/ absolute / inch / decimal}
; #@! TF.CreationDate,2020-06-06T07:12:16-05:00
; #@! TF.GenerationSoftware,Kicad,Pcbnew,(5.1.2-1)-1
; #@! TF.FileFunction,Plated,1,2,PTH
FMAT,2
INCH
T1C0.0098
T2C0.0157
T3C0.0236
T4C0.0420
T5C0.0600
T6C0.0866
%
G90
G05
T1
X2.655Y-3.765
X2.6783Y-3.7559
X2.7Y-3.7439
X2.725Y-3.73
X2.955Y-1.62
X2.99Y-2.84
X2.99Y-2.87
X2.99Y-2.905
X2.99Y-2.935
X3.1244Y-1.6483
X3.14Y-2.37
X3.165Y-2.425
X3.218Y-2.635
X3.2444Y-1.6483
X3.2495Y-2.635
X3.2808Y-2.6338
X3.3123Y-2.6338
X3.3438Y-2.6338
X3.3752Y-2.6338
X3.3894Y-1.6483
X3.46Y-2.43
X3.5094Y-1.6483
X3.6156Y-2.7766
X3.67Y-1.585
X3.71Y-2.71
X3.7875Y-2.3525
X3.7918Y-2.3882
X3.8873Y-2.7569
X3.8873Y-2.7884
X3.8873Y-2.8199
X3.8873Y-2.8514
X3.8873Y-2.8829
X4.06Y-2.945
X4.22Y-2.3
X6.18Y-2.175
T2
X3.005Y-3.06
X3.18Y-2.64
X3.5047Y-3.3553
X3.6344Y-2.9656
T4
X6.2904Y-1.9744
X6.2904Y-2.1744
X6.2904Y-2.3744
X6.3064Y-1.8744
X6.3064Y-2.0744
X6.3064Y-2.2744
T5
X2.8323Y-1.9504
X3.0823Y-1.8504
X2.0843Y-4.1945
X2.3343Y-4.0945
X12.811Y-4.1945
X13.061Y-4.0945
X8.8165Y-2.6984
X9.0665Y-2.5984
X4.3283Y-3.4464
X4.5783Y-3.3464
X6.5724Y-2.6984
X6.8224Y-2.5984
X10.3126Y-4.1945
X10.5626Y-4.0945
X2.8323Y-2.6984
X3.0823Y-2.5984
X2.0842Y-1.9504
X2.3342Y-1.8504
X6.5724Y-3.4464
X6.8224Y-3.3464
X11.3149Y-2.6984
X11.5649Y-2.5984
X8.8165Y-4.1945
X9.0665Y-4.0945
X5.8244Y-2.6984
X6.0744Y-2.5984
X5.0764Y-2.6984
X5.3264Y-2.5984
X3.5803Y-3.4464
X3.8303Y-3.3464
X3.5803Y-1.9504
X3.8303Y-1.8504
X10.3126Y-1.9509
X10.5626Y-1.8509
X5.0764Y-1.9504
X5.3264Y-1.8504
X4.3283Y-4.1945
X4.5783Y-4.0945
X13.559Y-4.1945
X13.809Y-4.0945
X8.0685Y-2.6984
X8.3185Y-2.5984
X8.8165Y-3.4465
X9.0665Y-3.3465
X2.0843Y-2.6984
X2.3343Y-2.5984
X12.063Y-4.1945
X12.313Y-4.0945
X9.5645Y-2.6984
X9.8145Y-2.5984
X13.559Y-3.4464
X13.809Y-3.3464
X13.559Y-1.9504
X13.809Y-1.8504
X9.5645Y-1.9504
X9.8145Y-1.8504
X8.0685Y-4.1945
X8.3185Y-4.0945
X7.3205Y-1.9504
X7.5705Y-1.8504
X13.559Y-2.6984
X13.809Y-2.5984
X2.8323Y-3.4465
X3.0823Y-3.3465
X12.063Y-1.9504
X12.313Y-1.8504
X4.3283Y-1.9504
X4.5783Y-1.8504
X10.3126Y-3.4465
X10.5626Y-3.3465
X3.5803Y-4.1945
X3.8303Y-4.0945
X5.8244Y-3.4464
X6.0744Y-3.3464
X4.3283Y-2.6984
X4.5783Y-2.5984
X5.8244Y-4.1945
X6.0744Y-4.0945
X12.811Y-3.4464
X13.061Y-3.3464
X6.5724Y-1.9504
X6.8224Y-1.8504
X9.5645Y-3.4464
X9.8145Y-3.3464
X5.0764Y-4.1945
X5.3264Y-4.0945
X8.0685Y-3.4465
X8.3185Y-3.3465
X12.811Y-2.6984
X13.061Y-2.5984
X10.3126Y-2.6984
X10.5626Y-2.5984
X12.811Y-1.9504
X13.061Y-1.8504
X8.8165Y-1.9504
X9.0665Y-1.8504
X7.3205Y-4.1945
X7.5705Y-4.0945
X2.0843Y-3.4465
X2.3343Y-3.3465
X11.3149Y-1.9504
X11.5649Y-1.8504
X12.062Y-3.4469
X12.312Y-3.3469
X7.3205Y-2.6984
X7.5705Y-2.5984
X9.5645Y-4.1945
X9.8145Y-4.0945
X5.0764Y-3.4464
X5.3264Y-3.3464
X12.063Y-2.6984
X12.313Y-2.5984
X8.0685Y-1.9504
X8.3185Y-1.8504
X5.8244Y-1.9504
X6.0744Y-1.8504
X7.3205Y-3.4464
X7.5705Y-3.3464
X2.8323Y-4.1945
X3.0823Y-4.0945
X11.3149Y-4.1945
X11.5649Y-4.0945
X11.3149Y-3.4464
X11.5649Y-3.3464
X3.5803Y-2.6984
X3.8303Y-2.5984
X6.5724Y-4.1945
X6.8224Y-4.0945
T6
X2.5583Y-3.6205
X2.5583Y-2.1244
X4.8024Y-3.6205
X4.8024Y-2.1244
X13.285Y-3.6205
X11.789Y-3.6205
X13.285Y-2.1244
X10.0386Y-3.6205
X10.0386Y-2.1244
X7.7945Y-3.6205
X7.7945Y-2.1244
X11.789Y-2.1244
X10.0396Y-2.8734
X8.5435Y-3.6215
X8.5425Y-2.1244
X4.0553Y-3.6215
X4.0543Y-2.1244
X2.5583Y-2.8724
T3
G00X3.137Y-1.3846
M15
G01X3.137Y-1.4082
M16
G05
G00X3.137Y-1.5401
M15
G01X3.137Y-1.5834
M16
G05
G00X3.4756Y-1.3846
M15
G01X3.4756Y-1.4082
M16
G05
G00X3.4756Y-1.5401
M15
G01X3.4756Y-1.5834
M16
G05
T0
M30
