M48
; DRILL file {KiCad (5.1.2-1)-1} date Saturday, June 06, 2020 at 07:12:16 AM
; FORMAT={-:-/ absolute / inch / decimal}
; #@! TF.CreationDate,2020-06-06T07:12:16-05:00
; #@! TF.GenerationSoftware,Kicad,Pcbnew,(5.1.2-1)-1
; #@! TF.FileFunction,NonPlated,1,2,NPTH
FMAT,2
INCH
T1C0.0256
T2C0.0315
T3C0.0670
T4C0.1570
%
G90
G05
T1
X3.1925Y-1.5401
X3.4201Y-1.5401
T2
X10.7716Y-3.61
X10.7716Y-3.675
X10.7716Y-3.7308
X10.7716Y-3.785
X10.7716Y-3.8392
X10.7716Y-3.895
X10.7716Y-3.95
X10.7716Y-3.0966
X10.7716Y-3.1524
X10.7716Y-3.2016
X10.7716Y-3.2508
X10.7716Y-3.3
X10.7716Y-2.4598
X10.7716Y-2.509
X10.7716Y-2.5583
X10.7716Y-2.6075
X10.7716Y-2.6567
X10.7716Y-1.8498
X10.7716Y-1.9056
X10.7716Y-1.9598
X10.7716Y-2.014
X10.7716Y-2.0798
T3
X8.7165Y-1.7504
X9.1165Y-1.7504
X7.2205Y-3.9945
X7.6205Y-3.9945
X1.9843Y-3.2465
X2.3843Y-3.2465
X11.2149Y-1.7504
X11.6149Y-1.7504
X11.962Y-3.2469
X12.362Y-3.2469
X7.2205Y-2.4984
X7.6205Y-2.4984
X9.4645Y-3.9945
X9.8645Y-3.9945
X4.9764Y-3.2464
X5.3764Y-3.2464
X11.963Y-2.4984
X12.363Y-2.4984
X7.9685Y-1.7504
X8.3685Y-1.7504
X5.7244Y-1.7504
X6.1244Y-1.7504
X7.2205Y-3.2464
X7.6205Y-3.2464
X2.7323Y-3.9945
X3.1323Y-3.9945
X11.2149Y-3.9945
X11.6149Y-3.9945
X11.2149Y-3.2464
X11.6149Y-3.2464
X3.4803Y-2.4984
X3.8803Y-2.4984
X6.4724Y-3.9945
X6.8724Y-3.9945
X2.7323Y-1.7504
X3.1323Y-1.7504
X1.9843Y-3.9945
X2.3843Y-3.9945
X12.711Y-3.9945
X13.111Y-3.9945
X8.7165Y-2.4984
X9.1165Y-2.4984
X4.2283Y-3.2464
X4.6283Y-3.2464
X6.4724Y-2.4984
X6.8724Y-2.4984
X10.2126Y-3.9945
X10.6126Y-3.9945
X2.7323Y-2.4984
X3.1323Y-2.4984
X1.9842Y-1.7504
X2.3842Y-1.7504
X6.4724Y-3.2464
X6.8724Y-3.2464
X11.2149Y-2.4984
X11.6149Y-2.4984
X8.7165Y-3.9945
X9.1165Y-3.9945
X5.7244Y-2.4984
X6.1244Y-2.4984
X4.9764Y-2.4984
X5.3764Y-2.4984
X3.4803Y-3.2464
X3.8803Y-3.2464
X3.4803Y-1.7504
X3.8803Y-1.7504
X10.2126Y-1.7509
X10.6126Y-1.7509
X4.9764Y-1.7504
X5.3764Y-1.7504
X4.2283Y-3.9945
X4.6283Y-3.9945
X13.459Y-3.9945
X13.859Y-3.9945
X7.9685Y-2.4984
X8.3685Y-2.4984
X8.7165Y-3.2465
X9.1165Y-3.2465
X1.9843Y-2.4984
X2.3843Y-2.4984
X11.963Y-3.9945
X12.363Y-3.9945
X9.4645Y-2.4984
X9.8645Y-2.4984
X13.459Y-3.2464
X13.859Y-3.2464
X13.459Y-1.7504
X13.859Y-1.7504
X9.4645Y-1.7504
X9.8645Y-1.7504
X7.9685Y-3.9945
X8.3685Y-3.9945
X7.2205Y-1.7504
X7.6205Y-1.7504
X13.459Y-2.4984
X13.859Y-2.4984
X2.7323Y-3.2465
X3.1323Y-3.2465
X11.963Y-1.7504
X12.363Y-1.7504
X4.2283Y-1.7504
X4.6283Y-1.7504
X10.2126Y-3.2465
X10.6126Y-3.2465
X3.4803Y-3.9945
X3.8803Y-3.9945
X5.7244Y-3.2464
X6.1244Y-3.2464
X4.2283Y-2.4984
X4.6283Y-2.4984
X5.7244Y-3.9945
X6.1244Y-3.9945
X12.711Y-3.2464
X13.111Y-3.2464
X6.4724Y-1.7504
X6.8724Y-1.7504
X9.4645Y-3.2464
X9.8645Y-3.2464
X4.9764Y-3.9945
X5.3764Y-3.9945
X7.9685Y-3.2465
X8.3685Y-3.2465
X12.711Y-2.4984
X13.111Y-2.4984
X10.2126Y-2.4984
X10.6126Y-2.4984
X12.711Y-1.7504
X13.111Y-1.7504
T4
X12.911Y-3.9945
X8.9165Y-2.4984
X4.4283Y-3.2464
X6.6724Y-2.4984
X10.4126Y-3.9945
X2.9323Y-2.4984
X2.1842Y-1.7504
X6.6724Y-3.2464
X11.4149Y-2.4984
X8.9165Y-3.9945
X5.9244Y-2.4984
X5.1764Y-2.4984
X3.6803Y-3.2464
X3.6803Y-1.7504
X10.4126Y-1.7509
X5.1764Y-1.7504
X4.4283Y-3.9945
X13.659Y-3.9945
X8.1685Y-2.4984
X8.9165Y-3.2465
X2.1843Y-2.4984
X12.163Y-3.9945
X9.6645Y-2.4984
X13.659Y-3.2464
X13.659Y-1.7504
X9.6645Y-1.7504
X8.1685Y-3.9945
X7.4205Y-1.7504
X13.659Y-2.4984
X2.9323Y-3.2465
X12.163Y-1.7504
X4.4283Y-1.7504
X10.4126Y-3.2465
X3.6803Y-3.9945
X5.9244Y-3.2464
X4.4283Y-2.4984
X5.9244Y-3.9945
X12.911Y-3.2464
X6.6724Y-1.7504
X9.6645Y-3.2464
X5.1764Y-3.9945
X8.1685Y-3.2465
X12.911Y-2.4984
X10.4126Y-2.4984
X12.911Y-1.7504
X8.9165Y-1.7504
X7.4205Y-3.9945
X2.1843Y-3.2465
X11.4149Y-1.7504
X12.162Y-3.2469
X7.4205Y-2.4984
X9.6645Y-3.9945
X5.1764Y-3.2464
X12.163Y-2.4984
X8.1685Y-1.7504
X5.9244Y-1.7504
X7.4205Y-3.2464
X2.9323Y-3.9945
X11.4149Y-3.9945
X11.4149Y-3.2464
X3.6803Y-2.4984
X6.6724Y-3.9945
X2.9323Y-1.7504
X2.1843Y-3.9945
T0
M30
