G04 #@! TF.GenerationSoftware,KiCad,Pcbnew,(5.1.2-1)-1*
G04 #@! TF.CreationDate,2020-05-23T14:35:28-05:00*
G04 #@! TF.ProjectId,therick48.16_bottom_plate,74686572-6963-46b3-9438-2e31365f626f,rev?*
G04 #@! TF.SameCoordinates,Original*
G04 #@! TF.FileFunction,Legend,Top*
G04 #@! TF.FilePolarity,Positive*
%FSLAX46Y46*%
G04 Gerber Fmt 4.6, Leading zero omitted, Abs format (unit mm)*
G04 Created by KiCad (PCBNEW (5.1.2-1)-1) date 2020-05-23 14:35:28*
%MOMM*%
%LPD*%
G04 APERTURE LIST*
%ADD10C,0.150000*%
G04 APERTURE END LIST*
D10*
X48425586Y-81197903D02*
X48425586Y-80816950D01*
X48092252Y-81055046D02*
X48949395Y-81055046D01*
X49044633Y-81007427D01*
X49092252Y-80912188D01*
X49092252Y-80816950D01*
X49092252Y-80483617D02*
X48092252Y-80483617D01*
X49092252Y-80055046D02*
X48568443Y-80055046D01*
X48473205Y-80102665D01*
X48425586Y-80197903D01*
X48425586Y-80340760D01*
X48473205Y-80435998D01*
X48520824Y-80483617D01*
X49044633Y-79197903D02*
X49092252Y-79293141D01*
X49092252Y-79483617D01*
X49044633Y-79578855D01*
X48949395Y-79626474D01*
X48568443Y-79626474D01*
X48473205Y-79578855D01*
X48425586Y-79483617D01*
X48425586Y-79293141D01*
X48473205Y-79197903D01*
X48568443Y-79150284D01*
X48663681Y-79150284D01*
X48758919Y-79626474D01*
X49092252Y-78721712D02*
X48425586Y-78721712D01*
X48616062Y-78721712D02*
X48520824Y-78674093D01*
X48473205Y-78626474D01*
X48425586Y-78531236D01*
X48425586Y-78435998D01*
X49092252Y-78102665D02*
X48425586Y-78102665D01*
X48092252Y-78102665D02*
X48139872Y-78150284D01*
X48187491Y-78102665D01*
X48139872Y-78055046D01*
X48092252Y-78102665D01*
X48187491Y-78102665D01*
X49044633Y-77197903D02*
X49092252Y-77293141D01*
X49092252Y-77483617D01*
X49044633Y-77578855D01*
X48997014Y-77626474D01*
X48901776Y-77674093D01*
X48616062Y-77674093D01*
X48520824Y-77626474D01*
X48473205Y-77578855D01*
X48425586Y-77483617D01*
X48425586Y-77293141D01*
X48473205Y-77197903D01*
X49092252Y-76769331D02*
X48092252Y-76769331D01*
X48711300Y-76674093D02*
X49092252Y-76388379D01*
X48425586Y-76388379D02*
X48806538Y-76769331D01*
X48425586Y-75531236D02*
X49092252Y-75531236D01*
X48044633Y-75769331D02*
X48758919Y-76007427D01*
X48758919Y-75388379D01*
X48520824Y-74864569D02*
X48473205Y-74959808D01*
X48425586Y-75007427D01*
X48330348Y-75055046D01*
X48282729Y-75055046D01*
X48187491Y-75007427D01*
X48139872Y-74959808D01*
X48092252Y-74864569D01*
X48092252Y-74674093D01*
X48139872Y-74578855D01*
X48187491Y-74531236D01*
X48282729Y-74483617D01*
X48330348Y-74483617D01*
X48425586Y-74531236D01*
X48473205Y-74578855D01*
X48520824Y-74674093D01*
X48520824Y-74864569D01*
X48568443Y-74959808D01*
X48616062Y-75007427D01*
X48711300Y-75055046D01*
X48901776Y-75055046D01*
X48997014Y-75007427D01*
X49044633Y-74959808D01*
X49092252Y-74864569D01*
X49092252Y-74674093D01*
X49044633Y-74578855D01*
X48997014Y-74531236D01*
X48901776Y-74483617D01*
X48711300Y-74483617D01*
X48616062Y-74531236D01*
X48568443Y-74578855D01*
X48520824Y-74674093D01*
X48711300Y-74055046D02*
X48711300Y-73293141D01*
X49092252Y-73674093D02*
X48330348Y-73674093D01*
X49092252Y-72293141D02*
X49092252Y-72864569D01*
X49092252Y-72578855D02*
X48092252Y-72578855D01*
X48235110Y-72674093D01*
X48330348Y-72769331D01*
X48377967Y-72864569D01*
X48092252Y-71435998D02*
X48092252Y-71626474D01*
X48139872Y-71721712D01*
X48187491Y-71769331D01*
X48330348Y-71864569D01*
X48520824Y-71912188D01*
X48901776Y-71912188D01*
X48997014Y-71864569D01*
X49044633Y-71816950D01*
X49092252Y-71721712D01*
X49092252Y-71531236D01*
X49044633Y-71435998D01*
X48997014Y-71388379D01*
X48901776Y-71340760D01*
X48663681Y-71340760D01*
X48568443Y-71388379D01*
X48520824Y-71435998D01*
X48473205Y-71531236D01*
X48473205Y-71721712D01*
X48520824Y-71816950D01*
X48568443Y-71864569D01*
X48663681Y-71912188D01*
X49092252Y-69578855D02*
X48616062Y-69912188D01*
X49092252Y-70150284D02*
X48092252Y-70150284D01*
X48092252Y-69769331D01*
X48139872Y-69674093D01*
X48187491Y-69626474D01*
X48282729Y-69578855D01*
X48425586Y-69578855D01*
X48520824Y-69626474D01*
X48568443Y-69674093D01*
X48616062Y-69769331D01*
X48616062Y-70150284D01*
X49044633Y-68769331D02*
X49092252Y-68864569D01*
X49092252Y-69055046D01*
X49044633Y-69150284D01*
X48949395Y-69197903D01*
X48568443Y-69197903D01*
X48473205Y-69150284D01*
X48425586Y-69055046D01*
X48425586Y-68864569D01*
X48473205Y-68769331D01*
X48568443Y-68721712D01*
X48663681Y-68721712D01*
X48758919Y-69197903D01*
X48425586Y-68388379D02*
X49092252Y-68150284D01*
X48425586Y-67912188D01*
X49092252Y-66245522D02*
X49092252Y-66816950D01*
X49092252Y-66531236D02*
X48092252Y-66531236D01*
X48235110Y-66626474D01*
X48330348Y-66721712D01*
X48377967Y-66816950D01*
X48997014Y-65816950D02*
X49044633Y-65769331D01*
X49092252Y-65816950D01*
X49044633Y-65864569D01*
X48997014Y-65816950D01*
X49092252Y-65816950D01*
X48092252Y-65150284D02*
X48092252Y-65055046D01*
X48139872Y-64959808D01*
X48187491Y-64912188D01*
X48282729Y-64864569D01*
X48473205Y-64816950D01*
X48711300Y-64816950D01*
X48901776Y-64864569D01*
X48997014Y-64912188D01*
X49044633Y-64959808D01*
X49092252Y-65055046D01*
X49092252Y-65150284D01*
X49044633Y-65245522D01*
X48997014Y-65293141D01*
X48901776Y-65340760D01*
X48711300Y-65388379D01*
X48473205Y-65388379D01*
X48282729Y-65340760D01*
X48187491Y-65293141D01*
X48139872Y-65245522D01*
X48092252Y-65150284D01*
X48092380Y-105778690D02*
X48806666Y-105778690D01*
X48949523Y-105826309D01*
X49044761Y-105921547D01*
X49092380Y-106064404D01*
X49092380Y-106159642D01*
X49092380Y-104826309D02*
X49092380Y-105302500D01*
X48092380Y-105302500D01*
X48997142Y-103921547D02*
X49044761Y-103969166D01*
X49092380Y-104112023D01*
X49092380Y-104207261D01*
X49044761Y-104350119D01*
X48949523Y-104445357D01*
X48854285Y-104492976D01*
X48663809Y-104540595D01*
X48520952Y-104540595D01*
X48330476Y-104492976D01*
X48235238Y-104445357D01*
X48140000Y-104350119D01*
X48092380Y-104207261D01*
X48092380Y-104112023D01*
X48140000Y-103969166D01*
X48187619Y-103921547D01*
X48092380Y-103207261D02*
X48806666Y-103207261D01*
X48949523Y-103254880D01*
X49044761Y-103350119D01*
X49092380Y-103492976D01*
X49092380Y-103588214D01*
X49092380Y-102254880D02*
X49092380Y-102731071D01*
X48092380Y-102731071D01*
X48997142Y-101350119D02*
X49044761Y-101397738D01*
X49092380Y-101540595D01*
X49092380Y-101635833D01*
X49044761Y-101778690D01*
X48949523Y-101873928D01*
X48854285Y-101921547D01*
X48663809Y-101969166D01*
X48520952Y-101969166D01*
X48330476Y-101921547D01*
X48235238Y-101873928D01*
X48140000Y-101778690D01*
X48092380Y-101635833D01*
X48092380Y-101540595D01*
X48140000Y-101397738D01*
X48187619Y-101350119D01*
X48092380Y-100635833D02*
X48806666Y-100635833D01*
X48949523Y-100683452D01*
X49044761Y-100778690D01*
X49092380Y-100921547D01*
X49092380Y-101016785D01*
X49092380Y-99683452D02*
X49092380Y-100159642D01*
X48092380Y-100159642D01*
X48997142Y-98778690D02*
X49044761Y-98826309D01*
X49092380Y-98969166D01*
X49092380Y-99064404D01*
X49044761Y-99207261D01*
X48949523Y-99302500D01*
X48854285Y-99350119D01*
X48663809Y-99397738D01*
X48520952Y-99397738D01*
X48330476Y-99350119D01*
X48235238Y-99302500D01*
X48140000Y-99207261D01*
X48092380Y-99064404D01*
X48092380Y-98969166D01*
X48140000Y-98826309D01*
X48187619Y-98778690D01*
X48092380Y-98064404D02*
X48806666Y-98064404D01*
X48949523Y-98112023D01*
X49044761Y-98207261D01*
X49092380Y-98350119D01*
X49092380Y-98445357D01*
X49092380Y-97112023D02*
X49092380Y-97588214D01*
X48092380Y-97588214D01*
X48997142Y-96207261D02*
X49044761Y-96254880D01*
X49092380Y-96397738D01*
X49092380Y-96492976D01*
X49044761Y-96635833D01*
X48949523Y-96731071D01*
X48854285Y-96778690D01*
X48663809Y-96826309D01*
X48520952Y-96826309D01*
X48330476Y-96778690D01*
X48235238Y-96731071D01*
X48140000Y-96635833D01*
X48092380Y-96492976D01*
X48092380Y-96397738D01*
X48140000Y-96254880D01*
X48187619Y-96207261D01*
M02*
