G04 #@! TF.GenerationSoftware,KiCad,Pcbnew,(5.1.2-1)-1*
G04 #@! TF.CreationDate,2020-02-22T12:25:28-06:00*
G04 #@! TF.ProjectId,therick64BA_bottom_plate,74686572-6963-46b3-9634-42415f626f74,rev?*
G04 #@! TF.SameCoordinates,Original*
G04 #@! TF.FileFunction,Soldermask,Top*
G04 #@! TF.FilePolarity,Negative*
%FSLAX46Y46*%
G04 Gerber Fmt 4.6, Leading zero omitted, Abs format (unit mm)*
G04 Created by KiCad (PCBNEW (5.1.2-1)-1) date 2020-02-22 12:25:28*
%MOMM*%
%LPD*%
G04 APERTURE LIST*
%ADD10C,0.100000*%
G04 APERTURE END LIST*
D10*
G36*
X274491552Y-103526331D02*
G01*
X274573627Y-103560328D01*
X274573629Y-103560329D01*
X274610813Y-103585175D01*
X274647495Y-103609685D01*
X274710315Y-103672505D01*
X274759672Y-103746373D01*
X274793669Y-103828448D01*
X274811000Y-103915579D01*
X274811000Y-104004421D01*
X274793669Y-104091552D01*
X274759672Y-104173627D01*
X274759671Y-104173629D01*
X274710314Y-104247496D01*
X274647496Y-104310314D01*
X274573629Y-104359671D01*
X274573628Y-104359672D01*
X274573627Y-104359672D01*
X274491552Y-104393669D01*
X274404421Y-104411000D01*
X274315579Y-104411000D01*
X274228448Y-104393669D01*
X274146373Y-104359672D01*
X274146372Y-104359672D01*
X274146371Y-104359671D01*
X274072504Y-104310314D01*
X274009686Y-104247496D01*
X273960329Y-104173629D01*
X273960328Y-104173627D01*
X273926331Y-104091552D01*
X273909000Y-104004421D01*
X273909000Y-103915579D01*
X273926331Y-103828448D01*
X273960328Y-103746373D01*
X274009685Y-103672505D01*
X274072505Y-103609685D01*
X274109187Y-103585175D01*
X274146371Y-103560329D01*
X274146373Y-103560328D01*
X274228448Y-103526331D01*
X274315579Y-103509000D01*
X274404421Y-103509000D01*
X274491552Y-103526331D01*
X274491552Y-103526331D01*
G37*
G36*
X274491552Y-102276331D02*
G01*
X274573627Y-102310328D01*
X274573629Y-102310329D01*
X274610813Y-102335175D01*
X274647495Y-102359685D01*
X274710315Y-102422505D01*
X274759672Y-102496373D01*
X274793669Y-102578448D01*
X274811000Y-102665579D01*
X274811000Y-102754421D01*
X274793669Y-102841552D01*
X274759672Y-102923627D01*
X274759671Y-102923629D01*
X274710314Y-102997496D01*
X274647496Y-103060314D01*
X274573629Y-103109671D01*
X274573628Y-103109672D01*
X274573627Y-103109672D01*
X274491552Y-103143669D01*
X274404421Y-103161000D01*
X274315579Y-103161000D01*
X274228448Y-103143669D01*
X274146373Y-103109672D01*
X274146372Y-103109672D01*
X274146371Y-103109671D01*
X274072504Y-103060314D01*
X274009686Y-102997496D01*
X273960329Y-102923629D01*
X273960328Y-102923627D01*
X273926331Y-102841552D01*
X273909000Y-102754421D01*
X273909000Y-102665579D01*
X273926331Y-102578448D01*
X273960328Y-102496373D01*
X274009685Y-102422505D01*
X274072505Y-102359685D01*
X274109187Y-102335175D01*
X274146371Y-102310329D01*
X274146373Y-102310328D01*
X274228448Y-102276331D01*
X274315579Y-102259000D01*
X274404421Y-102259000D01*
X274491552Y-102276331D01*
X274491552Y-102276331D01*
G37*
G36*
X274491552Y-101026331D02*
G01*
X274573627Y-101060328D01*
X274573629Y-101060329D01*
X274610813Y-101085175D01*
X274647495Y-101109685D01*
X274710315Y-101172505D01*
X274759672Y-101246373D01*
X274793669Y-101328448D01*
X274811000Y-101415579D01*
X274811000Y-101504421D01*
X274793669Y-101591552D01*
X274759672Y-101673627D01*
X274759671Y-101673629D01*
X274710314Y-101747496D01*
X274647496Y-101810314D01*
X274573629Y-101859671D01*
X274573628Y-101859672D01*
X274573627Y-101859672D01*
X274491552Y-101893669D01*
X274404421Y-101911000D01*
X274315579Y-101911000D01*
X274228448Y-101893669D01*
X274146373Y-101859672D01*
X274146372Y-101859672D01*
X274146371Y-101859671D01*
X274072504Y-101810314D01*
X274009686Y-101747496D01*
X273960329Y-101673629D01*
X273960328Y-101673627D01*
X273926331Y-101591552D01*
X273909000Y-101504421D01*
X273909000Y-101415579D01*
X273926331Y-101328448D01*
X273960328Y-101246373D01*
X274009685Y-101172505D01*
X274072505Y-101109685D01*
X274109187Y-101085175D01*
X274146371Y-101060329D01*
X274146373Y-101060328D01*
X274228448Y-101026331D01*
X274315579Y-101009000D01*
X274404421Y-101009000D01*
X274491552Y-101026331D01*
X274491552Y-101026331D01*
G37*
G36*
X274491552Y-99776331D02*
G01*
X274573627Y-99810328D01*
X274573629Y-99810329D01*
X274610813Y-99835175D01*
X274647495Y-99859685D01*
X274710315Y-99922505D01*
X274759672Y-99996373D01*
X274793669Y-100078448D01*
X274811000Y-100165579D01*
X274811000Y-100254421D01*
X274793669Y-100341552D01*
X274759672Y-100423627D01*
X274759671Y-100423629D01*
X274710314Y-100497496D01*
X274647496Y-100560314D01*
X274573629Y-100609671D01*
X274573628Y-100609672D01*
X274573627Y-100609672D01*
X274491552Y-100643669D01*
X274404421Y-100661000D01*
X274315579Y-100661000D01*
X274228448Y-100643669D01*
X274146373Y-100609672D01*
X274146372Y-100609672D01*
X274146371Y-100609671D01*
X274072504Y-100560314D01*
X274009686Y-100497496D01*
X273960329Y-100423629D01*
X273960328Y-100423627D01*
X273926331Y-100341552D01*
X273909000Y-100254421D01*
X273909000Y-100165579D01*
X273926331Y-100078448D01*
X273960328Y-99996373D01*
X274009685Y-99922505D01*
X274072505Y-99859685D01*
X274109187Y-99835175D01*
X274146371Y-99810329D01*
X274146373Y-99810328D01*
X274228448Y-99776331D01*
X274315579Y-99759000D01*
X274404421Y-99759000D01*
X274491552Y-99776331D01*
X274491552Y-99776331D01*
G37*
G36*
X274491552Y-98526331D02*
G01*
X274573627Y-98560328D01*
X274573629Y-98560329D01*
X274610813Y-98585175D01*
X274647495Y-98609685D01*
X274710315Y-98672505D01*
X274759672Y-98746373D01*
X274793669Y-98828448D01*
X274811000Y-98915579D01*
X274811000Y-99004421D01*
X274793669Y-99091552D01*
X274759672Y-99173627D01*
X274759671Y-99173629D01*
X274710314Y-99247496D01*
X274647496Y-99310314D01*
X274573629Y-99359671D01*
X274573628Y-99359672D01*
X274573627Y-99359672D01*
X274491552Y-99393669D01*
X274404421Y-99411000D01*
X274315579Y-99411000D01*
X274228448Y-99393669D01*
X274146373Y-99359672D01*
X274146372Y-99359672D01*
X274146371Y-99359671D01*
X274072504Y-99310314D01*
X274009686Y-99247496D01*
X273960329Y-99173629D01*
X273960328Y-99173627D01*
X273926331Y-99091552D01*
X273909000Y-99004421D01*
X273909000Y-98915579D01*
X273926331Y-98828448D01*
X273960328Y-98746373D01*
X274009685Y-98672505D01*
X274072505Y-98609685D01*
X274109187Y-98585175D01*
X274146371Y-98560329D01*
X274146373Y-98560328D01*
X274228448Y-98526331D01*
X274315579Y-98509000D01*
X274404421Y-98509000D01*
X274491552Y-98526331D01*
X274491552Y-98526331D01*
G37*
G36*
X341765331Y-90228211D02*
G01*
X342093092Y-90363974D01*
X342388070Y-90561072D01*
X342638928Y-90811930D01*
X342836026Y-91106908D01*
X342971789Y-91434669D01*
X343041000Y-91782616D01*
X343041000Y-92137384D01*
X342971789Y-92485331D01*
X342836026Y-92813092D01*
X342638928Y-93108070D01*
X342388070Y-93358928D01*
X342093092Y-93556026D01*
X341765331Y-93691789D01*
X341417384Y-93761000D01*
X341062616Y-93761000D01*
X340714669Y-93691789D01*
X340386908Y-93556026D01*
X340091930Y-93358928D01*
X339841072Y-93108070D01*
X339643974Y-92813092D01*
X339508211Y-92485331D01*
X339439000Y-92137384D01*
X339439000Y-91782616D01*
X339508211Y-91434669D01*
X339643974Y-91106908D01*
X339841072Y-90811930D01*
X340091930Y-90561072D01*
X340386908Y-90363974D01*
X340714669Y-90228211D01*
X341062616Y-90159000D01*
X341417384Y-90159000D01*
X341765331Y-90228211D01*
X341765331Y-90228211D01*
G37*
G36*
X303765331Y-90228211D02*
G01*
X304093092Y-90363974D01*
X304388070Y-90561072D01*
X304638928Y-90811930D01*
X304836026Y-91106908D01*
X304971789Y-91434669D01*
X305041000Y-91782616D01*
X305041000Y-92137384D01*
X304971789Y-92485331D01*
X304836026Y-92813092D01*
X304638928Y-93108070D01*
X304388070Y-93358928D01*
X304093092Y-93556026D01*
X303765331Y-93691789D01*
X303417384Y-93761000D01*
X303062616Y-93761000D01*
X302714669Y-93691789D01*
X302386908Y-93556026D01*
X302091930Y-93358928D01*
X301841072Y-93108070D01*
X301643974Y-92813092D01*
X301508211Y-92485331D01*
X301439000Y-92137384D01*
X301439000Y-91782616D01*
X301508211Y-91434669D01*
X301643974Y-91106908D01*
X301841072Y-90811930D01*
X302091930Y-90561072D01*
X302386908Y-90363974D01*
X302714669Y-90228211D01*
X303062616Y-90159000D01*
X303417384Y-90159000D01*
X303765331Y-90228211D01*
X303765331Y-90228211D01*
G37*
G36*
X217885331Y-90228211D02*
G01*
X218213092Y-90363974D01*
X218508070Y-90561072D01*
X218758928Y-90811930D01*
X218956026Y-91106908D01*
X219091789Y-91434669D01*
X219161000Y-91782616D01*
X219161000Y-92137384D01*
X219091789Y-92485331D01*
X218956026Y-92813092D01*
X218758928Y-93108070D01*
X218508070Y-93358928D01*
X218213092Y-93556026D01*
X217885331Y-93691789D01*
X217537384Y-93761000D01*
X217182616Y-93761000D01*
X216834669Y-93691789D01*
X216506908Y-93556026D01*
X216211930Y-93358928D01*
X215961072Y-93108070D01*
X215763974Y-92813092D01*
X215628211Y-92485331D01*
X215559000Y-92137384D01*
X215559000Y-91782616D01*
X215628211Y-91434669D01*
X215763974Y-91106908D01*
X215961072Y-90811930D01*
X216211930Y-90561072D01*
X216506908Y-90363974D01*
X216834669Y-90228211D01*
X217182616Y-90159000D01*
X217537384Y-90159000D01*
X217885331Y-90228211D01*
X217885331Y-90228211D01*
G37*
G36*
X103885331Y-90228211D02*
G01*
X104213092Y-90363974D01*
X104508070Y-90561072D01*
X104758928Y-90811930D01*
X104956026Y-91106908D01*
X105091789Y-91434669D01*
X105161000Y-91782616D01*
X105161000Y-92137384D01*
X105091789Y-92485331D01*
X104956026Y-92813092D01*
X104758928Y-93108070D01*
X104508070Y-93358928D01*
X104213092Y-93556026D01*
X103885331Y-93691789D01*
X103537384Y-93761000D01*
X103182616Y-93761000D01*
X102834669Y-93691789D01*
X102506908Y-93556026D01*
X102211930Y-93358928D01*
X101961072Y-93108070D01*
X101763974Y-92813092D01*
X101628211Y-92485331D01*
X101559000Y-92137384D01*
X101559000Y-91782616D01*
X101628211Y-91434669D01*
X101763974Y-91106908D01*
X101961072Y-90811930D01*
X102211930Y-90561072D01*
X102506908Y-90363974D01*
X102834669Y-90228211D01*
X103182616Y-90159000D01*
X103537384Y-90159000D01*
X103885331Y-90228211D01*
X103885331Y-90228211D01*
G37*
G36*
X274491552Y-89086331D02*
G01*
X274573627Y-89120328D01*
X274573629Y-89120329D01*
X274610813Y-89145175D01*
X274647495Y-89169685D01*
X274710315Y-89232505D01*
X274759672Y-89306373D01*
X274793669Y-89388448D01*
X274811000Y-89475579D01*
X274811000Y-89564421D01*
X274793669Y-89651552D01*
X274759672Y-89733627D01*
X274759671Y-89733629D01*
X274710314Y-89807496D01*
X274647496Y-89870314D01*
X274573629Y-89919671D01*
X274573628Y-89919672D01*
X274573627Y-89919672D01*
X274491552Y-89953669D01*
X274404421Y-89971000D01*
X274315579Y-89971000D01*
X274228448Y-89953669D01*
X274146373Y-89919672D01*
X274146372Y-89919672D01*
X274146371Y-89919671D01*
X274072504Y-89870314D01*
X274009686Y-89807496D01*
X273960329Y-89733629D01*
X273960328Y-89733627D01*
X273926331Y-89651552D01*
X273909000Y-89564421D01*
X273909000Y-89475579D01*
X273926331Y-89388448D01*
X273960328Y-89306373D01*
X274009685Y-89232505D01*
X274072505Y-89169685D01*
X274109187Y-89145175D01*
X274146371Y-89120329D01*
X274146373Y-89120328D01*
X274228448Y-89086331D01*
X274315579Y-89069000D01*
X274404421Y-89069000D01*
X274491552Y-89086331D01*
X274491552Y-89086331D01*
G37*
G36*
X274491552Y-87836331D02*
G01*
X274573627Y-87870328D01*
X274573629Y-87870329D01*
X274610813Y-87895175D01*
X274647495Y-87919685D01*
X274710315Y-87982505D01*
X274759672Y-88056373D01*
X274793669Y-88138448D01*
X274811000Y-88225579D01*
X274811000Y-88314421D01*
X274793669Y-88401552D01*
X274759672Y-88483627D01*
X274759671Y-88483629D01*
X274710314Y-88557496D01*
X274647496Y-88620314D01*
X274573629Y-88669671D01*
X274573628Y-88669672D01*
X274573627Y-88669672D01*
X274491552Y-88703669D01*
X274404421Y-88721000D01*
X274315579Y-88721000D01*
X274228448Y-88703669D01*
X274146373Y-88669672D01*
X274146372Y-88669672D01*
X274146371Y-88669671D01*
X274072504Y-88620314D01*
X274009686Y-88557496D01*
X273960329Y-88483629D01*
X273960328Y-88483627D01*
X273926331Y-88401552D01*
X273909000Y-88314421D01*
X273909000Y-88225579D01*
X273926331Y-88138448D01*
X273960328Y-88056373D01*
X274009685Y-87982505D01*
X274072505Y-87919685D01*
X274109187Y-87895175D01*
X274146371Y-87870329D01*
X274146373Y-87870328D01*
X274228448Y-87836331D01*
X274315579Y-87819000D01*
X274404421Y-87819000D01*
X274491552Y-87836331D01*
X274491552Y-87836331D01*
G37*
G36*
X274491552Y-86586331D02*
G01*
X274573627Y-86620328D01*
X274573629Y-86620329D01*
X274610813Y-86645175D01*
X274647495Y-86669685D01*
X274710315Y-86732505D01*
X274759672Y-86806373D01*
X274793669Y-86888448D01*
X274811000Y-86975579D01*
X274811000Y-87064421D01*
X274793669Y-87151552D01*
X274759672Y-87233627D01*
X274759671Y-87233629D01*
X274710314Y-87307496D01*
X274647496Y-87370314D01*
X274573629Y-87419671D01*
X274573628Y-87419672D01*
X274573627Y-87419672D01*
X274491552Y-87453669D01*
X274404421Y-87471000D01*
X274315579Y-87471000D01*
X274228448Y-87453669D01*
X274146373Y-87419672D01*
X274146372Y-87419672D01*
X274146371Y-87419671D01*
X274072504Y-87370314D01*
X274009686Y-87307496D01*
X273960329Y-87233629D01*
X273960328Y-87233627D01*
X273926331Y-87151552D01*
X273909000Y-87064421D01*
X273909000Y-86975579D01*
X273926331Y-86888448D01*
X273960328Y-86806373D01*
X274009685Y-86732505D01*
X274072505Y-86669685D01*
X274109187Y-86645175D01*
X274146371Y-86620329D01*
X274146373Y-86620328D01*
X274228448Y-86586331D01*
X274315579Y-86569000D01*
X274404421Y-86569000D01*
X274491552Y-86586331D01*
X274491552Y-86586331D01*
G37*
G36*
X274491552Y-85336331D02*
G01*
X274573627Y-85370328D01*
X274573629Y-85370329D01*
X274610813Y-85395175D01*
X274647495Y-85419685D01*
X274710315Y-85482505D01*
X274759672Y-85556373D01*
X274793669Y-85638448D01*
X274811000Y-85725579D01*
X274811000Y-85814421D01*
X274793669Y-85901552D01*
X274759672Y-85983627D01*
X274759671Y-85983629D01*
X274710314Y-86057496D01*
X274647496Y-86120314D01*
X274573629Y-86169671D01*
X274573628Y-86169672D01*
X274573627Y-86169672D01*
X274491552Y-86203669D01*
X274404421Y-86221000D01*
X274315579Y-86221000D01*
X274228448Y-86203669D01*
X274146373Y-86169672D01*
X274146372Y-86169672D01*
X274146371Y-86169671D01*
X274072504Y-86120314D01*
X274009686Y-86057496D01*
X273960329Y-85983629D01*
X273960328Y-85983627D01*
X273926331Y-85901552D01*
X273909000Y-85814421D01*
X273909000Y-85725579D01*
X273926331Y-85638448D01*
X273960328Y-85556373D01*
X274009685Y-85482505D01*
X274072505Y-85419685D01*
X274109187Y-85395175D01*
X274146371Y-85370329D01*
X274146373Y-85370328D01*
X274228448Y-85336331D01*
X274315579Y-85319000D01*
X274404421Y-85319000D01*
X274491552Y-85336331D01*
X274491552Y-85336331D01*
G37*
G36*
X274491552Y-84086331D02*
G01*
X274573627Y-84120328D01*
X274573629Y-84120329D01*
X274610813Y-84145175D01*
X274647495Y-84169685D01*
X274710315Y-84232505D01*
X274759672Y-84306373D01*
X274793669Y-84388448D01*
X274811000Y-84475579D01*
X274811000Y-84564421D01*
X274793669Y-84651552D01*
X274759672Y-84733627D01*
X274759671Y-84733629D01*
X274710314Y-84807496D01*
X274647496Y-84870314D01*
X274573629Y-84919671D01*
X274573628Y-84919672D01*
X274573627Y-84919672D01*
X274491552Y-84953669D01*
X274404421Y-84971000D01*
X274315579Y-84971000D01*
X274228448Y-84953669D01*
X274146373Y-84919672D01*
X274146372Y-84919672D01*
X274146371Y-84919671D01*
X274072504Y-84870314D01*
X274009686Y-84807496D01*
X273960329Y-84733629D01*
X273960328Y-84733627D01*
X273926331Y-84651552D01*
X273909000Y-84564421D01*
X273909000Y-84475579D01*
X273926331Y-84388448D01*
X273960328Y-84306373D01*
X274009685Y-84232505D01*
X274072505Y-84169685D01*
X274109187Y-84145175D01*
X274146371Y-84120329D01*
X274146373Y-84120328D01*
X274228448Y-84086331D01*
X274315579Y-84069000D01*
X274404421Y-84069000D01*
X274491552Y-84086331D01*
X274491552Y-84086331D01*
G37*
G36*
X274491552Y-75026331D02*
G01*
X274573627Y-75060328D01*
X274573629Y-75060329D01*
X274610813Y-75085175D01*
X274647495Y-75109685D01*
X274710315Y-75172505D01*
X274759672Y-75246373D01*
X274793669Y-75328448D01*
X274811000Y-75415579D01*
X274811000Y-75504421D01*
X274793669Y-75591552D01*
X274759672Y-75673627D01*
X274759671Y-75673629D01*
X274710314Y-75747496D01*
X274647496Y-75810314D01*
X274573629Y-75859671D01*
X274573628Y-75859672D01*
X274573627Y-75859672D01*
X274491552Y-75893669D01*
X274404421Y-75911000D01*
X274315579Y-75911000D01*
X274228448Y-75893669D01*
X274146373Y-75859672D01*
X274146372Y-75859672D01*
X274146371Y-75859671D01*
X274072504Y-75810314D01*
X274009686Y-75747496D01*
X273960329Y-75673629D01*
X273960328Y-75673627D01*
X273926331Y-75591552D01*
X273909000Y-75504421D01*
X273909000Y-75415579D01*
X273926331Y-75328448D01*
X273960328Y-75246373D01*
X274009685Y-75172505D01*
X274072505Y-75109685D01*
X274109187Y-75085175D01*
X274146371Y-75060329D01*
X274146373Y-75060328D01*
X274228448Y-75026331D01*
X274315579Y-75009000D01*
X274404421Y-75009000D01*
X274491552Y-75026331D01*
X274491552Y-75026331D01*
G37*
G36*
X65885331Y-71228211D02*
G01*
X66213092Y-71363974D01*
X66508070Y-71561072D01*
X66758928Y-71811930D01*
X66956026Y-72106908D01*
X67091789Y-72434669D01*
X67161000Y-72782616D01*
X67161000Y-73137384D01*
X67091789Y-73485331D01*
X66956026Y-73813092D01*
X66758928Y-74108070D01*
X66508070Y-74358928D01*
X66213092Y-74556026D01*
X65885331Y-74691789D01*
X65537384Y-74761000D01*
X65182616Y-74761000D01*
X64834669Y-74691789D01*
X64506908Y-74556026D01*
X64211930Y-74358928D01*
X63961072Y-74108070D01*
X63763974Y-73813092D01*
X63628211Y-73485331D01*
X63559000Y-73137384D01*
X63559000Y-72782616D01*
X63628211Y-72434669D01*
X63763974Y-72106908D01*
X63961072Y-71811930D01*
X64211930Y-71561072D01*
X64506908Y-71363974D01*
X64834669Y-71228211D01*
X65182616Y-71159000D01*
X65537384Y-71159000D01*
X65885331Y-71228211D01*
X65885331Y-71228211D01*
G37*
G36*
X255885331Y-71228211D02*
G01*
X256213092Y-71363974D01*
X256508070Y-71561072D01*
X256758928Y-71811930D01*
X256956026Y-72106908D01*
X257091789Y-72434669D01*
X257161000Y-72782616D01*
X257161000Y-73137384D01*
X257091789Y-73485331D01*
X256956026Y-73813092D01*
X256758928Y-74108070D01*
X256508070Y-74358928D01*
X256213092Y-74556026D01*
X255885331Y-74691789D01*
X255537384Y-74761000D01*
X255182616Y-74761000D01*
X254834669Y-74691789D01*
X254506908Y-74556026D01*
X254211930Y-74358928D01*
X253961072Y-74108070D01*
X253763974Y-73813092D01*
X253628211Y-73485331D01*
X253559000Y-73137384D01*
X253559000Y-72782616D01*
X253628211Y-72434669D01*
X253763974Y-72106908D01*
X253961072Y-71811930D01*
X254211930Y-71561072D01*
X254506908Y-71363974D01*
X254834669Y-71228211D01*
X255182616Y-71159000D01*
X255537384Y-71159000D01*
X255885331Y-71228211D01*
X255885331Y-71228211D01*
G37*
G36*
X274491552Y-73776331D02*
G01*
X274573627Y-73810328D01*
X274573629Y-73810329D01*
X274610813Y-73835175D01*
X274647495Y-73859685D01*
X274710315Y-73922505D01*
X274759672Y-73996373D01*
X274793669Y-74078448D01*
X274811000Y-74165579D01*
X274811000Y-74254421D01*
X274793669Y-74341552D01*
X274759672Y-74423627D01*
X274759671Y-74423629D01*
X274710314Y-74497496D01*
X274647496Y-74560314D01*
X274573629Y-74609671D01*
X274573628Y-74609672D01*
X274573627Y-74609672D01*
X274491552Y-74643669D01*
X274404421Y-74661000D01*
X274315579Y-74661000D01*
X274228448Y-74643669D01*
X274146373Y-74609672D01*
X274146372Y-74609672D01*
X274146371Y-74609671D01*
X274072504Y-74560314D01*
X274009686Y-74497496D01*
X273960329Y-74423629D01*
X273960328Y-74423627D01*
X273926331Y-74341552D01*
X273909000Y-74254421D01*
X273909000Y-74165579D01*
X273926331Y-74078448D01*
X273960328Y-73996373D01*
X274009685Y-73922505D01*
X274072505Y-73859685D01*
X274109187Y-73835175D01*
X274146371Y-73810329D01*
X274146373Y-73810328D01*
X274228448Y-73776331D01*
X274315579Y-73759000D01*
X274404421Y-73759000D01*
X274491552Y-73776331D01*
X274491552Y-73776331D01*
G37*
G36*
X274491552Y-72526331D02*
G01*
X274573627Y-72560328D01*
X274573629Y-72560329D01*
X274610813Y-72585175D01*
X274647495Y-72609685D01*
X274710315Y-72672505D01*
X274759672Y-72746373D01*
X274793669Y-72828448D01*
X274811000Y-72915579D01*
X274811000Y-73004421D01*
X274793669Y-73091552D01*
X274759672Y-73173627D01*
X274759671Y-73173629D01*
X274710314Y-73247496D01*
X274647496Y-73310314D01*
X274573629Y-73359671D01*
X274573628Y-73359672D01*
X274573627Y-73359672D01*
X274491552Y-73393669D01*
X274404421Y-73411000D01*
X274315579Y-73411000D01*
X274228448Y-73393669D01*
X274146373Y-73359672D01*
X274146372Y-73359672D01*
X274146371Y-73359671D01*
X274072504Y-73310314D01*
X274009686Y-73247496D01*
X273960329Y-73173629D01*
X273960328Y-73173627D01*
X273926331Y-73091552D01*
X273909000Y-73004421D01*
X273909000Y-72915579D01*
X273926331Y-72828448D01*
X273960328Y-72746373D01*
X274009685Y-72672505D01*
X274072505Y-72609685D01*
X274109187Y-72585175D01*
X274146371Y-72560329D01*
X274146373Y-72560328D01*
X274228448Y-72526331D01*
X274315579Y-72509000D01*
X274404421Y-72509000D01*
X274491552Y-72526331D01*
X274491552Y-72526331D01*
G37*
G36*
X274491552Y-71276331D02*
G01*
X274573627Y-71310328D01*
X274573629Y-71310329D01*
X274610813Y-71335175D01*
X274647495Y-71359685D01*
X274710315Y-71422505D01*
X274759672Y-71496373D01*
X274793669Y-71578448D01*
X274811000Y-71665579D01*
X274811000Y-71754421D01*
X274793669Y-71841552D01*
X274759672Y-71923627D01*
X274759671Y-71923629D01*
X274710314Y-71997496D01*
X274647496Y-72060314D01*
X274573629Y-72109671D01*
X274573628Y-72109672D01*
X274573627Y-72109672D01*
X274491552Y-72143669D01*
X274404421Y-72161000D01*
X274315579Y-72161000D01*
X274228448Y-72143669D01*
X274146373Y-72109672D01*
X274146372Y-72109672D01*
X274146371Y-72109671D01*
X274072504Y-72060314D01*
X274009686Y-71997496D01*
X273960329Y-71923629D01*
X273960328Y-71923627D01*
X273926331Y-71841552D01*
X273909000Y-71754421D01*
X273909000Y-71665579D01*
X273926331Y-71578448D01*
X273960328Y-71496373D01*
X274009685Y-71422505D01*
X274072505Y-71359685D01*
X274109187Y-71335175D01*
X274146371Y-71310329D01*
X274146373Y-71310328D01*
X274228448Y-71276331D01*
X274315579Y-71259000D01*
X274404421Y-71259000D01*
X274491552Y-71276331D01*
X274491552Y-71276331D01*
G37*
G36*
X274491552Y-70026331D02*
G01*
X274573627Y-70060328D01*
X274573629Y-70060329D01*
X274610813Y-70085175D01*
X274647495Y-70109685D01*
X274710315Y-70172505D01*
X274759672Y-70246373D01*
X274793669Y-70328448D01*
X274811000Y-70415579D01*
X274811000Y-70504421D01*
X274793669Y-70591552D01*
X274759672Y-70673627D01*
X274759671Y-70673629D01*
X274710314Y-70747496D01*
X274647496Y-70810314D01*
X274573629Y-70859671D01*
X274573628Y-70859672D01*
X274573627Y-70859672D01*
X274491552Y-70893669D01*
X274404421Y-70911000D01*
X274315579Y-70911000D01*
X274228448Y-70893669D01*
X274146373Y-70859672D01*
X274146372Y-70859672D01*
X274146371Y-70859671D01*
X274072504Y-70810314D01*
X274009686Y-70747496D01*
X273960329Y-70673629D01*
X273960328Y-70673627D01*
X273926331Y-70591552D01*
X273909000Y-70504421D01*
X273909000Y-70415579D01*
X273926331Y-70328448D01*
X273960328Y-70246373D01*
X274009685Y-70172505D01*
X274072505Y-70109685D01*
X274109187Y-70085175D01*
X274146371Y-70060329D01*
X274146373Y-70060328D01*
X274228448Y-70026331D01*
X274315579Y-70009000D01*
X274404421Y-70009000D01*
X274491552Y-70026331D01*
X274491552Y-70026331D01*
G37*
G36*
X274491552Y-60966331D02*
G01*
X274573627Y-61000328D01*
X274573629Y-61000329D01*
X274610813Y-61025175D01*
X274647495Y-61049685D01*
X274710315Y-61112505D01*
X274759672Y-61186373D01*
X274793669Y-61268448D01*
X274811000Y-61355579D01*
X274811000Y-61444421D01*
X274793669Y-61531552D01*
X274759672Y-61613627D01*
X274759671Y-61613629D01*
X274710314Y-61687496D01*
X274647496Y-61750314D01*
X274573629Y-61799671D01*
X274573628Y-61799672D01*
X274573627Y-61799672D01*
X274491552Y-61833669D01*
X274404421Y-61851000D01*
X274315579Y-61851000D01*
X274228448Y-61833669D01*
X274146373Y-61799672D01*
X274146372Y-61799672D01*
X274146371Y-61799671D01*
X274072504Y-61750314D01*
X274009686Y-61687496D01*
X273960329Y-61613629D01*
X273960328Y-61613627D01*
X273926331Y-61531552D01*
X273909000Y-61444421D01*
X273909000Y-61355579D01*
X273926331Y-61268448D01*
X273960328Y-61186373D01*
X274009685Y-61112505D01*
X274072505Y-61049685D01*
X274109187Y-61025175D01*
X274146371Y-61000329D01*
X274146373Y-61000328D01*
X274228448Y-60966331D01*
X274315579Y-60949000D01*
X274404421Y-60949000D01*
X274491552Y-60966331D01*
X274491552Y-60966331D01*
G37*
G36*
X274491552Y-59716331D02*
G01*
X274573627Y-59750328D01*
X274573629Y-59750329D01*
X274610813Y-59775175D01*
X274647495Y-59799685D01*
X274710315Y-59862505D01*
X274759672Y-59936373D01*
X274793669Y-60018448D01*
X274811000Y-60105579D01*
X274811000Y-60194421D01*
X274793669Y-60281552D01*
X274759672Y-60363627D01*
X274759671Y-60363629D01*
X274710314Y-60437496D01*
X274647496Y-60500314D01*
X274573629Y-60549671D01*
X274573628Y-60549672D01*
X274573627Y-60549672D01*
X274491552Y-60583669D01*
X274404421Y-60601000D01*
X274315579Y-60601000D01*
X274228448Y-60583669D01*
X274146373Y-60549672D01*
X274146372Y-60549672D01*
X274146371Y-60549671D01*
X274072504Y-60500314D01*
X274009686Y-60437496D01*
X273960329Y-60363629D01*
X273960328Y-60363627D01*
X273926331Y-60281552D01*
X273909000Y-60194421D01*
X273909000Y-60105579D01*
X273926331Y-60018448D01*
X273960328Y-59936373D01*
X274009685Y-59862505D01*
X274072505Y-59799685D01*
X274109187Y-59775175D01*
X274146371Y-59750329D01*
X274146373Y-59750328D01*
X274228448Y-59716331D01*
X274315579Y-59699000D01*
X274404421Y-59699000D01*
X274491552Y-59716331D01*
X274491552Y-59716331D01*
G37*
G36*
X274491552Y-58466331D02*
G01*
X274573627Y-58500328D01*
X274573629Y-58500329D01*
X274610813Y-58525175D01*
X274647495Y-58549685D01*
X274710315Y-58612505D01*
X274759672Y-58686373D01*
X274793669Y-58768448D01*
X274811000Y-58855579D01*
X274811000Y-58944421D01*
X274793669Y-59031552D01*
X274759672Y-59113627D01*
X274759671Y-59113629D01*
X274710314Y-59187496D01*
X274647496Y-59250314D01*
X274573629Y-59299671D01*
X274573628Y-59299672D01*
X274573627Y-59299672D01*
X274491552Y-59333669D01*
X274404421Y-59351000D01*
X274315579Y-59351000D01*
X274228448Y-59333669D01*
X274146373Y-59299672D01*
X274146372Y-59299672D01*
X274146371Y-59299671D01*
X274072504Y-59250314D01*
X274009686Y-59187496D01*
X273960329Y-59113629D01*
X273960328Y-59113627D01*
X273926331Y-59031552D01*
X273909000Y-58944421D01*
X273909000Y-58855579D01*
X273926331Y-58768448D01*
X273960328Y-58686373D01*
X274009685Y-58612505D01*
X274072505Y-58549685D01*
X274109187Y-58525175D01*
X274146371Y-58500329D01*
X274146373Y-58500328D01*
X274228448Y-58466331D01*
X274315579Y-58449000D01*
X274404421Y-58449000D01*
X274491552Y-58466331D01*
X274491552Y-58466331D01*
G37*
G36*
X274491552Y-57216331D02*
G01*
X274573627Y-57250328D01*
X274573629Y-57250329D01*
X274610813Y-57275175D01*
X274647495Y-57299685D01*
X274710315Y-57362505D01*
X274759672Y-57436373D01*
X274793669Y-57518448D01*
X274811000Y-57605579D01*
X274811000Y-57694421D01*
X274793669Y-57781552D01*
X274759672Y-57863627D01*
X274759671Y-57863629D01*
X274710314Y-57937496D01*
X274647496Y-58000314D01*
X274573629Y-58049671D01*
X274573628Y-58049672D01*
X274573627Y-58049672D01*
X274491552Y-58083669D01*
X274404421Y-58101000D01*
X274315579Y-58101000D01*
X274228448Y-58083669D01*
X274146373Y-58049672D01*
X274146372Y-58049672D01*
X274146371Y-58049671D01*
X274072504Y-58000314D01*
X274009686Y-57937496D01*
X273960329Y-57863629D01*
X273960328Y-57863627D01*
X273926331Y-57781552D01*
X273909000Y-57694421D01*
X273909000Y-57605579D01*
X273926331Y-57518448D01*
X273960328Y-57436373D01*
X274009685Y-57362505D01*
X274072505Y-57299685D01*
X274109187Y-57275175D01*
X274146371Y-57250329D01*
X274146373Y-57250328D01*
X274228448Y-57216331D01*
X274315579Y-57199000D01*
X274404421Y-57199000D01*
X274491552Y-57216331D01*
X274491552Y-57216331D01*
G37*
G36*
X274491552Y-55966331D02*
G01*
X274573627Y-56000328D01*
X274573629Y-56000329D01*
X274610813Y-56025175D01*
X274647495Y-56049685D01*
X274710315Y-56112505D01*
X274759672Y-56186373D01*
X274793669Y-56268448D01*
X274811000Y-56355579D01*
X274811000Y-56444421D01*
X274793669Y-56531552D01*
X274759672Y-56613627D01*
X274759671Y-56613629D01*
X274710314Y-56687496D01*
X274647496Y-56750314D01*
X274573629Y-56799671D01*
X274573628Y-56799672D01*
X274573627Y-56799672D01*
X274491552Y-56833669D01*
X274404421Y-56851000D01*
X274315579Y-56851000D01*
X274228448Y-56833669D01*
X274146373Y-56799672D01*
X274146372Y-56799672D01*
X274146371Y-56799671D01*
X274072504Y-56750314D01*
X274009686Y-56687496D01*
X273960329Y-56613629D01*
X273960328Y-56613627D01*
X273926331Y-56531552D01*
X273909000Y-56444421D01*
X273909000Y-56355579D01*
X273926331Y-56268448D01*
X273960328Y-56186373D01*
X274009685Y-56112505D01*
X274072505Y-56049685D01*
X274109187Y-56025175D01*
X274146371Y-56000329D01*
X274146373Y-56000328D01*
X274228448Y-55966331D01*
X274315579Y-55949000D01*
X274404421Y-55949000D01*
X274491552Y-55966331D01*
X274491552Y-55966331D01*
G37*
G36*
X103885331Y-52243211D02*
G01*
X104213092Y-52378974D01*
X104508070Y-52576072D01*
X104758928Y-52826930D01*
X104956026Y-53121908D01*
X105091789Y-53449669D01*
X105161000Y-53797616D01*
X105161000Y-54152384D01*
X105091789Y-54500331D01*
X104956026Y-54828092D01*
X104758928Y-55123070D01*
X104508070Y-55373928D01*
X104213092Y-55571026D01*
X103885331Y-55706789D01*
X103537384Y-55776000D01*
X103182616Y-55776000D01*
X102834669Y-55706789D01*
X102506908Y-55571026D01*
X102211930Y-55373928D01*
X101961072Y-55123070D01*
X101763974Y-54828092D01*
X101628211Y-54500331D01*
X101559000Y-54152384D01*
X101559000Y-53797616D01*
X101628211Y-53449669D01*
X101763974Y-53121908D01*
X101961072Y-52826930D01*
X102211930Y-52576072D01*
X102506908Y-52378974D01*
X102834669Y-52243211D01*
X103182616Y-52174000D01*
X103537384Y-52174000D01*
X103885331Y-52243211D01*
X103885331Y-52243211D01*
G37*
G36*
X341765331Y-52228211D02*
G01*
X342093092Y-52363974D01*
X342388070Y-52561072D01*
X342638928Y-52811930D01*
X342836026Y-53106908D01*
X342971789Y-53434669D01*
X343041000Y-53782616D01*
X343041000Y-54137384D01*
X342971789Y-54485331D01*
X342836026Y-54813092D01*
X342638928Y-55108070D01*
X342388070Y-55358928D01*
X342093092Y-55556026D01*
X341765331Y-55691789D01*
X341417384Y-55761000D01*
X341062616Y-55761000D01*
X340714669Y-55691789D01*
X340386908Y-55556026D01*
X340091930Y-55358928D01*
X339841072Y-55108070D01*
X339643974Y-54813092D01*
X339508211Y-54485331D01*
X339439000Y-54137384D01*
X339439000Y-53782616D01*
X339508211Y-53434669D01*
X339643974Y-53106908D01*
X339841072Y-52811930D01*
X340091930Y-52561072D01*
X340386908Y-52363974D01*
X340714669Y-52228211D01*
X341062616Y-52159000D01*
X341417384Y-52159000D01*
X341765331Y-52228211D01*
X341765331Y-52228211D01*
G37*
G36*
X303765331Y-52228211D02*
G01*
X304093092Y-52363974D01*
X304388070Y-52561072D01*
X304638928Y-52811930D01*
X304836026Y-53106908D01*
X304971789Y-53434669D01*
X305041000Y-53782616D01*
X305041000Y-54137384D01*
X304971789Y-54485331D01*
X304836026Y-54813092D01*
X304638928Y-55108070D01*
X304388070Y-55358928D01*
X304093092Y-55556026D01*
X303765331Y-55691789D01*
X303417384Y-55761000D01*
X303062616Y-55761000D01*
X302714669Y-55691789D01*
X302386908Y-55556026D01*
X302091930Y-55358928D01*
X301841072Y-55108070D01*
X301643974Y-54813092D01*
X301508211Y-54485331D01*
X301439000Y-54137384D01*
X301439000Y-53782616D01*
X301508211Y-53434669D01*
X301643974Y-53106908D01*
X301841072Y-52811930D01*
X302091930Y-52561072D01*
X302386908Y-52363974D01*
X302714669Y-52228211D01*
X303062616Y-52159000D01*
X303417384Y-52159000D01*
X303765331Y-52228211D01*
X303765331Y-52228211D01*
G37*
G36*
X217885331Y-52228211D02*
G01*
X218213092Y-52363974D01*
X218508070Y-52561072D01*
X218758928Y-52811930D01*
X218956026Y-53106908D01*
X219091789Y-53434669D01*
X219161000Y-53782616D01*
X219161000Y-54137384D01*
X219091789Y-54485331D01*
X218956026Y-54813092D01*
X218758928Y-55108070D01*
X218508070Y-55358928D01*
X218213092Y-55556026D01*
X217885331Y-55691789D01*
X217537384Y-55761000D01*
X217182616Y-55761000D01*
X216834669Y-55691789D01*
X216506908Y-55556026D01*
X216211930Y-55358928D01*
X215961072Y-55108070D01*
X215763974Y-54813092D01*
X215628211Y-54485331D01*
X215559000Y-54137384D01*
X215559000Y-53782616D01*
X215628211Y-53434669D01*
X215763974Y-53106908D01*
X215961072Y-52811930D01*
X216211930Y-52561072D01*
X216506908Y-52363974D01*
X216834669Y-52228211D01*
X217182616Y-52159000D01*
X217537384Y-52159000D01*
X217885331Y-52228211D01*
X217885331Y-52228211D01*
G37*
G36*
X274491552Y-46526331D02*
G01*
X274573627Y-46560328D01*
X274573629Y-46560329D01*
X274610813Y-46585175D01*
X274647495Y-46609685D01*
X274710315Y-46672505D01*
X274759672Y-46746373D01*
X274793669Y-46828448D01*
X274811000Y-46915579D01*
X274811000Y-47004421D01*
X274793669Y-47091552D01*
X274759672Y-47173627D01*
X274759671Y-47173629D01*
X274710314Y-47247496D01*
X274647496Y-47310314D01*
X274573629Y-47359671D01*
X274573628Y-47359672D01*
X274573627Y-47359672D01*
X274491552Y-47393669D01*
X274404421Y-47411000D01*
X274315579Y-47411000D01*
X274228448Y-47393669D01*
X274146373Y-47359672D01*
X274146372Y-47359672D01*
X274146371Y-47359671D01*
X274072504Y-47310314D01*
X274009686Y-47247496D01*
X273960329Y-47173629D01*
X273960328Y-47173627D01*
X273926331Y-47091552D01*
X273909000Y-47004421D01*
X273909000Y-46915579D01*
X273926331Y-46828448D01*
X273960328Y-46746373D01*
X274009685Y-46672505D01*
X274072505Y-46609685D01*
X274109187Y-46585175D01*
X274146371Y-46560329D01*
X274146373Y-46560328D01*
X274228448Y-46526331D01*
X274315579Y-46509000D01*
X274404421Y-46509000D01*
X274491552Y-46526331D01*
X274491552Y-46526331D01*
G37*
G36*
X274491552Y-45276331D02*
G01*
X274573627Y-45310328D01*
X274573629Y-45310329D01*
X274610813Y-45335175D01*
X274647495Y-45359685D01*
X274710315Y-45422505D01*
X274759672Y-45496373D01*
X274793669Y-45578448D01*
X274811000Y-45665579D01*
X274811000Y-45754421D01*
X274793669Y-45841552D01*
X274759672Y-45923627D01*
X274759671Y-45923629D01*
X274710314Y-45997496D01*
X274647496Y-46060314D01*
X274573629Y-46109671D01*
X274573628Y-46109672D01*
X274573627Y-46109672D01*
X274491552Y-46143669D01*
X274404421Y-46161000D01*
X274315579Y-46161000D01*
X274228448Y-46143669D01*
X274146373Y-46109672D01*
X274146372Y-46109672D01*
X274146371Y-46109671D01*
X274072504Y-46060314D01*
X274009686Y-45997496D01*
X273960329Y-45923629D01*
X273960328Y-45923627D01*
X273926331Y-45841552D01*
X273909000Y-45754421D01*
X273909000Y-45665579D01*
X273926331Y-45578448D01*
X273960328Y-45496373D01*
X274009685Y-45422505D01*
X274072505Y-45359685D01*
X274109187Y-45335175D01*
X274146371Y-45310329D01*
X274146373Y-45310328D01*
X274228448Y-45276331D01*
X274315579Y-45259000D01*
X274404421Y-45259000D01*
X274491552Y-45276331D01*
X274491552Y-45276331D01*
G37*
G36*
X274491552Y-44026331D02*
G01*
X274573627Y-44060328D01*
X274573629Y-44060329D01*
X274610813Y-44085175D01*
X274647495Y-44109685D01*
X274710315Y-44172505D01*
X274759672Y-44246373D01*
X274793669Y-44328448D01*
X274811000Y-44415579D01*
X274811000Y-44504421D01*
X274793669Y-44591552D01*
X274759672Y-44673627D01*
X274759671Y-44673629D01*
X274710314Y-44747496D01*
X274647496Y-44810314D01*
X274573629Y-44859671D01*
X274573628Y-44859672D01*
X274573627Y-44859672D01*
X274491552Y-44893669D01*
X274404421Y-44911000D01*
X274315579Y-44911000D01*
X274228448Y-44893669D01*
X274146373Y-44859672D01*
X274146372Y-44859672D01*
X274146371Y-44859671D01*
X274072504Y-44810314D01*
X274009686Y-44747496D01*
X273960329Y-44673629D01*
X273960328Y-44673627D01*
X273926331Y-44591552D01*
X273909000Y-44504421D01*
X273909000Y-44415579D01*
X273926331Y-44328448D01*
X273960328Y-44246373D01*
X274009685Y-44172505D01*
X274072505Y-44109685D01*
X274109187Y-44085175D01*
X274146371Y-44060329D01*
X274146373Y-44060328D01*
X274228448Y-44026331D01*
X274315579Y-44009000D01*
X274404421Y-44009000D01*
X274491552Y-44026331D01*
X274491552Y-44026331D01*
G37*
G36*
X274491552Y-42776331D02*
G01*
X274573627Y-42810328D01*
X274573629Y-42810329D01*
X274610813Y-42835175D01*
X274647495Y-42859685D01*
X274710315Y-42922505D01*
X274759672Y-42996373D01*
X274793669Y-43078448D01*
X274811000Y-43165579D01*
X274811000Y-43254421D01*
X274793669Y-43341552D01*
X274759672Y-43423627D01*
X274759671Y-43423629D01*
X274710314Y-43497496D01*
X274647496Y-43560314D01*
X274573629Y-43609671D01*
X274573628Y-43609672D01*
X274573627Y-43609672D01*
X274491552Y-43643669D01*
X274404421Y-43661000D01*
X274315579Y-43661000D01*
X274228448Y-43643669D01*
X274146373Y-43609672D01*
X274146372Y-43609672D01*
X274146371Y-43609671D01*
X274072504Y-43560314D01*
X274009686Y-43497496D01*
X273960329Y-43423629D01*
X273960328Y-43423627D01*
X273926331Y-43341552D01*
X273909000Y-43254421D01*
X273909000Y-43165579D01*
X273926331Y-43078448D01*
X273960328Y-42996373D01*
X274009685Y-42922505D01*
X274072505Y-42859685D01*
X274109187Y-42835175D01*
X274146371Y-42810329D01*
X274146373Y-42810328D01*
X274228448Y-42776331D01*
X274315579Y-42759000D01*
X274404421Y-42759000D01*
X274491552Y-42776331D01*
X274491552Y-42776331D01*
G37*
G36*
X274491552Y-41526331D02*
G01*
X274573627Y-41560328D01*
X274573629Y-41560329D01*
X274610813Y-41585175D01*
X274647495Y-41609685D01*
X274710315Y-41672505D01*
X274759672Y-41746373D01*
X274793669Y-41828448D01*
X274811000Y-41915579D01*
X274811000Y-42004421D01*
X274793669Y-42091552D01*
X274759672Y-42173627D01*
X274759671Y-42173629D01*
X274710314Y-42247496D01*
X274647496Y-42310314D01*
X274573629Y-42359671D01*
X274573628Y-42359672D01*
X274573627Y-42359672D01*
X274491552Y-42393669D01*
X274404421Y-42411000D01*
X274315579Y-42411000D01*
X274228448Y-42393669D01*
X274146373Y-42359672D01*
X274146372Y-42359672D01*
X274146371Y-42359671D01*
X274072504Y-42310314D01*
X274009686Y-42247496D01*
X273960329Y-42173629D01*
X273960328Y-42173627D01*
X273926331Y-42091552D01*
X273909000Y-42004421D01*
X273909000Y-41915579D01*
X273926331Y-41828448D01*
X273960328Y-41746373D01*
X274009685Y-41672505D01*
X274072505Y-41609685D01*
X274109187Y-41585175D01*
X274146371Y-41560329D01*
X274146373Y-41560328D01*
X274228448Y-41526331D01*
X274315579Y-41509000D01*
X274404421Y-41509000D01*
X274491552Y-41526331D01*
X274491552Y-41526331D01*
G37*
M02*
