G04 #@! TF.GenerationSoftware,KiCad,Pcbnew,(5.1.2-1)-1*
G04 #@! TF.CreationDate,2020-05-23T14:35:28-05:00*
G04 #@! TF.ProjectId,therick48.16_bottom_plate,74686572-6963-46b3-9438-2e31365f626f,rev?*
G04 #@! TF.SameCoordinates,Original*
G04 #@! TF.FileFunction,Profile,NP*
%FSLAX46Y46*%
G04 Gerber Fmt 4.6, Leading zero omitted, Abs format (unit mm)*
G04 Created by KiCad (PCBNEW (5.1.2-1)-1) date 2020-05-23 14:35:28*
%MOMM*%
%LPD*%
G04 APERTURE LIST*
%ADD10C,0.150000*%
G04 APERTURE END LIST*
D10*
X274360000Y-105640000D02*
G75*
G02X276640000Y-105640000I1140000J0D01*
G01*
X276640000Y-97280000D02*
G75*
G02X274360000Y-97280000I-1140000J0D01*
G01*
X274360000Y-91200000D02*
G75*
G02X276640000Y-91200000I1140000J0D01*
G01*
X276640000Y-82840000D02*
G75*
G02X274360000Y-82840000I-1140000J0D01*
G01*
X274360000Y-77140000D02*
G75*
G02X276640000Y-77140000I1140000J0D01*
G01*
X276640000Y-68780000D02*
G75*
G02X274360000Y-68780000I-1140000J0D01*
G01*
X274360000Y-63080000D02*
G75*
G02X276640000Y-63080000I1140000J0D01*
G01*
X276640000Y-54720000D02*
G75*
G02X274360000Y-54720000I-1140000J0D01*
G01*
X274360000Y-48640000D02*
G75*
G02X276640000Y-48640000I1140000J0D01*
G01*
X276640000Y-40280000D02*
G75*
G02X274360000Y-40280000I-1140000J0D01*
G01*
X276640000Y-63080000D02*
X276640000Y-68780000D01*
X274360000Y-63080000D02*
X274360000Y-68780000D01*
X276640000Y-48640000D02*
X276640000Y-54720000D01*
X274360000Y-48640000D02*
X274360000Y-54720000D01*
X274360000Y-38760000D02*
X274360000Y-40280000D01*
X276640000Y-38760000D02*
X276640000Y-40280000D01*
X276640000Y-91200000D02*
X276640000Y-97280000D01*
X274360000Y-91200000D02*
X274360000Y-97280000D01*
X276640000Y-77140000D02*
X276640000Y-82840000D01*
X274360000Y-77140000D02*
X274360000Y-82840000D01*
X276640000Y-105640000D02*
X276640000Y-107160000D01*
X274360000Y-105640000D02*
X274360000Y-107160000D01*
X353020000Y-34960000D02*
X280440000Y-34960000D01*
X356820000Y-107160000D02*
X356820000Y-38760000D01*
X280440000Y-110960000D02*
X353020000Y-110960000D01*
X280440000Y-110960000D02*
G75*
G02X276640000Y-107160000I0J3800000D01*
G01*
X276640000Y-38760000D02*
G75*
G02X280440000Y-34960000I3800000J0D01*
G01*
X353020000Y-34960000D02*
G75*
G02X356820000Y-38760000I0J-3800000D01*
G01*
X356820000Y-107160000D02*
G75*
G02X353020000Y-110960000I-3800000J0D01*
G01*
X89300000Y-41419891D02*
X89300000Y-34960000D01*
X79419765Y-41419891D02*
X89299765Y-41419891D01*
X79420000Y-34960000D02*
X79419765Y-41419891D01*
X50160000Y-110960000D02*
X270560000Y-110960000D01*
X46360000Y-38760000D02*
X46360000Y-107160000D01*
X50160000Y-34960000D02*
X79420000Y-34960000D01*
X270560000Y-34960000D02*
X89300000Y-34960000D01*
X270560000Y-34960000D02*
G75*
G02X274360000Y-38760000I0J-3800000D01*
G01*
X274360000Y-107160000D02*
G75*
G02X270560000Y-110960000I-3800000J0D01*
G01*
X50160000Y-110960000D02*
G75*
G02X46360000Y-107160000I0J3800000D01*
G01*
X46360000Y-38760000D02*
G75*
G02X50160000Y-34960000I3800000J0D01*
G01*
M02*
