M48
METRIC
T1C0.800
%
G90
G05
T1
X274.36Y-98.96
X274.36Y-100.21
X274.36Y-101.46
X274.36Y-102.71
X274.36Y-103.96
X274.36Y-84.52
X274.36Y-85.77
X274.36Y-87.02
X274.36Y-88.27
X274.36Y-89.52
X274.36Y-70.46
X274.36Y-71.71
X274.36Y-72.96
X274.36Y-74.21
X274.36Y-75.46
X274.36Y-56.4
X274.36Y-57.65
X274.36Y-58.9
X274.36Y-60.15
X274.36Y-61.4
X274.36Y-41.96
X274.36Y-43.21
X274.36Y-44.46
X274.36Y-45.71
X274.36Y-46.96
T0
M30
