M48
METRIC
T1C0.250
T2C0.600
T3C1.067
T4C1.525
T5C2.200
%
G90
G05
T1
X66.548Y-94.615
X66.548Y-95.377
X66.548Y-96.139
X66.548Y-96.901
X68.072Y-42.164
X76.427Y-72.925
X76.454Y-72.136
X76.454Y-73.66
X76.454Y-74.549
X78.947Y-60.659
X78.994Y-41.148
X80.391Y-61.595
X81.737Y-67.106
X82.537Y-65.925
X82.55Y-41.148
X83.331Y-67.025
X84.131Y-67.025
X84.931Y-67.025
X85.731Y-67.025
X86.233Y-41.148
X87.63Y-59.055
X89.281Y-41.148
X91.837Y-70.525
X93.472Y-40.132
X94.461Y-68.863
X96.313Y-60.659
X96.71Y-51.371
X98.737Y-70.025
X98.737Y-70.825
X98.737Y-71.625
X98.737Y-72.425
X98.737Y-73.225
X103.124Y-74.803
X108.394Y-52.196
T3
X122.034Y-50.562
X122.034Y-55.642
X122.034Y-60.722
X122.441Y-48.022
X122.441Y-53.102
X122.441Y-58.182
T4
X167.297Y-87.643
X173.647Y-85.103
X329.222Y-49.543
X335.572Y-47.003
X262.547Y-49.543
X268.897Y-47.003
X224.447Y-106.693
X230.797Y-104.153
X148.247Y-106.693
X154.597Y-104.153
X148.247Y-49.543
X154.597Y-47.003
X310.197Y-87.63
X316.548Y-85.09
X205.397Y-87.643
X211.747Y-85.103
X262.547Y-87.643
X268.897Y-85.103
X243.497Y-87.643
X249.847Y-85.103
X167.297Y-68.593
X173.647Y-66.053
X91.097Y-68.593
X97.447Y-66.053
X310.172Y-68.593
X316.522Y-66.053
X186.347Y-87.643
X192.697Y-85.103
X148.247Y-68.593
X154.597Y-66.053
X243.497Y-49.543
X249.847Y-47.003
X129.197Y-49.543
X135.547Y-47.003
X72.047Y-49.543
X78.397Y-47.003
X186.347Y-106.693
X192.697Y-104.153
X205.397Y-106.693
X211.747Y-104.153
X110.147Y-87.643
X116.497Y-85.103
X205.397Y-68.593
X211.747Y-66.053
X348.272Y-106.693
X354.622Y-104.153
X310.172Y-49.543
X316.522Y-47.003
X129.197Y-106.693
X135.547Y-104.153
X129.197Y-68.593
X135.547Y-66.053
X291.122Y-87.643
X297.472Y-85.103
X262.547Y-106.693
X268.897Y-104.153
X110.147Y-49.543
X116.497Y-47.003
X91.097Y-106.693
X97.447Y-104.153
X52.997Y-49.543
X59.347Y-47.003
X72.047Y-106.693
X78.397Y-104.153
X72.047Y-68.593
X78.397Y-66.053
X52.997Y-87.643
X59.347Y-85.103
X310.172Y-106.693
X316.522Y-104.153
X224.447Y-49.543
X230.797Y-47.003
X186.347Y-49.543
X192.697Y-47.003
X167.297Y-106.693
X173.647Y-104.153
X291.147Y-106.68
X297.498Y-104.14
X243.497Y-68.593
X249.847Y-66.053
X186.347Y-68.593
X192.697Y-66.053
X291.122Y-49.543
X297.472Y-47.003
X148.247Y-87.643
X154.597Y-85.103
X52.997Y-68.593
X59.347Y-66.053
X110.147Y-106.693
X116.497Y-104.153
X329.222Y-106.693
X335.572Y-104.153
X348.272Y-68.593
X354.622Y-66.053
X224.447Y-87.643
X230.797Y-85.103
X262.547Y-68.593
X268.897Y-66.053
X205.397Y-49.543
X211.747Y-47.003
X348.272Y-49.543
X354.622Y-47.003
X91.097Y-87.643
X97.447Y-85.103
X243.497Y-106.693
X249.847Y-104.153
X129.197Y-87.643
X135.547Y-85.103
X91.097Y-49.543
X97.447Y-47.003
X348.272Y-87.643
X354.622Y-85.103
X224.447Y-68.593
X230.797Y-66.053
X291.122Y-68.593
X297.472Y-66.053
X52.997Y-106.693
X59.347Y-104.153
X329.222Y-87.643
X335.572Y-85.103
X167.297Y-49.543
X173.647Y-47.003
X110.147Y-68.593
X116.497Y-66.053
X329.222Y-68.593
X335.572Y-66.053
X72.047Y-87.643
X78.397Y-85.103
T5
X341.312Y-92.075
X303.212Y-92.075
X341.312Y-53.975
X303.212Y-53.975
X255.587Y-73.025
X217.487Y-92.099
X217.487Y-53.975
X103.188Y-92.075
X103.188Y-53.975
X65.087Y-73.025
T2
G00X79.837Y-34.409
M15
G01X79.837Y-35.009
M16
G05
G00X79.837Y-38.359
M15
G01X79.837Y-39.459
M16
G05
G00X88.438Y-34.409
M15
G01X88.438Y-35.009
M16
G05
G00X88.438Y-38.359
M15
G01X88.438Y-39.459
M16
G05
T0
M30
