M48
METRIC
T1C0.250
T2C0.400
T3C0.600
T4C1.067
T5C1.525
T6C2.200
%
G90
G05
T1
X67.437Y-95.631
X68.029Y-95.401
X68.58Y-95.096
X69.215Y-94.742
X75.057Y-41.148
X75.946Y-72.136
X75.946Y-72.898
X75.946Y-73.787
X75.946Y-74.549
X79.36Y-41.868
X79.756Y-60.198
X80.391Y-61.595
X81.737Y-66.929
X82.408Y-41.868
X82.537Y-66.929
X83.331Y-66.898
X84.131Y-66.898
X84.931Y-66.898
X85.731Y-66.898
X86.091Y-41.868
X87.884Y-61.722
X89.139Y-41.868
X91.837Y-70.525
X93.218Y-40.259
X94.234Y-68.834
X96.203Y-59.753
X96.313Y-60.659
X98.737Y-70.025
X98.737Y-70.825
X98.737Y-71.625
X98.737Y-72.425
X98.737Y-73.225
X103.124Y-74.803
X107.188Y-58.42
X156.972Y-55.245
T2
X76.326Y-77.725
X80.772Y-67.056
X89.019Y-85.225
X92.315Y-75.325
T4
X159.777Y-50.15
X159.777Y-55.23
X159.777Y-60.31
X160.183Y-47.61
X160.183Y-52.69
X160.183Y-57.77
T5
X242.939Y-87.54
X249.289Y-85.0
X90.94Y-106.54
X97.29Y-104.0
X185.94Y-49.54
X192.29Y-47.0
X261.939Y-49.553
X268.289Y-47.013
X242.939Y-68.54
X249.289Y-66.0
X90.94Y-87.54
X97.29Y-85.0
X325.399Y-87.54
X331.749Y-85.0
X147.94Y-106.54
X154.29Y-104.0
X109.94Y-68.54
X116.29Y-66.0
X306.399Y-49.54
X312.749Y-47.0
X166.94Y-87.54
X173.29Y-85.0
X71.94Y-49.54
X78.29Y-47.0
X223.94Y-106.54
X230.29Y-104.0
X306.399Y-106.54
X312.749Y-104.0
X223.94Y-87.54
X230.29Y-85.0
X128.94Y-49.54
X135.29Y-47.0
X223.94Y-68.54
X230.29Y-66.0
X71.94Y-106.54
X78.29Y-104.0
X287.399Y-68.54
X293.749Y-66.0
X306.374Y-87.552
X312.724Y-85.012
X90.94Y-68.54
X97.29Y-66.0
X287.399Y-49.54
X293.749Y-47.0
X166.94Y-49.54
X173.29Y-47.0
X261.939Y-68.54
X268.289Y-66.0
X204.939Y-68.54
X211.289Y-66.0
X147.94Y-87.54
X154.29Y-85.0
X52.94Y-49.54
X59.29Y-47.0
X344.399Y-68.54
X350.749Y-66.0
X204.939Y-106.54
X211.289Y-104.0
X242.939Y-49.54
X249.289Y-47.0
X71.94Y-87.54
X78.29Y-85.0
X287.399Y-106.54
X293.749Y-104.0
X128.94Y-106.54
X135.29Y-104.0
X204.939Y-87.54
X211.289Y-85.0
X109.94Y-49.54
X116.29Y-47.0
X261.939Y-106.54
X268.289Y-104.0
X52.94Y-106.54
X59.29Y-104.0
X185.94Y-68.54
X192.29Y-66.0
X128.94Y-87.54
X135.29Y-85.0
X344.399Y-49.54
X350.749Y-47.0
X223.939Y-49.54
X230.289Y-47.0
X287.399Y-87.54
X293.749Y-85.0
X71.94Y-68.54
X78.29Y-66.0
X147.94Y-49.54
X154.29Y-47.0
X52.94Y-87.54
X59.29Y-85.0
X344.399Y-106.54
X350.749Y-104.0
X325.399Y-68.54
X331.749Y-66.0
X185.94Y-106.54
X192.29Y-104.0
X166.94Y-106.54
X173.29Y-104.0
X261.939Y-87.54
X268.289Y-85.0
X344.399Y-87.54
X350.749Y-85.0
X109.94Y-106.54
X116.29Y-104.0
X204.94Y-49.54
X211.29Y-47.0
X185.94Y-87.54
X192.29Y-85.0
X90.94Y-49.54
X97.29Y-47.0
X166.94Y-68.54
X173.29Y-66.0
X242.939Y-106.54
X249.289Y-104.0
X109.94Y-87.54
X116.29Y-85.0
X325.399Y-49.54
X331.749Y-47.0
X52.94Y-68.54
X59.29Y-66.0
X325.399Y-106.54
X331.749Y-104.0
X147.94Y-68.54
X154.29Y-66.0
X306.399Y-68.54
X312.749Y-66.0
X128.94Y-68.54
X135.29Y-66.0
T6
X254.98Y-91.96
X254.98Y-53.96
X197.98Y-91.96
X197.98Y-53.96
X121.98Y-91.96
X121.98Y-53.96
X64.98Y-91.96
X64.98Y-53.96
X255.005Y-72.985
X217.005Y-91.985
X337.44Y-91.96
X216.98Y-53.96
X299.44Y-91.96
X103.005Y-91.985
X337.44Y-53.96
X102.98Y-53.96
X299.44Y-53.96
X64.98Y-72.96
T3
G00X79.68Y-35.169
M15
G01X79.68Y-35.769
M16
G05
G00X79.68Y-39.119
M15
G01X79.68Y-40.219
M16
G05
G00X88.28Y-35.169
M15
G01X88.28Y-35.769
M16
G05
G00X88.28Y-39.119
M15
G01X88.28Y-40.219
M16
G05
T0
M30
