G04 #@! TF.GenerationSoftware,KiCad,Pcbnew,(5.1.2-1)-1*
G04 #@! TF.CreationDate,2020-01-25T14:32:53-06:00*
G04 #@! TF.ProjectId,therick64BA,74686572-6963-46b3-9634-42412e6b6963,rev?*
G04 #@! TF.SameCoordinates,Original*
G04 #@! TF.FileFunction,Legend,Top*
G04 #@! TF.FilePolarity,Positive*
%FSLAX46Y46*%
G04 Gerber Fmt 4.6, Leading zero omitted, Abs format (unit mm)*
G04 Created by KiCad (PCBNEW (5.1.2-1)-1) date 2020-01-25 14:32:53*
%MOMM*%
%LPD*%
G04 APERTURE LIST*
%ADD10C,0.150000*%
G04 APERTURE END LIST*
D10*
X47871130Y-105741190D02*
X48585416Y-105741190D01*
X48728273Y-105788809D01*
X48823511Y-105884047D01*
X48871130Y-106026904D01*
X48871130Y-106122142D01*
X48871130Y-104788809D02*
X48871130Y-105265000D01*
X47871130Y-105265000D01*
X48775892Y-103884047D02*
X48823511Y-103931666D01*
X48871130Y-104074523D01*
X48871130Y-104169761D01*
X48823511Y-104312619D01*
X48728273Y-104407857D01*
X48633035Y-104455476D01*
X48442559Y-104503095D01*
X48299702Y-104503095D01*
X48109226Y-104455476D01*
X48013988Y-104407857D01*
X47918750Y-104312619D01*
X47871130Y-104169761D01*
X47871130Y-104074523D01*
X47918750Y-103931666D01*
X47966369Y-103884047D01*
X47871130Y-103169761D02*
X48585416Y-103169761D01*
X48728273Y-103217380D01*
X48823511Y-103312619D01*
X48871130Y-103455476D01*
X48871130Y-103550714D01*
X48871130Y-102217380D02*
X48871130Y-102693571D01*
X47871130Y-102693571D01*
X48775892Y-101312619D02*
X48823511Y-101360238D01*
X48871130Y-101503095D01*
X48871130Y-101598333D01*
X48823511Y-101741190D01*
X48728273Y-101836428D01*
X48633035Y-101884047D01*
X48442559Y-101931666D01*
X48299702Y-101931666D01*
X48109226Y-101884047D01*
X48013988Y-101836428D01*
X47918750Y-101741190D01*
X47871130Y-101598333D01*
X47871130Y-101503095D01*
X47918750Y-101360238D01*
X47966369Y-101312619D01*
X47871130Y-100598333D02*
X48585416Y-100598333D01*
X48728273Y-100645952D01*
X48823511Y-100741190D01*
X48871130Y-100884047D01*
X48871130Y-100979285D01*
X48871130Y-99645952D02*
X48871130Y-100122142D01*
X47871130Y-100122142D01*
X48775892Y-98741190D02*
X48823511Y-98788809D01*
X48871130Y-98931666D01*
X48871130Y-99026904D01*
X48823511Y-99169761D01*
X48728273Y-99265000D01*
X48633035Y-99312619D01*
X48442559Y-99360238D01*
X48299702Y-99360238D01*
X48109226Y-99312619D01*
X48013988Y-99265000D01*
X47918750Y-99169761D01*
X47871130Y-99026904D01*
X47871130Y-98931666D01*
X47918750Y-98788809D01*
X47966369Y-98741190D01*
X47871130Y-98026904D02*
X48585416Y-98026904D01*
X48728273Y-98074523D01*
X48823511Y-98169761D01*
X48871130Y-98312619D01*
X48871130Y-98407857D01*
X48871130Y-97074523D02*
X48871130Y-97550714D01*
X47871130Y-97550714D01*
X48775892Y-96169761D02*
X48823511Y-96217380D01*
X48871130Y-96360238D01*
X48871130Y-96455476D01*
X48823511Y-96598333D01*
X48728273Y-96693571D01*
X48633035Y-96741190D01*
X48442559Y-96788809D01*
X48299702Y-96788809D01*
X48109226Y-96741190D01*
X48013988Y-96693571D01*
X47918750Y-96598333D01*
X47871130Y-96455476D01*
X47871130Y-96360238D01*
X47918750Y-96217380D01*
X47966369Y-96169761D01*
M02*
