G04 #@! TF.GenerationSoftware,KiCad,Pcbnew,(5.1.2-1)-1*
G04 #@! TF.CreationDate,2020-02-22T12:22:38-06:00*
G04 #@! TF.ProjectId,therick64BA,74686572-6963-46b3-9634-42412e6b6963,rev?*
G04 #@! TF.SameCoordinates,Original*
G04 #@! TF.FileFunction,Legend,Top*
G04 #@! TF.FilePolarity,Positive*
%FSLAX46Y46*%
G04 Gerber Fmt 4.6, Leading zero omitted, Abs format (unit mm)*
G04 Created by KiCad (PCBNEW (5.1.2-1)-1) date 2020-02-22 12:22:38*
%MOMM*%
%LPD*%
G04 APERTURE LIST*
%ADD10C,0.150000*%
G04 APERTURE END LIST*
D10*
X47839380Y-106566690D02*
X48553666Y-106566690D01*
X48696523Y-106614309D01*
X48791761Y-106709547D01*
X48839380Y-106852404D01*
X48839380Y-106947642D01*
X48839380Y-105614309D02*
X48839380Y-106090500D01*
X47839380Y-106090500D01*
X48744142Y-104709547D02*
X48791761Y-104757166D01*
X48839380Y-104900023D01*
X48839380Y-104995261D01*
X48791761Y-105138119D01*
X48696523Y-105233357D01*
X48601285Y-105280976D01*
X48410809Y-105328595D01*
X48267952Y-105328595D01*
X48077476Y-105280976D01*
X47982238Y-105233357D01*
X47887000Y-105138119D01*
X47839380Y-104995261D01*
X47839380Y-104900023D01*
X47887000Y-104757166D01*
X47934619Y-104709547D01*
X47839380Y-103995261D02*
X48553666Y-103995261D01*
X48696523Y-104042880D01*
X48791761Y-104138119D01*
X48839380Y-104280976D01*
X48839380Y-104376214D01*
X48839380Y-103042880D02*
X48839380Y-103519071D01*
X47839380Y-103519071D01*
X48744142Y-102138119D02*
X48791761Y-102185738D01*
X48839380Y-102328595D01*
X48839380Y-102423833D01*
X48791761Y-102566690D01*
X48696523Y-102661928D01*
X48601285Y-102709547D01*
X48410809Y-102757166D01*
X48267952Y-102757166D01*
X48077476Y-102709547D01*
X47982238Y-102661928D01*
X47887000Y-102566690D01*
X47839380Y-102423833D01*
X47839380Y-102328595D01*
X47887000Y-102185738D01*
X47934619Y-102138119D01*
X47839380Y-101423833D02*
X48553666Y-101423833D01*
X48696523Y-101471452D01*
X48791761Y-101566690D01*
X48839380Y-101709547D01*
X48839380Y-101804785D01*
X48839380Y-100471452D02*
X48839380Y-100947642D01*
X47839380Y-100947642D01*
X48744142Y-99566690D02*
X48791761Y-99614309D01*
X48839380Y-99757166D01*
X48839380Y-99852404D01*
X48791761Y-99995261D01*
X48696523Y-100090500D01*
X48601285Y-100138119D01*
X48410809Y-100185738D01*
X48267952Y-100185738D01*
X48077476Y-100138119D01*
X47982238Y-100090500D01*
X47887000Y-99995261D01*
X47839380Y-99852404D01*
X47839380Y-99757166D01*
X47887000Y-99614309D01*
X47934619Y-99566690D01*
X47839380Y-98852404D02*
X48553666Y-98852404D01*
X48696523Y-98900023D01*
X48791761Y-98995261D01*
X48839380Y-99138119D01*
X48839380Y-99233357D01*
X48839380Y-97900023D02*
X48839380Y-98376214D01*
X47839380Y-98376214D01*
X48744142Y-96995261D02*
X48791761Y-97042880D01*
X48839380Y-97185738D01*
X48839380Y-97280976D01*
X48791761Y-97423833D01*
X48696523Y-97519071D01*
X48601285Y-97566690D01*
X48410809Y-97614309D01*
X48267952Y-97614309D01*
X48077476Y-97566690D01*
X47982238Y-97519071D01*
X47887000Y-97423833D01*
X47839380Y-97280976D01*
X47839380Y-97185738D01*
X47887000Y-97042880D01*
X47934619Y-96995261D01*
M02*
