M48
METRIC
T1C0.650
T2C1.702
T3C3.988
%
G90
G05
T1
X81.248Y-38.358
X87.027Y-38.358
T2
X307.657Y-82.55
X317.817Y-82.55
X202.857Y-82.563
X213.017Y-82.563
X260.007Y-82.563
X270.167Y-82.563
X240.957Y-82.563
X251.117Y-82.563
X164.757Y-63.513
X174.917Y-63.513
X88.557Y-63.513
X98.717Y-63.513
X307.632Y-63.513
X317.792Y-63.513
X183.807Y-82.563
X193.967Y-82.563
X145.707Y-63.513
X155.867Y-63.513
X240.957Y-44.463
X251.117Y-44.463
X126.657Y-44.463
X136.817Y-44.463
X69.507Y-44.463
X79.667Y-44.463
X183.807Y-101.613
X193.967Y-101.613
X202.857Y-101.613
X213.017Y-101.613
X107.607Y-82.563
X117.767Y-82.563
X202.857Y-63.513
X213.017Y-63.513
X345.732Y-101.613
X355.892Y-101.613
X307.632Y-44.463
X317.792Y-44.463
X126.657Y-101.613
X136.817Y-101.613
X126.657Y-63.513
X136.817Y-63.513
X288.582Y-82.563
X298.742Y-82.563
X260.007Y-101.613
X270.167Y-101.613
X107.607Y-44.463
X117.767Y-44.463
X88.557Y-101.613
X98.717Y-101.613
X50.457Y-44.463
X60.617Y-44.463
X69.507Y-101.613
X79.667Y-101.613
X69.507Y-63.513
X79.667Y-63.513
X50.457Y-82.563
X60.617Y-82.563
X307.632Y-101.613
X317.792Y-101.613
X221.907Y-44.463
X232.067Y-44.463
X183.807Y-44.463
X193.967Y-44.463
X164.757Y-101.613
X174.917Y-101.613
X288.607Y-101.6
X298.767Y-101.6
X240.957Y-63.513
X251.117Y-63.513
X183.807Y-63.513
X193.967Y-63.513
X288.582Y-44.463
X298.742Y-44.463
X145.707Y-82.563
X155.867Y-82.563
X50.457Y-63.513
X60.617Y-63.513
X107.607Y-101.613
X117.767Y-101.613
X326.682Y-101.613
X336.842Y-101.613
X345.732Y-63.513
X355.892Y-63.513
X221.907Y-82.563
X232.067Y-82.563
X260.007Y-63.513
X270.167Y-63.513
X202.857Y-44.463
X213.017Y-44.463
X345.732Y-44.463
X355.892Y-44.463
X88.557Y-82.563
X98.717Y-82.563
X240.957Y-101.613
X251.117Y-101.613
X126.657Y-82.563
X136.817Y-82.563
X88.557Y-44.463
X98.717Y-44.463
X345.732Y-82.563
X355.892Y-82.563
X221.907Y-63.513
X232.067Y-63.513
X288.582Y-63.513
X298.742Y-63.513
X50.457Y-101.613
X60.617Y-101.613
X326.682Y-82.563
X336.842Y-82.563
X164.757Y-44.463
X174.917Y-44.463
X107.607Y-63.513
X117.767Y-63.513
X326.682Y-63.513
X336.842Y-63.513
X69.507Y-82.563
X79.667Y-82.563
X164.757Y-82.563
X174.917Y-82.563
X326.682Y-44.463
X336.842Y-44.463
X260.007Y-44.463
X270.167Y-44.463
X221.907Y-101.613
X232.067Y-101.613
X145.707Y-101.613
X155.867Y-101.613
X145.707Y-44.463
X155.867Y-44.463
T3
X350.812Y-63.513
X226.987Y-82.563
X265.087Y-63.513
X207.937Y-44.463
X350.812Y-44.463
X93.637Y-82.563
X246.037Y-101.613
X131.737Y-82.563
X93.637Y-44.463
X350.812Y-82.563
X226.987Y-63.513
X293.662Y-63.513
X55.537Y-101.613
X331.762Y-82.563
X169.837Y-44.463
X112.687Y-63.513
X331.762Y-63.513
X74.587Y-82.563
X169.837Y-82.563
X331.762Y-44.463
X265.087Y-44.463
X226.987Y-101.613
X150.787Y-101.613
X150.787Y-44.463
X312.738Y-82.55
X207.937Y-82.563
X265.087Y-82.563
X246.037Y-82.563
X169.837Y-63.513
X93.637Y-63.513
X312.712Y-63.513
X188.887Y-82.563
X150.787Y-63.513
X246.037Y-44.463
X131.737Y-44.463
X74.587Y-44.463
X188.887Y-101.613
X207.937Y-101.613
X112.687Y-82.563
X207.937Y-63.513
X350.812Y-101.613
X312.712Y-44.463
X131.737Y-101.613
X131.737Y-63.513
X293.662Y-82.563
X265.087Y-101.613
X112.687Y-44.463
X93.637Y-101.613
X55.537Y-44.463
X74.587Y-101.613
X74.587Y-63.513
X55.537Y-82.563
X312.712Y-101.613
X226.987Y-44.463
X188.887Y-44.463
X169.837Y-101.613
X293.688Y-101.6
X246.037Y-63.513
X188.887Y-63.513
X293.662Y-44.463
X150.787Y-82.563
X55.537Y-63.513
X112.687Y-101.613
X331.762Y-101.613
T0
M30
