G04 #@! TF.GenerationSoftware,KiCad,Pcbnew,(5.1.2-1)-1*
G04 #@! TF.CreationDate,2020-05-24T08:11:54-05:00*
G04 #@! TF.ProjectId,therick48.16_bottom_plate,74686572-6963-46b3-9438-2e31365f626f,rev?*
G04 #@! TF.SameCoordinates,Original*
G04 #@! TF.FileFunction,Legend,Top*
G04 #@! TF.FilePolarity,Positive*
%FSLAX46Y46*%
G04 Gerber Fmt 4.6, Leading zero omitted, Abs format (unit mm)*
G04 Created by KiCad (PCBNEW (5.1.2-1)-1) date 2020-05-24 08:11:54*
%MOMM*%
%LPD*%
G04 APERTURE LIST*
%ADD10C,0.150000*%
G04 APERTURE END LIST*
D10*
X48680714Y-61705142D02*
X48680714Y-61324190D01*
X48347380Y-61562285D02*
X49204523Y-61562285D01*
X49299761Y-61514666D01*
X49347380Y-61419428D01*
X49347380Y-61324190D01*
X49347380Y-60990857D02*
X48347380Y-60990857D01*
X49347380Y-60562285D02*
X48823571Y-60562285D01*
X48728333Y-60609904D01*
X48680714Y-60705142D01*
X48680714Y-60848000D01*
X48728333Y-60943238D01*
X48775952Y-60990857D01*
X49299761Y-59705142D02*
X49347380Y-59800380D01*
X49347380Y-59990857D01*
X49299761Y-60086095D01*
X49204523Y-60133714D01*
X48823571Y-60133714D01*
X48728333Y-60086095D01*
X48680714Y-59990857D01*
X48680714Y-59800380D01*
X48728333Y-59705142D01*
X48823571Y-59657523D01*
X48918809Y-59657523D01*
X49014047Y-60133714D01*
X49347380Y-59228952D02*
X48680714Y-59228952D01*
X48871190Y-59228952D02*
X48775952Y-59181333D01*
X48728333Y-59133714D01*
X48680714Y-59038476D01*
X48680714Y-58943238D01*
X49347380Y-58609904D02*
X48680714Y-58609904D01*
X48347380Y-58609904D02*
X48395000Y-58657523D01*
X48442619Y-58609904D01*
X48395000Y-58562285D01*
X48347380Y-58609904D01*
X48442619Y-58609904D01*
X49299761Y-57705142D02*
X49347380Y-57800380D01*
X49347380Y-57990857D01*
X49299761Y-58086095D01*
X49252142Y-58133714D01*
X49156904Y-58181333D01*
X48871190Y-58181333D01*
X48775952Y-58133714D01*
X48728333Y-58086095D01*
X48680714Y-57990857D01*
X48680714Y-57800380D01*
X48728333Y-57705142D01*
X49347380Y-57276571D02*
X48347380Y-57276571D01*
X48966428Y-57181333D02*
X49347380Y-56895619D01*
X48680714Y-56895619D02*
X49061666Y-57276571D01*
X48680714Y-56038476D02*
X49347380Y-56038476D01*
X48299761Y-56276571D02*
X49014047Y-56514666D01*
X49014047Y-55895619D01*
X48775952Y-55371809D02*
X48728333Y-55467047D01*
X48680714Y-55514666D01*
X48585476Y-55562285D01*
X48537857Y-55562285D01*
X48442619Y-55514666D01*
X48395000Y-55467047D01*
X48347380Y-55371809D01*
X48347380Y-55181333D01*
X48395000Y-55086095D01*
X48442619Y-55038476D01*
X48537857Y-54990857D01*
X48585476Y-54990857D01*
X48680714Y-55038476D01*
X48728333Y-55086095D01*
X48775952Y-55181333D01*
X48775952Y-55371809D01*
X48823571Y-55467047D01*
X48871190Y-55514666D01*
X48966428Y-55562285D01*
X49156904Y-55562285D01*
X49252142Y-55514666D01*
X49299761Y-55467047D01*
X49347380Y-55371809D01*
X49347380Y-55181333D01*
X49299761Y-55086095D01*
X49252142Y-55038476D01*
X49156904Y-54990857D01*
X48966428Y-54990857D01*
X48871190Y-55038476D01*
X48823571Y-55086095D01*
X48775952Y-55181333D01*
X49252142Y-54562285D02*
X49299761Y-54514666D01*
X49347380Y-54562285D01*
X49299761Y-54609904D01*
X49252142Y-54562285D01*
X49347380Y-54562285D01*
X49347380Y-53562285D02*
X49347380Y-54133714D01*
X49347380Y-53848000D02*
X48347380Y-53848000D01*
X48490238Y-53943238D01*
X48585476Y-54038476D01*
X48633095Y-54133714D01*
X48347380Y-52705142D02*
X48347380Y-52895619D01*
X48395000Y-52990857D01*
X48442619Y-53038476D01*
X48585476Y-53133714D01*
X48775952Y-53181333D01*
X49156904Y-53181333D01*
X49252142Y-53133714D01*
X49299761Y-53086095D01*
X49347380Y-52990857D01*
X49347380Y-52800380D01*
X49299761Y-52705142D01*
X49252142Y-52657523D01*
X49156904Y-52609904D01*
X48918809Y-52609904D01*
X48823571Y-52657523D01*
X48775952Y-52705142D01*
X48728333Y-52800380D01*
X48728333Y-52990857D01*
X48775952Y-53086095D01*
X48823571Y-53133714D01*
X48918809Y-53181333D01*
X49347380Y-50848000D02*
X48871190Y-51181333D01*
X49347380Y-51419428D02*
X48347380Y-51419428D01*
X48347380Y-51038476D01*
X48395000Y-50943238D01*
X48442619Y-50895619D01*
X48537857Y-50848000D01*
X48680714Y-50848000D01*
X48775952Y-50895619D01*
X48823571Y-50943238D01*
X48871190Y-51038476D01*
X48871190Y-51419428D01*
X49299761Y-50038476D02*
X49347380Y-50133714D01*
X49347380Y-50324190D01*
X49299761Y-50419428D01*
X49204523Y-50467047D01*
X48823571Y-50467047D01*
X48728333Y-50419428D01*
X48680714Y-50324190D01*
X48680714Y-50133714D01*
X48728333Y-50038476D01*
X48823571Y-49990857D01*
X48918809Y-49990857D01*
X49014047Y-50467047D01*
X48680714Y-49657523D02*
X49347380Y-49419428D01*
X48680714Y-49181333D01*
X49347380Y-47514666D02*
X49347380Y-48086095D01*
X49347380Y-47800380D02*
X48347380Y-47800380D01*
X48490238Y-47895619D01*
X48585476Y-47990857D01*
X48633095Y-48086095D01*
X49252142Y-47086095D02*
X49299761Y-47038476D01*
X49347380Y-47086095D01*
X49299761Y-47133714D01*
X49252142Y-47086095D01*
X49347380Y-47086095D01*
X48347380Y-46419428D02*
X48347380Y-46324190D01*
X48395000Y-46228952D01*
X48442619Y-46181333D01*
X48537857Y-46133714D01*
X48728333Y-46086095D01*
X48966428Y-46086095D01*
X49156904Y-46133714D01*
X49252142Y-46181333D01*
X49299761Y-46228952D01*
X49347380Y-46324190D01*
X49347380Y-46419428D01*
X49299761Y-46514666D01*
X49252142Y-46562285D01*
X49156904Y-46609904D01*
X48966428Y-46657523D01*
X48728333Y-46657523D01*
X48537857Y-46609904D01*
X48442619Y-46562285D01*
X48395000Y-46514666D01*
X48347380Y-46419428D01*
X48220380Y-96567047D02*
X48934666Y-96567047D01*
X49077523Y-96614666D01*
X49172761Y-96709904D01*
X49220380Y-96852761D01*
X49220380Y-96948000D01*
X49220380Y-95614666D02*
X49220380Y-96090857D01*
X48220380Y-96090857D01*
X49125142Y-94709904D02*
X49172761Y-94757523D01*
X49220380Y-94900380D01*
X49220380Y-94995619D01*
X49172761Y-95138476D01*
X49077523Y-95233714D01*
X48982285Y-95281333D01*
X48791809Y-95328952D01*
X48648952Y-95328952D01*
X48458476Y-95281333D01*
X48363238Y-95233714D01*
X48268000Y-95138476D01*
X48220380Y-94995619D01*
X48220380Y-94900380D01*
X48268000Y-94757523D01*
X48315619Y-94709904D01*
X48220380Y-93995619D02*
X48934666Y-93995619D01*
X49077523Y-94043238D01*
X49172761Y-94138476D01*
X49220380Y-94281333D01*
X49220380Y-94376571D01*
X49220380Y-93043238D02*
X49220380Y-93519428D01*
X48220380Y-93519428D01*
X49125142Y-92138476D02*
X49172761Y-92186095D01*
X49220380Y-92328952D01*
X49220380Y-92424190D01*
X49172761Y-92567047D01*
X49077523Y-92662285D01*
X48982285Y-92709904D01*
X48791809Y-92757523D01*
X48648952Y-92757523D01*
X48458476Y-92709904D01*
X48363238Y-92662285D01*
X48268000Y-92567047D01*
X48220380Y-92424190D01*
X48220380Y-92328952D01*
X48268000Y-92186095D01*
X48315619Y-92138476D01*
X48220380Y-91424190D02*
X48934666Y-91424190D01*
X49077523Y-91471809D01*
X49172761Y-91567047D01*
X49220380Y-91709904D01*
X49220380Y-91805142D01*
X49220380Y-90471809D02*
X49220380Y-90948000D01*
X48220380Y-90948000D01*
X49125142Y-89567047D02*
X49172761Y-89614666D01*
X49220380Y-89757523D01*
X49220380Y-89852761D01*
X49172761Y-89995619D01*
X49077523Y-90090857D01*
X48982285Y-90138476D01*
X48791809Y-90186095D01*
X48648952Y-90186095D01*
X48458476Y-90138476D01*
X48363238Y-90090857D01*
X48268000Y-89995619D01*
X48220380Y-89852761D01*
X48220380Y-89757523D01*
X48268000Y-89614666D01*
X48315619Y-89567047D01*
X48220380Y-88852761D02*
X48934666Y-88852761D01*
X49077523Y-88900380D01*
X49172761Y-88995619D01*
X49220380Y-89138476D01*
X49220380Y-89233714D01*
X49220380Y-87900380D02*
X49220380Y-88376571D01*
X48220380Y-88376571D01*
X49125142Y-86995619D02*
X49172761Y-87043238D01*
X49220380Y-87186095D01*
X49220380Y-87281333D01*
X49172761Y-87424190D01*
X49077523Y-87519428D01*
X48982285Y-87567047D01*
X48791809Y-87614666D01*
X48648952Y-87614666D01*
X48458476Y-87567047D01*
X48363238Y-87519428D01*
X48268000Y-87424190D01*
X48220380Y-87281333D01*
X48220380Y-87186095D01*
X48268000Y-87043238D01*
X48315619Y-86995619D01*
M02*
